solid knob2
facet normal -0.923879532511287 -0.38268343236509 0.0
  outer loop
    vertex -6.76148078402348 -1.81173331571764 14.0
    vertex -6.06217782649107 -3.5 0.0
    vertex -6.06217782649107 -3.5 14.0
  endloop
endfacet
facet normal -0.923879532511287 -0.38268343236509 0.0
  outer loop
    vertex -6.06217782649107 -3.5 0.0
    vertex -6.76148078402348 -1.81173331571764 14.0
    vertex -6.76148078402348 -1.81173331571764 0.0
  endloop
endfacet
facet normal -0.99144486137381 -0.130526192220051 0.0
  outer loop
    vertex -7.0 8.57252759403147e-016 14.0
    vertex -6.76148078402348 -1.81173331571764 0.0
    vertex -6.76148078402348 -1.81173331571764 14.0
  endloop
endfacet
facet normal -0.99144486137381 -0.130526192220051 0.0
  outer loop
    vertex -6.76148078402348 -1.81173331571764 0.0
    vertex -7.0 8.57252759403147e-016 14.0
    vertex -7.0 8.57252759403147e-016 0.0
  endloop
endfacet
facet normal -0.99144486137381 0.130526192220052 0.0
  outer loop
    vertex -6.76148078402348 1.81173331571765 14.0
    vertex -7.0 8.57252759403147e-016 0.0
    vertex -7.0 8.57252759403147e-016 14.0
  endloop
endfacet
facet normal -0.99144486137381 0.130526192220052 0.0
  outer loop
    vertex -7.0 8.57252759403147e-016 0.0
    vertex -6.76148078402348 1.81173331571765 14.0
    vertex -6.76148078402348 1.81173331571765 0.0
  endloop
endfacet
facet normal -0.923879532511287 0.38268343236509 0.0
  outer loop
    vertex -6.06217782649107 3.5 14.0
    vertex -6.76148078402348 1.81173331571765 0.0
    vertex -6.76148078402348 1.81173331571765 14.0
  endloop
endfacet
facet normal -0.923879532511287 0.38268343236509 0.0
  outer loop
    vertex -6.76148078402348 1.81173331571765 0.0
    vertex -6.06217782649107 3.5 14.0
    vertex -6.06217782649107 3.5 0.0
  endloop
endfacet
facet normal -0.793353340291235 0.608761429008721 0.0
  outer loop
    vertex -4.94974746830583 4.94974746830583 14.0
    vertex -6.06217782649107 3.5 0.0
    vertex -6.06217782649107 3.5 14.0
  endloop
endfacet
facet normal -0.793353340291235 0.608761429008721 0.0
  outer loop
    vertex -6.06217782649107 3.5 0.0
    vertex -4.94974746830583 4.94974746830583 14.0
    vertex -4.94974746830583 4.94974746830583 0.0
  endloop
endfacet
facet normal -0.60876142900872 0.793353340291236 0.0
  outer loop
    vertex -4.94974746830583 4.94974746830583 14.0
    vertex -3.5 6.06217782649107 0.0
    vertex -4.94974746830583 4.94974746830583 0.0
  endloop
endfacet
facet normal -0.60876142900872 0.793353340291236 0.0
  outer loop
    vertex -3.5 6.06217782649107 0.0
    vertex -4.94974746830583 4.94974746830583 14.0
    vertex -3.5 6.06217782649107 14.0
  endloop
endfacet
facet normal -0.38268343236509 0.923879532511287 0.0
  outer loop
    vertex -3.5 6.06217782649107 14.0
    vertex -1.81173331571764 6.76148078402348 0.0
    vertex -3.5 6.06217782649107 0.0
  endloop
endfacet
facet normal -0.38268343236509 0.923879532511287 0.0
  outer loop
    vertex -1.81173331571764 6.76148078402348 0.0
    vertex -3.5 6.06217782649107 14.0
    vertex -1.81173331571764 6.76148078402348 14.0
  endloop
endfacet
facet normal -0.130526192220052 0.99144486137381 0.0
  outer loop
    vertex -1.81173331571764 6.76148078402348 14.0
    vertex 4.28626379701574e-016 7.0 0.0
    vertex -1.81173331571764 6.76148078402348 0.0
  endloop
endfacet
facet normal -0.130526192220052 0.99144486137381 0.0
  outer loop
    vertex 4.28626379701574e-016 7.0 0.0
    vertex -1.81173331571764 6.76148078402348 14.0
    vertex 4.28626379701574e-016 7.0 14.0
  endloop
endfacet
facet normal 0.130526192220052 0.99144486137381 0.0
  outer loop
    vertex 4.28626379701574e-016 7.0 14.0
    vertex 1.81173331571765 6.76148078402348 0.0
    vertex 4.28626379701574e-016 7.0 0.0
  endloop
endfacet
facet normal 0.130526192220052 0.99144486137381 0.0
  outer loop
    vertex 1.81173331571765 6.76148078402348 0.0
    vertex 4.28626379701574e-016 7.0 14.0
    vertex 1.81173331571765 6.76148078402348 14.0
  endloop
endfacet
facet normal 0.38268343236509 0.923879532511287 0.0
  outer loop
    vertex 1.81173331571765 6.76148078402348 14.0
    vertex 3.5 6.06217782649107 0.0
    vertex 1.81173331571765 6.76148078402348 0.0
  endloop
endfacet
facet normal 0.38268343236509 0.923879532511287 0.0
  outer loop
    vertex 3.5 6.06217782649107 0.0
    vertex 1.81173331571765 6.76148078402348 14.0
    vertex 3.5 6.06217782649107 14.0
  endloop
endfacet
facet normal 0.608761429008721 0.793353340291235 0.0
  outer loop
    vertex 3.5 6.06217782649107 14.0
    vertex 4.94974746830583 4.94974746830583 0.0
    vertex 3.5 6.06217782649107 0.0
  endloop
endfacet
facet normal 0.608761429008721 0.793353340291235 0.0
  outer loop
    vertex 4.94974746830583 4.94974746830583 0.0
    vertex 3.5 6.06217782649107 14.0
    vertex 4.94974746830583 4.94974746830583 14.0
  endloop
endfacet
facet normal 0.793353340291235 0.60876142900872 0.0
  outer loop
    vertex 4.94974746830583 4.94974746830583 0.0
    vertex 6.06217782649107 3.5 14.0
    vertex 6.06217782649107 3.5 0.0
  endloop
endfacet
facet normal 0.793353340291235 0.60876142900872 0.0
  outer loop
    vertex 6.06217782649107 3.5 14.0
    vertex 4.94974746830583 4.94974746830583 0.0
    vertex 4.94974746830583 4.94974746830583 14.0
  endloop
endfacet
facet normal 0.923879532511287 0.38268343236509 0.0
  outer loop
    vertex 6.06217782649107 3.5 0.0
    vertex 6.76148078402348 1.81173331571765 14.0
    vertex 6.76148078402348 1.81173331571765 0.0
  endloop
endfacet
facet normal 0.923879532511287 0.38268343236509 0.0
  outer loop
    vertex 6.76148078402348 1.81173331571765 14.0
    vertex 6.06217782649107 3.5 0.0
    vertex 6.06217782649107 3.5 14.0
  endloop
endfacet
facet normal 0.99144486137381 0.130526192220052 0.0
  outer loop
    vertex 6.76148078402348 1.81173331571765 0.0
    vertex 7.0 0.0 14.0
    vertex 7.0 0.0 0.0
  endloop
endfacet
facet normal 0.99144486137381 0.130526192220052 0.0
  outer loop
    vertex 7.0 0.0 14.0
    vertex 6.76148078402348 1.81173331571765 0.0
    vertex 6.76148078402348 1.81173331571765 14.0
  endloop
endfacet
facet normal 0.99144486137381 -0.130526192220052 0.0
  outer loop
    vertex 7.0 0.0 0.0
    vertex 6.76148078402348 -1.81173331571765 14.0
    vertex 6.76148078402348 -1.81173331571765 0.0
  endloop
endfacet
facet normal 0.99144486137381 -0.130526192220052 0.0
  outer loop
    vertex 6.76148078402348 -1.81173331571765 14.0
    vertex 7.0 0.0 0.0
    vertex 7.0 0.0 14.0
  endloop
endfacet
facet normal 0.923879532511287 -0.38268343236509 0.0
  outer loop
    vertex 6.76148078402348 -1.81173331571765 0.0
    vertex 6.06217782649107 -3.5 14.0
    vertex 6.06217782649107 -3.5 0.0
  endloop
endfacet
facet normal 0.923879532511287 -0.38268343236509 0.0
  outer loop
    vertex 6.06217782649107 -3.5 14.0
    vertex 6.76148078402348 -1.81173331571765 0.0
    vertex 6.76148078402348 -1.81173331571765 14.0
  endloop
endfacet
facet normal 0.793353340291235 -0.608761429008721 0.0
  outer loop
    vertex 6.06217782649107 -3.5 0.0
    vertex 4.94974746830583 -4.94974746830583 14.0
    vertex 4.94974746830583 -4.94974746830583 0.0
  endloop
endfacet
facet normal 0.793353340291235 -0.608761429008721 0.0
  outer loop
    vertex 4.94974746830583 -4.94974746830583 14.0
    vertex 6.06217782649107 -3.5 0.0
    vertex 6.06217782649107 -3.5 14.0
  endloop
endfacet
facet normal 0.60876142900872 -0.793353340291236 0.0
  outer loop
    vertex 4.94974746830583 -4.94974746830583 14.0
    vertex 3.5 -6.06217782649107 0.0
    vertex 4.94974746830583 -4.94974746830583 0.0
  endloop
endfacet
facet normal 0.60876142900872 -0.793353340291236 0.0
  outer loop
    vertex 3.5 -6.06217782649107 0.0
    vertex 4.94974746830583 -4.94974746830583 14.0
    vertex 3.5 -6.06217782649107 14.0
  endloop
endfacet
facet normal 0.382683432365089 -0.923879532511287 0.0
  outer loop
    vertex 3.5 -6.06217782649107 14.0
    vertex 1.81173331571764 -6.76148078402348 0.0
    vertex 3.5 -6.06217782649107 0.0
  endloop
endfacet
facet normal 0.382683432365089 -0.923879532511287 0.0
  outer loop
    vertex 1.81173331571764 -6.76148078402348 0.0
    vertex 3.5 -6.06217782649107 14.0
    vertex 1.81173331571764 -6.76148078402348 14.0
  endloop
endfacet
facet normal 0.130526192220051 -0.991444861373811 0.0
  outer loop
    vertex 1.81173331571764 -6.76148078402348 14.0
    vertex -1.28587913910472e-015 -7.0 0.0
    vertex 1.81173331571764 -6.76148078402348 0.0
  endloop
endfacet
facet normal 0.130526192220051 -0.991444861373811 0.0
  outer loop
    vertex -1.28587913910472e-015 -7.0 0.0
    vertex 1.81173331571764 -6.76148078402348 14.0
    vertex -1.28587913910472e-015 -7.0 14.0
  endloop
endfacet
facet normal -0.130526192220052 -0.99144486137381 0.0
  outer loop
    vertex -1.28587913910472e-015 -7.0 14.0
    vertex -1.81173331571765 -6.76148078402348 0.0
    vertex -1.28587913910472e-015 -7.0 0.0
  endloop
endfacet
facet normal -0.130526192220052 -0.99144486137381 0.0
  outer loop
    vertex -1.81173331571765 -6.76148078402348 0.0
    vertex -1.28587913910472e-015 -7.0 14.0
    vertex -1.81173331571765 -6.76148078402348 14.0
  endloop
endfacet
facet normal -0.38268343236509 -0.923879532511287 0.0
  outer loop
    vertex -1.81173331571765 -6.76148078402348 14.0
    vertex -3.5 -6.06217782649107 0.0
    vertex -1.81173331571765 -6.76148078402348 0.0
  endloop
endfacet
facet normal -0.38268343236509 -0.923879532511287 0.0
  outer loop
    vertex -3.5 -6.06217782649107 0.0
    vertex -1.81173331571765 -6.76148078402348 14.0
    vertex -3.5 -6.06217782649107 14.0
  endloop
endfacet
facet normal -0.608761429008721 -0.793353340291235 0.0
  outer loop
    vertex -3.5 -6.06217782649107 14.0
    vertex -4.94974746830584 -4.94974746830583 0.0
    vertex -3.5 -6.06217782649107 0.0
  endloop
endfacet
facet normal -0.608761429008721 -0.793353340291235 0.0
  outer loop
    vertex -4.94974746830584 -4.94974746830583 0.0
    vertex -3.5 -6.06217782649107 14.0
    vertex -4.94974746830584 -4.94974746830583 14.0
  endloop
endfacet
facet normal -0.793353340291235 -0.60876142900872 0.0
  outer loop
    vertex -6.06217782649107 -3.5 14.0
    vertex -4.94974746830584 -4.94974746830583 0.0
    vertex -4.94974746830584 -4.94974746830583 14.0
  endloop
endfacet
facet normal -0.793353340291235 -0.60876142900872 0.0
  outer loop
    vertex -4.94974746830584 -4.94974746830583 0.0
    vertex -6.06217782649107 -3.5 14.0
    vertex -6.06217782649107 -3.5 0.0
  endloop
endfacet
facet normal 1.0 -5.89133484008399e-017 -7.04991620636974e-017
  outer loop
    vertex 2.575 2.9916463746055 0.999999999999999
    vertex 2.575 -2.9916463746055 11.0
    vertex 2.575 -2.9916463746055 0.999999999999999
  endloop
endfacet
facet normal 1.0 -5.89133484008399e-017 -7.04991620636974e-017
  outer loop
    vertex 2.575 -2.9916463746055 11.0
    vertex 2.575 2.9916463746055 0.999999999999999
    vertex 2.575 2.9916463746055 11.0
  endloop
endfacet
facet normal 0.382683432365089 0.923879532511287 -2.5697365404822e-017
  outer loop
    vertex 1.02880570428252 3.83955515949905 11.0
    vertex 1.9875 3.44245098004315 1.0
    vertex 1.02880570428252 3.83955515949905 1.0
  endloop
endfacet
facet normal 0.382683432365089 0.923879532511287 -2.5697365404822e-017
  outer loop
    vertex 1.9875 3.44245098004315 1.0
    vertex 1.02880570428252 3.83955515949905 11.0
    vertex 1.9875 3.44245098004315 11.0
  endloop
endfacet
facet normal 0.130526192220052 0.99144486137381 -9.4953005202055e-018
  outer loop
    vertex 3.31917998143072e-017 3.975 11.0
    vertex 1.02880570428252 3.83955515949905 1.0
    vertex -7.30195653991609e-016 3.975 1.0
  endloop
endfacet
facet normal 0.130526192220052 0.99144486137381 -9.4953005202055e-018
  outer loop
    vertex 1.02880570428252 3.83955515949905 1.0
    vertex 3.31917998143072e-017 3.975 11.0
    vertex 1.02880570428252 3.83955515949905 11.0
  endloop
endfacet
facet normal -0.382683432365091 0.923879532511287 2.78388125218906e-017
  outer loop
    vertex -1.9875 3.44245098004314 11.0
    vertex -1.02880570428252 3.83955515949905 1.0
    vertex -1.9875 3.44245098004314 1.0
  endloop
endfacet
facet normal -0.382683432365091 0.923879532511287 2.78388125218906e-017
  outer loop
    vertex -1.02880570428252 3.83955515949905 1.0
    vertex -1.9875 3.44245098004314 11.0
    vertex -1.02880570428252 3.83955515949905 11.0
  endloop
endfacet
facet normal -0.608761429008721 0.793353340291235 4.42851554560217e-017
  outer loop
    vertex -2.81074945521653 2.81074945521652 11.0
    vertex -1.9875 3.44245098004314 1.0
    vertex -2.81074945521653 2.81074945521652 1.0
  endloop
endfacet
facet normal -0.608761429008721 0.793353340291235 4.42851554560217e-017
  outer loop
    vertex -1.9875 3.44245098004314 1.0
    vertex -2.81074945521653 2.81074945521652 11.0
    vertex -1.9875 3.44245098004314 11.0
  endloop
endfacet
facet normal -0.923879532511287 0.382683432365089 6.4845637523893e-017
  outer loop
    vertex -3.44245098004314 1.9875 11.0
    vertex -3.83955515949905 1.02880570428252 1.0
    vertex -3.83955515949905 1.02880570428252 11.0
  endloop
endfacet
facet normal -0.923879532511287 0.382683432365089 6.4845637523893e-017
  outer loop
    vertex -3.83955515949905 1.02880570428252 1.0
    vertex -3.44245098004314 1.9875 11.0
    vertex -3.44245098004314 1.9875 1.0
  endloop
endfacet
facet normal -0.99144486137381 0.130526192220051 7.56856568313113e-017
  outer loop
    vertex -3.975 -4.86797102661073e-016 11.0
    vertex -3.83955515949905 1.02880570428252 1.0
    vertex -3.975 -4.86797102661073e-016 1.0
  endloop
endfacet
facet normal -0.99144486137381 0.130526192220051 7.56856568313113e-017
  outer loop
    vertex -3.83955515949905 1.02880570428252 1.0
    vertex -3.975 -4.86797102661073e-016 11.0
    vertex -3.83955515949905 1.02880570428252 11.0
  endloop
endfacet
facet normal -0.99144486137381 -0.130526192220052 7.56856568313113e-017
  outer loop
    vertex -3.975 -4.86797102661073e-016 11.0
    vertex -3.83955515949905 -1.02880570428252 1.0
    vertex -3.83955515949904 -1.02880570428252 11.0
  endloop
endfacet
facet normal -0.99144486137381 -0.130526192220052 7.56856568313113e-017
  outer loop
    vertex -3.83955515949905 -1.02880570428252 1.0
    vertex -3.975 -4.86797102661073e-016 11.0
    vertex -3.975 -4.86797102661073e-016 1.0
  endloop
endfacet
facet normal -0.923879532511287 -0.38268343236509 6.4845637523893e-017
  outer loop
    vertex -3.83955515949904 -1.02880570428252 11.0
    vertex -3.44245098004314 -1.9875 1.0
    vertex -3.44245098004314 -1.9875 11.0
  endloop
endfacet
facet normal -0.923879532511287 -0.38268343236509 6.4845637523893e-017
  outer loop
    vertex -3.44245098004314 -1.9875 1.0
    vertex -3.83955515949904 -1.02880570428252 11.0
    vertex -3.83955515949905 -1.02880570428252 1.0
  endloop
endfacet
facet normal -0.60876142900872 -0.793353340291236 4.08786050363277e-017
  outer loop
    vertex -1.9875 -3.44245098004314 11.0
    vertex -2.81074945521653 -2.81074945521653 1.0
    vertex -1.9875 -3.44245098004314 1.0
  endloop
endfacet
facet normal -0.60876142900872 -0.793353340291236 4.08786050363277e-017
  outer loop
    vertex -2.81074945521653 -2.81074945521653 1.0
    vertex -1.9875 -3.44245098004314 11.0
    vertex -2.81074945521653 -2.81074945521653 11.0
  endloop
endfacet
facet normal -0.38268343236509 -0.923879532511287 2.5697365404822e-017
  outer loop
    vertex -1.02880570428252 -3.83955515949905 11.0
    vertex -1.9875 -3.44245098004314 1.0
    vertex -1.02880570428252 -3.83955515949905 1.0
  endloop
endfacet
facet normal -0.38268343236509 -0.923879532511287 2.5697365404822e-017
  outer loop
    vertex -1.9875 -3.44245098004314 1.0
    vertex -1.02880570428252 -3.83955515949905 11.0
    vertex -1.9875 -3.44245098004314 11.0
  endloop
endfacet
facet normal 0.130526192220052 -0.99144486137381 -9.49530052020552e-018
  outer loop
    vertex 1.02880570428252 -3.83955515949905 11.0
    vertex 2.43398551330536e-016 -3.975 1.0
    vertex 1.02880570428252 -3.83955515949905 1.0
  endloop
endfacet
facet normal 0.130526192220052 -0.99144486137381 -9.49530052020552e-018
  outer loop
    vertex 2.43398551330536e-016 -3.975 1.0
    vertex 1.02880570428252 -3.83955515949905 11.0
    vertex 1.00678600513645e-015 -3.975 11.0
  endloop
endfacet
facet normal 0.38268343236509 -0.923879532511287 -2.5697365404822e-017
  outer loop
    vertex 1.9875 -3.44245098004314 11.0
    vertex 1.02880570428252 -3.83955515949905 1.0
    vertex 1.9875 -3.44245098004314 1.0
  endloop
endfacet
facet normal 0.38268343236509 -0.923879532511287 -2.5697365404822e-017
  outer loop
    vertex 1.02880570428252 -3.83955515949905 1.0
    vertex 1.9875 -3.44245098004314 11.0
    vertex 1.02880570428252 -3.83955515949905 11.0
  endloop
endfacet
facet normal -0.60876142900872 -0.793353340291235 4.64720837266218e-017
  outer loop
    vertex 1.575 2.50928446481055 11.0
    vertex 1.4875 2.57642557625871 1.0
    vertex 1.575 2.50928446481055 0.999999999999999
  endloop
endfacet
facet normal -0.60876142900872 -0.793353340291235 4.64720837266218e-017
  outer loop
    vertex 1.4875 2.57642557625871 1.0
    vertex 1.575 2.50928446481055 11.0
    vertex 1.4875 2.57642557625871 11.0
  endloop
endfacet
facet normal -1.0 0.0 7.63387453805917e-017
  outer loop
    vertex 1.575 2.50928446481055 11.0
    vertex 1.575 -2.50928446481055 0.999999999999999
    vertex 1.575 -2.50928446481055 11.0
  endloop
endfacet
facet normal -1.0 0.0 7.63387453805917e-017
  outer loop
    vertex 1.575 -2.50928446481055 0.999999999999999
    vertex 1.575 2.50928446481055 11.0
    vertex 1.575 2.50928446481055 0.999999999999999
  endloop
endfacet
facet normal -0.608761429008718 0.793353340291237 4.64720837266217e-017
  outer loop
    vertex 1.4875 -2.57642557625871 1.0
    vertex 1.575 -2.50928446481055 11.0
    vertex 1.575 -2.50928446481055 0.999999999999999
  endloop
endfacet
facet normal -0.608761429008718 0.793353340291237 4.64720837266217e-017
  outer loop
    vertex 1.575 -2.50928446481055 11.0
    vertex 1.4875 -2.57642557625871 1.0
    vertex 1.4875 -2.57642557625871 11.0
  endloop
endfacet
facet normal -0.38268343236509 0.923879532511287 2.92135731046894e-017
  outer loop
    vertex 0.769986659180001 -2.87362933320998 11.0
    vertex 1.4875 -2.57642557625871 1.0
    vertex 0.76998665918 -2.87362933320998 1.0
  endloop
endfacet
facet normal -0.38268343236509 0.923879532511287 2.92135731046894e-017
  outer loop
    vertex 1.4875 -2.57642557625871 1.0
    vertex 0.769986659180001 -2.87362933320998 11.0
    vertex 1.4875 -2.57642557625871 11.0
  endloop
endfacet
facet normal -0.130526192220052 0.99144486137381 9.86050438636728e-018
  outer loop
    vertex 9.45553665179085e-016 -2.975 11.0
    vertex 0.76998665918 -2.87362933320998 1.0
    vertex 1.82166211373169e-016 -2.975 1.0
  endloop
endfacet
facet normal -0.130526192220052 0.99144486137381 9.86050438636728e-018
  outer loop
    vertex 0.76998665918 -2.87362933320998 1.0
    vertex 9.45553665179085e-016 -2.975 11.0
    vertex 0.769986659180001 -2.87362933320998 11.0
  endloop
endfacet
facet normal 0.38268343236509 0.923879532511287 -2.78388125218905e-017
  outer loop
    vertex -1.4875 -2.57642557625871 11.0
    vertex -0.769986659179999 -2.87362933320998 1.0
    vertex -1.4875 -2.57642557625871 1.0
  endloop
endfacet
facet normal 0.38268343236509 0.923879532511287 -2.78388125218905e-017
  outer loop
    vertex -0.769986659179999 -2.87362933320998 1.0
    vertex -1.4875 -2.57642557625871 11.0
    vertex -0.769986659179998 -2.87362933320998 11.0
  endloop
endfacet
facet normal 0.60876142900872 0.793353340291236 -4.64720837266218e-017
  outer loop
    vertex -2.10364267402998 -2.10364267402998 11.0
    vertex -1.4875 -2.57642557625871 1.0
    vertex -2.10364267402998 -2.10364267402998 1.0
  endloop
endfacet
facet normal 0.60876142900872 0.793353340291236 -4.64720837266218e-017
  outer loop
    vertex -1.4875 -2.57642557625871 1.0
    vertex -2.10364267402998 -2.10364267402998 11.0
    vertex -1.4875 -2.57642557625871 11.0
  endloop
endfacet
facet normal 0.793353340291235 0.608761429008721 -6.05635986413345e-017
  outer loop
    vertex -2.5764255762587 -1.4875 1.0
    vertex -2.10364267402998 -2.10364267402998 11.0
    vertex -2.10364267402998 -2.10364267402998 1.0
  endloop
endfacet
facet normal 0.793353340291235 0.608761429008721 -6.05635986413345e-017
  outer loop
    vertex -2.10364267402998 -2.10364267402998 11.0
    vertex -2.5764255762587 -1.4875 1.0
    vertex -2.5764255762587 -1.4875 11.0
  endloop
endfacet
facet normal 0.923879532511287 0.38268343236509 -7.05278043947192e-017
  outer loop
    vertex -2.87362933320998 -0.76998665918 1.0
    vertex -2.5764255762587 -1.4875 11.0
    vertex -2.5764255762587 -1.4875 1.0
  endloop
endfacet
facet normal 0.923879532511287 0.38268343236509 -7.05278043947192e-017
  outer loop
    vertex -2.5764255762587 -1.4875 11.0
    vertex -2.87362933320998 -0.76998665918 1.0
    vertex -2.87362933320998 -0.76998665918 11.0
  endloop
endfacet
facet normal 0.99144486137381 0.130526192220052 -7.56856568313113e-017
  outer loop
    vertex -2.975 -3.64332422746338e-016 1.0
    vertex -2.87362933320998 -0.76998665918 11.0
    vertex -2.87362933320998 -0.76998665918 1.0
  endloop
endfacet
facet normal 0.99144486137381 0.130526192220052 -7.56856568313113e-017
  outer loop
    vertex -2.87362933320998 -0.76998665918 11.0
    vertex -2.975 -3.64332422746338e-016 1.0
    vertex -2.975 -3.64332422746338e-016 11.0
  endloop
endfacet
facet normal 0.99144486137381 -0.130526192220051 -7.56856568313113e-017
  outer loop
    vertex -2.87362933320998 0.769986659179998 1.0
    vertex -2.975 -3.64332422746338e-016 11.0
    vertex -2.975 -3.64332422746338e-016 1.0
  endloop
endfacet
facet normal 0.99144486137381 -0.130526192220051 -7.56856568313113e-017
  outer loop
    vertex -2.975 -3.64332422746338e-016 11.0
    vertex -2.87362933320998 0.769986659179998 1.0
    vertex -2.87362933320998 0.769986659179998 11.0
  endloop
endfacet
facet normal 0.923879532511287 -0.382683432365089 -7.05278043947192e-017
  outer loop
    vertex -2.57642557625871 1.4875 1.0
    vertex -2.87362933320998 0.769986659179998 11.0
    vertex -2.87362933320998 0.769986659179998 1.0
  endloop
endfacet
facet normal 0.923879532511287 -0.382683432365089 -7.05278043947192e-017
  outer loop
    vertex -2.87362933320998 0.769986659179998 11.0
    vertex -2.57642557625871 1.4875 1.0
    vertex -2.57642557625871 1.4875 11.0
  endloop
endfacet
facet normal 0.793353340291235 -0.60876142900872 -6.05635986413345e-017
  outer loop
    vertex -2.10364267402998 2.10364267402998 1.0
    vertex -2.57642557625871 1.4875 11.0
    vertex -2.57642557625871 1.4875 1.0
  endloop
endfacet
facet normal 0.793353340291235 -0.60876142900872 -6.05635986413345e-017
  outer loop
    vertex -2.57642557625871 1.4875 11.0
    vertex -2.10364267402998 2.10364267402998 1.0
    vertex -2.10364267402998 2.10364267402998 11.0
  endloop
endfacet
facet normal 0.608761429008721 -0.793353340291235 -4.64720837266219e-017
  outer loop
    vertex -1.4875 2.5764255762587 11.0
    vertex -2.10364267402998 2.10364267402998 1.0
    vertex -1.4875 2.5764255762587 1.0
  endloop
endfacet
facet normal 0.608761429008721 -0.793353340291235 -4.64720837266219e-017
  outer loop
    vertex -2.10364267402998 2.10364267402998 1.0
    vertex -1.4875 2.5764255762587 11.0
    vertex -2.10364267402998 2.10364267402998 11.0
  endloop
endfacet
facet normal 0.38268343236509 -0.923879532511287 -2.89095360804248e-017
  outer loop
    vertex -0.769986659180001 2.87362933320998 11.0
    vertex -1.4875 2.5764255762587 1.0
    vertex -0.769986659180002 2.87362933320998 1.0
  endloop
endfacet
facet normal 0.38268343236509 -0.923879532511287 -2.89095360804248e-017
  outer loop
    vertex -1.4875 2.5764255762587 1.0
    vertex -0.769986659180001 2.87362933320998 11.0
    vertex -1.4875 2.5764255762587 11.0
  endloop
endfacet
facet normal -0.130526192220051 -0.99144486137381 9.86050438636723e-018
  outer loop
    vertex 0.769986659179999 2.87362933320998 11.0
    vertex -5.46498634119506e-016 2.975 1.0
    vertex 0.769986659179998 2.87362933320998 1.0
  endloop
endfacet
facet normal -0.130526192220051 -0.99144486137381 9.86050438636723e-018
  outer loop
    vertex -5.46498634119506e-016 2.975 1.0
    vertex 0.769986659179999 2.87362933320998 11.0
    vertex 2.1688881968641e-016 2.975 11.0
  endloop
endfacet
facet normal -0.382683432365089 -0.923879532511287 2.92135731046894e-017
  outer loop
    vertex 1.4875 2.57642557625871 11.0
    vertex 0.769986659179998 2.87362933320998 1.0
    vertex 1.4875 2.57642557625871 1.0
  endloop
endfacet
facet normal -0.382683432365089 -0.923879532511287 2.92135731046894e-017
  outer loop
    vertex 0.769986659179998 2.87362933320998 1.0
    vertex 1.4875 2.57642557625871 11.0
    vertex 0.769986659179999 2.87362933320998 11.0
  endloop
endfacet
facet normal 0.0 0.0 1.0
  outer loop
    vertex -6.76148078402348 -1.81173331571764 14.0
    vertex -6.76148078402348 1.81173331571765 14.0
    vertex -7.0 8.57252759403147e-016 14.0
  endloop
endfacet
facet normal 0.0 0.0 1.0
  outer loop
    vertex -6.76148078402348 1.81173331571765 14.0
    vertex -6.76148078402348 -1.81173331571764 14.0
    vertex -6.06217782649107 -3.5 14.0
  endloop
endfacet
facet normal 0.0 0.0 1.0
  outer loop
    vertex -6.76148078402348 1.81173331571765 14.0
    vertex -6.06217782649107 -3.5 14.0
    vertex -6.06217782649107 3.5 14.0
  endloop
endfacet
facet normal 0.0 0.0 1.0
  outer loop
    vertex -6.06217782649107 3.5 14.0
    vertex -6.06217782649107 -3.5 14.0
    vertex -6.0 -7.34788079488412e-016 14.0
  endloop
endfacet
facet normal 0.0 0.0 1.0
  outer loop
    vertex -6.0 -7.34788079488412e-016 14.0
    vertex -6.06217782649107 -3.5 14.0
    vertex -5.79555495773441 -1.55291427061513 14.0
  endloop
endfacet
facet normal 0.0 0.0 1.0
  outer loop
    vertex -5.79555495773441 -1.55291427061513 14.0
    vertex -6.06217782649107 -3.5 14.0
    vertex -4.94974746830584 -4.94974746830583 14.0
  endloop
endfacet
facet normal 0.0 0.0 1.0
  outer loop
    vertex -5.79555495773441 -1.55291427061513 14.0
    vertex -4.94974746830584 -4.94974746830583 14.0
    vertex -5.19615242270663 -3.0 14.0
  endloop
endfacet
facet normal 0.0 0.0 1.0
  outer loop
    vertex -5.19615242270663 -3.0 14.0
    vertex -4.94974746830584 -4.94974746830583 14.0
    vertex -4.24264068711928 -4.24264068711928 14.0
  endloop
endfacet
facet normal 0.0 0.0 1.0
  outer loop
    vertex -4.24264068711928 -4.24264068711928 14.0
    vertex -4.94974746830584 -4.94974746830583 14.0
    vertex -3.5 -6.06217782649107 14.0
  endloop
endfacet
facet normal 0.0 0.0 1.0
  outer loop
    vertex -4.24264068711928 -4.24264068711928 14.0
    vertex -3.5 -6.06217782649107 14.0
    vertex -3.0 -5.19615242270663 14.0
  endloop
endfacet
facet normal 0.0 0.0 1.0
  outer loop
    vertex -3.0 -5.19615242270663 14.0
    vertex -3.5 -6.06217782649107 14.0
    vertex -1.81173331571765 -6.76148078402348 14.0
  endloop
endfacet
facet normal 0.0 0.0 1.0
  outer loop
    vertex -3.0 -5.19615242270663 14.0
    vertex -1.81173331571765 -6.76148078402348 14.0
    vertex -1.55291427061512 -5.79555495773441 14.0
  endloop
endfacet
facet normal 0.0 0.0 1.0
  outer loop
    vertex -1.55291427061512 -5.79555495773441 14.0
    vertex -1.81173331571765 -6.76148078402348 14.0
    vertex -1.28587913910472e-015 -7.0 14.0
  endloop
endfacet
facet normal 0.0 0.0 1.0
  outer loop
    vertex -1.55291427061512 -5.79555495773441 14.0
    vertex -1.28587913910472e-015 -7.0 14.0
    vertex 3.67394039744206e-016 -6.0 14.0
  endloop
endfacet
facet normal 0.0 0.0 1.0
  outer loop
    vertex 3.67394039744206e-016 -6.0 14.0
    vertex -1.28587913910472e-015 -7.0 14.0
    vertex 1.81173331571764 -6.76148078402348 14.0
  endloop
endfacet
facet normal 0.0 0.0 1.0
  outer loop
    vertex 3.67394039744206e-016 -6.0 14.0
    vertex 1.81173331571764 -6.76148078402348 14.0
    vertex 1.55291427061513 -5.79555495773441 14.0
  endloop
endfacet
facet normal 0.0 0.0 1.0
  outer loop
    vertex 1.55291427061513 -5.79555495773441 14.0
    vertex 1.81173331571764 -6.76148078402348 14.0
    vertex 3.0 -5.19615242270663 14.0
  endloop
endfacet
facet normal 0.0 0.0 1.0
  outer loop
    vertex 3.0 -5.19615242270663 14.0
    vertex 1.81173331571764 -6.76148078402348 14.0
    vertex 3.5 -6.06217782649107 14.0
  endloop
endfacet
facet normal 0.0 0.0 1.0
  outer loop
    vertex 3.0 -5.19615242270663 14.0
    vertex 3.5 -6.06217782649107 14.0
    vertex 4.24264068711928 -4.24264068711928 14.0
  endloop
endfacet
facet normal 0.0 0.0 1.0
  outer loop
    vertex 4.24264068711928 -4.24264068711928 14.0
    vertex 3.5 -6.06217782649107 14.0
    vertex 4.94974746830583 -4.94974746830583 14.0
  endloop
endfacet
facet normal 0.0 0.0 1.0
  outer loop
    vertex 4.24264068711928 -4.24264068711928 14.0
    vertex 4.94974746830583 -4.94974746830583 14.0
    vertex 5.19615242270663 -3.0 14.0
  endloop
endfacet
facet normal 0.0 0.0 1.0
  outer loop
    vertex 5.19615242270663 -3.0 14.0
    vertex 4.94974746830583 -4.94974746830583 14.0
    vertex 6.06217782649107 -3.5 14.0
  endloop
endfacet
facet normal 0.0 0.0 1.0
  outer loop
    vertex 5.19615242270663 -3.0 14.0
    vertex 6.06217782649107 -3.5 14.0
    vertex 5.79555495773441 -1.55291427061512 14.0
  endloop
endfacet
facet normal 0.0 0.0 1.0
  outer loop
    vertex 5.79555495773441 -1.55291427061512 14.0
    vertex 6.06217782649107 -3.5 14.0
    vertex 6.0 0.0 14.0
  endloop
endfacet
facet normal 0.0 0.0 1.0
  outer loop
    vertex -6.06217782649107 3.5 14.0
    vertex -5.79555495773441 1.55291427061512 14.0
    vertex -4.94974746830583 4.94974746830583 14.0
  endloop
endfacet
facet normal 0.0 0.0 1.0
  outer loop
    vertex -5.79555495773441 1.55291427061512 14.0
    vertex -6.06217782649107 3.5 14.0
    vertex -6.0 -7.34788079488412e-016 14.0
  endloop
endfacet
facet normal 0.0 0.0 1.0
  outer loop
    vertex -4.94974746830583 4.94974746830583 14.0
    vertex -5.79555495773441 1.55291427061512 14.0
    vertex -5.19615242270663 3.0 14.0
  endloop
endfacet
facet normal 0.0 0.0 1.0
  outer loop
    vertex -4.94974746830583 4.94974746830583 14.0
    vertex -5.19615242270663 3.0 14.0
    vertex -4.24264068711929 4.24264068711928 14.0
  endloop
endfacet
facet normal 0.0 0.0 1.0
  outer loop
    vertex -4.94974746830583 4.94974746830583 14.0
    vertex -4.24264068711929 4.24264068711928 14.0
    vertex -3.5 6.06217782649107 14.0
  endloop
endfacet
facet normal 0.0 0.0 1.0
  outer loop
    vertex -3.5 6.06217782649107 14.0
    vertex -4.24264068711929 4.24264068711928 14.0
    vertex -3.0 5.19615242270663 14.0
  endloop
endfacet
facet normal 0.0 0.0 1.0
  outer loop
    vertex -3.5 6.06217782649107 14.0
    vertex -3.0 5.19615242270663 14.0
    vertex -1.81173331571764 6.76148078402348 14.0
  endloop
endfacet
facet normal 0.0 0.0 1.0
  outer loop
    vertex -1.81173331571764 6.76148078402348 14.0
    vertex -3.0 5.19615242270663 14.0
    vertex -1.55291427061513 5.79555495773441 14.0
  endloop
endfacet
facet normal 0.0 0.0 1.0
  outer loop
    vertex -1.81173331571764 6.76148078402348 14.0
    vertex -1.55291427061513 5.79555495773441 14.0
    vertex 4.28626379701574e-016 7.0 14.0
  endloop
endfacet
facet normal 0.0 0.0 1.0
  outer loop
    vertex 4.28626379701574e-016 7.0 14.0
    vertex -1.55291427061513 5.79555495773441 14.0
    vertex -1.10218211923262e-015 6.0 14.0
  endloop
endfacet
facet normal 0.0 0.0 1.0
  outer loop
    vertex 4.28626379701574e-016 7.0 14.0
    vertex -1.10218211923262e-015 6.0 14.0
    vertex 1.55291427061512 5.79555495773441 14.0
  endloop
endfacet
facet normal 0.0 0.0 1.0
  outer loop
    vertex 4.28626379701574e-016 7.0 14.0
    vertex 1.55291427061512 5.79555495773441 14.0
    vertex 1.81173331571765 6.76148078402348 14.0
  endloop
endfacet
facet normal 0.0 0.0 1.0
  outer loop
    vertex 1.81173331571765 6.76148078402348 14.0
    vertex 1.55291427061512 5.79555495773441 14.0
    vertex 3.0 5.19615242270663 14.0
  endloop
endfacet
facet normal 0.0 0.0 1.0
  outer loop
    vertex 1.81173331571765 6.76148078402348 14.0
    vertex 3.0 5.19615242270663 14.0
    vertex 3.5 6.06217782649107 14.0
  endloop
endfacet
facet normal 0.0 0.0 1.0
  outer loop
    vertex 3.5 6.06217782649107 14.0
    vertex 3.0 5.19615242270663 14.0
    vertex 4.24264068711928 4.24264068711929 14.0
  endloop
endfacet
facet normal 0.0 0.0 1.0
  outer loop
    vertex 3.5 6.06217782649107 14.0
    vertex 4.24264068711928 4.24264068711929 14.0
    vertex 4.94974746830583 4.94974746830583 14.0
  endloop
endfacet
facet normal 0.0 0.0 1.0
  outer loop
    vertex 4.94974746830583 4.94974746830583 14.0
    vertex 4.24264068711928 4.24264068711929 14.0
    vertex 5.19615242270663 3.0 14.0
  endloop
endfacet
facet normal 0.0 0.0 1.0
  outer loop
    vertex 4.94974746830583 4.94974746830583 14.0
    vertex 5.19615242270663 3.0 14.0
    vertex 6.06217782649107 3.5 14.0
  endloop
endfacet
facet normal 0.0 0.0 1.0
  outer loop
    vertex 6.06217782649107 3.5 14.0
    vertex 5.19615242270663 3.0 14.0
    vertex 5.79555495773441 1.55291427061513 14.0
  endloop
endfacet
facet normal 0.0 0.0 1.0
  outer loop
    vertex 6.06217782649107 3.5 14.0
    vertex 5.79555495773441 1.55291427061513 14.0
    vertex 6.0 0.0 14.0
  endloop
endfacet
facet normal 0.0 0.0 1.0
  outer loop
    vertex 6.06217782649107 3.5 14.0
    vertex 6.0 0.0 14.0
    vertex 6.06217782649107 -3.5 14.0
  endloop
endfacet
facet normal 0.0 0.0 1.0
  outer loop
    vertex 6.06217782649107 3.5 14.0
    vertex 6.06217782649107 -3.5 14.0
    vertex 6.76148078402348 -1.81173331571765 14.0
  endloop
endfacet
facet normal 0.0 0.0 1.0
  outer loop
    vertex 6.06217782649107 3.5 14.0
    vertex 6.76148078402348 -1.81173331571765 14.0
    vertex 6.76148078402348 1.81173331571765 14.0
  endloop
endfacet
facet normal 0.0 0.0 1.0
  outer loop
    vertex 6.76148078402348 1.81173331571765 14.0
    vertex 6.76148078402348 -1.81173331571765 14.0
    vertex 7.0 0.0 14.0
  endloop
endfacet
facet normal -0.99144486137381 0.130526192220051 0.0
  outer loop
    vertex 6.0 0.0 14.0
    vertex 5.79555495773441 -1.55291427061512 1.0
    vertex 5.79555495773441 -1.55291427061512 14.0
  endloop
endfacet
facet normal -0.99144486137381 0.130526192220051 0.0
  outer loop
    vertex 5.79555495773441 -1.55291427061512 1.0
    vertex 6.0 0.0 14.0
    vertex 6.0 0.0 1.0
  endloop
endfacet
facet normal -0.923879532511287 0.38268343236509 0.0
  outer loop
    vertex 5.79555495773441 -1.55291427061512 14.0
    vertex 5.19615242270663 -3.0 1.0
    vertex 5.19615242270663 -3.0 14.0
  endloop
endfacet
facet normal -0.923879532511287 0.38268343236509 0.0
  outer loop
    vertex 5.19615242270663 -3.0 1.0
    vertex 5.79555495773441 -1.55291427061512 14.0
    vertex 5.79555495773441 -1.55291427061512 1.0
  endloop
endfacet
facet normal -0.793353340291235 0.608761429008721 0.0
  outer loop
    vertex 5.19615242270663 -3.0 14.0
    vertex 4.24264068711928 -4.24264068711928 11.0
    vertex 4.24264068711928 -4.24264068711928 14.0
  endloop
endfacet
facet normal -0.793353340291235 0.608761429008721 0.0
  outer loop
    vertex 4.24264068711928 -4.24264068711928 11.0
    vertex 5.19615242270663 -3.0 1.0
    vertex 4.24264068711928 -4.24264068711928 1.0
  endloop
endfacet
facet normal -0.793353340291235 0.608761429008721 0.0
  outer loop
    vertex 5.19615242270663 -3.0 1.0
    vertex 4.24264068711928 -4.24264068711928 11.0
    vertex 5.19615242270663 -3.0 14.0
  endloop
endfacet
facet normal -0.608761429008721 0.793353340291235 0.0
  outer loop
    vertex 3.0 -5.19615242270663 14.0
    vertex 4.24264068711928 -4.24264068711928 11.0
    vertex 3.0 -5.19615242270663 11.0
  endloop
endfacet
facet normal -0.608761429008721 0.793353340291235 0.0
  outer loop
    vertex 4.24264068711928 -4.24264068711928 11.0
    vertex 3.0 -5.19615242270663 14.0
    vertex 4.24264068711928 -4.24264068711928 14.0
  endloop
endfacet
facet normal -0.38268343236509 0.923879532511287 0.0
  outer loop
    vertex 1.55291427061513 -5.79555495773441 14.0
    vertex 3.0 -5.19615242270663 1.0
    vertex 1.55291427061513 -5.79555495773441 1.0
  endloop
endfacet
facet normal -0.38268343236509 0.923879532511287 0.0
  outer loop
    vertex 3.0 -5.19615242270663 1.0
    vertex 1.55291427061513 -5.79555495773441 14.0
    vertex 3.0 -5.19615242270663 11.0
  endloop
endfacet
facet normal -0.38268343236509 0.923879532511287 0.0
  outer loop
    vertex 3.0 -5.19615242270663 11.0
    vertex 1.55291427061513 -5.79555495773441 14.0
    vertex 3.0 -5.19615242270663 14.0
  endloop
endfacet
facet normal -0.130526192220052 0.99144486137381 0.0
  outer loop
    vertex 3.67394039744206e-016 -6.0 14.0
    vertex 1.55291427061513 -5.79555495773441 1.0
    vertex 3.67394039744206e-016 -6.0 1.0
  endloop
endfacet
facet normal -0.130526192220052 0.99144486137381 0.0
  outer loop
    vertex 1.55291427061513 -5.79555495773441 1.0
    vertex 3.67394039744206e-016 -6.0 14.0
    vertex 1.55291427061513 -5.79555495773441 14.0
  endloop
endfacet
facet normal 0.130526192220051 0.99144486137381 0.0
  outer loop
    vertex -1.55291427061512 -5.79555495773441 14.0
    vertex 3.67394039744206e-016 -6.0 1.0
    vertex -1.55291427061512 -5.79555495773441 1.0
  endloop
endfacet
facet normal 0.130526192220051 0.99144486137381 0.0
  outer loop
    vertex 3.67394039744206e-016 -6.0 1.0
    vertex -1.55291427061512 -5.79555495773441 14.0
    vertex 3.67394039744206e-016 -6.0 14.0
  endloop
endfacet
facet normal 0.38268343236509 0.923879532511287 0.0
  outer loop
    vertex -3.0 -5.19615242270663 14.0
    vertex -1.55291427061512 -5.79555495773441 1.0
    vertex -3.0 -5.19615242270663 1.0
  endloop
endfacet
facet normal 0.38268343236509 0.923879532511287 0.0
  outer loop
    vertex -1.55291427061512 -5.79555495773441 1.0
    vertex -3.0 -5.19615242270663 14.0
    vertex -1.55291427061512 -5.79555495773441 14.0
  endloop
endfacet
facet normal 0.60876142900872 0.793353340291235 0.0
  outer loop
    vertex -4.24264068711928 -4.24264068711928 11.0
    vertex -3.0 -5.19615242270663 1.0
    vertex -4.24264068711928 -4.24264068711928 1.0
  endloop
endfacet
facet normal 0.60876142900872 0.793353340291235 0.0
  outer loop
    vertex -3.0 -5.19615242270663 1.0
    vertex -4.24264068711928 -4.24264068711928 11.0
    vertex -3.0 -5.19615242270663 14.0
  endloop
endfacet
facet normal 0.60876142900872 0.793353340291235 0.0
  outer loop
    vertex -3.0 -5.19615242270663 14.0
    vertex -4.24264068711928 -4.24264068711928 11.0
    vertex -4.24264068711928 -4.24264068711928 14.0
  endloop
endfacet
facet normal 0.793353340291235 0.608761429008721 0.0
  outer loop
    vertex -5.19615242270663 -3.0 11.0
    vertex -4.24264068711928 -4.24264068711928 14.0
    vertex -4.24264068711928 -4.24264068711928 11.0
  endloop
endfacet
facet normal 0.793353340291235 0.608761429008721 0.0
  outer loop
    vertex -4.24264068711928 -4.24264068711928 14.0
    vertex -5.19615242270663 -3.0 11.0
    vertex -5.19615242270663 -3.0 14.0
  endloop
endfacet
facet normal 0.923879532511287 0.38268343236509 0.0
  outer loop
    vertex -5.79555495773441 -1.55291427061513 1.0
    vertex -5.19615242270663 -3.0 11.0
    vertex -5.19615242270663 -3.0 1.0
  endloop
endfacet
facet normal 0.923879532511287 0.38268343236509 0.0
  outer loop
    vertex -5.19615242270663 -3.0 11.0
    vertex -5.79555495773441 -1.55291427061513 1.0
    vertex -5.19615242270663 -3.0 14.0
  endloop
endfacet
facet normal 0.923879532511287 0.38268343236509 0.0
  outer loop
    vertex -5.19615242270663 -3.0 14.0
    vertex -5.79555495773441 -1.55291427061513 1.0
    vertex -5.79555495773441 -1.55291427061513 14.0
  endloop
endfacet
facet normal 0.99144486137381 0.130526192220052 0.0
  outer loop
    vertex -6.0 -7.34788079488412e-016 1.0
    vertex -5.79555495773441 -1.55291427061513 14.0
    vertex -5.79555495773441 -1.55291427061513 1.0
  endloop
endfacet
facet normal 0.99144486137381 0.130526192220052 0.0
  outer loop
    vertex -5.79555495773441 -1.55291427061513 14.0
    vertex -6.0 -7.34788079488412e-016 1.0
    vertex -6.0 -7.34788079488412e-016 14.0
  endloop
endfacet
facet normal 0.99144486137381 -0.130526192220051 0.0
  outer loop
    vertex -5.79555495773441 1.55291427061512 1.0
    vertex -6.0 -7.34788079488412e-016 14.0
    vertex -6.0 -7.34788079488412e-016 1.0
  endloop
endfacet
facet normal 0.99144486137381 -0.130526192220051 0.0
  outer loop
    vertex -6.0 -7.34788079488412e-016 14.0
    vertex -5.79555495773441 1.55291427061512 1.0
    vertex -5.79555495773441 1.55291427061512 14.0
  endloop
endfacet
facet normal 0.923879532511287 -0.38268343236509 0.0
  outer loop
    vertex -5.19615242270663 3.0 1.0
    vertex -5.79555495773441 1.55291427061512 14.0
    vertex -5.79555495773441 1.55291427061512 1.0
  endloop
endfacet
facet normal 0.923879532511287 -0.38268343236509 0.0
  outer loop
    vertex -5.79555495773441 1.55291427061512 14.0
    vertex -5.19615242270663 3.0 1.0
    vertex -5.19615242270663 3.0 14.0
  endloop
endfacet
facet normal 0.923879532511287 -0.38268343236509 0.0
  outer loop
    vertex -5.19615242270663 3.0 14.0
    vertex -5.19615242270663 3.0 1.0
    vertex -5.19615242270663 3.0 11.0
  endloop
endfacet
facet normal 0.793353340291236 -0.60876142900872 0.0
  outer loop
    vertex -4.24264068711929 4.24264068711928 11.0
    vertex -5.19615242270663 3.0 14.0
    vertex -5.19615242270663 3.0 11.0
  endloop
endfacet
facet normal 0.793353340291236 -0.60876142900872 0.0
  outer loop
    vertex -5.19615242270663 3.0 14.0
    vertex -4.24264068711929 4.24264068711928 11.0
    vertex -4.24264068711929 4.24264068711928 14.0
  endloop
endfacet
facet normal 0.608761429008721 -0.793353340291235 0.0
  outer loop
    vertex -3.0 5.19615242270663 14.0
    vertex -4.24264068711929 4.24264068711928 1.0
    vertex -3.0 5.19615242270663 1.0
  endloop
endfacet
facet normal 0.608761429008721 -0.793353340291235 0.0
  outer loop
    vertex -4.24264068711929 4.24264068711928 1.0
    vertex -3.0 5.19615242270663 14.0
    vertex -4.24264068711929 4.24264068711928 11.0
  endloop
endfacet
facet normal 0.608761429008721 -0.793353340291235 0.0
  outer loop
    vertex -4.24264068711929 4.24264068711928 11.0
    vertex -3.0 5.19615242270663 14.0
    vertex -4.24264068711929 4.24264068711928 14.0
  endloop
endfacet
facet normal 0.38268343236509 -0.923879532511287 0.0
  outer loop
    vertex -1.55291427061513 5.79555495773441 14.0
    vertex -3.0 5.19615242270663 1.0
    vertex -1.55291427061513 5.79555495773441 1.0
  endloop
endfacet
facet normal 0.38268343236509 -0.923879532511287 0.0
  outer loop
    vertex -3.0 5.19615242270663 1.0
    vertex -1.55291427061513 5.79555495773441 14.0
    vertex -3.0 5.19615242270663 14.0
  endloop
endfacet
facet normal 0.130526192220052 -0.99144486137381 0.0
  outer loop
    vertex -1.10218211923262e-015 6.0 14.0
    vertex -1.55291427061513 5.79555495773441 1.0
    vertex -1.10218211923262e-015 6.0 1.0
  endloop
endfacet
facet normal 0.130526192220052 -0.99144486137381 0.0
  outer loop
    vertex -1.55291427061513 5.79555495773441 1.0
    vertex -1.10218211923262e-015 6.0 14.0
    vertex -1.55291427061513 5.79555495773441 14.0
  endloop
endfacet
facet normal -0.130526192220051 -0.99144486137381 0.0
  outer loop
    vertex 1.55291427061512 5.79555495773441 14.0
    vertex -1.10218211923262e-015 6.0 1.0
    vertex 1.55291427061512 5.79555495773441 1.0
  endloop
endfacet
facet normal -0.130526192220051 -0.99144486137381 0.0
  outer loop
    vertex -1.10218211923262e-015 6.0 1.0
    vertex 1.55291427061512 5.79555495773441 14.0
    vertex -1.10218211923262e-015 6.0 14.0
  endloop
endfacet
facet normal -0.38268343236509 -0.923879532511287 0.0
  outer loop
    vertex 3.0 5.19615242270663 11.0
    vertex 1.55291427061512 5.79555495773441 1.0
    vertex 3.0 5.19615242270663 1.0
  endloop
endfacet
facet normal -0.38268343236509 -0.923879532511287 0.0
  outer loop
    vertex 1.55291427061512 5.79555495773441 1.0
    vertex 3.0 5.19615242270663 11.0
    vertex 1.55291427061512 5.79555495773441 14.0
  endloop
endfacet
facet normal -0.38268343236509 -0.923879532511287 0.0
  outer loop
    vertex 1.55291427061512 5.79555495773441 14.0
    vertex 3.0 5.19615242270663 11.0
    vertex 3.0 5.19615242270663 14.0
  endloop
endfacet
facet normal -0.60876142900872 -0.793353340291236 0.0
  outer loop
    vertex 4.24264068711928 4.24264068711929 14.0
    vertex 3.0 5.19615242270663 11.0
    vertex 4.24264068711928 4.24264068711928 11.0
  endloop
endfacet
facet normal -0.60876142900872 -0.793353340291236 0.0
  outer loop
    vertex 3.0 5.19615242270663 11.0
    vertex 4.24264068711928 4.24264068711929 14.0
    vertex 3.0 5.19615242270663 14.0
  endloop
endfacet
facet normal -0.793353340291235 -0.608761429008721 0.0
  outer loop
    vertex 4.24264068711928 4.24264068711929 14.0
    vertex 5.19615242270663 3.0 1.0
    vertex 5.19615242270663 3.0 14.0
  endloop
endfacet
facet normal -0.793353340291235 -0.608761429008721 0.0
  outer loop
    vertex 5.19615242270663 3.0 1.0
    vertex 4.24264068711928 4.24264068711929 14.0
    vertex 4.24264068711928 4.24264068711928 11.0
  endloop
endfacet
facet normal -0.793353340291235 -0.608761429008721 0.0
  outer loop
    vertex 4.24264068711928 4.24264068711929 1.0
    vertex 5.19615242270663 3.0 1.0
    vertex 4.24264068711928 4.24264068711928 11.0
  endloop
endfacet
facet normal -0.923879532511286 -0.38268343236509 0.0
  outer loop
    vertex 5.19615242270663 3.0 14.0
    vertex 5.79555495773441 1.55291427061513 1.0
    vertex 5.79555495773441 1.55291427061513 14.0
  endloop
endfacet
facet normal -0.923879532511286 -0.38268343236509 0.0
  outer loop
    vertex 5.79555495773441 1.55291427061513 1.0
    vertex 5.19615242270663 3.0 14.0
    vertex 5.19615242270663 3.0 1.0
  endloop
endfacet
facet normal -0.99144486137381 -0.130526192220052 0.0
  outer loop
    vertex 5.79555495773441 1.55291427061513 14.0
    vertex 6.0 0.0 1.0
    vertex 6.0 0.0 14.0
  endloop
endfacet
facet normal -0.99144486137381 -0.130526192220052 0.0
  outer loop
    vertex 6.0 0.0 1.0
    vertex 5.79555495773441 1.55291427061513 14.0
    vertex 5.79555495773441 1.55291427061513 1.0
  endloop
endfacet
facet normal 0.0 0.0 1.0
  outer loop
    vertex -5.19615242270663 -3.0 1.0
    vertex -3.83955515949905 -1.02880570428252 1.0
    vertex -3.975 -4.86797102661073e-016 1.0
  endloop
endfacet
facet normal 0.0 0.0 1.0
  outer loop
    vertex -3.83955515949905 -1.02880570428252 1.0
    vertex -5.19615242270663 -3.0 1.0
    vertex -3.44245098004314 -1.9875 1.0
  endloop
endfacet
facet normal 0.0 0.0 1.0
  outer loop
    vertex -5.79555495773441 -1.55291427061513 1.0
    vertex -5.79555495773441 1.55291427061512 1.0
    vertex -6.0 -7.34788079488412e-016 1.0
  endloop
endfacet
facet normal 0.0 0.0 1.0
  outer loop
    vertex -5.79555495773441 1.55291427061512 1.0
    vertex -5.79555495773441 -1.55291427061513 1.0
    vertex -5.19615242270663 3.0 1.0
  endloop
endfacet
facet normal 0.0 0.0 1.0
  outer loop
    vertex -5.19615242270663 3.0 1.0
    vertex -5.79555495773441 -1.55291427061513 1.0
    vertex -5.19615242270663 -3.0 1.0
  endloop
endfacet
facet normal 0.0 0.0 1.0
  outer loop
    vertex -5.19615242270663 3.0 1.0
    vertex -5.19615242270663 -3.0 1.0
    vertex -3.83955515949905 1.02880570428252 1.0
  endloop
endfacet
facet normal 0.0 0.0 1.0
  outer loop
    vertex -5.19615242270663 3.0 1.0
    vertex -3.83955515949905 1.02880570428252 1.0
    vertex -3.44245098004314 1.9875 1.0
  endloop
endfacet
facet normal 0.0 0.0 1.0
  outer loop
    vertex -3.83955515949905 1.02880570428252 1.0
    vertex -5.19615242270663 -3.0 1.0
    vertex -3.975 -4.86797102661073e-016 1.0
  endloop
endfacet
facet normal 0.707106781186548 -0.707106781186548 -2.76981482598085e-017
  outer loop
    vertex -2.81074945521653 -2.81074945521653 1.0
    vertex -4.24264068711928 -4.24264068711928 11.0
    vertex -4.24264068711928 -4.24264068711928 1.0
  endloop
endfacet
facet normal 0.707106781186548 -0.707106781186548 -2.76981482598085e-017
  outer loop
    vertex -4.24264068711928 -4.24264068711928 11.0
    vertex -2.81074945521653 -2.81074945521653 1.0
    vertex -2.81074945521653 -2.81074945521653 11.0
  endloop
endfacet
facet normal -0.5 0.866025403784438 2.16337793990243e-017
  outer loop
    vertex -5.19615242270663 -3.0 11.0
    vertex -3.44245098004314 -1.9875 1.0
    vertex -5.19615242270663 -3.0 1.0
  endloop
endfacet
facet normal -0.5 0.866025403784438 2.16337793990243e-017
  outer loop
    vertex -3.44245098004314 -1.9875 1.0
    vertex -5.19615242270663 -3.0 11.0
    vertex -3.44245098004314 -1.9875 11.0
  endloop
endfacet
facet normal 0.707106781186547 0.707106781186548 -2.76981482598085e-017
  outer loop
    vertex -4.24264068711929 4.24264068711928 11.0
    vertex -2.81074945521653 2.81074945521652 1.0
    vertex -4.24264068711929 4.24264068711928 1.0
  endloop
endfacet
facet normal 0.707106781186547 0.707106781186548 -2.76981482598085e-017
  outer loop
    vertex -2.81074945521653 2.81074945521652 1.0
    vertex -4.24264068711929 4.24264068711928 11.0
    vertex -2.81074945521653 2.81074945521652 11.0
  endloop
endfacet
facet normal -0.5 -0.866025403784439 1.67876129664179e-017
  outer loop
    vertex -3.44245098004314 1.9875 11.0
    vertex -5.19615242270663 3.0 1.0
    vertex -3.44245098004314 1.9875 1.0
  endloop
endfacet
facet normal -0.5 -0.866025403784439 1.67876129664179e-017
  outer loop
    vertex -5.19615242270663 3.0 1.0
    vertex -3.44245098004314 1.9875 11.0
    vertex -5.19615242270663 3.0 11.0
  endloop
endfacet
facet normal 2.94614758616224e-017 6.00148409357523e-033 1.0
  outer loop
    vertex -2.87362933320998 -0.76998665918 1.0
    vertex -2.87362933320998 0.769986659179998 1.0
    vertex -2.975 -3.64332422746338e-016 1.0
  endloop
endfacet
facet normal 2.94614758616224e-017 6.00148409357523e-033 1.0
  outer loop
    vertex -2.87362933320998 0.769986659179998 1.0
    vertex -2.87362933320998 -0.76998665918 1.0
    vertex -2.57642557625871 1.4875 1.0
  endloop
endfacet
facet normal 2.94614758616224e-017 6.00148409357523e-033 1.0
  outer loop
    vertex -2.57642557625871 1.4875 1.0
    vertex -2.87362933320998 -0.76998665918 1.0
    vertex -2.5764255762587 -1.4875 1.0
  endloop
endfacet
facet normal 2.94614758616224e-017 6.00148409357523e-033 1.0
  outer loop
    vertex -2.57642557625871 1.4875 1.0
    vertex -2.5764255762587 -1.4875 1.0
    vertex -2.10364267402998 2.10364267402998 1.0
  endloop
endfacet
facet normal 2.94614758616224e-017 6.00148409357523e-033 1.0
  outer loop
    vertex -2.10364267402998 2.10364267402998 1.0
    vertex -2.5764255762587 -1.4875 1.0
    vertex -2.10364267402998 -2.10364267402998 1.0
  endloop
endfacet
facet normal 2.94614758616224e-017 6.00148409357523e-033 1.0
  outer loop
    vertex -2.10364267402998 2.10364267402998 1.0
    vertex -2.10364267402998 -2.10364267402998 1.0
    vertex -1.4875 2.5764255762587 1.0
  endloop
endfacet
facet normal 2.94614758616224e-017 6.00148409357523e-033 1.0
  outer loop
    vertex -1.4875 2.5764255762587 1.0
    vertex -2.10364267402998 -2.10364267402998 1.0
    vertex -1.4875 -2.57642557625871 1.0
  endloop
endfacet
facet normal 2.94614758616224e-017 6.00148409357523e-033 1.0
  outer loop
    vertex -1.4875 2.5764255762587 1.0
    vertex -1.4875 -2.57642557625871 1.0
    vertex -0.769986659180002 2.87362933320998 1.0
  endloop
endfacet
facet normal 2.94614758616224e-017 6.00148409357523e-033 1.0
  outer loop
    vertex -0.769986659180002 2.87362933320998 1.0
    vertex -1.4875 -2.57642557625871 1.0
    vertex -0.769986659179999 -2.87362933320998 1.0
  endloop
endfacet
facet normal 2.94614758616224e-017 6.00148409357523e-033 1.0
  outer loop
    vertex -2.81074945521653 2.81074945521652 1.0
    vertex -3.0 5.19615242270663 1.0
    vertex -4.24264068711929 4.24264068711928 1.0
  endloop
endfacet
facet normal 2.94614758616224e-017 6.00148409357523e-033 1.0
  outer loop
    vertex -3.0 5.19615242270663 1.0
    vertex -2.81074945521653 2.81074945521652 1.0
    vertex -1.55291427061513 5.79555495773441 1.0
  endloop
endfacet
facet normal 2.94614758616224e-017 6.00148409357523e-033 1.0
  outer loop
    vertex -1.55291427061513 5.79555495773441 1.0
    vertex -2.81074945521653 2.81074945521652 1.0
    vertex -1.9875 3.44245098004314 1.0
  endloop
endfacet
facet normal 2.94614758616224e-017 6.00148409357523e-033 1.0
  outer loop
    vertex -1.55291427061513 5.79555495773441 1.0
    vertex -1.9875 3.44245098004314 1.0
    vertex -1.02880570428252 3.83955515949905 1.0
  endloop
endfacet
facet normal 2.94614758616224e-017 6.00148409357523e-033 1.0
  outer loop
    vertex -1.55291427061513 5.79555495773441 1.0
    vertex -1.02880570428252 3.83955515949905 1.0
    vertex -1.10218211923262e-015 6.0 1.0
  endloop
endfacet
facet normal 2.94614758616224e-017 6.00148409357523e-033 1.0
  outer loop
    vertex -1.10218211923262e-015 6.0 1.0
    vertex -1.02880570428252 3.83955515949905 1.0
    vertex -0.769986659180002 2.87362933320998 1.0
  endloop
endfacet
facet normal 2.94614758616224e-017 6.00148409357523e-033 1.0
  outer loop
    vertex -1.10218211923262e-015 6.0 1.0
    vertex -0.769986659180002 2.87362933320998 1.0
    vertex -0.769986659179999 -2.87362933320998 1.0
  endloop
endfacet
facet normal 2.94614758616224e-017 6.00148409357523e-033 1.0
  outer loop
    vertex -3.0 -5.19615242270663 1.0
    vertex -2.81074945521653 -2.81074945521653 1.0
    vertex -4.24264068711928 -4.24264068711928 1.0
  endloop
endfacet
facet normal 2.94614758616224e-017 6.00148409357523e-033 1.0
  outer loop
    vertex -2.81074945521653 -2.81074945521653 1.0
    vertex -3.0 -5.19615242270663 1.0
    vertex -1.55291427061512 -5.79555495773441 1.0
  endloop
endfacet
facet normal 2.94614758616224e-017 6.00148409357523e-033 1.0
  outer loop
    vertex -2.81074945521653 -2.81074945521653 1.0
    vertex -1.55291427061512 -5.79555495773441 1.0
    vertex -1.9875 -3.44245098004314 1.0
  endloop
endfacet
facet normal 2.94614758616224e-017 6.00148409357523e-033 1.0
  outer loop
    vertex -1.9875 -3.44245098004314 1.0
    vertex -1.55291427061512 -5.79555495773441 1.0
    vertex -1.02880570428252 -3.83955515949905 1.0
  endloop
endfacet
facet normal 2.94614758616224e-017 6.00148409357523e-033 1.0
  outer loop
    vertex -1.02880570428252 -3.83955515949905 1.0
    vertex -1.55291427061512 -5.79555495773441 1.0
    vertex 3.67394039744206e-016 -6.0 1.0
  endloop
endfacet
facet normal 2.94614758616224e-017 6.00148409357523e-033 1.0
  outer loop
    vertex -1.02880570428252 -3.83955515949905 1.0
    vertex 3.67394039744206e-016 -6.0 1.0
    vertex -0.769986659179999 -2.87362933320998 1.0
  endloop
endfacet
facet normal 2.94614758616224e-017 6.00148409357523e-033 1.0
  outer loop
    vertex -0.769986659179999 -2.87362933320998 1.0
    vertex 3.67394039744206e-016 -6.0 1.0
    vertex -1.10218211923262e-015 6.0 1.0
  endloop
endfacet
facet normal 2.94614758616224e-017 6.00148409357523e-033 1.0
  outer loop
    vertex -1.10218211923262e-015 6.0 1.0
    vertex 3.67394039744206e-016 -6.0 1.0
    vertex -7.30195653991609e-016 3.975 1.0
  endloop
endfacet
facet normal 2.94614758616224e-017 6.00148409357523e-033 1.0
  outer loop
    vertex -7.30195653991609e-016 3.975 1.0
    vertex 3.67394039744206e-016 -6.0 1.0
    vertex -5.46498634119506e-016 2.975 1.0
  endloop
endfacet
facet normal 2.94614758616224e-017 6.00148409357523e-033 1.0
  outer loop
    vertex -5.46498634119506e-016 2.975 1.0
    vertex 3.67394039744206e-016 -6.0 1.0
    vertex 1.82166211373169e-016 -2.975 1.0
  endloop
endfacet
facet normal 2.94614758616224e-017 6.00148409357523e-033 1.0
  outer loop
    vertex 1.82166211373169e-016 -2.975 1.0
    vertex 3.67394039744206e-016 -6.0 1.0
    vertex 2.43398551330536e-016 -3.975 1.0
  endloop
endfacet
facet normal 2.94614758616224e-017 6.00148409357523e-033 1.0
  outer loop
    vertex 2.43398551330536e-016 -3.975 1.0
    vertex 3.67394039744206e-016 -6.0 1.0
    vertex 1.02880570428252 -3.83955515949905 1.0
  endloop
endfacet
facet normal 2.94614758616224e-017 6.00148409357523e-033 1.0
  outer loop
    vertex 1.02880570428252 -3.83955515949905 1.0
    vertex 3.67394039744206e-016 -6.0 1.0
    vertex 1.55291427061513 -5.79555495773441 1.0
  endloop
endfacet
facet normal 2.94614758616224e-017 6.00148409357523e-033 1.0
  outer loop
    vertex 1.02880570428252 -3.83955515949905 1.0
    vertex 1.55291427061513 -5.79555495773441 1.0
    vertex 1.9875 -3.44245098004314 1.0
  endloop
endfacet
facet normal 2.94614758616224e-017 6.00148409357523e-033 1.0
  outer loop
    vertex 1.9875 -3.44245098004314 1.0
    vertex 1.55291427061513 -5.79555495773441 1.0
    vertex 3.0 -5.19615242270663 1.0
  endloop
endfacet
facet normal 2.94614758616224e-017 6.00148409357523e-033 1.0
  outer loop
    vertex 1.82166211373169e-016 -2.975 1.0
    vertex 0.769986659179998 2.87362933320998 1.0
    vertex -5.46498634119506e-016 2.975 1.0
  endloop
endfacet
facet normal 2.94614758616224e-017 6.00148409357523e-033 1.0
  outer loop
    vertex 0.769986659179998 2.87362933320998 1.0
    vertex 1.82166211373169e-016 -2.975 1.0
    vertex 0.76998665918 -2.87362933320998 1.0
  endloop
endfacet
facet normal 2.94614758616224e-017 6.00148409357523e-033 1.0
  outer loop
    vertex 0.769986659179998 2.87362933320998 1.0
    vertex 0.76998665918 -2.87362933320998 1.0
    vertex 1.4875 2.57642557625871 1.0
  endloop
endfacet
facet normal 2.94614758616224e-017 6.00148409357523e-033 1.0
  outer loop
    vertex 1.4875 2.57642557625871 1.0
    vertex 0.76998665918 -2.87362933320998 1.0
    vertex 1.4875 -2.57642557625871 1.0
  endloop
endfacet
facet normal 2.94614758616224e-017 6.00148409357523e-033 1.0
  outer loop
    vertex 1.4875 2.57642557625871 1.0
    vertex 1.4875 -2.57642557625871 1.0
    vertex 1.575 2.50928446481055 0.999999999999999
  endloop
endfacet
facet normal 2.94614758616224e-017 6.00148409357523e-033 1.0
  outer loop
    vertex 1.575 2.50928446481055 0.999999999999999
    vertex 1.4875 -2.57642557625871 1.0
    vertex 1.575 -2.50928446481055 0.999999999999999
  endloop
endfacet
facet normal 2.94614758616224e-017 6.00148409357523e-033 1.0
  outer loop
    vertex -7.30195653991609e-016 3.975 1.0
    vertex 1.55291427061512 5.79555495773441 1.0
    vertex -1.10218211923262e-015 6.0 1.0
  endloop
endfacet
facet normal 2.94614758616224e-017 6.00148409357523e-033 1.0
  outer loop
    vertex 1.55291427061512 5.79555495773441 1.0
    vertex -7.30195653991609e-016 3.975 1.0
    vertex 1.02880570428252 3.83955515949905 1.0
  endloop
endfacet
facet normal 2.94614758616224e-017 6.00148409357523e-033 1.0
  outer loop
    vertex 1.55291427061512 5.79555495773441 1.0
    vertex 1.02880570428252 3.83955515949905 1.0
    vertex 1.9875 3.44245098004315 1.0
  endloop
endfacet
facet normal 2.94614758616224e-017 6.00148409357523e-033 1.0
  outer loop
    vertex 1.55291427061512 5.79555495773441 1.0
    vertex 1.9875 3.44245098004315 1.0
    vertex 3.0 5.19615242270663 1.0
  endloop
endfacet
facet normal 0.0 0.0 1.0
  outer loop
    vertex -3.83955515949904 -1.02880570428252 11.0
    vertex -3.83955515949905 1.02880570428252 11.0
    vertex -3.975 -4.86797102661073e-016 11.0
  endloop
endfacet
facet normal 0.0 0.0 1.0
  outer loop
    vertex -3.83955515949905 1.02880570428252 11.0
    vertex -3.83955515949904 -1.02880570428252 11.0
    vertex -3.44245098004314 1.9875 11.0
  endloop
endfacet
facet normal 0.0 0.0 1.0
  outer loop
    vertex -3.44245098004314 1.9875 11.0
    vertex -3.83955515949904 -1.02880570428252 11.0
    vertex -3.44245098004314 -1.9875 11.0
  endloop
endfacet
facet normal 0.0 0.0 1.0
  outer loop
    vertex -4.24264068711928 -4.24264068711928 11.0
    vertex -3.44245098004314 -1.9875 11.0
    vertex -5.19615242270663 -3.0 11.0
  endloop
endfacet
facet normal 0.0 0.0 1.0
  outer loop
    vertex -3.44245098004314 -1.9875 11.0
    vertex -4.24264068711928 -4.24264068711928 11.0
    vertex -2.81074945521653 -2.81074945521653 11.0
  endloop
endfacet
facet normal 0.0 0.0 1.0
  outer loop
    vertex -3.44245098004314 -1.9875 11.0
    vertex -2.81074945521653 -2.81074945521653 11.0
    vertex -2.975 -3.64332422746338e-016 11.0
  endloop
endfacet
facet normal 0.0 0.0 1.0
  outer loop
    vertex -2.975 -3.64332422746338e-016 11.0
    vertex -2.81074945521653 -2.81074945521653 11.0
    vertex -2.87362933320998 -0.76998665918 11.0
  endloop
endfacet
facet normal 0.0 0.0 1.0
  outer loop
    vertex -2.87362933320998 -0.76998665918 11.0
    vertex -2.81074945521653 -2.81074945521653 11.0
    vertex -2.5764255762587 -1.4875 11.0
  endloop
endfacet
facet normal 0.0 0.0 1.0
  outer loop
    vertex -2.5764255762587 -1.4875 11.0
    vertex -2.81074945521653 -2.81074945521653 11.0
    vertex -1.9875 -3.44245098004314 11.0
  endloop
endfacet
facet normal 0.0 0.0 1.0
  outer loop
    vertex -2.5764255762587 -1.4875 11.0
    vertex -1.9875 -3.44245098004314 11.0
    vertex -2.10364267402998 -2.10364267402998 11.0
  endloop
endfacet
facet normal 0.0 0.0 1.0
  outer loop
    vertex -2.10364267402998 -2.10364267402998 11.0
    vertex -1.9875 -3.44245098004314 11.0
    vertex -1.4875 -2.57642557625871 11.0
  endloop
endfacet
facet normal 0.0 0.0 1.0
  outer loop
    vertex -1.4875 -2.57642557625871 11.0
    vertex -1.9875 -3.44245098004314 11.0
    vertex -1.02880570428252 -3.83955515949905 11.0
  endloop
endfacet
facet normal 0.0 0.0 1.0
  outer loop
    vertex -1.4875 -2.57642557625871 11.0
    vertex -1.02880570428252 -3.83955515949905 11.0
    vertex -0.769986659179998 -2.87362933320998 11.0
  endloop
endfacet
facet normal 0.0 0.0 1.0
  outer loop
    vertex -3.44245098004314 1.9875 11.0
    vertex -4.24264068711929 4.24264068711928 11.0
    vertex -5.19615242270663 3.0 11.0
  endloop
endfacet
facet normal 0.0 0.0 1.0
  outer loop
    vertex -4.24264068711929 4.24264068711928 11.0
    vertex -3.44245098004314 1.9875 11.0
    vertex -2.81074945521653 2.81074945521652 11.0
  endloop
endfacet
facet normal 0.0 0.0 1.0
  outer loop
    vertex -2.81074945521653 2.81074945521652 11.0
    vertex -3.44245098004314 1.9875 11.0
    vertex -3.44245098004314 -1.9875 11.0
  endloop
endfacet
facet normal 0.0 0.0 1.0
  outer loop
    vertex -2.81074945521653 2.81074945521652 11.0
    vertex -3.44245098004314 -1.9875 11.0
    vertex -2.975 -3.64332422746338e-016 11.0
  endloop
endfacet
facet normal 0.0 0.0 1.0
  outer loop
    vertex -2.81074945521653 2.81074945521652 11.0
    vertex -2.975 -3.64332422746338e-016 11.0
    vertex -2.87362933320998 0.769986659179998 11.0
  endloop
endfacet
facet normal 0.0 0.0 1.0
  outer loop
    vertex -2.81074945521653 2.81074945521652 11.0
    vertex -2.87362933320998 0.769986659179998 11.0
    vertex -2.57642557625871 1.4875 11.0
  endloop
endfacet
facet normal 0.0 0.0 1.0
  outer loop
    vertex -2.81074945521653 2.81074945521652 11.0
    vertex -2.57642557625871 1.4875 11.0
    vertex -1.9875 3.44245098004314 11.0
  endloop
endfacet
facet normal 0.0 0.0 1.0
  outer loop
    vertex -1.9875 3.44245098004314 11.0
    vertex -2.57642557625871 1.4875 11.0
    vertex -2.10364267402998 2.10364267402998 11.0
  endloop
endfacet
facet normal 0.0 0.0 1.0
  outer loop
    vertex -1.9875 3.44245098004314 11.0
    vertex -2.10364267402998 2.10364267402998 11.0
    vertex -1.4875 2.5764255762587 11.0
  endloop
endfacet
facet normal 0.0 0.0 1.0
  outer loop
    vertex -1.9875 3.44245098004314 11.0
    vertex -1.4875 2.5764255762587 11.0
    vertex -1.02880570428252 3.83955515949905 11.0
  endloop
endfacet
facet normal 0.0 0.0 1.0
  outer loop
    vertex -1.02880570428252 3.83955515949905 11.0
    vertex -1.4875 2.5764255762587 11.0
    vertex -0.769986659180001 2.87362933320998 11.0
  endloop
endfacet
facet normal 0.600080981935849 -0.799939257143258 -1.68988845157245e-016
  outer loop
    vertex 4.24264068711928 4.24264068711929 1.0
    vertex 2.575 2.9916463746055 11.0
    vertex 2.575 2.9916463746055 0.999999999999999
  endloop
endfacet
facet normal 0.600080981935849 -0.799939257143258 -1.68988845157245e-016
  outer loop
    vertex 2.575 2.9916463746055 11.0
    vertex 4.24264068711928 4.24264068711929 1.0
    vertex 4.24264068711928 4.24264068711928 11.0
  endloop
endfacet
facet normal -0.866025403784439 0.5 1.35197664652556e-016
  outer loop
    vertex 3.0 5.19615242270663 11.0
    vertex 1.9875 3.44245098004315 1.0
    vertex 1.9875 3.44245098004315 11.0
  endloop
endfacet
facet normal -0.866025403784439 0.5 1.35197664652556e-016
  outer loop
    vertex 1.9875 3.44245098004315 1.0
    vertex 3.0 5.19615242270663 11.0
    vertex 3.0 5.19615242270663 1.0
  endloop
endfacet
facet normal -3.10011076316958e-016 -4.95518632824828e-032 1.0
  outer loop
    vertex 4.24264068711928 -4.24264068711928 1.0
    vertex 2.575 2.9916463746055 0.999999999999999
    vertex 2.575 -2.9916463746055 0.999999999999999
  endloop
endfacet
facet normal -3.10011076316958e-016 -4.95518632824828e-032 1.0
  outer loop
    vertex 2.575 2.9916463746055 0.999999999999999
    vertex 4.24264068711928 -4.24264068711928 1.0
    vertex 4.24264068711928 4.24264068711929 1.0
  endloop
endfacet
facet normal -3.10011076316958e-016 -4.95518632824828e-032 1.0
  outer loop
    vertex 4.24264068711928 4.24264068711929 1.0
    vertex 4.24264068711928 -4.24264068711928 1.0
    vertex 5.19615242270663 3.0 1.0
  endloop
endfacet
facet normal -3.10011076316958e-016 -4.95518632824828e-032 1.0
  outer loop
    vertex 5.19615242270663 3.0 1.0
    vertex 4.24264068711928 -4.24264068711928 1.0
    vertex 5.19615242270663 -3.0 1.0
  endloop
endfacet
facet normal -3.10011076316958e-016 -4.95518632824828e-032 1.0
  outer loop
    vertex 5.19615242270663 3.0 1.0
    vertex 5.19615242270663 -3.0 1.0
    vertex 5.79555495773441 1.55291427061513 1.0
  endloop
endfacet
facet normal -3.10011076316958e-016 -4.95518632824828e-032 1.0
  outer loop
    vertex 5.79555495773441 1.55291427061513 1.0
    vertex 5.19615242270663 -3.0 1.0
    vertex 5.79555495773441 -1.55291427061512 1.0
  endloop
endfacet
facet normal -3.10011076316958e-016 -4.95518632824828e-032 1.0
  outer loop
    vertex 5.79555495773441 1.55291427061513 1.0
    vertex 5.79555495773441 -1.55291427061512 1.0
    vertex 6.0 0.0 1.0
  endloop
endfacet
facet normal 0.600080981935848 0.799939257143259 -1.56678155635786e-016
  outer loop
    vertex 2.575 -2.9916463746055 11.0
    vertex 4.24264068711928 -4.24264068711928 1.0
    vertex 2.575 -2.9916463746055 0.999999999999999
  endloop
endfacet
facet normal 0.600080981935848 0.799939257143259 -1.56678155635786e-016
  outer loop
    vertex 4.24264068711928 -4.24264068711928 1.0
    vertex 2.575 -2.9916463746055 11.0
    vertex 4.24264068711928 -4.24264068711928 11.0
  endloop
endfacet
facet normal -0.866025403784438 -0.5 1.37995600146959e-016
  outer loop
    vertex 3.0 -5.19615242270663 11.0
    vertex 1.9875 -3.44245098004314 1.0
    vertex 3.0 -5.19615242270663 1.0
  endloop
endfacet
facet normal -0.866025403784438 -0.5 1.37995600146959e-016
  outer loop
    vertex 1.9875 -3.44245098004314 1.0
    vertex 3.0 -5.19615242270663 11.0
    vertex 1.9875 -3.44245098004314 11.0
  endloop
endfacet
facet normal 0.0 0.0 -1.0
  outer loop
    vertex -6.76148078402348 1.81173331571765 0.0
    vertex -6.76148078402348 -1.81173331571764 0.0
    vertex -7.0 8.57252759403147e-016 0.0
  endloop
endfacet
facet normal 0.0 0.0 -1.0
  outer loop
    vertex -6.76148078402348 -1.81173331571764 0.0
    vertex -6.76148078402348 1.81173331571765 0.0
    vertex -6.06217782649107 -3.5 0.0
  endloop
endfacet
facet normal 0.0 0.0 -1.0
  outer loop
    vertex -6.06217782649107 -3.5 0.0
    vertex -6.76148078402348 1.81173331571765 0.0
    vertex -6.06217782649107 3.5 0.0
  endloop
endfacet
facet normal 0.0 0.0 -1.0
  outer loop
    vertex -6.06217782649107 -3.5 0.0
    vertex -6.06217782649107 3.5 0.0
    vertex -4.94974746830584 -4.94974746830583 0.0
  endloop
endfacet
facet normal 0.0 0.0 -1.0
  outer loop
    vertex -4.94974746830584 -4.94974746830583 0.0
    vertex -6.06217782649107 3.5 0.0
    vertex -4.94974746830583 4.94974746830583 0.0
  endloop
endfacet
facet normal 0.0 0.0 -1.0
  outer loop
    vertex -4.94974746830584 -4.94974746830583 0.0
    vertex -4.94974746830583 4.94974746830583 0.0
    vertex -3.5 -6.06217782649107 0.0
  endloop
endfacet
facet normal 0.0 0.0 -1.0
  outer loop
    vertex -3.5 -6.06217782649107 0.0
    vertex -4.94974746830583 4.94974746830583 0.0
    vertex -3.5 6.06217782649107 0.0
  endloop
endfacet
facet normal 0.0 0.0 -1.0
  outer loop
    vertex -3.5 -6.06217782649107 0.0
    vertex -3.5 6.06217782649107 0.0
    vertex -1.81173331571765 -6.76148078402348 0.0
  endloop
endfacet
facet normal 0.0 0.0 -1.0
  outer loop
    vertex -1.81173331571765 -6.76148078402348 0.0
    vertex -3.5 6.06217782649107 0.0
    vertex -1.81173331571764 6.76148078402348 0.0
  endloop
endfacet
facet normal 0.0 0.0 -1.0
  outer loop
    vertex -1.81173331571765 -6.76148078402348 0.0
    vertex -1.81173331571764 6.76148078402348 0.0
    vertex -1.28587913910472e-015 -7.0 0.0
  endloop
endfacet
facet normal 0.0 0.0 -1.0
  outer loop
    vertex -1.28587913910472e-015 -7.0 0.0
    vertex -1.81173331571764 6.76148078402348 0.0
    vertex 4.28626379701574e-016 7.0 0.0
  endloop
endfacet
facet normal 0.0 0.0 -1.0
  outer loop
    vertex -1.28587913910472e-015 -7.0 0.0
    vertex 4.28626379701574e-016 7.0 0.0
    vertex 1.81173331571764 -6.76148078402348 0.0
  endloop
endfacet
facet normal 0.0 0.0 -1.0
  outer loop
    vertex 1.81173331571764 -6.76148078402348 0.0
    vertex 4.28626379701574e-016 7.0 0.0
    vertex 1.81173331571765 6.76148078402348 0.0
  endloop
endfacet
facet normal 0.0 0.0 -1.0
  outer loop
    vertex 1.81173331571764 -6.76148078402348 0.0
    vertex 1.81173331571765 6.76148078402348 0.0
    vertex 3.5 -6.06217782649107 0.0
  endloop
endfacet
facet normal 0.0 0.0 -1.0
  outer loop
    vertex 3.5 -6.06217782649107 0.0
    vertex 1.81173331571765 6.76148078402348 0.0
    vertex 3.5 6.06217782649107 0.0
  endloop
endfacet
facet normal 0.0 0.0 -1.0
  outer loop
    vertex 3.5 -6.06217782649107 0.0
    vertex 3.5 6.06217782649107 0.0
    vertex 4.94974746830583 -4.94974746830583 0.0
  endloop
endfacet
facet normal 0.0 0.0 -1.0
  outer loop
    vertex 4.94974746830583 -4.94974746830583 0.0
    vertex 3.5 6.06217782649107 0.0
    vertex 4.94974746830583 4.94974746830583 0.0
  endloop
endfacet
facet normal 0.0 0.0 -1.0
  outer loop
    vertex 4.94974746830583 -4.94974746830583 0.0
    vertex 4.94974746830583 4.94974746830583 0.0
    vertex 6.06217782649107 -3.5 0.0
  endloop
endfacet
facet normal 0.0 0.0 -1.0
  outer loop
    vertex 6.06217782649107 -3.5 0.0
    vertex 4.94974746830583 4.94974746830583 0.0
    vertex 6.06217782649107 3.5 0.0
  endloop
endfacet
facet normal 0.0 0.0 -1.0
  outer loop
    vertex 6.06217782649107 -3.5 0.0
    vertex 6.06217782649107 3.5 0.0
    vertex 6.76148078402348 -1.81173331571765 0.0
  endloop
endfacet
facet normal 0.0 0.0 -1.0
  outer loop
    vertex 6.76148078402348 -1.81173331571765 0.0
    vertex 6.06217782649107 3.5 0.0
    vertex 6.76148078402348 1.81173331571765 0.0
  endloop
endfacet
facet normal 0.0 0.0 -1.0
  outer loop
    vertex 6.76148078402348 -1.81173331571765 0.0
    vertex 6.76148078402348 1.81173331571765 0.0
    vertex 7.0 0.0 0.0
  endloop
endfacet
facet normal 0.0 0.0 1.0
  outer loop
    vertex 3.0 -5.19615242270663 11.0
    vertex 2.575 -2.9916463746055 11.0
    vertex 1.9875 -3.44245098004314 11.0
  endloop
endfacet
facet normal 0.0 0.0 1.0
  outer loop
    vertex 2.575 -2.9916463746055 11.0
    vertex 3.0 -5.19615242270663 11.0
    vertex 4.24264068711928 -4.24264068711928 11.0
  endloop
endfacet
facet normal 0.0 0.0 1.0
  outer loop
    vertex 1.00678600513645e-015 -3.975 11.0
    vertex 0.769986659180001 -2.87362933320998 11.0
    vertex 9.45553665179085e-016 -2.975 11.0
  endloop
endfacet
facet normal 0.0 0.0 1.0
  outer loop
    vertex 0.769986659180001 -2.87362933320998 11.0
    vertex 1.00678600513645e-015 -3.975 11.0
    vertex 1.02880570428252 -3.83955515949905 11.0
  endloop
endfacet
facet normal 0.0 0.0 1.0
  outer loop
    vertex 0.769986659180001 -2.87362933320998 11.0
    vertex 1.02880570428252 -3.83955515949905 11.0
    vertex 1.4875 -2.57642557625871 11.0
  endloop
endfacet
facet normal 0.0 0.0 1.0
  outer loop
    vertex 1.4875 -2.57642557625871 11.0
    vertex 1.02880570428252 -3.83955515949905 11.0
    vertex 1.9875 -3.44245098004314 11.0
  endloop
endfacet
facet normal 0.0 0.0 1.0
  outer loop
    vertex 1.4875 -2.57642557625871 11.0
    vertex 1.9875 -3.44245098004314 11.0
    vertex 1.575 -2.50928446481055 11.0
  endloop
endfacet
facet normal 0.0 0.0 1.0
  outer loop
    vertex 1.575 -2.50928446481055 11.0
    vertex 1.9875 -3.44245098004314 11.0
    vertex 1.575 2.50928446481055 11.0
  endloop
endfacet
facet normal 0.0 0.0 1.0
  outer loop
    vertex 1.575 2.50928446481055 11.0
    vertex 1.9875 -3.44245098004314 11.0
    vertex 1.9875 3.44245098004315 11.0
  endloop
endfacet
facet normal 0.0 0.0 1.0
  outer loop
    vertex 1.9875 3.44245098004315 11.0
    vertex 1.9875 -3.44245098004314 11.0
    vertex 2.575 2.9916463746055 11.0
  endloop
endfacet
facet normal 0.0 0.0 1.0
  outer loop
    vertex 1.9875 3.44245098004315 11.0
    vertex 2.575 2.9916463746055 11.0
    vertex 3.0 5.19615242270663 11.0
  endloop
endfacet
facet normal 0.0 0.0 1.0
  outer loop
    vertex 2.575 2.9916463746055 11.0
    vertex 1.9875 -3.44245098004314 11.0
    vertex 2.575 -2.9916463746055 11.0
  endloop
endfacet
facet normal 0.0 0.0 1.0
  outer loop
    vertex 3.0 5.19615242270663 11.0
    vertex 2.575 2.9916463746055 11.0
    vertex 4.24264068711928 4.24264068711928 11.0
  endloop
endfacet
facet normal 0.0 0.0 1.0
  outer loop
    vertex 2.1688881968641e-016 2.975 11.0
    vertex 1.02880570428252 3.83955515949905 11.0
    vertex 3.31917998143072e-017 3.975 11.0
  endloop
endfacet
facet normal 0.0 0.0 1.0
  outer loop
    vertex 1.02880570428252 3.83955515949905 11.0
    vertex 2.1688881968641e-016 2.975 11.0
    vertex 0.769986659179999 2.87362933320998 11.0
  endloop
endfacet
facet normal 0.0 0.0 1.0
  outer loop
    vertex 1.02880570428252 3.83955515949905 11.0
    vertex 0.769986659179999 2.87362933320998 11.0
    vertex 1.4875 2.57642557625871 11.0
  endloop
endfacet
facet normal 0.0 0.0 1.0
  outer loop
    vertex 1.02880570428252 3.83955515949905 11.0
    vertex 1.4875 2.57642557625871 11.0
    vertex 1.9875 3.44245098004315 11.0
  endloop
endfacet
facet normal 0.0 0.0 1.0
  outer loop
    vertex 1.9875 3.44245098004315 11.0
    vertex 1.4875 2.57642557625871 11.0
    vertex 1.575 2.50928446481055 11.0
  endloop
endfacet
facet normal 0.965925826289068 -0.258819045102521 -7.16188510898702e-017
  outer loop
    vertex -0.769986659179999 -2.87362933320998 1.0
    vertex -1.02880570428252 -3.83955515949905 11.0
    vertex -1.02880570428252 -3.83955515949905 1.0
  endloop
endfacet
facet normal 0.965925826289068 -0.258819045102521 -7.16188510898702e-017
  outer loop
    vertex -1.02880570428252 -3.83955515949905 11.0
    vertex -0.769986659179999 -2.87362933320998 1.0
    vertex -0.769986659179998 -2.87362933320998 11.0
  endloop
endfacet
facet normal -1.0 -6.12323399573677e-017 7.63387453805917e-017
  outer loop
    vertex 9.45553665179085e-016 -2.975 11.0
    vertex 2.43398551330536e-016 -3.975 1.0
    vertex 1.00678600513645e-015 -3.975 11.0
  endloop
endfacet
facet normal -1.0 -6.12323399573677e-017 7.63387453805917e-017
  outer loop
    vertex 2.43398551330536e-016 -3.975 1.0
    vertex 9.45553665179085e-016 -2.975 11.0
    vertex 1.82166211373169e-016 -2.975 1.0
  endloop
endfacet
facet normal 0.965925826289068 0.258819045102521 -7.16188510898701e-017
  outer loop
    vertex -1.02880570428252 3.83955515949905 1.0
    vertex -0.769986659180001 2.87362933320998 11.0
    vertex -0.769986659180002 2.87362933320998 1.0
  endloop
endfacet
facet normal 0.965925826289068 0.258819045102521 -7.16188510898701e-017
  outer loop
    vertex -0.769986659180001 2.87362933320998 11.0
    vertex -1.02880570428252 3.83955515949905 1.0
    vertex -1.02880570428252 3.83955515949905 11.0
  endloop
endfacet
facet normal -1.0 -1.83697019872103e-016 7.63387453805917e-017
  outer loop
    vertex 3.31917998143072e-017 3.975 11.0
    vertex -5.46498634119506e-016 2.975 1.0
    vertex 2.1688881968641e-016 2.975 11.0
  endloop
endfacet
facet normal -1.0 -1.83697019872103e-016 7.63387453805917e-017
  outer loop
    vertex -5.46498634119506e-016 2.975 1.0
    vertex 3.31917998143072e-017 3.975 11.0
    vertex -7.30195653991609e-016 3.975 1.0
  endloop
endfacet
endsolid knob2
