solid ledfoot
facet normal 0.857492925712544 -1.34706895460892e-017 0.514495755427527
  outer loop
    vertex 4.5 4.5 1.5
    vertex 1.5 62.5 6.5
    vertex 1.5 1.5 6.5
  endloop
endfacet
facet normal 0.857492925712544 -1.34706895460892e-017 0.514495755427527
  outer loop
    vertex 1.5 62.5 6.5
    vertex 4.5 4.5 1.5
    vertex 4.5 6.5 1.5
  endloop
endfacet
facet normal 0.857492925712544 -1.34706895460892e-017 0.514495755427527
  outer loop
    vertex 1.5 62.5 6.5
    vertex 4.5 6.5 1.5
    vertex 4.5 8.5 1.5
  endloop
endfacet
facet normal 0.857492925712544 -1.34706895460892e-017 0.514495755427527
  outer loop
    vertex 1.5 62.5 6.5
    vertex 4.5 8.5 1.5
    vertex 4.5 10.0 1.5
  endloop
endfacet
facet normal 0.857492925712544 -1.34706895460892e-017 0.514495755427527
  outer loop
    vertex 1.5 62.5 6.5
    vertex 4.5 10.0 1.5
    vertex 4.5 54.0 1.5
  endloop
endfacet
facet normal 0.857492925712544 -1.34706895460892e-017 0.514495755427527
  outer loop
    vertex 1.5 62.5 6.5
    vertex 4.5 54.0 1.5
    vertex 4.5 55.4999999999999 1.5
  endloop
endfacet
facet normal 0.857492925712544 -1.34706895460892e-017 0.514495755427527
  outer loop
    vertex 1.5 62.5 6.5
    vertex 4.5 55.4999999999999 1.5
    vertex 4.5 57.5 1.5
  endloop
endfacet
facet normal 0.857492925712544 -1.34706895460892e-017 0.514495755427527
  outer loop
    vertex 1.5 62.5 6.5
    vertex 4.5 57.5 1.5
    vertex 4.5 59.5 1.5
  endloop
endfacet
facet normal -0.857492925712544 -1.4292073054997e-017 0.514495755427527
  outer loop
    vertex 11.5 62.5 6.5
    vertex 8.5 4.5 1.5
    vertex 11.5 1.5 6.5
  endloop
endfacet
facet normal -0.857492925712544 -1.4292073054997e-017 0.514495755427527
  outer loop
    vertex 8.5 4.5 1.5
    vertex 11.5 62.5 6.5
    vertex 8.5 6.5 1.5
  endloop
endfacet
facet normal -0.857492925712544 -1.4292073054997e-017 0.514495755427527
  outer loop
    vertex 8.5 6.5 1.5
    vertex 11.5 62.5 6.5
    vertex 8.5 8.5 1.5
  endloop
endfacet
facet normal -0.857492925712544 -1.4292073054997e-017 0.514495755427527
  outer loop
    vertex 8.5 8.5 1.5
    vertex 11.5 62.5 6.5
    vertex 8.5 10.0 1.5
  endloop
endfacet
facet normal -0.857492925712544 -1.4292073054997e-017 0.514495755427527
  outer loop
    vertex 8.5 10.0 1.5
    vertex 11.5 62.5 6.5
    vertex 8.5 54.0 1.5
  endloop
endfacet
facet normal -0.857492925712544 -1.4292073054997e-017 0.514495755427527
  outer loop
    vertex 8.5 54.0 1.5
    vertex 11.5 62.5 6.5
    vertex 8.5 55.5 1.5
  endloop
endfacet
facet normal -0.857492925712544 -1.4292073054997e-017 0.514495755427527
  outer loop
    vertex 8.5 55.5 1.5
    vertex 11.5 62.5 6.5
    vertex 8.5 57.5 1.5
  endloop
endfacet
facet normal -0.857492925712544 -1.4292073054997e-017 0.514495755427527
  outer loop
    vertex 8.5 57.5 1.5
    vertex 11.5 62.5 6.5
    vertex 8.5 59.5 1.5
  endloop
endfacet
facet normal -6.61851004979471e-018 -0.857492925712544 0.514495755427527
  outer loop
    vertex 8.5 59.5 1.5
    vertex 4.5 59.5 1.5
    vertex 6.5 59.5 1.5
  endloop
endfacet
facet normal -6.61851004979471e-018 -0.857492925712544 0.514495755427527
  outer loop
    vertex 4.5 59.5 1.5
    vertex 8.5 59.5 1.5
    vertex 11.5 62.5 6.5
  endloop
endfacet
facet normal -6.61851004979471e-018 -0.857492925712544 0.514495755427527
  outer loop
    vertex 4.5 59.5 1.5
    vertex 11.5 62.5 6.5
    vertex 1.5 62.5 6.5
  endloop
endfacet
facet normal -6.6185100497948e-018 0.857492925712544 0.514495755427527
  outer loop
    vertex 4.5 4.5 1.5
    vertex 8.5 4.5 1.5
    vertex 6.5 4.5 1.5
  endloop
endfacet
facet normal -6.6185100497948e-018 0.857492925712544 0.514495755427527
  outer loop
    vertex 8.5 4.5 1.5
    vertex 4.5 4.5 1.5
    vertex 1.5 1.5 6.5
  endloop
endfacet
facet normal -6.6185100497948e-018 0.857492925712544 0.514495755427527
  outer loop
    vertex 8.5 4.5 1.5
    vertex 1.5 1.5 6.5
    vertex 11.5 1.5 6.5
  endloop
endfacet
facet normal 1.36400802610275e-015 1.36400802610275e-015 1.0
  outer loop
    vertex 4.5 4.5 1.5
    vertex 4.56814834742186 5.98236190979496 1.5
    vertex 4.5 6.5 1.5
  endloop
endfacet
facet normal 1.36400802610275e-015 1.36400802610275e-015 1.0
  outer loop
    vertex 4.56814834742186 5.98236190979496 1.5
    vertex 4.5 4.5 1.5
    vertex 4.76794919243112 5.5 1.5
  endloop
endfacet
facet normal 1.36400802610275e-015 1.36400802610275e-015 1.0
  outer loop
    vertex 4.76794919243112 5.5 1.5
    vertex 4.5 4.5 1.5
    vertex 5.08578643762691 5.08578643762691 1.5
  endloop
endfacet
facet normal 1.36400802610275e-015 1.36400802610275e-015 1.0
  outer loop
    vertex 5.08578643762691 5.08578643762691 1.5
    vertex 4.5 4.5 1.5
    vertex 5.5 4.76794919243112 1.5
  endloop
endfacet
facet normal 1.36400802610275e-015 1.36400802610275e-015 1.0
  outer loop
    vertex 5.5 4.76794919243112 1.5
    vertex 4.5 4.5 1.5
    vertex 5.98236190979496 4.56814834742186 1.5
  endloop
endfacet
facet normal 1.36400802610275e-015 1.36400802610275e-015 1.0
  outer loop
    vertex 5.98236190979496 4.56814834742186 1.5
    vertex 4.5 4.5 1.5
    vertex 6.5 4.5 1.5
  endloop
endfacet
facet normal 0.0 -0.907959384500452 -0.419058177461747
  outer loop
    vertex 13.0 0.0 6.5
    vertex 3.0 3.0 0.0
    vertex 10.0 3.0 0.0
  endloop
endfacet
facet normal 0.0 -0.907959384500452 -0.419058177461747
  outer loop
    vertex 3.0 3.0 0.0
    vertex 13.0 0.0 6.5
    vertex 0.0 0.0 6.5
  endloop
endfacet
facet normal 0.907959384500452 -1.67649365353358e-019 -0.419058177461747
  outer loop
    vertex 10.0 3.0 0.0
    vertex 13.0 64.0 6.5
    vertex 13.0 0.0 6.5
  endloop
endfacet
facet normal 0.907959384500452 -1.67649365353358e-019 -0.419058177461747
  outer loop
    vertex 13.0 64.0 6.5
    vertex 10.0 3.0 0.0
    vertex 10.0 61.0 0.0
  endloop
endfacet
facet normal 0.0 0.907959384500451 -0.419058177461748
  outer loop
    vertex 0.0 64.0 6.5
    vertex 10.0 61.0 0.0
    vertex 3.0 61.0 0.0
  endloop
endfacet
facet normal 0.0 0.907959384500451 -0.419058177461748
  outer loop
    vertex 10.0 61.0 0.0
    vertex 0.0 64.0 6.5
    vertex 13.0 64.0 6.5
  endloop
endfacet
facet normal -0.907959384500452 -1.67649365353358e-019 -0.419058177461747
  outer loop
    vertex 0.0 64.0 6.5
    vertex 3.0 3.0 0.0
    vertex 0.0 0.0 6.5
  endloop
endfacet
facet normal -0.907959384500452 -1.67649365353358e-019 -0.419058177461747
  outer loop
    vertex 3.0 3.0 0.0
    vertex 0.0 64.0 6.5
    vertex 3.0 61.0 0.0
  endloop
endfacet
facet normal 0.0 0.0 -1.0
  outer loop
    vertex 3.0 61.0 0.0
    vertex 3.5 57.5 0.0
    vertex 3.0 3.0 0.0
  endloop
endfacet
facet normal 0.0 0.0 -1.0
  outer loop
    vertex 3.5 57.5 0.0
    vertex 3.0 61.0 0.0
    vertex 3.6022225211328 58.2764571353075 0.0
  endloop
endfacet
facet normal 0.0 0.0 -1.0
  outer loop
    vertex 3.6022225211328 58.2764571353075 0.0
    vertex 3.0 61.0 0.0
    vertex 3.90192378864669 59.0 0.0
  endloop
endfacet
facet normal 0.0 0.0 -1.0
  outer loop
    vertex 3.90192378864669 59.0 0.0
    vertex 3.0 61.0 0.0
    vertex 4.37867965644036 59.6213203435596 0.0
  endloop
endfacet
facet normal 0.0 0.0 -1.0
  outer loop
    vertex 4.37867965644036 59.6213203435596 0.0
    vertex 3.0 61.0 0.0
    vertex 5.0 60.0980762113533 0.0
  endloop
endfacet
facet normal 0.0 0.0 -1.0
  outer loop
    vertex 5.0 60.0980762113533 0.0
    vertex 3.0 61.0 0.0
    vertex 5.72354286469244 60.3977774788672 0.0
  endloop
endfacet
facet normal 0.0 0.0 -1.0
  outer loop
    vertex 5.72354286469244 60.3977774788672 0.0
    vertex 3.0 61.0 0.0
    vertex 10.0 61.0 0.0
  endloop
endfacet
facet normal 0.0 0.0 -1.0
  outer loop
    vertex 3.0 3.0 0.0
    vertex 3.5 57.5 0.0
    vertex 3.5 6.5 0.0
  endloop
endfacet
facet normal 0.0 0.0 -1.0
  outer loop
    vertex 5.72354286469244 60.3977774788672 0.0
    vertex 10.0 61.0 0.0
    vertex 6.5 60.5 0.0
  endloop
endfacet
facet normal 0.0 0.0 -1.0
  outer loop
    vertex 6.5 60.5 0.0
    vertex 10.0 61.0 0.0
    vertex 7.27645713530756 60.3977774788672 0.0
  endloop
endfacet
facet normal 0.0 0.0 -1.0
  outer loop
    vertex 7.27645713530756 60.3977774788672 0.0
    vertex 10.0 61.0 0.0
    vertex 8.0 60.0980762113533 0.0
  endloop
endfacet
facet normal 0.0 0.0 -1.0
  outer loop
    vertex 8.0 60.0980762113533 0.0
    vertex 10.0 61.0 0.0
    vertex 8.62132034355964 59.6213203435596 0.0
  endloop
endfacet
facet normal 0.0 0.0 -1.0
  outer loop
    vertex 8.62132034355964 59.6213203435596 0.0
    vertex 10.0 61.0 0.0
    vertex 9.09807621135331 59.0 0.0
  endloop
endfacet
facet normal 0.0 0.0 -1.0
  outer loop
    vertex 9.09807621135331 59.0 0.0
    vertex 10.0 61.0 0.0
    vertex 9.3977774788672 58.2764571353075 0.0
  endloop
endfacet
facet normal 0.0 0.0 -1.0
  outer loop
    vertex 9.3977774788672 58.2764571353075 0.0
    vertex 10.0 61.0 0.0
    vertex 9.49999999999999 57.5 0.0
  endloop
endfacet
facet normal 0.0 0.0 -1.0
  outer loop
    vertex 9.49999999999999 57.5 0.0
    vertex 10.0 61.0 0.0
    vertex 9.5 6.5 0.0
  endloop
endfacet
facet normal 0.0 0.0 -1.0
  outer loop
    vertex 3.0 3.0 0.0
    vertex 5.72354286469244 3.60222252113279 0.0
    vertex 10.0 3.0 0.0
  endloop
endfacet
facet normal 0.0 0.0 -1.0
  outer loop
    vertex 5.72354286469244 3.60222252113279 0.0
    vertex 3.0 3.0 0.0
    vertex 5.0 3.90192378864668 0.0
  endloop
endfacet
facet normal 0.0 0.0 -1.0
  outer loop
    vertex 5.0 3.90192378864668 0.0
    vertex 3.0 3.0 0.0
    vertex 4.37867965644036 4.37867965644036 0.0
  endloop
endfacet
facet normal 0.0 0.0 -1.0
  outer loop
    vertex 4.37867965644036 4.37867965644036 0.0
    vertex 3.0 3.0 0.0
    vertex 3.90192378864668 5.0 0.0
  endloop
endfacet
facet normal 0.0 0.0 -1.0
  outer loop
    vertex 3.90192378864668 5.0 0.0
    vertex 3.0 3.0 0.0
    vertex 3.60222252113279 5.72354286469244 0.0
  endloop
endfacet
facet normal 0.0 0.0 -1.0
  outer loop
    vertex 3.60222252113279 5.72354286469244 0.0
    vertex 3.0 3.0 0.0
    vertex 3.5 6.5 0.0
  endloop
endfacet
facet normal 0.0 0.0 -1.0
  outer loop
    vertex 10.0 3.0 0.0
    vertex 5.72354286469244 3.60222252113279 0.0
    vertex 6.5 3.5 0.0
  endloop
endfacet
facet normal 0.0 0.0 -1.0
  outer loop
    vertex 10.0 3.0 0.0
    vertex 6.5 3.5 0.0
    vertex 7.27645713530756 3.60222252113279 0.0
  endloop
endfacet
facet normal 0.0 0.0 -1.0
  outer loop
    vertex 10.0 3.0 0.0
    vertex 7.27645713530756 3.60222252113279 0.0
    vertex 8.0 3.90192378864668 0.0
  endloop
endfacet
facet normal 0.0 0.0 -1.0
  outer loop
    vertex 10.0 3.0 0.0
    vertex 8.0 3.90192378864668 0.0
    vertex 8.62132034355964 4.37867965644036 0.0
  endloop
endfacet
facet normal 0.0 0.0 -1.0
  outer loop
    vertex 10.0 3.0 0.0
    vertex 8.62132034355964 4.37867965644036 0.0
    vertex 9.09807621135331 5.0 0.0
  endloop
endfacet
facet normal 0.0 0.0 -1.0
  outer loop
    vertex 10.0 3.0 0.0
    vertex 9.09807621135331 5.0 0.0
    vertex 9.39777747886721 5.72354286469243 0.0
  endloop
endfacet
facet normal 0.0 0.0 -1.0
  outer loop
    vertex 10.0 3.0 0.0
    vertex 9.39777747886721 5.72354286469243 0.0
    vertex 9.5 6.5 0.0
  endloop
endfacet
facet normal 0.0 0.0 -1.0
  outer loop
    vertex 10.0 3.0 0.0
    vertex 9.5 6.5 0.0
    vertex 10.0 61.0 0.0
  endloop
endfacet
facet normal 0.0 0.0 -1.0
  outer loop
    vertex 3.5 57.5 0.0
    vertex 3.60222252113279 7.27645713530756 0.0
    vertex 3.5 6.5 0.0
  endloop
endfacet
facet normal 0.0 0.0 -1.0
  outer loop
    vertex 3.60222252113279 7.27645713530756 0.0
    vertex 3.5 57.5 0.0
    vertex 3.6022225211328 56.7235428646924 0.0
  endloop
endfacet
facet normal 0.0 0.0 -1.0
  outer loop
    vertex 3.60222252113279 7.27645713530756 0.0
    vertex 3.6022225211328 56.7235428646924 0.0
    vertex 3.90192378864668 8.0 0.0
  endloop
endfacet
facet normal 0.0 0.0 -1.0
  outer loop
    vertex 3.90192378864668 8.0 0.0
    vertex 3.6022225211328 56.7235428646924 0.0
    vertex 3.90192378864669 56.0 0.0
  endloop
endfacet
facet normal 0.0 0.0 -1.0
  outer loop
    vertex 3.90192378864668 8.0 0.0
    vertex 3.90192378864669 56.0 0.0
    vertex 4.37867965644036 8.62132034355964 0.0
  endloop
endfacet
facet normal 0.0 0.0 -1.0
  outer loop
    vertex 4.37867965644036 8.62132034355964 0.0
    vertex 3.90192378864669 56.0 0.0
    vertex 4.37867965644036 55.3786796564403 0.0
  endloop
endfacet
facet normal 0.0 0.0 -1.0
  outer loop
    vertex 4.37867965644036 8.62132034355964 0.0
    vertex 4.37867965644036 55.3786796564403 0.0
    vertex 5.0 9.09807621135332 0.0
  endloop
endfacet
facet normal 0.0 0.0 -1.0
  outer loop
    vertex 5.0 9.09807621135332 0.0
    vertex 4.37867965644036 55.3786796564403 0.0
    vertex 5.0 54.9019237886467 0.0
  endloop
endfacet
facet normal 0.0 0.0 -1.0
  outer loop
    vertex 5.0 9.09807621135332 0.0
    vertex 5.0 54.9019237886467 0.0
    vertex 5.72354286469244 9.39777747886721 0.0
  endloop
endfacet
facet normal 0.0 0.0 -1.0
  outer loop
    vertex 5.72354286469244 9.39777747886721 0.0
    vertex 5.0 54.9019237886467 0.0
    vertex 5.72354286469244 54.6022225211328 0.0
  endloop
endfacet
facet normal 0.0 0.0 -1.0
  outer loop
    vertex 5.72354286469244 9.39777747886721 0.0
    vertex 5.72354286469244 54.6022225211328 0.0
    vertex 6.5 54.5 0.0
  endloop
endfacet
facet normal 0.0 0.0 -1.0
  outer loop
    vertex 5.72354286469244 9.39777747886721 0.0
    vertex 6.5 54.5 0.0
    vertex 6.5 9.5 0.0
  endloop
endfacet
facet normal 0.0 0.0 -1.0
  outer loop
    vertex 6.5 9.5 0.0
    vertex 6.5 54.5 0.0
    vertex 7.27645713530756 54.6022225211328 0.0
  endloop
endfacet
facet normal 0.0 0.0 -1.0
  outer loop
    vertex 6.5 9.5 0.0
    vertex 7.27645713530756 54.6022225211328 0.0
    vertex 7.27645713530756 9.39777747886721 0.0
  endloop
endfacet
facet normal 0.0 0.0 -1.0
  outer loop
    vertex 7.27645713530756 9.39777747886721 0.0
    vertex 7.27645713530756 54.6022225211328 0.0
    vertex 8.0 54.9019237886467 0.0
  endloop
endfacet
facet normal 0.0 0.0 -1.0
  outer loop
    vertex 7.27645713530756 9.39777747886721 0.0
    vertex 8.0 54.9019237886467 0.0
    vertex 8.0 9.09807621135331 0.0
  endloop
endfacet
facet normal 0.0 0.0 -1.0
  outer loop
    vertex 8.0 9.09807621135331 0.0
    vertex 8.0 54.9019237886467 0.0
    vertex 8.62132034355964 55.3786796564403 0.0
  endloop
endfacet
facet normal 0.0 0.0 -1.0
  outer loop
    vertex 8.0 9.09807621135331 0.0
    vertex 8.62132034355964 55.3786796564403 0.0
    vertex 8.62132034355964 8.62132034355964 0.0
  endloop
endfacet
facet normal 0.0 0.0 -1.0
  outer loop
    vertex 8.62132034355964 8.62132034355964 0.0
    vertex 8.62132034355964 55.3786796564403 0.0
    vertex 9.09807621135331 56.0 0.0
  endloop
endfacet
facet normal 0.0 0.0 -1.0
  outer loop
    vertex 8.62132034355964 8.62132034355964 0.0
    vertex 9.09807621135331 56.0 0.0
    vertex 9.09807621135332 8.0 0.0
  endloop
endfacet
facet normal 0.0 0.0 -1.0
  outer loop
    vertex 9.09807621135332 8.0 0.0
    vertex 9.09807621135331 56.0 0.0
    vertex 9.3977774788672 56.7235428646924 0.0
  endloop
endfacet
facet normal 0.0 0.0 -1.0
  outer loop
    vertex 9.09807621135332 8.0 0.0
    vertex 9.3977774788672 56.7235428646924 0.0
    vertex 9.39777747886721 7.27645713530756 0.0
  endloop
endfacet
facet normal 0.0 0.0 -1.0
  outer loop
    vertex 9.39777747886721 7.27645713530756 0.0
    vertex 9.3977774788672 56.7235428646924 0.0
    vertex 9.49999999999999 57.5 0.0
  endloop
endfacet
facet normal 0.0 0.0 -1.0
  outer loop
    vertex 9.39777747886721 7.27645713530756 0.0
    vertex 9.49999999999999 57.5 0.0
    vertex 9.5 6.5 0.0
  endloop
endfacet
facet normal 0.0 0.0 1.0
  outer loop
    vertex 0.0 0.0 6.5
    vertex 1.5 1.5 6.5
    vertex 0.0 64.0 6.5
  endloop
endfacet
facet normal 0.0 0.0 1.0
  outer loop
    vertex 1.5 1.5 6.5
    vertex 0.0 0.0 6.5
    vertex 13.0 0.0 6.5
  endloop
endfacet
facet normal 0.0 0.0 1.0
  outer loop
    vertex 1.5 1.5 6.5
    vertex 13.0 0.0 6.5
    vertex 11.5 1.5 6.5
  endloop
endfacet
facet normal 0.0 0.0 1.0
  outer loop
    vertex 11.5 1.5 6.5
    vertex 13.0 0.0 6.5
    vertex 11.5 62.5 6.5
  endloop
endfacet
facet normal 0.0 0.0 1.0
  outer loop
    vertex 0.0 64.0 6.5
    vertex 1.5 62.5 6.5
    vertex 13.0 64.0 6.5
  endloop
endfacet
facet normal 0.0 0.0 1.0
  outer loop
    vertex 1.5 62.5 6.5
    vertex 0.0 64.0 6.5
    vertex 1.5 1.5 6.5
  endloop
endfacet
facet normal 0.0 0.0 1.0
  outer loop
    vertex 13.0 64.0 6.5
    vertex 1.5 62.5 6.5
    vertex 11.5 62.5 6.5
  endloop
endfacet
facet normal 0.0 0.0 1.0
  outer loop
    vertex 13.0 64.0 6.5
    vertex 11.5 62.5 6.5
    vertex 13.0 0.0 6.5
  endloop
endfacet
facet normal -1.36400802610274e-015 -1.36400802610274e-015 1.0
  outer loop
    vertex 7.01763809020504 59.4318516525781 1.5
    vertex 8.5 59.5 1.5
    vertex 6.5 59.5 1.5
  endloop
endfacet
facet normal -1.36400802610274e-015 -1.36400802610274e-015 1.0
  outer loop
    vertex 8.5 59.5 1.5
    vertex 7.01763809020504 59.4318516525781 1.5
    vertex 7.5 59.2320508075689 1.5
  endloop
endfacet
facet normal -1.36400802610274e-015 -1.36400802610274e-015 1.0
  outer loop
    vertex 8.5 59.5 1.5
    vertex 7.5 59.2320508075689 1.5
    vertex 7.91421356237309 58.9142135623731 1.5
  endloop
endfacet
facet normal -1.36400802610274e-015 -1.36400802610274e-015 1.0
  outer loop
    vertex 8.5 59.5 1.5
    vertex 7.91421356237309 58.9142135623731 1.5
    vertex 8.23205080756887 58.5 1.5
  endloop
endfacet
facet normal -1.36400802610274e-015 -1.36400802610274e-015 1.0
  outer loop
    vertex 8.5 59.5 1.5
    vertex 8.23205080756887 58.5 1.5
    vertex 8.43185165257813 58.017638090205 1.5
  endloop
endfacet
facet normal -1.36400802610274e-015 -1.36400802610274e-015 1.0
  outer loop
    vertex 8.5 59.5 1.5
    vertex 8.43185165257813 58.017638090205 1.5
    vertex 8.5 57.5 1.5
  endloop
endfacet
facet normal 1.36400802610274e-015 -1.36400802610274e-015 1.0
  outer loop
    vertex 4.5 59.5 1.5
    vertex 5.98236190979496 59.4318516525781 1.5
    vertex 6.5 59.5 1.5
  endloop
endfacet
facet normal 1.36400802610274e-015 -1.36400802610274e-015 1.0
  outer loop
    vertex 5.98236190979496 59.4318516525781 1.5
    vertex 4.5 59.5 1.5
    vertex 5.5 59.2320508075689 1.5
  endloop
endfacet
facet normal 1.36400802610274e-015 -1.36400802610274e-015 1.0
  outer loop
    vertex 5.5 59.2320508075689 1.5
    vertex 4.5 59.5 1.5
    vertex 5.08578643762691 58.9142135623731 1.5
  endloop
endfacet
facet normal 1.36400802610274e-015 -1.36400802610274e-015 1.0
  outer loop
    vertex 5.08578643762691 58.9142135623731 1.5
    vertex 4.5 59.5 1.5
    vertex 4.76794919243113 58.5 1.5
  endloop
endfacet
facet normal 1.36400802610274e-015 -1.36400802610274e-015 1.0
  outer loop
    vertex 4.76794919243113 58.5 1.5
    vertex 4.5 59.5 1.5
    vertex 4.56814834742187 58.017638090205 1.5
  endloop
endfacet
facet normal 1.36400802610274e-015 -1.36400802610274e-015 1.0
  outer loop
    vertex 4.56814834742187 58.017638090205 1.5
    vertex 4.5 59.5 1.5
    vertex 4.5 57.5 1.5
  endloop
endfacet
facet normal -1.36400802610275e-015 1.36400802610275e-015 1.0
  outer loop
    vertex 8.5 4.5 1.5
    vertex 7.01763809020504 4.56814834742186 1.5
    vertex 6.5 4.5 1.5
  endloop
endfacet
facet normal -1.36400802610275e-015 1.36400802610275e-015 1.0
  outer loop
    vertex 7.01763809020504 4.56814834742186 1.5
    vertex 8.5 4.5 1.5
    vertex 7.5 4.76794919243112 1.5
  endloop
endfacet
facet normal -1.36400802610275e-015 1.36400802610275e-015 1.0
  outer loop
    vertex 7.5 4.76794919243112 1.5
    vertex 8.5 4.5 1.5
    vertex 7.91421356237309 5.0857864376269 1.5
  endloop
endfacet
facet normal -1.36400802610275e-015 1.36400802610275e-015 1.0
  outer loop
    vertex 7.91421356237309 5.0857864376269 1.5
    vertex 8.5 4.5 1.5
    vertex 8.23205080756888 5.5 1.5
  endloop
endfacet
facet normal -1.36400802610275e-015 1.36400802610275e-015 1.0
  outer loop
    vertex 8.23205080756888 5.5 1.5
    vertex 8.5 4.5 1.5
    vertex 8.43185165257814 5.98236190979496 1.5
  endloop
endfacet
facet normal -1.36400802610275e-015 1.36400802610275e-015 1.0
  outer loop
    vertex 8.43185165257814 5.98236190979496 1.5
    vertex 8.5 4.5 1.5
    vertex 8.5 6.5 1.5
  endloop
endfacet
facet normal -6.82004013051374e-016 -6.82004013051374e-016 1.0
  outer loop
    vertex 7.01763809020504 8.43185165257814 1.5
    vertex 8.5 8.5 1.5
    vertex 6.5 8.5 1.5
  endloop
endfacet
facet normal -6.82004013051374e-016 -6.82004013051374e-016 1.0
  outer loop
    vertex 8.5 8.5 1.5
    vertex 7.01763809020504 8.43185165257814 1.5
    vertex 7.5 8.23205080756888 1.5
  endloop
endfacet
facet normal -6.82004013051374e-016 -6.82004013051374e-016 1.0
  outer loop
    vertex 8.5 8.5 1.5
    vertex 7.5 8.23205080756888 1.5
    vertex 7.91421356237309 7.91421356237309 1.5
  endloop
endfacet
facet normal -6.82004013051374e-016 -6.82004013051374e-016 1.0
  outer loop
    vertex 8.5 8.5 1.5
    vertex 7.91421356237309 7.91421356237309 1.5
    vertex 8.23205080756888 7.5 1.5
  endloop
endfacet
facet normal -6.82004013051374e-016 -6.82004013051374e-016 1.0
  outer loop
    vertex 8.5 8.5 1.5
    vertex 8.23205080756888 7.5 1.5
    vertex 8.43185165257814 7.01763809020504 1.5
  endloop
endfacet
facet normal -6.82004013051374e-016 -6.82004013051374e-016 1.0
  outer loop
    vertex 8.5 8.5 1.5
    vertex 8.43185165257814 7.01763809020504 1.5
    vertex 8.5 6.5 1.5
  endloop
endfacet
facet normal -0.130526192220052 0.99144486137381 0.0
  outer loop
    vertex 6.5 55.5 1.5
    vertex 7.01763809020504 55.5681483474218 0.750000000000001
    vertex 6.5 55.5 0.750000000000001
  endloop
endfacet
facet normal -0.130526192220052 0.99144486137381 0.0
  outer loop
    vertex 7.01763809020504 55.5681483474218 0.750000000000001
    vertex 6.5 55.5 1.5
    vertex 7.01763809020504 55.5681483474218 1.5
  endloop
endfacet
facet normal -0.382683432365082 0.92387953251129 0.0
  outer loop
    vertex 7.01763809020504 55.5681483474218 1.5
    vertex 7.5 55.7679491924311 0.750000000000001
    vertex 7.01763809020504 55.5681483474218 0.750000000000001
  endloop
endfacet
facet normal -0.382683432365082 0.92387953251129 0.0
  outer loop
    vertex 7.5 55.7679491924311 0.750000000000001
    vertex 7.01763809020504 55.5681483474218 1.5
    vertex 7.5 55.7679491924311 1.5
  endloop
endfacet
facet normal -0.608761429008732 0.793353340291227 0.0
  outer loop
    vertex 7.5 55.7679491924311 1.5
    vertex 7.91421356237309 56.0857864376269 0.750000000000001
    vertex 7.5 55.7679491924311 0.750000000000001
  endloop
endfacet
facet normal -0.608761429008732 0.793353340291227 0.0
  outer loop
    vertex 7.91421356237309 56.0857864376269 0.750000000000001
    vertex 7.5 55.7679491924311 1.5
    vertex 7.91421356237309 56.0857864376269 1.5
  endloop
endfacet
facet normal -0.793353340291233 0.608761429008724 7.39917156801341e-016
  outer loop
    vertex 8.23205080756887 56.5 1.5
    vertex 7.91421356237309 56.0857864376269 0.750000000000001
    vertex 7.91421356237309 56.0857864376269 1.5
  endloop
endfacet
facet normal -0.793353340291233 0.608761429008724 7.39917156801341e-016
  outer loop
    vertex 7.91421356237309 56.0857864376269 0.750000000000001
    vertex 8.23205080756887 56.5 1.5
    vertex 8.23205080756887 56.5 0.750000000000001
  endloop
endfacet
facet normal -0.923879532511285 0.382683432365094 8.61651778855259e-016
  outer loop
    vertex 8.43185165257813 56.9823619097949 1.5
    vertex 8.23205080756887 56.5 0.750000000000001
    vertex 8.23205080756887 56.5 1.5
  endloop
endfacet
facet normal -0.923879532511285 0.382683432365094 8.61651778855259e-016
  outer loop
    vertex 8.23205080756887 56.5 0.750000000000001
    vertex 8.43185165257813 56.9823619097949 1.5
    vertex 8.43185165257813 56.9823619097949 0.750000000000001
  endloop
endfacet
facet normal 0.793353340291239 -0.608761429008716 1.10987573520202e-015
  outer loop
    vertex 5.08578643762691 58.9142135623731 0.750000000000001
    vertex 4.76794919243113 58.5 1.5
    vertex 4.76794919243113 58.5 0.750000000000001
  endloop
endfacet
facet normal 0.793353340291239 -0.608761429008716 1.10987573520202e-015
  outer loop
    vertex 4.76794919243113 58.5 1.5
    vertex 5.08578643762691 58.9142135623731 0.750000000000001
    vertex 5.08578643762691 58.9142135623731 1.5
  endloop
endfacet
facet normal 0.923879532511285 -0.382683432365095 4.30825889427629e-016
  outer loop
    vertex 4.76794919243113 58.5 0.750000000000001
    vertex 4.56814834742187 58.017638090205 1.5
    vertex 4.56814834742187 58.017638090205 0.750000000000001
  endloop
endfacet
facet normal 0.923879532511285 -0.382683432365095 4.30825889427629e-016
  outer loop
    vertex 4.56814834742187 58.017638090205 1.5
    vertex 4.76794919243113 58.5 0.750000000000001
    vertex 4.76794919243113 58.5 1.5
  endloop
endfacet
facet normal 0.99144486137381 -0.130526192220051 0.0
  outer loop
    vertex 4.56814834742187 58.017638090205 0.750000000000001
    vertex 4.5 57.5 1.5
    vertex 4.5 57.5 0.750000000000001
  endloop
endfacet
facet normal 0.99144486137381 -0.130526192220051 0.0
  outer loop
    vertex 4.5 57.5 1.5
    vertex 4.56814834742187 58.017638090205 0.750000000000001
    vertex 4.56814834742187 58.017638090205 1.5
  endloop
endfacet
facet normal 0.99144486137381 0.130526192220054 0.0
  outer loop
    vertex 4.5 57.5 0.750000000000001
    vertex 4.56814834742187 56.9823619097949 1.5
    vertex 4.56814834742187 56.9823619097949 0.750000000000001
  endloop
endfacet
facet normal 0.99144486137381 0.130526192220054 0.0
  outer loop
    vertex 4.56814834742187 56.9823619097949 1.5
    vertex 4.5 57.5 0.750000000000001
    vertex 4.5 57.5 1.5
  endloop
endfacet
facet normal 0.557374781986779 0.230872194023668 -0.797515756854928
  outer loop
    vertex 4.56814834742187 56.9823619097949 0.750000000000001
    vertex 3.90192378864669 56.0 0.0
    vertex 3.6022225211328 56.7235428646924 0.0
  endloop
endfacet
facet normal 0.557374781986779 0.230872194023668 -0.797515756854928
  outer loop
    vertex 3.90192378864669 56.0 0.0
    vertex 4.56814834742187 56.9823619097949 0.750000000000001
    vertex 4.76794919243112 56.5 0.750000000000001
  endloop
endfacet
facet normal 0.598136817641198 0.0787462059414409 -0.797515756854928
  outer loop
    vertex 4.5 57.5 0.750000000000001
    vertex 3.6022225211328 56.7235428646924 0.0
    vertex 3.5 57.5 0.0
  endloop
endfacet
facet normal 0.598136817641198 0.0787462059414409 -0.797515756854928
  outer loop
    vertex 3.6022225211328 56.7235428646924 0.0
    vertex 4.5 57.5 0.750000000000001
    vertex 4.56814834742187 56.9823619097949 0.750000000000001
  endloop
endfacet
facet normal 0.598136817641198 -0.07874620594144 -0.797515756854928
  outer loop
    vertex 3.6022225211328 58.2764571353075 0.0
    vertex 4.5 57.5 0.750000000000001
    vertex 3.5 57.5 0.0
  endloop
endfacet
facet normal 0.598136817641198 -0.07874620594144 -0.797515756854928
  outer loop
    vertex 4.5 57.5 0.750000000000001
    vertex 3.6022225211328 58.2764571353075 0.0
    vertex 4.56814834742187 58.017638090205 0.750000000000001
  endloop
endfacet
facet normal 0.557374781986777 -0.230872194023673 -0.797515756854928
  outer loop
    vertex 3.90192378864669 59.0 0.0
    vertex 4.56814834742187 58.017638090205 0.750000000000001
    vertex 3.6022225211328 58.2764571353075 0.0
  endloop
endfacet
facet normal 0.557374781986777 -0.230872194023673 -0.797515756854928
  outer loop
    vertex 4.56814834742187 58.017638090205 0.750000000000001
    vertex 3.90192378864669 59.0 0.0
    vertex 4.76794919243113 58.5 0.750000000000001
  endloop
endfacet
facet normal 0.478628576045338 -0.367264623617528 -0.797515756854928
  outer loop
    vertex 4.37867965644036 59.6213203435596 0.0
    vertex 4.76794919243113 58.5 0.750000000000001
    vertex 3.90192378864669 59.0 0.0
  endloop
endfacet
facet normal 0.478628576045338 -0.367264623617528 -0.797515756854928
  outer loop
    vertex 4.76794919243113 58.5 0.750000000000001
    vertex 4.37867965644036 59.6213203435596 0.0
    vertex 5.08578643762691 58.9142135623731 0.750000000000001
  endloop
endfacet
facet normal 0.36726462361753 -0.478628576045338 -0.797515756854927
  outer loop
    vertex 5.0 60.0980762113533 0.0
    vertex 5.08578643762691 58.9142135623731 0.750000000000001
    vertex 4.37867965644036 59.6213203435596 0.0
  endloop
endfacet
facet normal 0.36726462361753 -0.478628576045338 -0.797515756854927
  outer loop
    vertex 5.08578643762691 58.9142135623731 0.750000000000001
    vertex 5.0 60.0980762113533 0.0
    vertex 5.5 59.2320508075689 0.750000000000001
  endloop
endfacet
facet normal 0.230872194023671 -0.557374781986777 -0.797515756854928
  outer loop
    vertex 5.72354286469244 60.3977774788672 0.0
    vertex 5.5 59.2320508075689 0.750000000000001
    vertex 5.0 60.0980762113533 0.0
  endloop
endfacet
facet normal 0.230872194023671 -0.557374781986777 -0.797515756854928
  outer loop
    vertex 5.5 59.2320508075689 0.750000000000001
    vertex 5.72354286469244 60.3977774788672 0.0
    vertex 5.98236190979496 59.4318516525781 0.750000000000001
  endloop
endfacet
facet normal 0.0787462059414377 -0.598136817641198 -0.797515756854929
  outer loop
    vertex 6.5 60.5 0.0
    vertex 5.98236190979496 59.4318516525781 0.750000000000001
    vertex 5.72354286469244 60.3977774788672 0.0
  endloop
endfacet
facet normal 0.0787462059414377 -0.598136817641198 -0.797515756854929
  outer loop
    vertex 5.98236190979496 59.4318516525781 0.750000000000001
    vertex 6.5 60.5 0.0
    vertex 6.5 59.5 0.750000000000001
  endloop
endfacet
facet normal -0.0787462059414437 -0.598136817641199 -0.797515756854927
  outer loop
    vertex 7.27645713530756 60.3977774788672 0.0
    vertex 6.5 59.5 0.750000000000001
    vertex 6.5 60.5 0.0
  endloop
endfacet
facet normal -0.0787462059414437 -0.598136817641199 -0.797515756854927
  outer loop
    vertex 6.5 59.5 0.750000000000001
    vertex 7.27645713530756 60.3977774788672 0.0
    vertex 7.01763809020504 59.4318516525781 0.750000000000001
  endloop
endfacet
facet normal -0.230872194023667 -0.557374781986781 -0.797515756854927
  outer loop
    vertex 7.27645713530756 60.3977774788672 0.0
    vertex 7.5 59.2320508075689 0.750000000000001
    vertex 7.01763809020504 59.4318516525781 0.750000000000001
  endloop
endfacet
facet normal -0.230872194023667 -0.557374781986781 -0.797515756854927
  outer loop
    vertex 7.5 59.2320508075689 0.750000000000001
    vertex 7.27645713530756 60.3977774788672 0.0
    vertex 8.0 60.0980762113533 0.0
  endloop
endfacet
facet normal -0.367264623617531 -0.478628576045335 -0.797515756854928
  outer loop
    vertex 8.0 60.0980762113533 0.0
    vertex 7.91421356237309 58.9142135623731 0.750000000000001
    vertex 7.5 59.2320508075689 0.750000000000001
  endloop
endfacet
facet normal -0.367264623617531 -0.478628576045335 -0.797515756854928
  outer loop
    vertex 7.91421356237309 58.9142135623731 0.750000000000001
    vertex 8.0 60.0980762113533 0.0
    vertex 8.62132034355964 59.6213203435596 0.0
  endloop
endfacet
facet normal -0.478628576045336 -0.367264623617528 -0.797515756854928
  outer loop
    vertex 8.62132034355964 59.6213203435596 0.0
    vertex 8.23205080756887 58.5 0.750000000000001
    vertex 7.91421356237309 58.9142135623731 0.750000000000001
  endloop
endfacet
facet normal -0.478628576045336 -0.367264623617528 -0.797515756854928
  outer loop
    vertex 8.23205080756887 58.5 0.750000000000001
    vertex 8.62132034355964 59.6213203435596 0.0
    vertex 9.09807621135331 59.0 0.0
  endloop
endfacet
facet normal -0.557374781986778 -0.230872194023671 -0.797515756854928
  outer loop
    vertex 9.09807621135331 59.0 0.0
    vertex 8.43185165257813 58.017638090205 0.750000000000001
    vertex 8.23205080756887 58.5 0.750000000000001
  endloop
endfacet
facet normal -0.557374781986778 -0.230872194023671 -0.797515756854928
  outer loop
    vertex 8.43185165257813 58.017638090205 0.750000000000001
    vertex 9.09807621135331 59.0 0.0
    vertex 9.3977774788672 58.2764571353075 0.0
  endloop
endfacet
facet normal -0.598136817641198 -0.0787462059414408 -0.797515756854928
  outer loop
    vertex 9.3977774788672 58.2764571353075 0.0
    vertex 8.5 57.5 0.750000000000001
    vertex 8.43185165257813 58.017638090205 0.750000000000001
  endloop
endfacet
facet normal -0.598136817641198 -0.0787462059414408 -0.797515756854928
  outer loop
    vertex 8.5 57.5 0.750000000000001
    vertex 9.3977774788672 58.2764571353075 0.0
    vertex 9.49999999999999 57.5 0.0
  endloop
endfacet
facet normal -0.598136817641198 0.0787462059414408 -0.797515756854928
  outer loop
    vertex 8.5 57.5 0.750000000000001
    vertex 9.3977774788672 56.7235428646924 0.0
    vertex 8.43185165257813 56.9823619097949 0.750000000000001
  endloop
endfacet
facet normal -0.598136817641198 0.0787462059414408 -0.797515756854928
  outer loop
    vertex 9.3977774788672 56.7235428646924 0.0
    vertex 8.5 57.5 0.750000000000001
    vertex 9.49999999999999 57.5 0.0
  endloop
endfacet
facet normal -0.557374781986778 0.23087219402367 -0.797515756854928
  outer loop
    vertex 8.43185165257813 56.9823619097949 0.750000000000001
    vertex 9.09807621135331 56.0 0.0
    vertex 8.23205080756887 56.5 0.750000000000001
  endloop
endfacet
facet normal -0.557374781986778 0.23087219402367 -0.797515756854928
  outer loop
    vertex 9.09807621135331 56.0 0.0
    vertex 8.43185165257813 56.9823619097949 0.750000000000001
    vertex 9.3977774788672 56.7235428646924 0.0
  endloop
endfacet
facet normal -0.478628576045336 0.367264623617529 -0.797515756854928
  outer loop
    vertex 8.23205080756887 56.5 0.750000000000001
    vertex 8.62132034355964 55.3786796564403 0.0
    vertex 7.91421356237309 56.0857864376269 0.750000000000001
  endloop
endfacet
facet normal -0.478628576045336 0.367264623617529 -0.797515756854928
  outer loop
    vertex 8.62132034355964 55.3786796564403 0.0
    vertex 8.23205080756887 56.5 0.750000000000001
    vertex 9.09807621135331 56.0 0.0
  endloop
endfacet
facet normal -0.367264623617531 0.478628576045335 -0.797515756854928
  outer loop
    vertex 7.91421356237309 56.0857864376269 0.750000000000001
    vertex 8.0 54.9019237886467 0.0
    vertex 7.5 55.7679491924311 0.750000000000001
  endloop
endfacet
facet normal -0.367264623617531 0.478628576045335 -0.797515756854928
  outer loop
    vertex 8.0 54.9019237886467 0.0
    vertex 7.91421356237309 56.0857864376269 0.750000000000001
    vertex 8.62132034355964 55.3786796564403 0.0
  endloop
endfacet
facet normal -0.230872194023667 0.557374781986781 -0.797515756854927
  outer loop
    vertex 7.5 55.7679491924311 0.750000000000001
    vertex 7.27645713530756 54.6022225211328 0.0
    vertex 7.01763809020504 55.5681483474218 0.750000000000001
  endloop
endfacet
facet normal -0.230872194023667 0.557374781986781 -0.797515756854927
  outer loop
    vertex 7.27645713530756 54.6022225211328 0.0
    vertex 7.5 55.7679491924311 0.750000000000001
    vertex 8.0 54.9019237886467 0.0
  endloop
endfacet
facet normal -0.0787462059414437 0.598136817641199 -0.797515756854927
  outer loop
    vertex 7.01763809020504 55.5681483474218 0.750000000000001
    vertex 6.5 54.5 0.0
    vertex 6.5 55.5 0.750000000000001
  endloop
endfacet
facet normal -0.0787462059414437 0.598136817641199 -0.797515756854927
  outer loop
    vertex 6.5 54.5 0.0
    vertex 7.01763809020504 55.5681483474218 0.750000000000001
    vertex 7.27645713530756 54.6022225211328 0.0
  endloop
endfacet
facet normal 0.0787462059414435 0.598136817641199 -0.797515756854927
  outer loop
    vertex 5.98236190979496 55.5681483474218 0.750000000000001
    vertex 6.5 54.5 0.0
    vertex 5.72354286469244 54.6022225211328 0.0
  endloop
endfacet
facet normal 0.0787462059414435 0.598136817641199 -0.797515756854927
  outer loop
    vertex 6.5 54.5 0.0
    vertex 5.98236190979496 55.5681483474218 0.750000000000001
    vertex 6.5 55.5 0.750000000000001
  endloop
endfacet
facet normal 0.230872194023667 0.557374781986781 -0.797515756854927
  outer loop
    vertex 5.5 55.7679491924311 0.750000000000001
    vertex 5.72354286469244 54.6022225211328 0.0
    vertex 5.0 54.9019237886467 0.0
  endloop
endfacet
facet normal 0.230872194023667 0.557374781986781 -0.797515756854927
  outer loop
    vertex 5.72354286469244 54.6022225211328 0.0
    vertex 5.5 55.7679491924311 0.750000000000001
    vertex 5.98236190979496 55.5681483474218 0.750000000000001
  endloop
endfacet
facet normal 0.367264623617531 0.478628576045335 -0.797515756854928
  outer loop
    vertex 5.08578643762691 56.0857864376269 0.750000000000001
    vertex 5.0 54.9019237886467 0.0
    vertex 4.37867965644036 55.3786796564403 0.0
  endloop
endfacet
facet normal 0.367264623617531 0.478628576045335 -0.797515756854928
  outer loop
    vertex 5.0 54.9019237886467 0.0
    vertex 5.08578643762691 56.0857864376269 0.750000000000001
    vertex 5.5 55.7679491924311 0.750000000000001
  endloop
endfacet
facet normal 0.478628576045336 0.367264623617529 -0.797515756854928
  outer loop
    vertex 4.76794919243112 56.5 0.750000000000001
    vertex 4.37867965644036 55.3786796564403 0.0
    vertex 3.90192378864669 56.0 0.0
  endloop
endfacet
facet normal 0.478628576045336 0.367264623617529 -0.797515756854928
  outer loop
    vertex 4.37867965644036 55.3786796564403 0.0
    vertex 4.76794919243112 56.5 0.750000000000001
    vertex 5.08578643762691 56.0857864376269 0.750000000000001
  endloop
endfacet
facet normal 0.923879532511289 0.382683432365084 -4.30825889427632e-016
  outer loop
    vertex 4.56814834742187 56.9823619097949 0.750000000000001
    vertex 4.76794919243112 56.5 1.5
    vertex 4.76794919243112 56.5 0.750000000000001
  endloop
endfacet
facet normal 0.923879532511289 0.382683432365084 -4.30825889427632e-016
  outer loop
    vertex 4.76794919243112 56.5 1.5
    vertex 4.56814834742187 56.9823619097949 0.750000000000001
    vertex 4.56814834742187 56.9823619097949 1.5
  endloop
endfacet
facet normal 0.793353340291231 0.608761429008726 -3.6995857840067e-016
  outer loop
    vertex 4.76794919243112 56.5 0.750000000000001
    vertex 5.08578643762691 56.0857864376269 1.5
    vertex 5.08578643762691 56.0857864376269 0.750000000000001
  endloop
endfacet
facet normal 0.793353340291231 0.608761429008726 -3.6995857840067e-016
  outer loop
    vertex 5.08578643762691 56.0857864376269 1.5
    vertex 4.76794919243112 56.5 0.750000000000001
    vertex 4.76794919243112 56.5 1.5
  endloop
endfacet
facet normal 0.608761429008732 0.793353340291227 2.83879201641171e-016
  outer loop
    vertex 5.08578643762691 56.0857864376269 1.5
    vertex 5.5 55.7679491924311 0.750000000000001
    vertex 5.08578643762691 56.0857864376269 0.750000000000001
  endloop
endfacet
facet normal 0.608761429008732 0.793353340291227 2.83879201641171e-016
  outer loop
    vertex 5.5 55.7679491924311 0.750000000000001
    vertex 5.08578643762691 56.0857864376269 1.5
    vertex 5.5 55.7679491924311 1.5
  endloop
endfacet
facet normal 0.382683432365084 0.923879532511289 0.0
  outer loop
    vertex 5.5 55.7679491924311 1.5
    vertex 5.98236190979496 55.5681483474218 0.750000000000001
    vertex 5.5 55.7679491924311 0.750000000000001
  endloop
endfacet
facet normal 0.382683432365084 0.923879532511289 0.0
  outer loop
    vertex 5.98236190979496 55.5681483474218 0.750000000000001
    vertex 5.5 55.7679491924311 1.5
    vertex 5.98236190979496 55.5681483474218 1.5
  endloop
endfacet
facet normal 0.130526192220052 0.99144486137381 -6.08673110269585e-017
  outer loop
    vertex 5.98236190979496 55.5681483474218 1.5
    vertex 6.5 55.5 0.750000000000001
    vertex 5.98236190979496 55.5681483474218 0.750000000000001
  endloop
endfacet
facet normal 0.130526192220052 0.99144486137381 -6.08673110269585e-017
  outer loop
    vertex 6.5 55.5 0.750000000000001
    vertex 5.98236190979496 55.5681483474218 1.5
    vertex 6.5 55.5 1.5
  endloop
endfacet
facet normal -0.99144486137381 0.130526192220051 0.0
  outer loop
    vertex 8.5 57.5 1.5
    vertex 8.43185165257813 56.9823619097949 0.750000000000001
    vertex 8.43185165257813 56.9823619097949 1.5
  endloop
endfacet
facet normal -0.99144486137381 0.130526192220051 0.0
  outer loop
    vertex 8.43185165257813 56.9823619097949 0.750000000000001
    vertex 8.5 57.5 1.5
    vertex 8.5 57.5 0.750000000000001
  endloop
endfacet
facet normal -0.99144486137381 -0.130526192220051 0.0
  outer loop
    vertex 8.43185165257813 58.017638090205 1.5
    vertex 8.5 57.5 0.750000000000001
    vertex 8.5 57.5 1.5
  endloop
endfacet
facet normal -0.99144486137381 -0.130526192220051 0.0
  outer loop
    vertex 8.5 57.5 0.750000000000001
    vertex 8.43185165257813 58.017638090205 1.5
    vertex 8.43185165257813 58.017638090205 0.750000000000001
  endloop
endfacet
facet normal -0.923879532511285 -0.382683432365094 8.61651778855259e-016
  outer loop
    vertex 8.23205080756887 58.5 1.5
    vertex 8.43185165257813 58.017638090205 0.750000000000001
    vertex 8.43185165257813 58.017638090205 1.5
  endloop
endfacet
facet normal -0.923879532511285 -0.382683432365094 8.61651778855259e-016
  outer loop
    vertex 8.43185165257813 58.017638090205 0.750000000000001
    vertex 8.23205080756887 58.5 1.5
    vertex 8.23205080756887 58.5 0.750000000000001
  endloop
endfacet
facet normal -0.793353340291233 -0.608761429008724 7.39917156801341e-016
  outer loop
    vertex 7.91421356237309 58.9142135623731 1.5
    vertex 8.23205080756887 58.5 0.750000000000001
    vertex 8.23205080756887 58.5 1.5
  endloop
endfacet
facet normal -0.793353340291233 -0.608761429008724 7.39917156801341e-016
  outer loop
    vertex 8.23205080756887 58.5 0.750000000000001
    vertex 7.91421356237309 58.9142135623731 1.5
    vertex 7.91421356237309 58.9142135623731 0.750000000000001
  endloop
endfacet
facet normal -0.608761429008732 -0.793353340291227 0.0
  outer loop
    vertex 7.91421356237309 58.9142135623731 1.5
    vertex 7.5 59.2320508075689 0.750000000000001
    vertex 7.91421356237309 58.9142135623731 0.750000000000001
  endloop
endfacet
facet normal -0.608761429008732 -0.793353340291227 0.0
  outer loop
    vertex 7.5 59.2320508075689 0.750000000000001
    vertex 7.91421356237309 58.9142135623731 1.5
    vertex 7.5 59.2320508075689 1.5
  endloop
endfacet
facet normal -0.382683432365083 -0.92387953251129 3.56907852844745e-016
  outer loop
    vertex 7.5 59.2320508075689 1.5
    vertex 7.01763809020504 59.4318516525781 0.750000000000001
    vertex 7.5 59.2320508075689 0.750000000000001
  endloop
endfacet
facet normal -0.382683432365083 -0.92387953251129 3.56907852844745e-016
  outer loop
    vertex 7.01763809020504 59.4318516525781 0.750000000000001
    vertex 7.5 59.2320508075689 1.5
    vertex 7.01763809020504 59.4318516525781 1.5
  endloop
endfacet
facet normal -0.130526192220052 -0.99144486137381 1.25792442789048e-016
  outer loop
    vertex 7.01763809020504 59.4318516525781 1.5
    vertex 6.5 59.5 0.750000000000001
    vertex 7.01763809020504 59.4318516525781 0.750000000000001
  endloop
endfacet
facet normal -0.130526192220052 -0.99144486137381 1.25792442789048e-016
  outer loop
    vertex 6.5 59.5 0.750000000000001
    vertex 7.01763809020504 59.4318516525781 1.5
    vertex 6.5 59.5 1.5
  endloop
endfacet
facet normal 0.130526192220052 -0.99144486137381 0.0
  outer loop
    vertex 6.5 59.5 1.5
    vertex 5.98236190979496 59.4318516525781 0.750000000000001
    vertex 6.5 59.5 0.750000000000001
  endloop
endfacet
facet normal 0.130526192220052 -0.99144486137381 0.0
  outer loop
    vertex 5.98236190979496 59.4318516525781 0.750000000000001
    vertex 6.5 59.5 1.5
    vertex 5.98236190979496 59.4318516525781 1.5
  endloop
endfacet
facet normal 0.382683432365082 -0.92387953251129 -1.78453926422372e-016
  outer loop
    vertex 5.98236190979496 59.4318516525781 1.5
    vertex 5.5 59.2320508075689 0.750000000000001
    vertex 5.98236190979496 59.4318516525781 0.750000000000001
  endloop
endfacet
facet normal 0.382683432365082 -0.92387953251129 -1.78453926422372e-016
  outer loop
    vertex 5.5 59.2320508075689 0.750000000000001
    vertex 5.98236190979496 59.4318516525781 1.5
    vertex 5.5 59.2320508075689 1.5
  endloop
endfacet
facet normal 0.60876142900872 -0.793353340291236 2.9334184169587e-016
  outer loop
    vertex 5.5 59.2320508075689 1.5
    vertex 5.08578643762691 58.9142135623731 0.750000000000001
    vertex 5.5 59.2320508075689 0.750000000000001
  endloop
endfacet
facet normal 0.60876142900872 -0.793353340291236 2.9334184169587e-016
  outer loop
    vertex 5.08578643762691 58.9142135623731 0.750000000000001
    vertex 5.5 59.2320508075689 1.5
    vertex 5.08578643762691 58.9142135623731 1.5
  endloop
endfacet
facet normal 0.382683432365091 0.923879532511287 -1.51344637639005e-015
  outer loop
    vertex 5.5 4.76794919243112 1.5
    vertex 5.98236190979495 4.56814834742186 0.750000000000001
    vertex 5.5 4.76794919243112 0.750000000000001
  endloop
endfacet
facet normal 0.382683432365091 0.923879532511287 -1.51344637639005e-015
  outer loop
    vertex 5.98236190979495 4.56814834742186 0.750000000000001
    vertex 5.5 4.76794919243112 1.5
    vertex 5.98236190979496 4.56814834742186 1.5
  endloop
endfacet
facet normal 0.130526192220051 0.99144486137381 -3.08394375869922e-016
  outer loop
    vertex 5.98236190979496 4.56814834742186 1.5
    vertex 6.5 4.5 0.750000000000001
    vertex 5.98236190979495 4.56814834742186 0.750000000000001
  endloop
endfacet
facet normal 0.130526192220051 0.99144486137381 -3.08394375869922e-016
  outer loop
    vertex 6.5 4.5 0.750000000000001
    vertex 5.98236190979496 4.56814834742186 1.5
    vertex 6.5 4.5 1.5
  endloop
endfacet
facet normal -0.130526192220052 0.99144486137381 0.0
  outer loop
    vertex 6.5 4.5 1.5
    vertex 7.01763809020504 4.56814834742186 0.750000000000001
    vertex 6.5 4.5 0.750000000000001
  endloop
endfacet
facet normal -0.130526192220052 0.99144486137381 0.0
  outer loop
    vertex 7.01763809020504 4.56814834742186 0.750000000000001
    vertex 6.5 4.5 1.5
    vertex 7.01763809020504 4.56814834742186 1.5
  endloop
endfacet
facet normal -0.382683432365089 0.923879532511287 3.56907852844751e-016
  outer loop
    vertex 7.01763809020504 4.56814834742186 1.5
    vertex 7.5 4.76794919243112 0.750000000000001
    vertex 7.01763809020504 4.56814834742186 0.750000000000001
  endloop
endfacet
facet normal -0.382683432365089 0.923879532511287 3.56907852844751e-016
  outer loop
    vertex 7.5 4.76794919243112 0.750000000000001
    vertex 7.01763809020504 4.56814834742186 1.5
    vertex 7.5 4.76794919243112 1.5
  endloop
endfacet
facet normal -0.608761429008722 0.793353340291235 9.37716981683003e-016
  outer loop
    vertex 7.5 4.76794919243112 1.5
    vertex 7.91421356237309 5.08578643762691 0.750000000000001
    vertex 7.5 4.76794919243112 0.750000000000001
  endloop
endfacet
facet normal -0.608761429008722 0.793353340291235 9.37716981683003e-016
  outer loop
    vertex 7.91421356237309 5.08578643762691 0.750000000000001
    vertex 7.5 4.76794919243112 1.5
    vertex 7.91421356237309 5.0857864376269 1.5
  endloop
endfacet
facet normal 0.382683432365091 -0.923879532511286 -5.76932852855485e-015
  outer loop
    vertex 5.98236190979496 8.43185165257814 1.5
    vertex 5.5 8.23205080756888 0.750000000000001
    vertex 5.98236190979495 8.43185165257814 0.750000000000001
  endloop
endfacet
facet normal 0.382683432365091 -0.923879532511286 -5.76932852855485e-015
  outer loop
    vertex 5.5 8.23205080756888 0.750000000000001
    vertex 5.98236190979496 8.43185165257814 1.5
    vertex 5.5 8.23205080756888 1.5
  endloop
endfacet
facet normal 0.608761429008723 -0.793353340291233 -2.62768307278071e-015
  outer loop
    vertex 5.5 8.23205080756888 1.5
    vertex 5.0857864376269 7.91421356237309 0.750000000000001
    vertex 5.5 8.23205080756888 0.750000000000001
  endloop
endfacet
facet normal 0.608761429008723 -0.793353340291233 -2.62768307278071e-015
  outer loop
    vertex 5.0857864376269 7.91421356237309 0.750000000000001
    vertex 5.5 8.23205080756888 1.5
    vertex 5.08578643762691 7.91421356237309 1.5
  endloop
endfacet
facet normal 0.793353340291235 -0.608761429008721 -1.47983431360269e-015
  outer loop
    vertex 5.0857864376269 7.91421356237309 0.750000000000001
    vertex 4.76794919243112 7.5 1.5
    vertex 4.76794919243112 7.5 0.750000000000001
  endloop
endfacet
facet normal 0.793353340291235 -0.608761429008721 -1.47983431360269e-015
  outer loop
    vertex 4.76794919243112 7.5 1.5
    vertex 5.0857864376269 7.91421356237309 0.750000000000001
    vertex 5.08578643762691 7.91421356237309 1.5
  endloop
endfacet
facet normal 0.923879532511287 -0.38268343236509 -2.60649663103716e-015
  outer loop
    vertex 4.76794919243112 7.5 0.750000000000001
    vertex 4.56814834742186 7.01763809020504 1.5
    vertex 4.56814834742186 7.01763809020504 0.750000000000001
  endloop
endfacet
facet normal 0.923879532511287 -0.38268343236509 -2.60649663103716e-015
  outer loop
    vertex 4.56814834742186 7.01763809020504 1.5
    vertex 4.76794919243112 7.5 0.750000000000001
    vertex 4.76794919243112 7.5 1.5
  endloop
endfacet
facet normal 0.99144486137381 -0.130526192220052 -3.7294872330459e-015
  outer loop
    vertex 4.56814834742186 7.01763809020504 0.750000000000001
    vertex 4.5 6.5 1.5
    vertex 4.5 6.5 0.750000000000001
  endloop
endfacet
facet normal 0.99144486137381 -0.130526192220052 -3.7294872330459e-015
  outer loop
    vertex 4.5 6.5 1.5
    vertex 4.56814834742186 7.01763809020504 0.750000000000001
    vertex 4.56814834742186 7.01763809020504 1.5
  endloop
endfacet
facet normal 0.99144486137381 0.130526192220052 -3.7294872330459e-015
  outer loop
    vertex 4.5 6.5 0.750000000000001
    vertex 4.56814834742186 5.98236190979496 1.5
    vertex 4.56814834742186 5.98236190979496 0.750000000000001
  endloop
endfacet
facet normal 0.99144486137381 0.130526192220052 -3.7294872330459e-015
  outer loop
    vertex 4.56814834742186 5.98236190979496 1.5
    vertex 4.5 6.5 0.750000000000001
    vertex 4.5 6.5 1.5
  endloop
endfacet
facet normal 0.923879532511287 0.38268343236509 -2.77058969447862e-015
  outer loop
    vertex 4.56814834742186 5.98236190979496 0.750000000000001
    vertex 4.76794919243112 5.5 1.5
    vertex 4.76794919243112 5.5 0.750000000000001
  endloop
endfacet
facet normal 0.923879532511287 0.38268343236509 -2.77058969447862e-015
  outer loop
    vertex 4.76794919243112 5.5 1.5
    vertex 4.56814834742186 5.98236190979496 0.750000000000001
    vertex 4.56814834742186 5.98236190979496 1.5
  endloop
endfacet
facet normal 0.793353340291235 0.608761429008721 -1.76371351524385e-015
  outer loop
    vertex 4.76794919243112 5.5 0.750000000000001
    vertex 5.08578643762691 5.08578643762691 1.5
    vertex 5.0857864376269 5.08578643762691 0.750000000000001
  endloop
endfacet
facet normal 0.793353340291235 0.608761429008721 -1.76371351524385e-015
  outer loop
    vertex 5.08578643762691 5.08578643762691 1.5
    vertex 4.76794919243112 5.5 0.750000000000001
    vertex 4.76794919243112 5.5 1.5
  endloop
endfacet
facet normal 0.608761429008721 0.793353340291235 -1.22159618332417e-015
  outer loop
    vertex 5.08578643762691 5.08578643762691 1.5
    vertex 5.5 4.76794919243112 0.750000000000001
    vertex 5.0857864376269 5.08578643762691 0.750000000000001
  endloop
endfacet
facet normal 0.608761429008721 0.793353340291235 -1.22159618332417e-015
  outer loop
    vertex 5.5 4.76794919243112 0.750000000000001
    vertex 5.08578643762691 5.08578643762691 1.5
    vertex 5.5 4.76794919243112 1.5
  endloop
endfacet
facet normal -0.793353340291236 0.60876142900872 2.04759271688502e-015
  outer loop
    vertex 8.23205080756888 5.5 1.5
    vertex 7.91421356237309 5.08578643762691 0.750000000000001
    vertex 7.91421356237309 5.0857864376269 1.5
  endloop
endfacet
facet normal -0.793353340291236 0.60876142900872 2.04759271688502e-015
  outer loop
    vertex 7.91421356237309 5.08578643762691 0.750000000000001
    vertex 8.23205080756888 5.5 1.5
    vertex 8.23205080756887 5.5 0.750000000000001
  endloop
endfacet
facet normal -0.923879532511286 0.382683432365092 3.63942190482434e-015
  outer loop
    vertex 8.43185165257814 5.98236190979496 1.5
    vertex 8.23205080756887 5.5 0.750000000000001
    vertex 8.23205080756888 5.5 1.5
  endloop
endfacet
facet normal -0.923879532511286 0.382683432365092 3.63942190482434e-015
  outer loop
    vertex 8.23205080756887 5.5 0.750000000000001
    vertex 8.43185165257814 5.98236190979496 1.5
    vertex 8.43185165257813 5.98236190979496 0.750000000000001
  endloop
endfacet
facet normal -0.99144486137381 0.130526192220051 3.7294872330459e-015
  outer loop
    vertex 8.5 6.5 1.5
    vertex 8.43185165257813 5.98236190979496 0.750000000000001
    vertex 8.43185165257814 5.98236190979496 1.5
  endloop
endfacet
facet normal -0.99144486137381 0.130526192220051 3.7294872330459e-015
  outer loop
    vertex 8.43185165257813 5.98236190979496 0.750000000000001
    vertex 8.5 6.5 1.5
    vertex 8.5 6.5 0.750000000000001
  endloop
endfacet
facet normal -0.99144486137381 -0.130526192220052 3.7294872330459e-015
  outer loop
    vertex 8.43185165257814 7.01763809020504 1.5
    vertex 8.5 6.5 0.750000000000001
    vertex 8.5 6.5 1.5
  endloop
endfacet
facet normal -0.99144486137381 -0.130526192220052 3.7294872330459e-015
  outer loop
    vertex 8.5 6.5 0.750000000000001
    vertex 8.43185165257814 7.01763809020504 1.5
    vertex 8.43185165257813 7.01763809020504 0.750000000000001
  endloop
endfacet
facet normal -0.923879532511289 -0.382683432365085 5.04743926010515e-016
  outer loop
    vertex 8.23205080756888 7.5 1.5
    vertex 8.43185165257813 7.01763809020504 0.750000000000001
    vertex 8.43185165257814 7.01763809020504 1.5
  endloop
endfacet
facet normal -0.923879532511289 -0.382683432365085 5.04743926010515e-016
  outer loop
    vertex 8.43185165257813 7.01763809020504 0.750000000000001
    vertex 8.23205080756888 7.5 1.5
    vertex 8.23205080756888 7.5 0.750000000000001
  endloop
endfacet
facet normal -0.367264623617527 0.478628576045337 -0.797515756854929
  outer loop
    vertex 7.91421356237309 5.08578643762691 0.750000000000001
    vertex 8.0 3.90192378864668 0.0
    vertex 7.5 4.76794919243112 0.750000000000001
  endloop
endfacet
facet normal -0.367264623617527 0.478628576045337 -0.797515756854929
  outer loop
    vertex 8.0 3.90192378864668 0.0
    vertex 7.91421356237309 5.08578643762691 0.750000000000001
    vertex 8.62132034355964 4.37867965644036 0.0
  endloop
endfacet
facet normal -0.23087219402367 0.557374781986777 -0.797515756854929
  outer loop
    vertex 7.5 4.76794919243112 0.750000000000001
    vertex 7.27645713530756 3.60222252113279 0.0
    vertex 7.01763809020504 4.56814834742186 0.750000000000001
  endloop
endfacet
facet normal -0.23087219402367 0.557374781986777 -0.797515756854929
  outer loop
    vertex 7.27645713530756 3.60222252113279 0.0
    vertex 7.5 4.76794919243112 0.750000000000001
    vertex 8.0 3.90192378864668 0.0
  endloop
endfacet
facet normal -0.0787462059414405 0.598136817641197 -0.797515756854929
  outer loop
    vertex 7.01763809020504 4.56814834742186 0.750000000000001
    vertex 6.5 3.5 0.0
    vertex 6.5 4.5 0.750000000000001
  endloop
endfacet
facet normal -0.0787462059414405 0.598136817641197 -0.797515756854929
  outer loop
    vertex 6.5 3.5 0.0
    vertex 7.01763809020504 4.56814834742186 0.750000000000001
    vertex 7.27645713530756 3.60222252113279 0.0
  endloop
endfacet
facet normal 0.0787462059414402 0.598136817641197 -0.797515756854929
  outer loop
    vertex 5.98236190979495 4.56814834742186 0.750000000000001
    vertex 6.5 3.5 0.0
    vertex 5.72354286469244 3.60222252113279 0.0
  endloop
endfacet
facet normal 0.0787462059414402 0.598136817641197 -0.797515756854929
  outer loop
    vertex 6.5 3.5 0.0
    vertex 5.98236190979495 4.56814834742186 0.750000000000001
    vertex 6.5 4.5 0.750000000000001
  endloop
endfacet
facet normal 0.230872194023671 0.557374781986777 -0.797515756854928
  outer loop
    vertex 5.5 4.76794919243112 0.750000000000001
    vertex 5.72354286469244 3.60222252113279 0.0
    vertex 5.0 3.90192378864668 0.0
  endloop
endfacet
facet normal 0.230872194023671 0.557374781986777 -0.797515756854928
  outer loop
    vertex 5.72354286469244 3.60222252113279 0.0
    vertex 5.5 4.76794919243112 0.750000000000001
    vertex 5.98236190979495 4.56814834742186 0.750000000000001
  endloop
endfacet
facet normal 0.367264623617528 0.478628576045337 -0.797515756854928
  outer loop
    vertex 5.0857864376269 5.08578643762691 0.750000000000001
    vertex 5.0 3.90192378864668 0.0
    vertex 4.37867965644036 4.37867965644036 0.0
  endloop
endfacet
facet normal 0.367264623617528 0.478628576045337 -0.797515756854928
  outer loop
    vertex 5.0 3.90192378864668 0.0
    vertex 5.0857864376269 5.08578643762691 0.750000000000001
    vertex 5.5 4.76794919243112 0.750000000000001
  endloop
endfacet
facet normal 0.478628576045337 0.367264623617527 -0.797515756854928
  outer loop
    vertex 4.76794919243112 5.5 0.750000000000001
    vertex 4.37867965644036 4.37867965644036 0.0
    vertex 3.90192378864668 5.0 0.0
  endloop
endfacet
facet normal 0.478628576045337 0.367264623617527 -0.797515756854928
  outer loop
    vertex 4.37867965644036 4.37867965644036 0.0
    vertex 4.76794919243112 5.5 0.750000000000001
    vertex 5.0857864376269 5.08578643762691 0.750000000000001
  endloop
endfacet
facet normal 0.557374781986778 0.230872194023671 -0.797515756854928
  outer loop
    vertex 4.56814834742186 5.98236190979496 0.750000000000001
    vertex 3.90192378864668 5.0 0.0
    vertex 3.60222252113279 5.72354286469244 0.0
  endloop
endfacet
facet normal 0.557374781986778 0.230872194023671 -0.797515756854928
  outer loop
    vertex 3.90192378864668 5.0 0.0
    vertex 4.56814834742186 5.98236190979496 0.750000000000001
    vertex 4.76794919243112 5.5 0.750000000000001
  endloop
endfacet
facet normal 0.598136817641198 0.0787462059414406 -0.797515756854928
  outer loop
    vertex 4.5 6.5 0.750000000000001
    vertex 3.60222252113279 5.72354286469244 0.0
    vertex 3.5 6.5 0.0
  endloop
endfacet
facet normal 0.598136817641198 0.0787462059414406 -0.797515756854928
  outer loop
    vertex 3.60222252113279 5.72354286469244 0.0
    vertex 4.5 6.5 0.750000000000001
    vertex 4.56814834742186 5.98236190979496 0.750000000000001
  endloop
endfacet
facet normal 0.598136817641198 -0.0787462059414406 -0.797515756854928
  outer loop
    vertex 3.60222252113279 7.27645713530756 0.0
    vertex 4.5 6.5 0.750000000000001
    vertex 3.5 6.5 0.0
  endloop
endfacet
facet normal 0.598136817641198 -0.0787462059414406 -0.797515756854928
  outer loop
    vertex 4.5 6.5 0.750000000000001
    vertex 3.60222252113279 7.27645713530756 0.0
    vertex 4.56814834742186 7.01763809020504 0.750000000000001
  endloop
endfacet
facet normal 0.557374781986778 -0.230872194023671 -0.797515756854928
  outer loop
    vertex 3.90192378864668 8.0 0.0
    vertex 4.56814834742186 7.01763809020504 0.750000000000001
    vertex 3.60222252113279 7.27645713530756 0.0
  endloop
endfacet
facet normal 0.557374781986778 -0.230872194023671 -0.797515756854928
  outer loop
    vertex 4.56814834742186 7.01763809020504 0.750000000000001
    vertex 3.90192378864668 8.0 0.0
    vertex 4.76794919243112 7.5 0.750000000000001
  endloop
endfacet
facet normal 0.478628576045337 -0.367264623617528 -0.797515756854928
  outer loop
    vertex 4.37867965644036 8.62132034355964 0.0
    vertex 4.76794919243112 7.5 0.750000000000001
    vertex 3.90192378864668 8.0 0.0
  endloop
endfacet
facet normal 0.478628576045337 -0.367264623617528 -0.797515756854928
  outer loop
    vertex 4.76794919243112 7.5 0.750000000000001
    vertex 4.37867965644036 8.62132034355964 0.0
    vertex 5.0857864376269 7.91421356237309 0.750000000000001
  endloop
endfacet
facet normal 0.367264623617529 -0.478628576045337 -0.797515756854928
  outer loop
    vertex 5.0 9.09807621135332 0.0
    vertex 5.0857864376269 7.91421356237309 0.750000000000001
    vertex 4.37867965644036 8.62132034355964 0.0
  endloop
endfacet
facet normal 0.367264623617529 -0.478628576045337 -0.797515756854928
  outer loop
    vertex 5.0857864376269 7.91421356237309 0.750000000000001
    vertex 5.0 9.09807621135332 0.0
    vertex 5.5 8.23205080756888 0.750000000000001
  endloop
endfacet
facet normal 0.230872194023671 -0.557374781986778 -0.797515756854927
  outer loop
    vertex 5.72354286469244 9.39777747886721 0.0
    vertex 5.5 8.23205080756888 0.750000000000001
    vertex 5.0 9.09807621135332 0.0
  endloop
endfacet
facet normal 0.230872194023671 -0.557374781986778 -0.797515756854927
  outer loop
    vertex 5.5 8.23205080756888 0.750000000000001
    vertex 5.72354286469244 9.39777747886721 0.0
    vertex 5.98236190979495 8.43185165257814 0.750000000000001
  endloop
endfacet
facet normal 0.0787462059414405 -0.598136817641199 -0.797515756854927
  outer loop
    vertex 6.5 9.5 0.0
    vertex 5.98236190979495 8.43185165257814 0.750000000000001
    vertex 5.72354286469244 9.39777747886721 0.0
  endloop
endfacet
facet normal 0.0787462059414405 -0.598136817641199 -0.797515756854927
  outer loop
    vertex 5.98236190979495 8.43185165257814 0.750000000000001
    vertex 6.5 9.5 0.0
    vertex 6.5 8.5 0.750000000000001
  endloop
endfacet
facet normal -0.0787462059414404 -0.598136817641199 -0.797515756854928
  outer loop
    vertex 7.27645713530756 9.39777747886721 0.0
    vertex 6.5 8.5 0.750000000000001
    vertex 6.5 9.5 0.0
  endloop
endfacet
facet normal -0.0787462059414404 -0.598136817641199 -0.797515756854928
  outer loop
    vertex 6.5 8.5 0.750000000000001
    vertex 7.27645713530756 9.39777747886721 0.0
    vertex 7.01763809020504 8.43185165257814 0.750000000000001
  endloop
endfacet
facet normal -0.230872194023672 -0.557374781986777 -0.797515756854928
  outer loop
    vertex 7.27645713530756 9.39777747886721 0.0
    vertex 7.5 8.23205080756888 0.750000000000001
    vertex 7.01763809020504 8.43185165257814 0.750000000000001
  endloop
endfacet
facet normal -0.230872194023672 -0.557374781986777 -0.797515756854928
  outer loop
    vertex 7.5 8.23205080756888 0.750000000000001
    vertex 7.27645713530756 9.39777747886721 0.0
    vertex 8.0 9.09807621135331 0.0
  endloop
endfacet
facet normal -0.367264623617528 -0.478628576045336 -0.797515756854928
  outer loop
    vertex 8.0 9.09807621135331 0.0
    vertex 7.91421356237309 7.91421356237309 0.750000000000001
    vertex 7.5 8.23205080756888 0.750000000000001
  endloop
endfacet
facet normal -0.367264623617528 -0.478628576045336 -0.797515756854928
  outer loop
    vertex 7.91421356237309 7.91421356237309 0.750000000000001
    vertex 8.0 9.09807621135331 0.0
    vertex 8.62132034355964 8.62132034355964 0.0
  endloop
endfacet
facet normal -0.478628576045336 -0.367264623617527 -0.797515756854929
  outer loop
    vertex 8.62132034355964 8.62132034355964 0.0
    vertex 8.23205080756888 7.5 0.750000000000001
    vertex 7.91421356237309 7.91421356237309 0.750000000000001
  endloop
endfacet
facet normal -0.478628576045336 -0.367264623617527 -0.797515756854929
  outer loop
    vertex 8.23205080756888 7.5 0.750000000000001
    vertex 8.62132034355964 8.62132034355964 0.0
    vertex 9.09807621135332 8.0 0.0
  endloop
endfacet
facet normal -0.557374781986777 -0.230872194023668 -0.797515756854929
  outer loop
    vertex 9.09807621135332 8.0 0.0
    vertex 8.43185165257813 7.01763809020504 0.750000000000001
    vertex 8.23205080756888 7.5 0.750000000000001
  endloop
endfacet
facet normal -0.557374781986777 -0.230872194023668 -0.797515756854929
  outer loop
    vertex 8.43185165257813 7.01763809020504 0.750000000000001
    vertex 9.09807621135332 8.0 0.0
    vertex 9.39777747886721 7.27645713530756 0.0
  endloop
endfacet
facet normal -0.598136817641196 -0.0787462059414404 -0.79751575685493
  outer loop
    vertex 9.39777747886721 7.27645713530756 0.0
    vertex 8.5 6.5 0.750000000000001
    vertex 8.43185165257813 7.01763809020504 0.750000000000001
  endloop
endfacet
facet normal -0.598136817641196 -0.0787462059414404 -0.79751575685493
  outer loop
    vertex 8.5 6.5 0.750000000000001
    vertex 9.39777747886721 7.27645713530756 0.0
    vertex 9.5 6.5 0.0
  endloop
endfacet
facet normal -0.598136817641196 0.07874620594144 -0.797515756854929
  outer loop
    vertex 8.5 6.5 0.750000000000001
    vertex 9.39777747886721 5.72354286469243 0.0
    vertex 8.43185165257813 5.98236190979496 0.750000000000001
  endloop
endfacet
facet normal -0.598136817641196 0.07874620594144 -0.797515756854929
  outer loop
    vertex 9.39777747886721 5.72354286469243 0.0
    vertex 8.5 6.5 0.750000000000001
    vertex 9.5 6.5 0.0
  endloop
endfacet
facet normal -0.557374781986775 0.230872194023671 -0.79751575685493
  outer loop
    vertex 8.43185165257813 5.98236190979496 0.750000000000001
    vertex 9.09807621135331 5.0 0.0
    vertex 8.23205080756887 5.5 0.750000000000001
  endloop
endfacet
facet normal -0.557374781986775 0.230872194023671 -0.79751575685493
  outer loop
    vertex 9.09807621135331 5.0 0.0
    vertex 8.43185165257813 5.98236190979496 0.750000000000001
    vertex 9.39777747886721 5.72354286469243 0.0
  endloop
endfacet
facet normal -0.478628576045337 0.367264623617526 -0.797515756854929
  outer loop
    vertex 8.23205080756887 5.5 0.750000000000001
    vertex 8.62132034355964 4.37867965644036 0.0
    vertex 7.91421356237309 5.08578643762691 0.750000000000001
  endloop
endfacet
facet normal -0.478628576045337 0.367264623617526 -0.797515756854929
  outer loop
    vertex 8.62132034355964 4.37867965644036 0.0
    vertex 8.23205080756887 5.5 0.750000000000001
    vertex 9.09807621135331 5.0 0.0
  endloop
endfacet
facet normal -0.793353340291234 -0.608761429008722 -5.67758403282333e-016
  outer loop
    vertex 7.91421356237309 7.91421356237309 1.5
    vertex 8.23205080756888 7.5 0.750000000000001
    vertex 8.23205080756888 7.5 1.5
  endloop
endfacet
facet normal -0.793353340291234 -0.608761429008722 -5.67758403282333e-016
  outer loop
    vertex 8.23205080756888 7.5 0.750000000000001
    vertex 7.91421356237309 7.91421356237309 1.5
    vertex 7.91421356237309 7.91421356237309 0.750000000000001
  endloop
endfacet
facet normal -0.608761429008723 -0.793353340291233 -5.09882933060971e-016
  outer loop
    vertex 7.91421356237309 7.91421356237309 1.5
    vertex 7.5 8.23205080756888 0.750000000000001
    vertex 7.91421356237309 7.91421356237309 0.750000000000001
  endloop
endfacet
facet normal -0.608761429008723 -0.793353340291233 -5.09882933060971e-016
  outer loop
    vertex 7.5 8.23205080756888 0.750000000000001
    vertex 7.91421356237309 7.91421356237309 1.5
    vertex 7.5 8.23205080756888 1.5
  endloop
endfacet
facet normal -0.382683432365091 -0.923879532511286 -3.77100098771439e-015
  outer loop
    vertex 7.5 8.23205080756888 1.5
    vertex 7.01763809020504 8.43185165257814 0.750000000000001
    vertex 7.5 8.23205080756888 0.750000000000001
  endloop
endfacet
facet normal -0.382683432365091 -0.923879532511286 -3.77100098771439e-015
  outer loop
    vertex 7.01763809020504 8.43185165257814 0.750000000000001
    vertex 7.5 8.23205080756888 1.5
    vertex 7.01763809020504 8.43185165257814 1.5
  endloop
endfacet
facet normal -0.130526192220052 -0.99144486137381 -5.34670378472589e-015
  outer loop
    vertex 7.01763809020504 8.43185165257814 1.5
    vertex 6.5 8.5 0.750000000000001
    vertex 7.01763809020504 8.43185165257814 0.750000000000001
  endloop
endfacet
facet normal -0.130526192220052 -0.99144486137381 -5.34670378472589e-015
  outer loop
    vertex 6.5 8.5 0.750000000000001
    vertex 7.01763809020504 8.43185165257814 1.5
    vertex 6.5 8.5 1.5
  endloop
endfacet
facet normal 0.130526192220051 -0.99144486137381 -5.96349253646573e-015
  outer loop
    vertex 6.5 8.5 1.5
    vertex 5.98236190979495 8.43185165257814 0.750000000000001
    vertex 6.5 8.5 0.750000000000001
  endloop
endfacet
facet normal 0.130526192220051 -0.99144486137381 -5.96349253646573e-015
  outer loop
    vertex 5.98236190979495 8.43185165257814 0.750000000000001
    vertex 6.5 8.5 1.5
    vertex 5.98236190979496 8.43185165257814 1.5
  endloop
endfacet
facet normal -1.02300601957705e-015 -1.02300601957705e-015 1.0
  outer loop
    vertex 4.5 55.4999999999999 1.5
    vertex 4.56814834742187 56.9823619097949 1.5
    vertex 4.5 57.5 1.5
  endloop
endfacet
facet normal -1.02300601957705e-015 -1.02300601957705e-015 1.0
  outer loop
    vertex 4.56814834742187 56.9823619097949 1.5
    vertex 4.5 55.4999999999999 1.5
    vertex 4.76794919243112 56.5 1.5
  endloop
endfacet
facet normal -1.02300601957705e-015 -1.02300601957705e-015 1.0
  outer loop
    vertex 4.76794919243112 56.5 1.5
    vertex 4.5 55.4999999999999 1.5
    vertex 5.08578643762691 56.0857864376269 1.5
  endloop
endfacet
facet normal -1.02300601957705e-015 -1.02300601957705e-015 1.0
  outer loop
    vertex 5.08578643762691 56.0857864376269 1.5
    vertex 4.5 55.4999999999999 1.5
    vertex 5.5 55.7679491924311 1.5
  endloop
endfacet
facet normal -1.02300601957705e-015 -1.02300601957705e-015 1.0
  outer loop
    vertex 5.5 55.7679491924311 1.5
    vertex 4.5 55.4999999999999 1.5
    vertex 5.98236190979496 55.5681483474218 1.5
  endloop
endfacet
facet normal -1.02300601957705e-015 -1.02300601957705e-015 1.0
  outer loop
    vertex 5.98236190979496 55.5681483474218 1.5
    vertex 4.5 55.4999999999999 1.5
    vertex 6.5 55.5 1.5
  endloop
endfacet
facet normal -3.41002006525689e-016 3.41002006525689e-016 1.0
  outer loop
    vertex 8.5 55.5 1.5
    vertex 7.01763809020504 55.5681483474218 1.5
    vertex 6.5 55.5 1.5
  endloop
endfacet
facet normal -3.41002006525689e-016 3.41002006525689e-016 1.0
  outer loop
    vertex 7.01763809020504 55.5681483474218 1.5
    vertex 8.5 55.5 1.5
    vertex 7.5 55.7679491924311 1.5
  endloop
endfacet
facet normal -3.41002006525689e-016 3.41002006525689e-016 1.0
  outer loop
    vertex 7.5 55.7679491924311 1.5
    vertex 8.5 55.5 1.5
    vertex 7.91421356237309 56.0857864376269 1.5
  endloop
endfacet
facet normal -3.41002006525689e-016 3.41002006525689e-016 1.0
  outer loop
    vertex 7.91421356237309 56.0857864376269 1.5
    vertex 8.5 55.5 1.5
    vertex 8.23205080756887 56.5 1.5
  endloop
endfacet
facet normal -3.41002006525689e-016 3.41002006525689e-016 1.0
  outer loop
    vertex 8.23205080756887 56.5 1.5
    vertex 8.5 55.5 1.5
    vertex 8.43185165257813 56.9823619097949 1.5
  endloop
endfacet
facet normal -3.41002006525689e-016 3.41002006525689e-016 1.0
  outer loop
    vertex 8.43185165257813 56.9823619097949 1.5
    vertex 8.5 55.5 1.5
    vertex 8.5 57.5 1.5
  endloop
endfacet
facet normal -6.82004013051375e-016 6.82004013051375e-016 1.0
  outer loop
    vertex 4.56814834742186 7.01763809020504 1.5
    vertex 4.5 8.5 1.5
    vertex 4.5 6.5 1.5
  endloop
endfacet
facet normal -6.82004013051375e-016 6.82004013051375e-016 1.0
  outer loop
    vertex 4.5 8.5 1.5
    vertex 4.56814834742186 7.01763809020504 1.5
    vertex 4.76794919243112 7.5 1.5
  endloop
endfacet
facet normal -6.82004013051375e-016 6.82004013051375e-016 1.0
  outer loop
    vertex 4.5 8.5 1.5
    vertex 4.76794919243112 7.5 1.5
    vertex 5.08578643762691 7.91421356237309 1.5
  endloop
endfacet
facet normal -6.82004013051375e-016 6.82004013051375e-016 1.0
  outer loop
    vertex 4.5 8.5 1.5
    vertex 5.08578643762691 7.91421356237309 1.5
    vertex 5.5 8.23205080756888 1.5
  endloop
endfacet
facet normal -6.82004013051375e-016 6.82004013051375e-016 1.0
  outer loop
    vertex 4.5 8.5 1.5
    vertex 5.5 8.23205080756888 1.5
    vertex 5.98236190979496 8.43185165257814 1.5
  endloop
endfacet
facet normal -6.82004013051375e-016 6.82004013051375e-016 1.0
  outer loop
    vertex 4.5 8.5 1.5
    vertex 5.98236190979496 8.43185165257814 1.5
    vertex 6.5 8.5 1.5
  endloop
endfacet
facet normal -4.4061976289811e-016 2.40338052489878e-017 1.0
  outer loop
    vertex 8.5 10.0 1.5
    vertex 4.5 54.0 1.5
    vertex 4.5 10.0 1.5
  endloop
endfacet
facet normal -4.4061976289811e-016 2.40338052489878e-017 1.0
  outer loop
    vertex 4.5 54.0 1.5
    vertex 8.5 10.0 1.5
    vertex 8.5 54.0 1.5
  endloop
endfacet
facet normal -6.16867668057354e-016 7.83324022929943e-017 1.0
  outer loop
    vertex 8.49999999999999 54.0 6.5
    vertex 4.5 55.4999999999999 6.5
    vertex 4.5 54.0 6.5
  endloop
endfacet
facet normal -6.16867668057354e-016 7.83324022929943e-017 1.0
  outer loop
    vertex 4.5 55.4999999999999 6.5
    vertex 8.49999999999999 54.0 6.5
    vertex 8.49999999999999 55.5 6.5
  endloop
endfacet
facet normal -1.0 -2.89924358014875e-031 -6.16867668057354e-016
  outer loop
    vertex 4.5 55.4999999999999 6.5
    vertex 4.5 54.0 1.5
    vertex 4.5 54.0 6.5
  endloop
endfacet
facet normal -1.0 -2.89924358014875e-031 -6.16867668057354e-016
  outer loop
    vertex 4.5 54.0 1.5
    vertex 4.5 55.4999999999999 6.5
    vertex 4.5 55.4999999999999 1.5
  endloop
endfacet
facet normal 5.63993296509581e-015 -1.0 7.83324022929978e-017
  outer loop
    vertex 8.5 54.0 1.5
    vertex 4.5 54.0 6.5
    vertex 4.5 54.0 1.5
  endloop
endfacet
facet normal 5.63993296509581e-015 -1.0 7.83324022929978e-017
  outer loop
    vertex 4.5 54.0 6.5
    vertex 8.5 54.0 1.5
    vertex 8.49999999999999 54.0 6.5
  endloop
endfacet
facet normal 1.0 0.0 6.16867668057355e-016
  outer loop
    vertex 8.5 55.5 1.5
    vertex 8.49999999999999 54.0 6.5
    vertex 8.5 54.0 1.5
  endloop
endfacet
facet normal 1.0 0.0 6.16867668057355e-016
  outer loop
    vertex 8.49999999999999 54.0 6.5
    vertex 8.5 55.5 1.5
    vertex 8.49999999999999 55.5 6.5
  endloop
endfacet
facet normal -1.12798659301916e-014 1.0 -6.70548099954239e-030
  outer loop
    vertex 4.5 55.4999999999999 6.5
    vertex 6.5 55.5 1.5
    vertex 4.5 55.4999999999999 1.5
  endloop
endfacet
facet normal -1.12798659301916e-014 1.0 -6.70548099954239e-030
  outer loop
    vertex 6.5 55.5 1.5
    vertex 4.5 55.4999999999999 6.5
    vertex 8.5 55.5 1.5
  endloop
endfacet
facet normal -1.12798659301916e-014 1.0 -6.70548099954239e-030
  outer loop
    vertex 8.5 55.5 1.5
    vertex 4.5 55.4999999999999 6.5
    vertex 8.49999999999999 55.5 6.5
  endloop
endfacet
facet normal -5.28743715477731e-016 -4.69994413757982e-016 1.0
  outer loop
    vertex 8.5 8.5 6.5
    vertex 4.5 10.0 6.5
    vertex 4.5 8.49999999999999 6.5
  endloop
endfacet
facet normal -5.28743715477731e-016 -4.69994413757982e-016 1.0
  outer loop
    vertex 4.5 10.0 6.5
    vertex 8.5 8.5 6.5
    vertex 8.5 10.0 6.5
  endloop
endfacet
facet normal 1.0 0.0 5.28743715477731e-016
  outer loop
    vertex 8.5 8.5 1.5
    vertex 8.5 10.0 6.5
    vertex 8.5 8.5 6.5
  endloop
endfacet
facet normal 1.0 0.0 5.28743715477731e-016
  outer loop
    vertex 8.5 10.0 6.5
    vertex 8.5 8.5 1.5
    vertex 8.5 10.0 1.5
  endloop
endfacet
facet normal -1.65671061722782e-031 1.0 4.69994413757982e-016
  outer loop
    vertex 4.5 10.0 6.5
    vertex 8.5 10.0 1.5
    vertex 4.5 10.0 1.5
  endloop
endfacet
facet normal -1.65671061722782e-031 1.0 4.69994413757982e-016
  outer loop
    vertex 8.5 10.0 1.5
    vertex 4.5 10.0 6.5
    vertex 8.5 10.0 6.5
  endloop
endfacet
facet normal -1.0 4.97013185168345e-031 -5.28743715477731e-016
  outer loop
    vertex 4.5 10.0 6.5
    vertex 4.5 8.5 1.5
    vertex 4.5 8.49999999999999 6.5
  endloop
endfacet
facet normal -1.0 4.97013185168345e-031 -5.28743715477731e-016
  outer loop
    vertex 4.5 8.5 1.5
    vertex 4.5 10.0 6.5
    vertex 4.5 10.0 1.5
  endloop
endfacet
facet normal 1.76247905159244e-015 -1.0 -5.63993296509578e-016
  outer loop
    vertex 6.5 8.5 1.5
    vertex 4.5 8.49999999999999 6.5
    vertex 4.5 8.5 1.5
  endloop
endfacet
facet normal 1.76247905159244e-015 -1.0 -5.63993296509578e-016
  outer loop
    vertex 4.5 8.49999999999999 6.5
    vertex 6.5 8.5 1.5
    vertex 8.5 8.5 1.5
  endloop
endfacet
facet normal 1.76247905159244e-015 -1.0 -5.63993296509578e-016
  outer loop
    vertex 4.5 8.49999999999999 6.5
    vertex 8.5 8.5 1.5
    vertex 8.5 8.5 6.5
  endloop
endfacet
endsolid ledfoot
