solid penbarrel
facet normal 0.0 0.0 -1.0
  outer loop
    vertex -5.19615242270663 3.0 0.0
    vertex -5.25 6.42939569552361e-016 0.0
    vertex -5.79555495773441 1.55291427061513 0.0
  endloop
endfacet
facet normal 0.0 0.0 -1.0
  outer loop
    vertex -5.25 6.42939569552361e-016 0.0
    vertex -5.19615242270663 3.0 0.0
    vertex -5.07111058801761 1.35879998678824 0.0
  endloop
endfacet
facet normal 0.0 0.0 -1.0
  outer loop
    vertex -5.07111058801761 1.35879998678824 0.0
    vertex -5.19615242270663 3.0 0.0
    vertex -4.24264068711928 4.24264068711929 0.0
  endloop
endfacet
facet normal 0.0 0.0 -1.0
  outer loop
    vertex -5.07111058801761 1.35879998678824 0.0
    vertex -4.24264068711928 4.24264068711929 0.0
    vertex -4.5466333698683 2.625 0.0
  endloop
endfacet
facet normal 0.0 0.0 -1.0
  outer loop
    vertex -4.5466333698683 2.625 0.0
    vertex -4.24264068711928 4.24264068711929 0.0
    vertex -3.71231060122937 3.71231060122937 0.0
  endloop
endfacet
facet normal 0.0 0.0 -1.0
  outer loop
    vertex -3.71231060122937 3.71231060122937 0.0
    vertex -4.24264068711928 4.24264068711929 0.0
    vertex -3.0 5.19615242270663 0.0
  endloop
endfacet
facet normal 0.0 0.0 -1.0
  outer loop
    vertex -3.71231060122937 3.71231060122937 0.0
    vertex -3.0 5.19615242270663 0.0
    vertex -2.625 4.5466333698683 0.0
  endloop
endfacet
facet normal 0.0 0.0 -1.0
  outer loop
    vertex -2.625 4.5466333698683 0.0
    vertex -3.0 5.19615242270663 0.0
    vertex -1.55291427061512 5.79555495773441 0.0
  endloop
endfacet
facet normal 0.0 0.0 -1.0
  outer loop
    vertex -2.625 4.5466333698683 0.0
    vertex -1.55291427061512 5.79555495773441 0.0
    vertex -1.35879998678823 5.07111058801761 0.0
  endloop
endfacet
facet normal 0.0 0.0 -1.0
  outer loop
    vertex -1.35879998678823 5.07111058801761 0.0
    vertex -1.55291427061512 5.79555495773441 0.0
    vertex 3.67394039744206e-016 6.0 0.0
  endloop
endfacet
facet normal 0.0 0.0 -1.0
  outer loop
    vertex -1.35879998678823 5.07111058801761 0.0
    vertex 3.67394039744206e-016 6.0 0.0
    vertex 3.2146978477618e-016 5.25 0.0
  endloop
endfacet
facet normal 0.0 0.0 -1.0
  outer loop
    vertex 3.2146978477618e-016 5.25 0.0
    vertex 3.67394039744206e-016 6.0 0.0
    vertex 1.35879998678824 5.07111058801761 0.0
  endloop
endfacet
facet normal 0.0 0.0 -1.0
  outer loop
    vertex 1.35879998678824 5.07111058801761 0.0
    vertex 3.67394039744206e-016 6.0 0.0
    vertex 1.55291427061513 5.79555495773441 0.0
  endloop
endfacet
facet normal 0.0 0.0 -1.0
  outer loop
    vertex 1.35879998678824 5.07111058801761 0.0
    vertex 1.55291427061513 5.79555495773441 0.0
    vertex 2.625 4.5466333698683 0.0
  endloop
endfacet
facet normal 0.0 0.0 -1.0
  outer loop
    vertex 2.625 4.5466333698683 0.0
    vertex 1.55291427061513 5.79555495773441 0.0
    vertex 3.0 5.19615242270663 0.0
  endloop
endfacet
facet normal 0.0 0.0 -1.0
  outer loop
    vertex 2.625 4.5466333698683 0.0
    vertex 3.0 5.19615242270663 0.0
    vertex 3.71231060122937 3.71231060122937 0.0
  endloop
endfacet
facet normal 0.0 0.0 -1.0
  outer loop
    vertex 3.71231060122937 3.71231060122937 0.0
    vertex 3.0 5.19615242270663 0.0
    vertex 4.24264068711928 4.24264068711928 0.0
  endloop
endfacet
facet normal 0.0 0.0 -1.0
  outer loop
    vertex 3.71231060122937 3.71231060122937 0.0
    vertex 4.24264068711928 4.24264068711928 0.0
    vertex 4.5466333698683 2.625 0.0
  endloop
endfacet
facet normal 0.0 0.0 -1.0
  outer loop
    vertex 4.5466333698683 2.625 0.0
    vertex 4.24264068711928 4.24264068711928 0.0
    vertex 5.19615242270663 3.0 0.0
  endloop
endfacet
facet normal 0.0 0.0 -1.0
  outer loop
    vertex 4.5466333698683 2.625 0.0
    vertex 5.19615242270663 3.0 0.0
    vertex 5.07111058801761 1.35879998678823 0.0
  endloop
endfacet
facet normal 0.0 0.0 -1.0
  outer loop
    vertex 5.07111058801761 1.35879998678823 0.0
    vertex 5.19615242270663 3.0 0.0
    vertex 5.25 0.0 0.0
  endloop
endfacet
facet normal 0.0 0.0 -1.0
  outer loop
    vertex 5.25 0.0 0.0
    vertex 5.19615242270663 3.0 0.0
    vertex 5.79555495773441 1.55291427061512 0.0
  endloop
endfacet
facet normal 0.0 0.0 -1.0
  outer loop
    vertex 5.25 0.0 0.0
    vertex 5.79555495773441 1.55291427061512 0.0
    vertex 5.79555495773441 -1.55291427061513 0.0
  endloop
endfacet
facet normal 0.0 0.0 -1.0
  outer loop
    vertex 5.79555495773441 -1.55291427061513 0.0
    vertex 5.79555495773441 1.55291427061512 0.0
    vertex 6.0 0.0 0.0
  endloop
endfacet
facet normal 0.0 0.0 -1.0
  outer loop
    vertex -5.79555495773441 1.55291427061513 0.0
    vertex -5.79555495773441 -1.55291427061512 0.0
    vertex -6.0 7.34788079488412e-016 0.0
  endloop
endfacet
facet normal 0.0 0.0 -1.0
  outer loop
    vertex -5.79555495773441 -1.55291427061512 0.0
    vertex -5.79555495773441 1.55291427061513 0.0
    vertex -5.19615242270663 -3.0 0.0
  endloop
endfacet
facet normal 0.0 0.0 -1.0
  outer loop
    vertex -5.19615242270663 -3.0 0.0
    vertex -5.79555495773441 1.55291427061513 0.0
    vertex -5.25 6.42939569552361e-016 0.0
  endloop
endfacet
facet normal 0.0 0.0 -1.0
  outer loop
    vertex -5.19615242270663 -3.0 0.0
    vertex -5.25 6.42939569552361e-016 0.0
    vertex -5.07111058801761 -1.35879998678823 0.0
  endloop
endfacet
facet normal 0.0 0.0 -1.0
  outer loop
    vertex -5.19615242270663 -3.0 0.0
    vertex -5.07111058801761 -1.35879998678823 0.0
    vertex -4.24264068711929 -4.24264068711928 0.0
  endloop
endfacet
facet normal 0.0 0.0 -1.0
  outer loop
    vertex -4.24264068711929 -4.24264068711928 0.0
    vertex -5.07111058801761 -1.35879998678823 0.0
    vertex -4.5466333698683 -2.625 0.0
  endloop
endfacet
facet normal 0.0 0.0 -1.0
  outer loop
    vertex -4.24264068711929 -4.24264068711928 0.0
    vertex -4.5466333698683 -2.625 0.0
    vertex -3.71231060122938 -3.71231060122937 0.0
  endloop
endfacet
facet normal 0.0 0.0 -1.0
  outer loop
    vertex -4.24264068711929 -4.24264068711928 0.0
    vertex -3.71231060122938 -3.71231060122937 0.0
    vertex -3.0 -5.19615242270663 0.0
  endloop
endfacet
facet normal 0.0 0.0 -1.0
  outer loop
    vertex -3.0 -5.19615242270663 0.0
    vertex -3.71231060122938 -3.71231060122937 0.0
    vertex -2.625 -4.5466333698683 0.0
  endloop
endfacet
facet normal 0.0 0.0 -1.0
  outer loop
    vertex -3.0 -5.19615242270663 0.0
    vertex -2.625 -4.5466333698683 0.0
    vertex -1.55291427061513 -5.79555495773441 0.0
  endloop
endfacet
facet normal 0.0 0.0 -1.0
  outer loop
    vertex -1.55291427061513 -5.79555495773441 0.0
    vertex -2.625 -4.5466333698683 0.0
    vertex -1.35879998678824 -5.07111058801761 0.0
  endloop
endfacet
facet normal 0.0 0.0 -1.0
  outer loop
    vertex -1.55291427061513 -5.79555495773441 0.0
    vertex -1.35879998678824 -5.07111058801761 0.0
    vertex -1.10218211923262e-015 -6.0 0.0
  endloop
endfacet
facet normal 0.0 0.0 -1.0
  outer loop
    vertex -1.10218211923262e-015 -6.0 0.0
    vertex -1.35879998678824 -5.07111058801761 0.0
    vertex -9.64409354328541e-016 -5.25 0.0
  endloop
endfacet
facet normal 0.0 0.0 -1.0
  outer loop
    vertex -1.10218211923262e-015 -6.0 0.0
    vertex -9.64409354328541e-016 -5.25 0.0
    vertex 1.55291427061512 -5.79555495773441 0.0
  endloop
endfacet
facet normal 0.0 0.0 -1.0
  outer loop
    vertex 1.55291427061512 -5.79555495773441 0.0
    vertex -9.64409354328541e-016 -5.25 0.0
    vertex 1.35879998678823 -5.07111058801761 0.0
  endloop
endfacet
facet normal 0.0 0.0 -1.0
  outer loop
    vertex 1.55291427061512 -5.79555495773441 0.0
    vertex 1.35879998678823 -5.07111058801761 0.0
    vertex 2.625 -4.5466333698683 0.0
  endloop
endfacet
facet normal 0.0 0.0 -1.0
  outer loop
    vertex 1.55291427061512 -5.79555495773441 0.0
    vertex 2.625 -4.5466333698683 0.0
    vertex 3.0 -5.19615242270663 0.0
  endloop
endfacet
facet normal 0.0 0.0 -1.0
  outer loop
    vertex 3.0 -5.19615242270663 0.0
    vertex 2.625 -4.5466333698683 0.0
    vertex 3.71231060122937 -3.71231060122938 0.0
  endloop
endfacet
facet normal 0.0 0.0 -1.0
  outer loop
    vertex 3.0 -5.19615242270663 0.0
    vertex 3.71231060122937 -3.71231060122938 0.0
    vertex 4.24264068711928 -4.24264068711929 0.0
  endloop
endfacet
facet normal 0.0 0.0 -1.0
  outer loop
    vertex 4.24264068711928 -4.24264068711929 0.0
    vertex 3.71231060122937 -3.71231060122938 0.0
    vertex 4.5466333698683 -2.625 0.0
  endloop
endfacet
facet normal 0.0 0.0 -1.0
  outer loop
    vertex 4.24264068711928 -4.24264068711929 0.0
    vertex 4.5466333698683 -2.625 0.0
    vertex 5.19615242270663 -3.0 0.0
  endloop
endfacet
facet normal 0.0 0.0 -1.0
  outer loop
    vertex 5.19615242270663 -3.0 0.0
    vertex 4.5466333698683 -2.625 0.0
    vertex 5.07111058801761 -1.35879998678824 0.0
  endloop
endfacet
facet normal 0.0 0.0 -1.0
  outer loop
    vertex 5.19615242270663 -3.0 0.0
    vertex 5.07111058801761 -1.35879998678824 0.0
    vertex 5.25 0.0 0.0
  endloop
endfacet
facet normal 0.0 0.0 -1.0
  outer loop
    vertex 5.19615242270663 -3.0 0.0
    vertex 5.25 0.0 0.0
    vertex 5.79555495773441 -1.55291427061513 0.0
  endloop
endfacet
facet normal 0.0 0.0 1.0
  outer loop
    vertex -5.79555495773441 -1.55291427061512 60.0
    vertex -5.79555495773441 1.55291427061513 60.0
    vertex -6.0 7.34788079488412e-016 60.0
  endloop
endfacet
facet normal 0.0 0.0 1.0
  outer loop
    vertex -5.79555495773441 1.55291427061513 60.0
    vertex -5.79555495773441 -1.55291427061512 60.0
    vertex -5.19615242270663 -3.0 60.0
  endloop
endfacet
facet normal 0.0 0.0 1.0
  outer loop
    vertex -5.79555495773441 1.55291427061513 60.0
    vertex -5.19615242270663 -3.0 60.0
    vertex -5.23475240328233 0.399834060992635 60.0
  endloop
endfacet
facet normal 0.0 0.0 1.0
  outer loop
    vertex -5.23475240328233 0.399834060992635 60.0
    vertex -5.19615242270663 -3.0 60.0
    vertex -5.15986721042475 -0.968643572622834 60.0
  endloop
endfacet
facet normal 0.0 0.0 1.0
  outer loop
    vertex -5.15986721042475 -0.968643572622834 60.0
    vertex -5.19615242270663 -3.0 60.0
    vertex -4.24264068711929 -4.24264068711928 60.0
  endloop
endfacet
facet normal 0.0 0.0 1.0
  outer loop
    vertex -5.15986721042475 -0.968643572622834 60.0
    vertex -4.24264068711929 -4.24264068711928 60.0
    vertex -4.73334559426046 -2.27110974752325 60.0
  endloop
endfacet
facet normal 0.0 0.0 1.0
  outer loop
    vertex -4.73334559426046 -2.27110974752325 60.0
    vertex -4.24264068711929 -4.24264068711928 60.0
    vertex -3.98425429807076 -3.41880354631626 60.0
  endloop
endfacet
facet normal 0.0 0.0 1.0
  outer loop
    vertex -3.98425429807076 -3.41880354631626 60.0
    vertex -4.24264068711929 -4.24264068711928 60.0
    vertex -3.0 -5.19615242270663 60.0
  endloop
endfacet
facet normal 0.0 0.0 1.0
  outer loop
    vertex -3.98425429807076 -3.41880354631626 60.0
    vertex -3.0 -5.19615242270663 60.0
    vertex -2.96364265575908 -4.33351153326782 60.0
  endloop
endfacet
facet normal 0.0 0.0 1.0
  outer loop
    vertex -2.96364265575908 -4.33351153326782 60.0
    vertex -3.0 -5.19615242270663 60.0
    vertex -1.55291427061513 -5.79555495773441 60.0
  endloop
endfacet
facet normal 0.0 0.0 1.0
  outer loop
    vertex -2.96364265575908 -4.33351153326782 60.0
    vertex -1.55291427061513 -5.79555495773441 60.0
    vertex -1.74106366410848 -4.95289787069359 60.0
  endloop
endfacet
facet normal 0.0 0.0 1.0
  outer loop
    vertex -1.74106366410848 -4.95289787069359 60.0
    vertex -1.55291427061513 -5.79555495773441 60.0
    vertex -0.399834060992635 -5.23475240328233 60.0
  endloop
endfacet
facet normal 0.0 0.0 1.0
  outer loop
    vertex -0.399834060992635 -5.23475240328233 60.0
    vertex -1.55291427061513 -5.79555495773441 60.0
    vertex -1.10218211923262e-015 -6.0 60.0
  endloop
endfacet
facet normal 0.0 0.0 1.0
  outer loop
    vertex -0.399834060992635 -5.23475240328233 60.0
    vertex -1.10218211923262e-015 -6.0 60.0
    vertex 0.968643572622834 -5.15986721042475 60.0
  endloop
endfacet
facet normal 0.0 0.0 1.0
  outer loop
    vertex 0.968643572622834 -5.15986721042475 60.0
    vertex -1.10218211923262e-015 -6.0 60.0
    vertex 1.55291427061512 -5.79555495773441 60.0
  endloop
endfacet
facet normal 0.0 0.0 1.0
  outer loop
    vertex 0.968643572622834 -5.15986721042475 60.0
    vertex 1.55291427061512 -5.79555495773441 60.0
    vertex 2.27110974752325 -4.73334559426046 60.0
  endloop
endfacet
facet normal 0.0 0.0 1.0
  outer loop
    vertex 2.27110974752325 -4.73334559426046 60.0
    vertex 1.55291427061512 -5.79555495773441 60.0
    vertex 3.0 -5.19615242270663 60.0
  endloop
endfacet
facet normal 0.0 0.0 1.0
  outer loop
    vertex 2.27110974752325 -4.73334559426046 60.0
    vertex 3.0 -5.19615242270663 60.0
    vertex 3.41880354631626 -3.98425429807076 60.0
  endloop
endfacet
facet normal 0.0 0.0 1.0
  outer loop
    vertex 3.41880354631626 -3.98425429807076 60.0
    vertex 3.0 -5.19615242270663 60.0
    vertex 4.24264068711928 -4.24264068711929 60.0
  endloop
endfacet
facet normal 0.0 0.0 1.0
  outer loop
    vertex 3.41880354631626 -3.98425429807076 60.0
    vertex 4.24264068711928 -4.24264068711929 60.0
    vertex 4.33351153326782 -2.96364265575909 60.0
  endloop
endfacet
facet normal 0.0 0.0 1.0
  outer loop
    vertex 4.33351153326782 -2.96364265575909 60.0
    vertex 4.24264068711928 -4.24264068711929 60.0
    vertex 5.19615242270663 -3.0 60.0
  endloop
endfacet
facet normal 0.0 0.0 1.0
  outer loop
    vertex 4.33351153326782 -2.96364265575909 60.0
    vertex 5.19615242270663 -3.0 60.0
    vertex 4.95289787069359 -1.74106366410849 60.0
  endloop
endfacet
facet normal 0.0 0.0 1.0
  outer loop
    vertex 4.95289787069359 -1.74106366410849 60.0
    vertex 5.19615242270663 -3.0 60.0
    vertex 5.23475240328233 -0.399834060992638 60.0
  endloop
endfacet
facet normal 0.0 0.0 1.0
  outer loop
    vertex 5.23475240328233 -0.399834060992638 60.0
    vertex 5.19615242270663 -3.0 60.0
    vertex 5.79555495773441 -1.55291427061513 60.0
  endloop
endfacet
facet normal 0.0 0.0 1.0
  outer loop
    vertex -5.23475240328233 0.399834060992635 60.0
    vertex -5.19615242270663 3.0 60.0
    vertex -5.79555495773441 1.55291427061513 60.0
  endloop
endfacet
facet normal 0.0 0.0 1.0
  outer loop
    vertex -5.19615242270663 3.0 60.0
    vertex -5.23475240328233 0.399834060992635 60.0
    vertex -4.95289787069359 1.74106366410848 60.0
  endloop
endfacet
facet normal 0.0 0.0 1.0
  outer loop
    vertex -5.19615242270663 3.0 60.0
    vertex -4.95289787069359 1.74106366410848 60.0
    vertex -4.24264068711928 4.24264068711929 60.0
  endloop
endfacet
facet normal 0.0 0.0 1.0
  outer loop
    vertex -4.24264068711928 4.24264068711929 60.0
    vertex -4.95289787069359 1.74106366410848 60.0
    vertex -4.33351153326782 2.96364265575908 60.0
  endloop
endfacet
facet normal 0.0 0.0 1.0
  outer loop
    vertex -4.24264068711928 4.24264068711929 60.0
    vertex -4.33351153326782 2.96364265575908 60.0
    vertex -3.41880354631627 3.98425429807076 60.0
  endloop
endfacet
facet normal 0.0 0.0 1.0
  outer loop
    vertex -4.24264068711928 4.24264068711929 60.0
    vertex -3.41880354631627 3.98425429807076 60.0
    vertex -3.0 5.19615242270663 60.0
  endloop
endfacet
facet normal 0.0 0.0 1.0
  outer loop
    vertex -3.0 5.19615242270663 60.0
    vertex -3.41880354631627 3.98425429807076 60.0
    vertex -2.27110974752325 4.73334559426046 60.0
  endloop
endfacet
facet normal 0.0 0.0 1.0
  outer loop
    vertex -3.0 5.19615242270663 60.0
    vertex -2.27110974752325 4.73334559426046 60.0
    vertex -1.55291427061512 5.79555495773441 60.0
  endloop
endfacet
facet normal 0.0 0.0 1.0
  outer loop
    vertex -1.55291427061512 5.79555495773441 60.0
    vertex -2.27110974752325 4.73334559426046 60.0
    vertex -0.968643572622835 5.15986721042475 60.0
  endloop
endfacet
facet normal 0.0 0.0 1.0
  outer loop
    vertex -1.55291427061512 5.79555495773441 60.0
    vertex -0.968643572622835 5.15986721042475 60.0
    vertex 3.67394039744206e-016 6.0 60.0
  endloop
endfacet
facet normal 0.0 0.0 1.0
  outer loop
    vertex 3.67394039744206e-016 6.0 60.0
    vertex -0.968643572622835 5.15986721042475 60.0
    vertex 0.399834060992639 5.23475240328233 60.0
  endloop
endfacet
facet normal 0.0 0.0 1.0
  outer loop
    vertex 3.67394039744206e-016 6.0 60.0
    vertex 0.399834060992639 5.23475240328233 60.0
    vertex 1.55291427061513 5.79555495773441 60.0
  endloop
endfacet
facet normal 0.0 0.0 1.0
  outer loop
    vertex 1.55291427061513 5.79555495773441 60.0
    vertex 0.399834060992639 5.23475240328233 60.0
    vertex 1.74106366410849 4.95289787069359 60.0
  endloop
endfacet
facet normal 0.0 0.0 1.0
  outer loop
    vertex 1.55291427061513 5.79555495773441 60.0
    vertex 1.74106366410849 4.95289787069359 60.0
    vertex 3.0 5.19615242270663 60.0
  endloop
endfacet
facet normal 0.0 0.0 1.0
  outer loop
    vertex 3.0 5.19615242270663 60.0
    vertex 1.74106366410849 4.95289787069359 60.0
    vertex 2.96364265575908 4.33351153326782 60.0
  endloop
endfacet
facet normal 0.0 0.0 1.0
  outer loop
    vertex 3.0 5.19615242270663 60.0
    vertex 2.96364265575908 4.33351153326782 60.0
    vertex 3.98425429807076 3.41880354631626 60.0
  endloop
endfacet
facet normal 0.0 0.0 1.0
  outer loop
    vertex 3.0 5.19615242270663 60.0
    vertex 3.98425429807076 3.41880354631626 60.0
    vertex 4.24264068711928 4.24264068711928 60.0
  endloop
endfacet
facet normal 0.0 0.0 1.0
  outer loop
    vertex 4.24264068711928 4.24264068711928 60.0
    vertex 3.98425429807076 3.41880354631626 60.0
    vertex 4.73334559426046 2.27110974752325 60.0
  endloop
endfacet
facet normal 0.0 0.0 1.0
  outer loop
    vertex 4.24264068711928 4.24264068711928 60.0
    vertex 4.73334559426046 2.27110974752325 60.0
    vertex 5.19615242270663 3.0 60.0
  endloop
endfacet
facet normal 0.0 0.0 1.0
  outer loop
    vertex 5.19615242270663 3.0 60.0
    vertex 4.73334559426046 2.27110974752325 60.0
    vertex 5.15986721042475 0.968643572622834 60.0
  endloop
endfacet
facet normal 0.0 0.0 1.0
  outer loop
    vertex 5.19615242270663 3.0 60.0
    vertex 5.15986721042475 0.968643572622834 60.0
    vertex 5.23475240328233 -0.399834060992638 60.0
  endloop
endfacet
facet normal 0.0 0.0 1.0
  outer loop
    vertex 5.19615242270663 3.0 60.0
    vertex 5.23475240328233 -0.399834060992638 60.0
    vertex 5.79555495773441 1.55291427061512 60.0
  endloop
endfacet
facet normal 0.0 0.0 1.0
  outer loop
    vertex 5.79555495773441 1.55291427061512 60.0
    vertex 5.23475240328233 -0.399834060992638 60.0
    vertex 5.79555495773441 -1.55291427061513 60.0
  endloop
endfacet
facet normal 0.0 0.0 1.0
  outer loop
    vertex 5.79555495773441 1.55291427061512 60.0
    vertex 5.79555495773441 -1.55291427061513 60.0
    vertex 6.0 0.0 60.0
  endloop
endfacet
facet normal -0.793353340291236 -0.60876142900872 0.0
  outer loop
    vertex -5.19615242270663 -3.0 60.0
    vertex -4.24264068711929 -4.24264068711928 0.0
    vertex -4.24264068711929 -4.24264068711928 60.0
  endloop
endfacet
facet normal -0.793353340291236 -0.60876142900872 0.0
  outer loop
    vertex -4.24264068711929 -4.24264068711928 0.0
    vertex -5.19615242270663 -3.0 60.0
    vertex -5.19615242270663 -3.0 0.0
  endloop
endfacet
facet normal -0.923879532511287 -0.382683432365089 0.0
  outer loop
    vertex -5.79555495773441 -1.55291427061512 60.0
    vertex -5.19615242270663 -3.0 0.0
    vertex -5.19615242270663 -3.0 60.0
  endloop
endfacet
facet normal -0.923879532511287 -0.382683432365089 0.0
  outer loop
    vertex -5.19615242270663 -3.0 0.0
    vertex -5.79555495773441 -1.55291427061512 60.0
    vertex -5.79555495773441 -1.55291427061512 0.0
  endloop
endfacet
facet normal -0.991444861373811 -0.130526192220051 0.0
  outer loop
    vertex -6.0 7.34788079488412e-016 60.0
    vertex -5.79555495773441 -1.55291427061512 0.0
    vertex -5.79555495773441 -1.55291427061512 60.0
  endloop
endfacet
facet normal -0.991444861373811 -0.130526192220051 0.0
  outer loop
    vertex -5.79555495773441 -1.55291427061512 0.0
    vertex -6.0 7.34788079488412e-016 60.0
    vertex -6.0 7.34788079488412e-016 0.0
  endloop
endfacet
facet normal -0.99144486137381 0.130526192220052 0.0
  outer loop
    vertex -5.79555495773441 1.55291427061513 60.0
    vertex -6.0 7.34788079488412e-016 0.0
    vertex -6.0 7.34788079488412e-016 60.0
  endloop
endfacet
facet normal -0.99144486137381 0.130526192220052 0.0
  outer loop
    vertex -6.0 7.34788079488412e-016 0.0
    vertex -5.79555495773441 1.55291427061513 60.0
    vertex -5.79555495773441 1.55291427061513 0.0
  endloop
endfacet
facet normal -0.923879532511287 0.38268343236509 0.0
  outer loop
    vertex -5.19615242270663 3.0 60.0
    vertex -5.79555495773441 1.55291427061513 0.0
    vertex -5.79555495773441 1.55291427061513 60.0
  endloop
endfacet
facet normal -0.923879532511287 0.38268343236509 0.0
  outer loop
    vertex -5.79555495773441 1.55291427061513 0.0
    vertex -5.19615242270663 3.0 60.0
    vertex -5.19615242270663 3.0 0.0
  endloop
endfacet
facet normal -0.793353340291235 0.608761429008721 0.0
  outer loop
    vertex -4.24264068711928 4.24264068711929 60.0
    vertex -5.19615242270663 3.0 0.0
    vertex -5.19615242270663 3.0 60.0
  endloop
endfacet
facet normal -0.793353340291235 0.608761429008721 0.0
  outer loop
    vertex -5.19615242270663 3.0 0.0
    vertex -4.24264068711928 4.24264068711929 60.0
    vertex -4.24264068711928 4.24264068711929 0.0
  endloop
endfacet
facet normal -0.60876142900872 0.793353340291236 0.0
  outer loop
    vertex -4.24264068711928 4.24264068711929 60.0
    vertex -3.0 5.19615242270663 0.0
    vertex -4.24264068711928 4.24264068711929 0.0
  endloop
endfacet
facet normal -0.60876142900872 0.793353340291236 0.0
  outer loop
    vertex -3.0 5.19615242270663 0.0
    vertex -4.24264068711928 4.24264068711929 60.0
    vertex -3.0 5.19615242270663 60.0
  endloop
endfacet
facet normal -0.38268343236509 0.923879532511287 0.0
  outer loop
    vertex -3.0 5.19615242270663 60.0
    vertex -1.55291427061512 5.79555495773441 0.0
    vertex -3.0 5.19615242270663 0.0
  endloop
endfacet
facet normal -0.38268343236509 0.923879532511287 0.0
  outer loop
    vertex -1.55291427061512 5.79555495773441 0.0
    vertex -3.0 5.19615242270663 60.0
    vertex -1.55291427061512 5.79555495773441 60.0
  endloop
endfacet
facet normal -0.130526192220051 0.99144486137381 0.0
  outer loop
    vertex -1.55291427061512 5.79555495773441 60.0
    vertex 3.67394039744206e-016 6.0 0.0
    vertex -1.55291427061512 5.79555495773441 0.0
  endloop
endfacet
facet normal -0.130526192220051 0.99144486137381 0.0
  outer loop
    vertex 3.67394039744206e-016 6.0 0.0
    vertex -1.55291427061512 5.79555495773441 60.0
    vertex 3.67394039744206e-016 6.0 60.0
  endloop
endfacet
facet normal 0.130526192220052 0.99144486137381 0.0
  outer loop
    vertex 3.67394039744206e-016 6.0 60.0
    vertex 1.55291427061513 5.79555495773441 0.0
    vertex 3.67394039744206e-016 6.0 0.0
  endloop
endfacet
facet normal 0.130526192220052 0.99144486137381 0.0
  outer loop
    vertex 1.55291427061513 5.79555495773441 0.0
    vertex 3.67394039744206e-016 6.0 60.0
    vertex 1.55291427061513 5.79555495773441 60.0
  endloop
endfacet
facet normal 0.38268343236509 0.923879532511287 0.0
  outer loop
    vertex 1.55291427061513 5.79555495773441 60.0
    vertex 3.0 5.19615242270663 0.0
    vertex 1.55291427061513 5.79555495773441 0.0
  endloop
endfacet
facet normal 0.38268343236509 0.923879532511287 0.0
  outer loop
    vertex 3.0 5.19615242270663 0.0
    vertex 1.55291427061513 5.79555495773441 60.0
    vertex 3.0 5.19615242270663 60.0
  endloop
endfacet
facet normal 0.608761429008721 0.793353340291235 0.0
  outer loop
    vertex 3.0 5.19615242270663 60.0
    vertex 4.24264068711928 4.24264068711928 0.0
    vertex 3.0 5.19615242270663 0.0
  endloop
endfacet
facet normal 0.608761429008721 0.793353340291235 0.0
  outer loop
    vertex 4.24264068711928 4.24264068711928 0.0
    vertex 3.0 5.19615242270663 60.0
    vertex 4.24264068711928 4.24264068711928 60.0
  endloop
endfacet
facet normal 0.793353340291235 0.60876142900872 0.0
  outer loop
    vertex 4.24264068711928 4.24264068711928 0.0
    vertex 5.19615242270663 3.0 60.0
    vertex 5.19615242270663 3.0 0.0
  endloop
endfacet
facet normal 0.793353340291235 0.60876142900872 0.0
  outer loop
    vertex 5.19615242270663 3.0 60.0
    vertex 4.24264068711928 4.24264068711928 0.0
    vertex 4.24264068711928 4.24264068711928 60.0
  endloop
endfacet
facet normal 0.923879532511287 0.38268343236509 0.0
  outer loop
    vertex 5.19615242270663 3.0 0.0
    vertex 5.79555495773441 1.55291427061512 60.0
    vertex 5.79555495773441 1.55291427061512 0.0
  endloop
endfacet
facet normal 0.923879532511287 0.38268343236509 0.0
  outer loop
    vertex 5.79555495773441 1.55291427061512 60.0
    vertex 5.19615242270663 3.0 0.0
    vertex 5.19615242270663 3.0 60.0
  endloop
endfacet
facet normal 0.99144486137381 0.130526192220051 0.0
  outer loop
    vertex 5.79555495773441 1.55291427061512 0.0
    vertex 6.0 0.0 60.0
    vertex 6.0 0.0 0.0
  endloop
endfacet
facet normal 0.99144486137381 0.130526192220051 0.0
  outer loop
    vertex 6.0 0.0 60.0
    vertex 5.79555495773441 1.55291427061512 0.0
    vertex 5.79555495773441 1.55291427061512 60.0
  endloop
endfacet
facet normal 0.99144486137381 -0.130526192220052 0.0
  outer loop
    vertex 6.0 0.0 0.0
    vertex 5.79555495773441 -1.55291427061513 60.0
    vertex 5.79555495773441 -1.55291427061513 0.0
  endloop
endfacet
facet normal 0.99144486137381 -0.130526192220052 0.0
  outer loop
    vertex 5.79555495773441 -1.55291427061513 60.0
    vertex 6.0 0.0 0.0
    vertex 6.0 0.0 60.0
  endloop
endfacet
facet normal 0.923879532511287 -0.38268343236509 0.0
  outer loop
    vertex 5.79555495773441 -1.55291427061513 0.0
    vertex 5.19615242270663 -3.0 60.0
    vertex 5.19615242270663 -3.0 0.0
  endloop
endfacet
facet normal 0.923879532511287 -0.38268343236509 0.0
  outer loop
    vertex 5.19615242270663 -3.0 60.0
    vertex 5.79555495773441 -1.55291427061513 0.0
    vertex 5.79555495773441 -1.55291427061513 60.0
  endloop
endfacet
facet normal 0.793353340291235 -0.608761429008721 0.0
  outer loop
    vertex 5.19615242270663 -3.0 0.0
    vertex 4.24264068711928 -4.24264068711929 60.0
    vertex 4.24264068711928 -4.24264068711929 0.0
  endloop
endfacet
facet normal 0.793353340291235 -0.608761429008721 0.0
  outer loop
    vertex 4.24264068711928 -4.24264068711929 60.0
    vertex 5.19615242270663 -3.0 0.0
    vertex 5.19615242270663 -3.0 60.0
  endloop
endfacet
facet normal 0.60876142900872 -0.793353340291236 0.0
  outer loop
    vertex 4.24264068711928 -4.24264068711929 60.0
    vertex 3.0 -5.19615242270663 0.0
    vertex 4.24264068711928 -4.24264068711929 0.0
  endloop
endfacet
facet normal 0.60876142900872 -0.793353340291236 0.0
  outer loop
    vertex 3.0 -5.19615242270663 0.0
    vertex 4.24264068711928 -4.24264068711929 60.0
    vertex 3.0 -5.19615242270663 60.0
  endloop
endfacet
facet normal 0.382683432365089 -0.923879532511287 0.0
  outer loop
    vertex 3.0 -5.19615242270663 60.0
    vertex 1.55291427061512 -5.79555495773441 0.0
    vertex 3.0 -5.19615242270663 0.0
  endloop
endfacet
facet normal 0.382683432365089 -0.923879532511287 0.0
  outer loop
    vertex 1.55291427061512 -5.79555495773441 0.0
    vertex 3.0 -5.19615242270663 60.0
    vertex 1.55291427061512 -5.79555495773441 60.0
  endloop
endfacet
facet normal 0.130526192220051 -0.99144486137381 0.0
  outer loop
    vertex 1.55291427061512 -5.79555495773441 60.0
    vertex -1.10218211923262e-015 -6.0 0.0
    vertex 1.55291427061512 -5.79555495773441 0.0
  endloop
endfacet
facet normal 0.130526192220051 -0.99144486137381 0.0
  outer loop
    vertex -1.10218211923262e-015 -6.0 0.0
    vertex 1.55291427061512 -5.79555495773441 60.0
    vertex -1.10218211923262e-015 -6.0 60.0
  endloop
endfacet
facet normal -0.130526192220052 -0.99144486137381 0.0
  outer loop
    vertex -1.10218211923262e-015 -6.0 60.0
    vertex -1.55291427061513 -5.79555495773441 0.0
    vertex -1.10218211923262e-015 -6.0 0.0
  endloop
endfacet
facet normal -0.130526192220052 -0.99144486137381 0.0
  outer loop
    vertex -1.55291427061513 -5.79555495773441 0.0
    vertex -1.10218211923262e-015 -6.0 60.0
    vertex -1.55291427061513 -5.79555495773441 60.0
  endloop
endfacet
facet normal -0.38268343236509 -0.923879532511287 0.0
  outer loop
    vertex -1.55291427061513 -5.79555495773441 60.0
    vertex -3.0 -5.19615242270663 0.0
    vertex -1.55291427061513 -5.79555495773441 0.0
  endloop
endfacet
facet normal -0.38268343236509 -0.923879532511287 0.0
  outer loop
    vertex -3.0 -5.19615242270663 0.0
    vertex -1.55291427061513 -5.79555495773441 60.0
    vertex -3.0 -5.19615242270663 60.0
  endloop
endfacet
facet normal -0.608761429008721 -0.793353340291235 0.0
  outer loop
    vertex -3.0 -5.19615242270663 60.0
    vertex -4.24264068711929 -4.24264068711928 0.0
    vertex -3.0 -5.19615242270663 0.0
  endloop
endfacet
facet normal -0.608761429008721 -0.793353340291235 0.0
  outer loop
    vertex -4.24264068711929 -4.24264068711928 0.0
    vertex -3.0 -5.19615242270663 60.0
    vertex -4.24264068711929 -4.24264068711928 60.0
  endloop
endfacet
facet normal -0.60876142900872 0.793353340291236 0.0
  outer loop
    vertex 2.25 -3.89711431702998 56.5
    vertex 3.18198051533946 -3.18198051533946 3.5
    vertex 2.25 -3.89711431702998 3.5
  endloop
endfacet
facet normal -0.60876142900872 0.793353340291236 0.0
  outer loop
    vertex 3.18198051533946 -3.18198051533946 3.5
    vertex 2.25 -3.89711431702998 56.5
    vertex 3.18198051533946 -3.18198051533946 56.5
  endloop
endfacet
facet normal -0.793353340291235 0.608761429008721 0.0
  outer loop
    vertex 3.89711431702997 -2.25 56.5
    vertex 3.18198051533946 -3.18198051533946 3.5
    vertex 3.18198051533946 -3.18198051533946 56.5
  endloop
endfacet
facet normal -0.793353340291235 0.608761429008721 0.0
  outer loop
    vertex 3.18198051533946 -3.18198051533946 3.5
    vertex 3.89711431702997 -2.25 56.5
    vertex 3.89711431702997 -2.25 3.5
  endloop
endfacet
facet normal -0.923879532511286 0.382683432365091 0.0
  outer loop
    vertex 4.34666621830081 -1.16468570296135 56.5
    vertex 3.89711431702997 -2.25 3.5
    vertex 3.89711431702997 -2.25 56.5
  endloop
endfacet
facet normal -0.923879532511286 0.382683432365091 0.0
  outer loop
    vertex 3.89711431702997 -2.25 3.5
    vertex 4.34666621830081 -1.16468570296135 56.5
    vertex 4.34666621830081 -1.16468570296135 3.5
  endloop
endfacet
facet normal -0.99144486137381 0.130526192220052 0.0
  outer loop
    vertex 4.5 0.0 56.5
    vertex 4.34666621830081 -1.16468570296135 3.5
    vertex 4.34666621830081 -1.16468570296135 56.5
  endloop
endfacet
facet normal -0.99144486137381 0.130526192220052 0.0
  outer loop
    vertex 4.34666621830081 -1.16468570296135 3.5
    vertex 4.5 0.0 56.5
    vertex 4.5 0.0 3.5
  endloop
endfacet
facet normal -0.99144486137381 -0.130526192220052 0.0
  outer loop
    vertex 4.34666621830081 1.16468570296134 56.5
    vertex 4.5 0.0 3.5
    vertex 4.5 0.0 56.5
  endloop
endfacet
facet normal -0.99144486137381 -0.130526192220052 0.0
  outer loop
    vertex 4.5 0.0 3.5
    vertex 4.34666621830081 1.16468570296134 56.5
    vertex 4.34666621830081 1.16468570296134 3.5
  endloop
endfacet
facet normal -0.923879532511287 -0.38268343236509 0.0
  outer loop
    vertex 3.89711431702997 2.25 56.5
    vertex 4.34666621830081 1.16468570296134 3.5
    vertex 4.34666621830081 1.16468570296134 56.5
  endloop
endfacet
facet normal -0.923879532511287 -0.38268343236509 0.0
  outer loop
    vertex 4.34666621830081 1.16468570296134 3.5
    vertex 3.89711431702997 2.25 56.5
    vertex 3.89711431702997 2.25 3.5
  endloop
endfacet
facet normal -0.793353340291235 -0.608761429008721 0.0
  outer loop
    vertex 3.18198051533946 3.18198051533946 56.5
    vertex 3.89711431702997 2.25 3.5
    vertex 3.89711431702997 2.25 56.5
  endloop
endfacet
facet normal -0.793353340291235 -0.608761429008721 0.0
  outer loop
    vertex 3.89711431702997 2.25 3.5
    vertex 3.18198051533946 3.18198051533946 56.5
    vertex 3.18198051533946 3.18198051533946 3.5
  endloop
endfacet
facet normal -0.608761429008721 -0.793353340291235 0.0
  outer loop
    vertex 3.18198051533946 3.18198051533946 56.5
    vertex 2.25 3.89711431702997 3.5
    vertex 3.18198051533946 3.18198051533946 3.5
  endloop
endfacet
facet normal -0.608761429008721 -0.793353340291235 0.0
  outer loop
    vertex 2.25 3.89711431702997 3.5
    vertex 3.18198051533946 3.18198051533946 56.5
    vertex 2.25 3.89711431702997 56.5
  endloop
endfacet
facet normal -0.38268343236509 -0.923879532511287 0.0
  outer loop
    vertex 2.25 3.89711431702997 56.5
    vertex 1.16468570296134 4.34666621830081 3.5
    vertex 2.25 3.89711431702997 3.5
  endloop
endfacet
facet normal -0.38268343236509 -0.923879532511287 0.0
  outer loop
    vertex 1.16468570296134 4.34666621830081 3.5
    vertex 2.25 3.89711431702997 56.5
    vertex 1.16468570296134 4.34666621830081 56.5
  endloop
endfacet
facet normal -0.130526192220052 -0.99144486137381 0.0
  outer loop
    vertex 1.16468570296134 4.34666621830081 56.5
    vertex 2.75545529808154e-016 4.5 3.5
    vertex 1.16468570296134 4.34666621830081 3.5
  endloop
endfacet
facet normal -0.130526192220052 -0.99144486137381 0.0
  outer loop
    vertex 2.75545529808154e-016 4.5 3.5
    vertex 1.16468570296134 4.34666621830081 56.5
    vertex 2.75545529808154e-016 4.5 56.5
  endloop
endfacet
facet normal 0.130526192220052 -0.99144486137381 0.0
  outer loop
    vertex 2.75545529808154e-016 4.5 56.5
    vertex -1.16468570296134 4.34666621830081 3.5
    vertex 2.75545529808154e-016 4.5 3.5
  endloop
endfacet
facet normal 0.130526192220052 -0.99144486137381 0.0
  outer loop
    vertex -1.16468570296134 4.34666621830081 3.5
    vertex 2.75545529808154e-016 4.5 56.5
    vertex -1.16468570296134 4.34666621830081 56.5
  endloop
endfacet
facet normal 0.38268343236509 -0.923879532511287 0.0
  outer loop
    vertex -1.16468570296134 4.34666621830081 56.5
    vertex -2.25 3.89711431702997 3.5
    vertex -1.16468570296134 4.34666621830081 3.5
  endloop
endfacet
facet normal 0.38268343236509 -0.923879532511287 0.0
  outer loop
    vertex -2.25 3.89711431702997 3.5
    vertex -1.16468570296134 4.34666621830081 56.5
    vertex -2.25 3.89711431702997 56.5
  endloop
endfacet
facet normal 0.60876142900872 -0.793353340291236 0.0
  outer loop
    vertex -2.25 3.89711431702997 56.5
    vertex -3.18198051533946 3.18198051533946 3.5
    vertex -2.25 3.89711431702997 3.5
  endloop
endfacet
facet normal 0.60876142900872 -0.793353340291236 0.0
  outer loop
    vertex -3.18198051533946 3.18198051533946 3.5
    vertex -2.25 3.89711431702997 56.5
    vertex -3.18198051533946 3.18198051533946 56.5
  endloop
endfacet
facet normal 0.793353340291235 -0.608761429008721 0.0
  outer loop
    vertex -3.18198051533946 3.18198051533946 3.5
    vertex -3.89711431702997 2.25 56.5
    vertex -3.89711431702997 2.25 3.5
  endloop
endfacet
facet normal 0.793353340291235 -0.608761429008721 0.0
  outer loop
    vertex -3.89711431702997 2.25 56.5
    vertex -3.18198051533946 3.18198051533946 3.5
    vertex -3.18198051533946 3.18198051533946 56.5
  endloop
endfacet
facet normal 0.923879532511287 -0.38268343236509 0.0
  outer loop
    vertex -3.89711431702997 2.25 3.5
    vertex -4.34666621830081 1.16468570296134 56.5
    vertex -4.34666621830081 1.16468570296134 3.5
  endloop
endfacet
facet normal 0.923879532511287 -0.38268343236509 0.0
  outer loop
    vertex -4.34666621830081 1.16468570296134 56.5
    vertex -3.89711431702997 2.25 3.5
    vertex -3.89711431702997 2.25 56.5
  endloop
endfacet
facet normal 0.99144486137381 -0.130526192220052 0.0
  outer loop
    vertex -4.34666621830081 1.16468570296134 3.5
    vertex -4.5 5.51091059616309e-016 56.5
    vertex -4.5 5.51091059616309e-016 3.5
  endloop
endfacet
facet normal 0.99144486137381 -0.130526192220052 0.0
  outer loop
    vertex -4.5 5.51091059616309e-016 56.5
    vertex -4.34666621830081 1.16468570296134 3.5
    vertex -4.34666621830081 1.16468570296134 56.5
  endloop
endfacet
facet normal 0.991444861373811 0.130526192220051 0.0
  outer loop
    vertex -4.5 5.51091059616309e-016 3.5
    vertex -4.34666621830081 -1.16468570296134 56.5
    vertex -4.34666621830081 -1.16468570296134 3.5
  endloop
endfacet
facet normal 0.991444861373811 0.130526192220051 0.0
  outer loop
    vertex -4.34666621830081 -1.16468570296134 56.5
    vertex -4.5 5.51091059616309e-016 3.5
    vertex -4.5 5.51091059616309e-016 56.5
  endloop
endfacet
facet normal 0.923879532511287 0.38268343236509 0.0
  outer loop
    vertex -4.34666621830081 -1.16468570296134 3.5
    vertex -3.89711431702997 -2.25 56.5
    vertex -3.89711431702997 -2.25 3.5
  endloop
endfacet
facet normal 0.923879532511287 0.38268343236509 0.0
  outer loop
    vertex -3.89711431702997 -2.25 56.5
    vertex -4.34666621830081 -1.16468570296134 3.5
    vertex -4.34666621830081 -1.16468570296134 56.5
  endloop
endfacet
facet normal 0.793353340291235 0.608761429008721 0.0
  outer loop
    vertex -3.89711431702997 -2.25 3.5
    vertex -3.18198051533947 -3.18198051533946 56.5
    vertex -3.18198051533947 -3.18198051533946 3.5
  endloop
endfacet
facet normal 0.793353340291235 0.608761429008721 0.0
  outer loop
    vertex -3.18198051533947 -3.18198051533946 56.5
    vertex -3.89711431702997 -2.25 3.5
    vertex -3.89711431702997 -2.25 56.5
  endloop
endfacet
facet normal 0.608761429008721 0.793353340291235 0.0
  outer loop
    vertex -3.18198051533947 -3.18198051533946 56.5
    vertex -2.25 -3.89711431702997 3.5
    vertex -3.18198051533947 -3.18198051533946 3.5
  endloop
endfacet
facet normal 0.608761429008721 0.793353340291235 0.0
  outer loop
    vertex -2.25 -3.89711431702997 3.5
    vertex -3.18198051533947 -3.18198051533946 56.5
    vertex -2.25 -3.89711431702997 56.5
  endloop
endfacet
facet normal 0.382683432365091 0.923879532511287 0.0
  outer loop
    vertex -2.25 -3.89711431702997 56.5
    vertex -1.16468570296135 -4.34666621830081 3.5
    vertex -2.25 -3.89711431702997 3.5
  endloop
endfacet
facet normal 0.382683432365091 0.923879532511287 0.0
  outer loop
    vertex -1.16468570296135 -4.34666621830081 3.5
    vertex -2.25 -3.89711431702997 56.5
    vertex -1.16468570296135 -4.34666621830081 56.5
  endloop
endfacet
facet normal 0.130526192220052 0.99144486137381 0.0
  outer loop
    vertex -1.16468570296135 -4.34666621830081 56.5
    vertex -8.26636589424463e-016 -4.5 3.5
    vertex -1.16468570296135 -4.34666621830081 3.5
  endloop
endfacet
facet normal 0.130526192220052 0.99144486137381 0.0
  outer loop
    vertex -8.26636589424463e-016 -4.5 3.5
    vertex -1.16468570296135 -4.34666621830081 56.5
    vertex -8.26636589424463e-016 -4.5 56.5
  endloop
endfacet
facet normal -0.130526192220051 0.991444861373811 0.0
  outer loop
    vertex -8.26636589424463e-016 -4.5 56.5
    vertex 1.16468570296134 -4.34666621830081 3.5
    vertex -8.26636589424463e-016 -4.5 3.5
  endloop
endfacet
facet normal -0.130526192220051 0.991444861373811 0.0
  outer loop
    vertex 1.16468570296134 -4.34666621830081 3.5
    vertex -8.26636589424463e-016 -4.5 56.5
    vertex 1.16468570296134 -4.34666621830081 56.5
  endloop
endfacet
facet normal -0.38268343236509 0.923879532511287 0.0
  outer loop
    vertex 1.16468570296134 -4.34666621830081 56.5
    vertex 2.25 -3.89711431702998 3.5
    vertex 1.16468570296134 -4.34666621830081 3.5
  endloop
endfacet
facet normal -0.38268343236509 0.923879532511287 0.0
  outer loop
    vertex 2.25 -3.89711431702998 3.5
    vertex 1.16468570296134 -4.34666621830081 56.5
    vertex 2.25 -3.89711431702998 56.5
  endloop
endfacet
facet normal 0.0 0.0 -1.0
  outer loop
    vertex -4.5466333698683 2.625 3.5
    vertex -4.34666621830081 1.16468570296134 3.5
    vertex -4.5 5.51091059616309e-016 3.5
  endloop
endfacet
facet normal 0.0 0.0 -1.0
  outer loop
    vertex -4.34666621830081 1.16468570296134 3.5
    vertex -4.5466333698683 2.625 3.5
    vertex -3.71231060122937 3.71231060122937 3.5
  endloop
endfacet
facet normal 0.0 0.0 -1.0
  outer loop
    vertex -4.34666621830081 1.16468570296134 3.5
    vertex -3.71231060122937 3.71231060122937 3.5
    vertex -3.89711431702997 2.25 3.5
  endloop
endfacet
facet normal 0.0 0.0 -1.0
  outer loop
    vertex -3.89711431702997 2.25 3.5
    vertex -3.71231060122937 3.71231060122937 3.5
    vertex -3.18198051533946 3.18198051533946 3.5
  endloop
endfacet
facet normal 0.0 0.0 -1.0
  outer loop
    vertex -3.18198051533946 3.18198051533946 3.5
    vertex -3.71231060122937 3.71231060122937 3.5
    vertex -2.625 4.5466333698683 3.5
  endloop
endfacet
facet normal 0.0 0.0 -1.0
  outer loop
    vertex -3.18198051533946 3.18198051533946 3.5
    vertex -2.625 4.5466333698683 3.5
    vertex -2.25 3.89711431702997 3.5
  endloop
endfacet
facet normal 0.0 0.0 -1.0
  outer loop
    vertex -2.25 3.89711431702997 3.5
    vertex -2.625 4.5466333698683 3.5
    vertex -1.35879998678823 5.07111058801761 3.5
  endloop
endfacet
facet normal 0.0 0.0 -1.0
  outer loop
    vertex -2.25 3.89711431702997 3.5
    vertex -1.35879998678823 5.07111058801761 3.5
    vertex -1.16468570296134 4.34666621830081 3.5
  endloop
endfacet
facet normal 0.0 0.0 -1.0
  outer loop
    vertex -1.16468570296134 4.34666621830081 3.5
    vertex -1.35879998678823 5.07111058801761 3.5
    vertex 3.2146978477618e-016 5.25 3.5
  endloop
endfacet
facet normal 0.0 0.0 -1.0
  outer loop
    vertex -1.16468570296134 4.34666621830081 3.5
    vertex 3.2146978477618e-016 5.25 3.5
    vertex 2.75545529808154e-016 4.5 3.5
  endloop
endfacet
facet normal 0.0 0.0 -1.0
  outer loop
    vertex 2.75545529808154e-016 4.5 3.5
    vertex 3.2146978477618e-016 5.25 3.5
    vertex 1.16468570296134 4.34666621830081 3.5
  endloop
endfacet
facet normal 0.0 0.0 -1.0
  outer loop
    vertex 1.16468570296134 4.34666621830081 3.5
    vertex 3.2146978477618e-016 5.25 3.5
    vertex 1.35879998678824 5.07111058801761 3.5
  endloop
endfacet
facet normal 0.0 0.0 -1.0
  outer loop
    vertex 1.16468570296134 4.34666621830081 3.5
    vertex 1.35879998678824 5.07111058801761 3.5
    vertex 2.25 3.89711431702997 3.5
  endloop
endfacet
facet normal 0.0 0.0 -1.0
  outer loop
    vertex 2.25 3.89711431702997 3.5
    vertex 1.35879998678824 5.07111058801761 3.5
    vertex 2.625 4.5466333698683 3.5
  endloop
endfacet
facet normal 0.0 0.0 -1.0
  outer loop
    vertex 2.25 3.89711431702997 3.5
    vertex 2.625 4.5466333698683 3.5
    vertex 3.18198051533946 3.18198051533946 3.5
  endloop
endfacet
facet normal 0.0 0.0 -1.0
  outer loop
    vertex 3.18198051533946 3.18198051533946 3.5
    vertex 2.625 4.5466333698683 3.5
    vertex 3.71231060122937 3.71231060122937 3.5
  endloop
endfacet
facet normal 0.0 0.0 -1.0
  outer loop
    vertex 3.18198051533946 3.18198051533946 3.5
    vertex 3.71231060122937 3.71231060122937 3.5
    vertex 3.89711431702997 2.25 3.5
  endloop
endfacet
facet normal 0.0 0.0 -1.0
  outer loop
    vertex 3.89711431702997 2.25 3.5
    vertex 3.71231060122937 3.71231060122937 3.5
    vertex 4.5466333698683 2.625 3.5
  endloop
endfacet
facet normal 0.0 0.0 -1.0
  outer loop
    vertex 3.89711431702997 2.25 3.5
    vertex 4.5466333698683 2.625 3.5
    vertex 4.34666621830081 1.16468570296134 3.5
  endloop
endfacet
facet normal 0.0 0.0 -1.0
  outer loop
    vertex 4.34666621830081 1.16468570296134 3.5
    vertex 4.5466333698683 2.625 3.5
    vertex 4.5 0.0 3.5
  endloop
endfacet
facet normal 0.0 0.0 -1.0
  outer loop
    vertex 4.5 0.0 3.5
    vertex 4.5466333698683 2.625 3.5
    vertex 4.5466333698683 -2.625 3.5
  endloop
endfacet
facet normal 0.0 0.0 -1.0
  outer loop
    vertex 4.5466333698683 -2.625 3.5
    vertex 4.5466333698683 2.625 3.5
    vertex 5.07111058801761 -1.35879998678824 3.5
  endloop
endfacet
facet normal 0.0 0.0 -1.0
  outer loop
    vertex 5.07111058801761 -1.35879998678824 3.5
    vertex 4.5466333698683 2.625 3.5
    vertex 5.07111058801761 1.35879998678823 3.5
  endloop
endfacet
facet normal 0.0 0.0 -1.0
  outer loop
    vertex 5.07111058801761 -1.35879998678824 3.5
    vertex 5.07111058801761 1.35879998678823 3.5
    vertex 5.25 0.0 3.5
  endloop
endfacet
facet normal 0.0 0.0 -1.0
  outer loop
    vertex -5.07111058801761 1.35879998678824 3.5
    vertex -5.07111058801761 -1.35879998678823 3.5
    vertex -5.25 6.42939569552361e-016 3.5
  endloop
endfacet
facet normal 0.0 0.0 -1.0
  outer loop
    vertex -5.07111058801761 -1.35879998678823 3.5
    vertex -5.07111058801761 1.35879998678824 3.5
    vertex -4.5466333698683 -2.625 3.5
  endloop
endfacet
facet normal 0.0 0.0 -1.0
  outer loop
    vertex -4.5466333698683 -2.625 3.5
    vertex -5.07111058801761 1.35879998678824 3.5
    vertex -4.5466333698683 2.625 3.5
  endloop
endfacet
facet normal 0.0 0.0 -1.0
  outer loop
    vertex -4.5466333698683 -2.625 3.5
    vertex -4.5466333698683 2.625 3.5
    vertex -4.5 5.51091059616309e-016 3.5
  endloop
endfacet
facet normal 0.0 0.0 -1.0
  outer loop
    vertex -4.5466333698683 -2.625 3.5
    vertex -4.5 5.51091059616309e-016 3.5
    vertex -4.34666621830081 -1.16468570296134 3.5
  endloop
endfacet
facet normal 0.0 0.0 -1.0
  outer loop
    vertex -4.5466333698683 -2.625 3.5
    vertex -4.34666621830081 -1.16468570296134 3.5
    vertex -3.71231060122938 -3.71231060122937 3.5
  endloop
endfacet
facet normal 0.0 0.0 -1.0
  outer loop
    vertex -3.71231060122938 -3.71231060122937 3.5
    vertex -4.34666621830081 -1.16468570296134 3.5
    vertex -3.89711431702997 -2.25 3.5
  endloop
endfacet
facet normal 0.0 0.0 -1.0
  outer loop
    vertex -3.71231060122938 -3.71231060122937 3.5
    vertex -3.89711431702997 -2.25 3.5
    vertex -3.18198051533947 -3.18198051533946 3.5
  endloop
endfacet
facet normal 0.0 0.0 -1.0
  outer loop
    vertex -3.71231060122938 -3.71231060122937 3.5
    vertex -3.18198051533947 -3.18198051533946 3.5
    vertex -2.625 -4.5466333698683 3.5
  endloop
endfacet
facet normal 0.0 0.0 -1.0
  outer loop
    vertex -2.625 -4.5466333698683 3.5
    vertex -3.18198051533947 -3.18198051533946 3.5
    vertex -2.25 -3.89711431702997 3.5
  endloop
endfacet
facet normal 0.0 0.0 -1.0
  outer loop
    vertex -2.625 -4.5466333698683 3.5
    vertex -2.25 -3.89711431702997 3.5
    vertex -1.35879998678824 -5.07111058801761 3.5
  endloop
endfacet
facet normal 0.0 0.0 -1.0
  outer loop
    vertex -1.35879998678824 -5.07111058801761 3.5
    vertex -2.25 -3.89711431702997 3.5
    vertex -1.16468570296135 -4.34666621830081 3.5
  endloop
endfacet
facet normal 0.0 0.0 -1.0
  outer loop
    vertex -1.35879998678824 -5.07111058801761 3.5
    vertex -1.16468570296135 -4.34666621830081 3.5
    vertex -9.64409354328541e-016 -5.25 3.5
  endloop
endfacet
facet normal 0.0 0.0 -1.0
  outer loop
    vertex -9.64409354328541e-016 -5.25 3.5
    vertex -1.16468570296135 -4.34666621830081 3.5
    vertex -8.26636589424463e-016 -4.5 3.5
  endloop
endfacet
facet normal 0.0 0.0 -1.0
  outer loop
    vertex -9.64409354328541e-016 -5.25 3.5
    vertex -8.26636589424463e-016 -4.5 3.5
    vertex 1.35879998678823 -5.07111058801761 3.5
  endloop
endfacet
facet normal 0.0 0.0 -1.0
  outer loop
    vertex 1.35879998678823 -5.07111058801761 3.5
    vertex -8.26636589424463e-016 -4.5 3.5
    vertex 1.16468570296134 -4.34666621830081 3.5
  endloop
endfacet
facet normal 0.0 0.0 -1.0
  outer loop
    vertex 1.35879998678823 -5.07111058801761 3.5
    vertex 1.16468570296134 -4.34666621830081 3.5
    vertex 2.25 -3.89711431702998 3.5
  endloop
endfacet
facet normal 0.0 0.0 -1.0
  outer loop
    vertex 1.35879998678823 -5.07111058801761 3.5
    vertex 2.25 -3.89711431702998 3.5
    vertex 2.625 -4.5466333698683 3.5
  endloop
endfacet
facet normal 0.0 0.0 -1.0
  outer loop
    vertex 2.625 -4.5466333698683 3.5
    vertex 2.25 -3.89711431702998 3.5
    vertex 3.18198051533946 -3.18198051533946 3.5
  endloop
endfacet
facet normal 0.0 0.0 -1.0
  outer loop
    vertex 2.625 -4.5466333698683 3.5
    vertex 3.18198051533946 -3.18198051533946 3.5
    vertex 3.71231060122937 -3.71231060122938 3.5
  endloop
endfacet
facet normal 0.0 0.0 -1.0
  outer loop
    vertex 3.71231060122937 -3.71231060122938 3.5
    vertex 3.18198051533946 -3.18198051533946 3.5
    vertex 3.89711431702997 -2.25 3.5
  endloop
endfacet
facet normal 0.0 0.0 -1.0
  outer loop
    vertex 3.71231060122937 -3.71231060122938 3.5
    vertex 3.89711431702997 -2.25 3.5
    vertex 4.5466333698683 -2.625 3.5
  endloop
endfacet
facet normal 0.0 0.0 -1.0
  outer loop
    vertex 4.5466333698683 -2.625 3.5
    vertex 3.89711431702997 -2.25 3.5
    vertex 4.34666621830081 -1.16468570296135 3.5
  endloop
endfacet
facet normal 0.0 0.0 -1.0
  outer loop
    vertex 4.5466333698683 -2.625 3.5
    vertex 4.34666621830081 -1.16468570296135 3.5
    vertex 4.5 0.0 3.5
  endloop
endfacet
facet normal -0.38268343236509 -0.923879532511287 0.0
  outer loop
    vertex 2.625 4.5466333698683 3.5
    vertex 1.35879998678824 5.07111058801761 0.0
    vertex 2.625 4.5466333698683 0.0
  endloop
endfacet
facet normal -0.38268343236509 -0.923879532511287 0.0
  outer loop
    vertex 1.35879998678824 5.07111058801761 0.0
    vertex 2.625 4.5466333698683 3.5
    vertex 1.35879998678824 5.07111058801761 3.5
  endloop
endfacet
facet normal -0.608761429008721 -0.793353340291235 0.0
  outer loop
    vertex 3.71231060122937 3.71231060122937 3.5
    vertex 2.625 4.5466333698683 0.0
    vertex 3.71231060122937 3.71231060122937 0.0
  endloop
endfacet
facet normal -0.608761429008721 -0.793353340291235 0.0
  outer loop
    vertex 2.625 4.5466333698683 0.0
    vertex 3.71231060122937 3.71231060122937 3.5
    vertex 2.625 4.5466333698683 3.5
  endloop
endfacet
facet normal -0.793353340291235 -0.608761429008721 0.0
  outer loop
    vertex 3.71231060122937 3.71231060122937 3.5
    vertex 4.5466333698683 2.625 0.0
    vertex 4.5466333698683 2.625 3.5
  endloop
endfacet
facet normal -0.793353340291235 -0.608761429008721 0.0
  outer loop
    vertex 4.5466333698683 2.625 0.0
    vertex 3.71231060122937 3.71231060122937 3.5
    vertex 3.71231060122937 3.71231060122937 0.0
  endloop
endfacet
facet normal -0.923879532511287 -0.382683432365089 0.0
  outer loop
    vertex 4.5466333698683 2.625 3.5
    vertex 5.07111058801761 1.35879998678823 0.0
    vertex 5.07111058801761 1.35879998678823 3.5
  endloop
endfacet
facet normal -0.923879532511287 -0.382683432365089 0.0
  outer loop
    vertex 5.07111058801761 1.35879998678823 0.0
    vertex 4.5466333698683 2.625 3.5
    vertex 4.5466333698683 2.625 0.0
  endloop
endfacet
facet normal -0.99144486137381 -0.130526192220052 0.0
  outer loop
    vertex 5.07111058801761 1.35879998678823 3.5
    vertex 5.25 0.0 0.0
    vertex 5.25 0.0 3.5
  endloop
endfacet
facet normal -0.99144486137381 -0.130526192220052 0.0
  outer loop
    vertex 5.25 0.0 0.0
    vertex 5.07111058801761 1.35879998678823 3.5
    vertex 5.07111058801761 1.35879998678823 0.0
  endloop
endfacet
facet normal -0.99144486137381 0.130526192220052 0.0
  outer loop
    vertex 5.25 0.0 3.5
    vertex 5.07111058801761 -1.35879998678824 0.0
    vertex 5.07111058801761 -1.35879998678824 3.5
  endloop
endfacet
facet normal -0.99144486137381 0.130526192220052 0.0
  outer loop
    vertex 5.07111058801761 -1.35879998678824 0.0
    vertex 5.25 0.0 3.5
    vertex 5.25 0.0 0.0
  endloop
endfacet
facet normal -0.923879532511286 0.382683432365091 0.0
  outer loop
    vertex 5.07111058801761 -1.35879998678824 3.5
    vertex 4.5466333698683 -2.625 0.0
    vertex 4.5466333698683 -2.625 3.5
  endloop
endfacet
facet normal -0.923879532511286 0.382683432365091 0.0
  outer loop
    vertex 4.5466333698683 -2.625 0.0
    vertex 5.07111058801761 -1.35879998678824 3.5
    vertex 5.07111058801761 -1.35879998678824 0.0
  endloop
endfacet
facet normal -0.793353340291235 0.608761429008721 0.0
  outer loop
    vertex 4.5466333698683 -2.625 3.5
    vertex 3.71231060122937 -3.71231060122938 0.0
    vertex 3.71231060122937 -3.71231060122938 3.5
  endloop
endfacet
facet normal -0.793353340291235 0.608761429008721 0.0
  outer loop
    vertex 3.71231060122937 -3.71231060122938 0.0
    vertex 4.5466333698683 -2.625 3.5
    vertex 4.5466333698683 -2.625 0.0
  endloop
endfacet
facet normal -0.60876142900872 0.793353340291236 0.0
  outer loop
    vertex 2.625 -4.5466333698683 3.5
    vertex 3.71231060122937 -3.71231060122938 0.0
    vertex 2.625 -4.5466333698683 0.0
  endloop
endfacet
facet normal -0.60876142900872 0.793353340291236 0.0
  outer loop
    vertex 3.71231060122937 -3.71231060122938 0.0
    vertex 2.625 -4.5466333698683 3.5
    vertex 3.71231060122937 -3.71231060122938 3.5
  endloop
endfacet
facet normal -0.382683432365089 0.923879532511287 0.0
  outer loop
    vertex 1.35879998678823 -5.07111058801761 3.5
    vertex 2.625 -4.5466333698683 0.0
    vertex 1.35879998678823 -5.07111058801761 0.0
  endloop
endfacet
facet normal -0.382683432365089 0.923879532511287 0.0
  outer loop
    vertex 2.625 -4.5466333698683 0.0
    vertex 1.35879998678823 -5.07111058801761 3.5
    vertex 2.625 -4.5466333698683 3.5
  endloop
endfacet
facet normal -0.130526192220051 0.991444861373811 0.0
  outer loop
    vertex -9.64409354328541e-016 -5.25 3.5
    vertex 1.35879998678823 -5.07111058801761 0.0
    vertex -9.64409354328541e-016 -5.25 0.0
  endloop
endfacet
facet normal -0.130526192220051 0.991444861373811 0.0
  outer loop
    vertex 1.35879998678823 -5.07111058801761 0.0
    vertex -9.64409354328541e-016 -5.25 3.5
    vertex 1.35879998678823 -5.07111058801761 3.5
  endloop
endfacet
facet normal 0.130526192220052 0.99144486137381 0.0
  outer loop
    vertex -1.35879998678824 -5.07111058801761 3.5
    vertex -9.64409354328541e-016 -5.25 0.0
    vertex -1.35879998678824 -5.07111058801761 0.0
  endloop
endfacet
facet normal 0.130526192220052 0.99144486137381 0.0
  outer loop
    vertex -9.64409354328541e-016 -5.25 0.0
    vertex -1.35879998678824 -5.07111058801761 3.5
    vertex -9.64409354328541e-016 -5.25 3.5
  endloop
endfacet
facet normal 0.382683432365091 0.923879532511286 0.0
  outer loop
    vertex -2.625 -4.5466333698683 3.5
    vertex -1.35879998678824 -5.07111058801761 0.0
    vertex -2.625 -4.5466333698683 0.0
  endloop
endfacet
facet normal 0.382683432365091 0.923879532511286 0.0
  outer loop
    vertex -1.35879998678824 -5.07111058801761 0.0
    vertex -2.625 -4.5466333698683 3.5
    vertex -1.35879998678824 -5.07111058801761 3.5
  endloop
endfacet
facet normal 0.608761429008721 0.793353340291235 0.0
  outer loop
    vertex -3.71231060122938 -3.71231060122937 3.5
    vertex -2.625 -4.5466333698683 0.0
    vertex -3.71231060122938 -3.71231060122937 0.0
  endloop
endfacet
facet normal 0.608761429008721 0.793353340291235 0.0
  outer loop
    vertex -2.625 -4.5466333698683 0.0
    vertex -3.71231060122938 -3.71231060122937 3.5
    vertex -2.625 -4.5466333698683 3.5
  endloop
endfacet
facet normal 0.793353340291235 0.608761429008721 0.0
  outer loop
    vertex -4.5466333698683 -2.625 0.0
    vertex -3.71231060122938 -3.71231060122937 3.5
    vertex -3.71231060122938 -3.71231060122937 0.0
  endloop
endfacet
facet normal 0.793353340291235 0.608761429008721 0.0
  outer loop
    vertex -3.71231060122938 -3.71231060122937 3.5
    vertex -4.5466333698683 -2.625 0.0
    vertex -4.5466333698683 -2.625 3.5
  endloop
endfacet
facet normal 0.923879532511287 0.382683432365089 0.0
  outer loop
    vertex -5.07111058801761 -1.35879998678823 0.0
    vertex -4.5466333698683 -2.625 3.5
    vertex -4.5466333698683 -2.625 0.0
  endloop
endfacet
facet normal 0.923879532511287 0.382683432365089 0.0
  outer loop
    vertex -4.5466333698683 -2.625 3.5
    vertex -5.07111058801761 -1.35879998678823 0.0
    vertex -5.07111058801761 -1.35879998678823 3.5
  endloop
endfacet
facet normal 0.991444861373811 0.130526192220051 0.0
  outer loop
    vertex -5.25 6.42939569552361e-016 0.0
    vertex -5.07111058801761 -1.35879998678823 3.5
    vertex -5.07111058801761 -1.35879998678823 0.0
  endloop
endfacet
facet normal 0.991444861373811 0.130526192220051 0.0
  outer loop
    vertex -5.07111058801761 -1.35879998678823 3.5
    vertex -5.25 6.42939569552361e-016 0.0
    vertex -5.25 6.42939569552361e-016 3.5
  endloop
endfacet
facet normal 0.99144486137381 -0.130526192220052 0.0
  outer loop
    vertex -5.07111058801761 1.35879998678824 0.0
    vertex -5.25 6.42939569552361e-016 3.5
    vertex -5.25 6.42939569552361e-016 0.0
  endloop
endfacet
facet normal 0.99144486137381 -0.130526192220052 0.0
  outer loop
    vertex -5.25 6.42939569552361e-016 3.5
    vertex -5.07111058801761 1.35879998678824 0.0
    vertex -5.07111058801761 1.35879998678824 3.5
  endloop
endfacet
facet normal 0.923879532511287 -0.38268343236509 0.0
  outer loop
    vertex -4.5466333698683 2.625 0.0
    vertex -5.07111058801761 1.35879998678824 3.5
    vertex -5.07111058801761 1.35879998678824 0.0
  endloop
endfacet
facet normal 0.923879532511287 -0.38268343236509 0.0
  outer loop
    vertex -5.07111058801761 1.35879998678824 3.5
    vertex -4.5466333698683 2.625 0.0
    vertex -4.5466333698683 2.625 3.5
  endloop
endfacet
facet normal 0.793353340291235 -0.608761429008721 0.0
  outer loop
    vertex -3.71231060122937 3.71231060122937 0.0
    vertex -4.5466333698683 2.625 3.5
    vertex -4.5466333698683 2.625 0.0
  endloop
endfacet
facet normal 0.793353340291235 -0.608761429008721 0.0
  outer loop
    vertex -4.5466333698683 2.625 3.5
    vertex -3.71231060122937 3.71231060122937 0.0
    vertex -3.71231060122937 3.71231060122937 3.5
  endloop
endfacet
facet normal 0.608761429008721 -0.793353340291235 0.0
  outer loop
    vertex -2.625 4.5466333698683 3.5
    vertex -3.71231060122937 3.71231060122937 0.0
    vertex -2.625 4.5466333698683 0.0
  endloop
endfacet
facet normal 0.608761429008721 -0.793353340291235 0.0
  outer loop
    vertex -3.71231060122937 3.71231060122937 0.0
    vertex -2.625 4.5466333698683 3.5
    vertex -3.71231060122937 3.71231060122937 3.5
  endloop
endfacet
facet normal 0.38268343236509 -0.923879532511287 0.0
  outer loop
    vertex -1.35879998678823 5.07111058801761 3.5
    vertex -2.625 4.5466333698683 0.0
    vertex -1.35879998678823 5.07111058801761 0.0
  endloop
endfacet
facet normal 0.38268343236509 -0.923879532511287 0.0
  outer loop
    vertex -2.625 4.5466333698683 0.0
    vertex -1.35879998678823 5.07111058801761 3.5
    vertex -2.625 4.5466333698683 3.5
  endloop
endfacet
facet normal 0.130526192220052 -0.99144486137381 0.0
  outer loop
    vertex 3.2146978477618e-016 5.25 3.5
    vertex -1.35879998678823 5.07111058801761 0.0
    vertex 3.2146978477618e-016 5.25 0.0
  endloop
endfacet
facet normal 0.130526192220052 -0.99144486137381 0.0
  outer loop
    vertex -1.35879998678823 5.07111058801761 0.0
    vertex 3.2146978477618e-016 5.25 3.5
    vertex -1.35879998678823 5.07111058801761 3.5
  endloop
endfacet
facet normal -0.130526192220052 -0.99144486137381 0.0
  outer loop
    vertex 1.35879998678824 5.07111058801761 3.5
    vertex 3.2146978477618e-016 5.25 0.0
    vertex 1.35879998678824 5.07111058801761 0.0
  endloop
endfacet
facet normal -0.130526192220052 -0.99144486137381 0.0
  outer loop
    vertex 3.2146978477618e-016 5.25 0.0
    vertex 1.35879998678824 5.07111058801761 3.5
    vertex 3.2146978477618e-016 5.25 3.5
  endloop
endfacet
facet normal 0.0 0.0 1.0
  outer loop
    vertex -4.73334559426046 -2.27110974752325 56.5
    vertex -4.34666621830081 -1.16468570296134 56.5
    vertex -4.5 5.51091059616309e-016 56.5
  endloop
endfacet
facet normal 0.0 0.0 1.0
  outer loop
    vertex -4.34666621830081 -1.16468570296134 56.5
    vertex -4.73334559426046 -2.27110974752325 56.5
    vertex -3.98425429807076 -3.41880354631626 56.5
  endloop
endfacet
facet normal 0.0 0.0 1.0
  outer loop
    vertex -4.34666621830081 -1.16468570296134 56.5
    vertex -3.98425429807076 -3.41880354631626 56.5
    vertex -3.89711431702997 -2.25 56.5
  endloop
endfacet
facet normal 0.0 0.0 1.0
  outer loop
    vertex -3.89711431702997 -2.25 56.5
    vertex -3.98425429807076 -3.41880354631626 56.5
    vertex -2.96364265575908 -4.33351153326782 56.5
  endloop
endfacet
facet normal 0.0 0.0 1.0
  outer loop
    vertex -3.89711431702997 -2.25 56.5
    vertex -2.96364265575908 -4.33351153326782 56.5
    vertex -3.18198051533947 -3.18198051533946 56.5
  endloop
endfacet
facet normal 0.0 0.0 1.0
  outer loop
    vertex -3.18198051533947 -3.18198051533946 56.5
    vertex -2.96364265575908 -4.33351153326782 56.5
    vertex -2.25 -3.89711431702997 56.5
  endloop
endfacet
facet normal 0.0 0.0 1.0
  outer loop
    vertex -2.25 -3.89711431702997 56.5
    vertex -2.96364265575908 -4.33351153326782 56.5
    vertex -1.74106366410848 -4.95289787069359 56.5
  endloop
endfacet
facet normal 0.0 0.0 1.0
  outer loop
    vertex -2.25 -3.89711431702997 56.5
    vertex -1.74106366410848 -4.95289787069359 56.5
    vertex -1.16468570296135 -4.34666621830081 56.5
  endloop
endfacet
facet normal 0.0 0.0 1.0
  outer loop
    vertex -1.16468570296135 -4.34666621830081 56.5
    vertex -1.74106366410848 -4.95289787069359 56.5
    vertex -0.399834060992635 -5.23475240328233 56.5
  endloop
endfacet
facet normal 0.0 0.0 1.0
  outer loop
    vertex -1.16468570296135 -4.34666621830081 56.5
    vertex -0.399834060992635 -5.23475240328233 56.5
    vertex -8.26636589424463e-016 -4.5 56.5
  endloop
endfacet
facet normal 0.0 0.0 1.0
  outer loop
    vertex -8.26636589424463e-016 -4.5 56.5
    vertex -0.399834060992635 -5.23475240328233 56.5
    vertex 0.968643572622834 -5.15986721042475 56.5
  endloop
endfacet
facet normal 0.0 0.0 1.0
  outer loop
    vertex -8.26636589424463e-016 -4.5 56.5
    vertex 0.968643572622834 -5.15986721042475 56.5
    vertex 1.16468570296134 -4.34666621830081 56.5
  endloop
endfacet
facet normal 0.0 0.0 1.0
  outer loop
    vertex 1.16468570296134 -4.34666621830081 56.5
    vertex 0.968643572622834 -5.15986721042475 56.5
    vertex 2.27110974752325 -4.73334559426046 56.5
  endloop
endfacet
facet normal 0.0 0.0 1.0
  outer loop
    vertex 1.16468570296134 -4.34666621830081 56.5
    vertex 2.27110974752325 -4.73334559426046 56.5
    vertex 2.25 -3.89711431702998 56.5
  endloop
endfacet
facet normal 0.0 0.0 1.0
  outer loop
    vertex 2.25 -3.89711431702998 56.5
    vertex 2.27110974752325 -4.73334559426046 56.5
    vertex 3.18198051533946 -3.18198051533946 56.5
  endloop
endfacet
facet normal 0.0 0.0 1.0
  outer loop
    vertex 3.18198051533946 -3.18198051533946 56.5
    vertex 2.27110974752325 -4.73334559426046 56.5
    vertex 3.41880354631626 -3.98425429807076 56.5
  endloop
endfacet
facet normal 0.0 0.0 1.0
  outer loop
    vertex 3.18198051533946 -3.18198051533946 56.5
    vertex 3.41880354631626 -3.98425429807076 56.5
    vertex 3.89711431702997 -2.25 56.5
  endloop
endfacet
facet normal 0.0 0.0 1.0
  outer loop
    vertex 3.89711431702997 -2.25 56.5
    vertex 3.41880354631626 -3.98425429807076 56.5
    vertex 4.33351153326782 -2.96364265575909 56.5
  endloop
endfacet
facet normal 0.0 0.0 1.0
  outer loop
    vertex 3.89711431702997 -2.25 56.5
    vertex 4.33351153326782 -2.96364265575909 56.5
    vertex 4.34666621830081 -1.16468570296135 56.5
  endloop
endfacet
facet normal 0.0 0.0 1.0
  outer loop
    vertex 4.34666621830081 -1.16468570296135 56.5
    vertex 4.33351153326782 -2.96364265575909 56.5
    vertex 4.95289787069359 -1.74106366410849 56.5
  endloop
endfacet
facet normal 0.0 0.0 1.0
  outer loop
    vertex 4.34666621830081 -1.16468570296135 56.5
    vertex 4.95289787069359 -1.74106366410849 56.5
    vertex 4.5 0.0 56.5
  endloop
endfacet
facet normal 0.0 0.0 1.0
  outer loop
    vertex 4.5 0.0 56.5
    vertex 4.95289787069359 -1.74106366410849 56.5
    vertex 4.73334559426046 2.27110974752325 56.5
  endloop
endfacet
facet normal 0.0 0.0 1.0
  outer loop
    vertex 4.73334559426046 2.27110974752325 56.5
    vertex 4.95289787069359 -1.74106366410849 56.5
    vertex 5.15986721042475 0.968643572622834 56.5
  endloop
endfacet
facet normal 0.0 0.0 1.0
  outer loop
    vertex 5.15986721042475 0.968643572622834 56.5
    vertex 4.95289787069359 -1.74106366410849 56.5
    vertex 5.23475240328233 -0.399834060992638 56.5
  endloop
endfacet
facet normal 0.0 0.0 1.0
  outer loop
    vertex -5.15986721042475 -0.968643572622834 56.5
    vertex -4.95289787069359 1.74106366410848 56.5
    vertex -5.23475240328233 0.399834060992635 56.5
  endloop
endfacet
facet normal 0.0 0.0 1.0
  outer loop
    vertex -4.95289787069359 1.74106366410848 56.5
    vertex -5.15986721042475 -0.968643572622834 56.5
    vertex -4.73334559426046 -2.27110974752325 56.5
  endloop
endfacet
facet normal 0.0 0.0 1.0
  outer loop
    vertex -4.95289787069359 1.74106366410848 56.5
    vertex -4.73334559426046 -2.27110974752325 56.5
    vertex -4.33351153326782 2.96364265575908 56.5
  endloop
endfacet
facet normal 0.0 0.0 1.0
  outer loop
    vertex -4.33351153326782 2.96364265575908 56.5
    vertex -4.73334559426046 -2.27110974752325 56.5
    vertex -4.5 5.51091059616309e-016 56.5
  endloop
endfacet
facet normal 0.0 0.0 1.0
  outer loop
    vertex -4.33351153326782 2.96364265575908 56.5
    vertex -4.5 5.51091059616309e-016 56.5
    vertex -4.34666621830081 1.16468570296134 56.5
  endloop
endfacet
facet normal 0.0 0.0 1.0
  outer loop
    vertex -4.33351153326782 2.96364265575908 56.5
    vertex -4.34666621830081 1.16468570296134 56.5
    vertex -3.89711431702997 2.25 56.5
  endloop
endfacet
facet normal 0.0 0.0 1.0
  outer loop
    vertex -4.33351153326782 2.96364265575908 56.5
    vertex -3.89711431702997 2.25 56.5
    vertex -3.41880354631627 3.98425429807076 56.5
  endloop
endfacet
facet normal 0.0 0.0 1.0
  outer loop
    vertex -3.41880354631627 3.98425429807076 56.5
    vertex -3.89711431702997 2.25 56.5
    vertex -3.18198051533946 3.18198051533946 56.5
  endloop
endfacet
facet normal 0.0 0.0 1.0
  outer loop
    vertex -3.41880354631627 3.98425429807076 56.5
    vertex -3.18198051533946 3.18198051533946 56.5
    vertex -2.27110974752325 4.73334559426046 56.5
  endloop
endfacet
facet normal 0.0 0.0 1.0
  outer loop
    vertex -2.27110974752325 4.73334559426046 56.5
    vertex -3.18198051533946 3.18198051533946 56.5
    vertex -2.25 3.89711431702997 56.5
  endloop
endfacet
facet normal 0.0 0.0 1.0
  outer loop
    vertex -2.27110974752325 4.73334559426046 56.5
    vertex -2.25 3.89711431702997 56.5
    vertex -0.968643572622835 5.15986721042475 56.5
  endloop
endfacet
facet normal 0.0 0.0 1.0
  outer loop
    vertex -0.968643572622835 5.15986721042475 56.5
    vertex -2.25 3.89711431702997 56.5
    vertex -1.16468570296134 4.34666621830081 56.5
  endloop
endfacet
facet normal 0.0 0.0 1.0
  outer loop
    vertex -0.968643572622835 5.15986721042475 56.5
    vertex -1.16468570296134 4.34666621830081 56.5
    vertex 2.75545529808154e-016 4.5 56.5
  endloop
endfacet
facet normal 0.0 0.0 1.0
  outer loop
    vertex -0.968643572622835 5.15986721042475 56.5
    vertex 2.75545529808154e-016 4.5 56.5
    vertex 0.399834060992639 5.23475240328233 56.5
  endloop
endfacet
facet normal 0.0 0.0 1.0
  outer loop
    vertex 0.399834060992639 5.23475240328233 56.5
    vertex 2.75545529808154e-016 4.5 56.5
    vertex 1.16468570296134 4.34666621830081 56.5
  endloop
endfacet
facet normal 0.0 0.0 1.0
  outer loop
    vertex 0.399834060992639 5.23475240328233 56.5
    vertex 1.16468570296134 4.34666621830081 56.5
    vertex 1.74106366410849 4.95289787069359 56.5
  endloop
endfacet
facet normal 0.0 0.0 1.0
  outer loop
    vertex 1.74106366410849 4.95289787069359 56.5
    vertex 1.16468570296134 4.34666621830081 56.5
    vertex 2.25 3.89711431702997 56.5
  endloop
endfacet
facet normal 0.0 0.0 1.0
  outer loop
    vertex 1.74106366410849 4.95289787069359 56.5
    vertex 2.25 3.89711431702997 56.5
    vertex 2.96364265575908 4.33351153326782 56.5
  endloop
endfacet
facet normal 0.0 0.0 1.0
  outer loop
    vertex 2.96364265575908 4.33351153326782 56.5
    vertex 2.25 3.89711431702997 56.5
    vertex 3.18198051533946 3.18198051533946 56.5
  endloop
endfacet
facet normal 0.0 0.0 1.0
  outer loop
    vertex 2.96364265575908 4.33351153326782 56.5
    vertex 3.18198051533946 3.18198051533946 56.5
    vertex 3.98425429807076 3.41880354631626 56.5
  endloop
endfacet
facet normal 0.0 0.0 1.0
  outer loop
    vertex 3.98425429807076 3.41880354631626 56.5
    vertex 3.18198051533946 3.18198051533946 56.5
    vertex 3.89711431702997 2.25 56.5
  endloop
endfacet
facet normal 0.0 0.0 1.0
  outer loop
    vertex 3.98425429807076 3.41880354631626 56.5
    vertex 3.89711431702997 2.25 56.5
    vertex 4.34666621830081 1.16468570296134 56.5
  endloop
endfacet
facet normal 0.0 0.0 1.0
  outer loop
    vertex 3.98425429807076 3.41880354631626 56.5
    vertex 4.34666621830081 1.16468570296134 56.5
    vertex 4.73334559426046 2.27110974752325 56.5
  endloop
endfacet
facet normal 0.0 0.0 1.0
  outer loop
    vertex 4.73334559426046 2.27110974752325 56.5
    vertex 4.34666621830081 1.16468570296134 56.5
    vertex 4.5 0.0 56.5
  endloop
endfacet
facet normal 0.998506131104709 0.0546397853793972 0.0
  outer loop
    vertex -5.23475240328233 0.399834060992635 56.5
    vertex -5.15986721042475 -0.968643572622834 60.0
    vertex -5.15986721042475 -0.968643572622834 56.5
  endloop
endfacet
facet normal 0.998506131104709 0.0546397853793972 0.0
  outer loop
    vertex -5.15986721042475 -0.968643572622834 60.0
    vertex -5.23475240328233 0.399834060992635 56.5
    vertex -5.23475240328233 0.399834060992635 60.0
  endloop
endfacet
facet normal 0.950341042665514 0.311210383222385 0.0
  outer loop
    vertex -5.15986721042475 -0.968643572622834 56.5
    vertex -4.73334559426046 -2.27110974752325 60.0
    vertex -4.73334559426046 -2.27110974752325 56.5
  endloop
endfacet
facet normal 0.950341042665514 0.311210383222385 0.0
  outer loop
    vertex -4.73334559426046 -2.27110974752325 60.0
    vertex -5.15986721042475 -0.968643572622834 56.5
    vertex -5.15986721042475 -0.968643572622834 60.0
  endloop
endfacet
facet normal 0.837411782681494 0.546572507748243 0.0
  outer loop
    vertex -4.73334559426046 -2.27110974752325 56.5
    vertex -3.98425429807076 -3.41880354631626 60.0
    vertex -3.98425429807076 -3.41880354631626 56.5
  endloop
endfacet
facet normal 0.837411782681494 0.546572507748243 0.0
  outer loop
    vertex -3.98425429807076 -3.41880354631626 60.0
    vertex -4.73334559426046 -2.27110974752325 56.5
    vertex -4.73334559426046 -2.27110974752325 60.0
  endloop
endfacet
facet normal 0.667414293596134 0.744686619124832 0.0
  outer loop
    vertex -3.98425429807076 -3.41880354631626 60.0
    vertex -2.96364265575908 -4.33351153326782 56.5
    vertex -3.98425429807076 -3.41880354631626 56.5
  endloop
endfacet
facet normal 0.667414293596134 0.744686619124832 0.0
  outer loop
    vertex -2.96364265575908 -4.33351153326782 56.5
    vertex -3.98425429807076 -3.41880354631626 60.0
    vertex -2.96364265575908 -4.33351153326782 60.0
  endloop
endfacet
facet normal 0.451933623356466 0.892051568060892 0.0
  outer loop
    vertex -2.96364265575908 -4.33351153326782 60.0
    vertex -1.74106366410848 -4.95289787069359 56.5
    vertex -2.96364265575908 -4.33351153326782 56.5
  endloop
endfacet
facet normal 0.451933623356466 0.892051568060892 0.0
  outer loop
    vertex -1.74106366410848 -4.95289787069359 56.5
    vertex -2.96364265575908 -4.33351153326782 60.0
    vertex -1.74106366410848 -4.95289787069359 60.0
  endloop
endfacet
facet normal 0.205654423540682 0.978624676818519 0.0
  outer loop
    vertex -1.74106366410848 -4.95289787069359 60.0
    vertex -0.399834060992635 -5.23475240328233 56.5
    vertex -1.74106366410848 -4.95289787069359 56.5
  endloop
endfacet
facet normal 0.205654423540682 0.978624676818519 0.0
  outer loop
    vertex -0.399834060992635 -5.23475240328233 56.5
    vertex -1.74106366410848 -4.95289787069359 60.0
    vertex -0.399834060992635 -5.23475240328233 60.0
  endloop
endfacet
facet normal -0.0546397853793972 0.998506131104709 0.0
  outer loop
    vertex -0.399834060992635 -5.23475240328233 60.0
    vertex 0.968643572622834 -5.15986721042475 56.5
    vertex -0.399834060992635 -5.23475240328233 56.5
  endloop
endfacet
facet normal -0.0546397853793972 0.998506131104709 0.0
  outer loop
    vertex 0.968643572622834 -5.15986721042475 56.5
    vertex -0.399834060992635 -5.23475240328233 60.0
    vertex 0.968643572622834 -5.15986721042475 60.0
  endloop
endfacet
facet normal -0.311210383222385 0.950341042665514 0.0
  outer loop
    vertex 0.968643572622834 -5.15986721042475 60.0
    vertex 2.27110974752325 -4.73334559426046 56.5
    vertex 0.968643572622834 -5.15986721042475 56.5
  endloop
endfacet
facet normal -0.311210383222385 0.950341042665514 0.0
  outer loop
    vertex 2.27110974752325 -4.73334559426046 56.5
    vertex 0.968643572622834 -5.15986721042475 60.0
    vertex 2.27110974752325 -4.73334559426046 60.0
  endloop
endfacet
facet normal -0.546572507748242 0.837411782681494 0.0
  outer loop
    vertex 2.27110974752325 -4.73334559426046 60.0
    vertex 3.41880354631626 -3.98425429807076 56.5
    vertex 2.27110974752325 -4.73334559426046 56.5
  endloop
endfacet
facet normal -0.546572507748242 0.837411782681494 0.0
  outer loop
    vertex 3.41880354631626 -3.98425429807076 56.5
    vertex 2.27110974752325 -4.73334559426046 60.0
    vertex 3.41880354631626 -3.98425429807076 60.0
  endloop
endfacet
facet normal -0.744686619124833 0.667414293596134 0.0
  outer loop
    vertex 4.33351153326782 -2.96364265575909 60.0
    vertex 3.41880354631626 -3.98425429807076 56.5
    vertex 3.41880354631626 -3.98425429807076 60.0
  endloop
endfacet
facet normal -0.744686619124833 0.667414293596134 0.0
  outer loop
    vertex 3.41880354631626 -3.98425429807076 56.5
    vertex 4.33351153326782 -2.96364265575909 60.0
    vertex 4.33351153326782 -2.96364265575909 56.5
  endloop
endfacet
facet normal -0.892051568060891 0.451933623356468 0.0
  outer loop
    vertex 4.95289787069359 -1.74106366410849 60.0
    vertex 4.33351153326782 -2.96364265575909 56.5
    vertex 4.33351153326782 -2.96364265575909 60.0
  endloop
endfacet
facet normal -0.892051568060891 0.451933623356468 0.0
  outer loop
    vertex 4.33351153326782 -2.96364265575909 56.5
    vertex 4.95289787069359 -1.74106366410849 60.0
    vertex 4.95289787069359 -1.74106366410849 56.5
  endloop
endfacet
facet normal -0.978624676818519 0.205654423540682 0.0
  outer loop
    vertex 5.23475240328233 -0.399834060992638 60.0
    vertex 4.95289787069359 -1.74106366410849 56.5
    vertex 4.95289787069359 -1.74106366410849 60.0
  endloop
endfacet
facet normal -0.978624676818519 0.205654423540682 0.0
  outer loop
    vertex 4.95289787069359 -1.74106366410849 56.5
    vertex 5.23475240328233 -0.399834060992638 60.0
    vertex 5.23475240328233 -0.399834060992638 56.5
  endloop
endfacet
facet normal -0.998506131104709 -0.0546397853793971 0.0
  outer loop
    vertex 5.15986721042475 0.968643572622834 60.0
    vertex 5.23475240328233 -0.399834060992638 56.5
    vertex 5.23475240328233 -0.399834060992638 60.0
  endloop
endfacet
facet normal -0.998506131104709 -0.0546397853793971 0.0
  outer loop
    vertex 5.23475240328233 -0.399834060992638 56.5
    vertex 5.15986721042475 0.968643572622834 60.0
    vertex 5.15986721042475 0.968643572622834 56.5
  endloop
endfacet
facet normal -0.950341042665514 -0.311210383222385 0.0
  outer loop
    vertex 4.73334559426046 2.27110974752325 60.0
    vertex 5.15986721042475 0.968643572622834 56.5
    vertex 5.15986721042475 0.968643572622834 60.0
  endloop
endfacet
facet normal -0.950341042665514 -0.311210383222385 0.0
  outer loop
    vertex 5.15986721042475 0.968643572622834 56.5
    vertex 4.73334559426046 2.27110974752325 60.0
    vertex 4.73334559426046 2.27110974752325 56.5
  endloop
endfacet
facet normal -0.837411782681494 -0.546572507748242 0.0
  outer loop
    vertex 3.98425429807076 3.41880354631626 60.0
    vertex 4.73334559426046 2.27110974752325 56.5
    vertex 4.73334559426046 2.27110974752325 60.0
  endloop
endfacet
facet normal -0.837411782681494 -0.546572507748242 0.0
  outer loop
    vertex 4.73334559426046 2.27110974752325 56.5
    vertex 3.98425429807076 3.41880354631626 60.0
    vertex 3.98425429807076 3.41880354631626 56.5
  endloop
endfacet
facet normal -0.667414293596134 -0.744686619124832 0.0
  outer loop
    vertex 3.98425429807076 3.41880354631626 60.0
    vertex 2.96364265575908 4.33351153326782 56.5
    vertex 3.98425429807076 3.41880354631626 56.5
  endloop
endfacet
facet normal -0.667414293596134 -0.744686619124832 0.0
  outer loop
    vertex 2.96364265575908 4.33351153326782 56.5
    vertex 3.98425429807076 3.41880354631626 60.0
    vertex 2.96364265575908 4.33351153326782 60.0
  endloop
endfacet
facet normal -0.451933623356467 -0.892051568060891 0.0
  outer loop
    vertex 2.96364265575908 4.33351153326782 60.0
    vertex 1.74106366410849 4.95289787069359 56.5
    vertex 2.96364265575908 4.33351153326782 56.5
  endloop
endfacet
facet normal -0.451933623356467 -0.892051568060891 0.0
  outer loop
    vertex 1.74106366410849 4.95289787069359 56.5
    vertex 2.96364265575908 4.33351153326782 60.0
    vertex 1.74106366410849 4.95289787069359 60.0
  endloop
endfacet
facet normal -0.205654423540682 -0.978624676818519 0.0
  outer loop
    vertex 1.74106366410849 4.95289787069359 60.0
    vertex 0.399834060992639 5.23475240328233 56.5
    vertex 1.74106366410849 4.95289787069359 56.5
  endloop
endfacet
facet normal -0.205654423540682 -0.978624676818519 0.0
  outer loop
    vertex 0.399834060992639 5.23475240328233 56.5
    vertex 1.74106366410849 4.95289787069359 60.0
    vertex 0.399834060992639 5.23475240328233 60.0
  endloop
endfacet
facet normal 0.0546397853793971 -0.998506131104709 0.0
  outer loop
    vertex 0.399834060992639 5.23475240328233 60.0
    vertex -0.968643572622835 5.15986721042475 56.5
    vertex 0.399834060992639 5.23475240328233 56.5
  endloop
endfacet
facet normal 0.0546397853793971 -0.998506131104709 0.0
  outer loop
    vertex -0.968643572622835 5.15986721042475 56.5
    vertex 0.399834060992639 5.23475240328233 60.0
    vertex -0.968643572622835 5.15986721042475 60.0
  endloop
endfacet
facet normal 0.311210383222385 -0.950341042665514 0.0
  outer loop
    vertex -0.968643572622835 5.15986721042475 60.0
    vertex -2.27110974752325 4.73334559426046 56.5
    vertex -0.968643572622835 5.15986721042475 56.5
  endloop
endfacet
facet normal 0.311210383222385 -0.950341042665514 0.0
  outer loop
    vertex -2.27110974752325 4.73334559426046 56.5
    vertex -0.968643572622835 5.15986721042475 60.0
    vertex -2.27110974752325 4.73334559426046 60.0
  endloop
endfacet
facet normal 0.546572507748242 -0.837411782681494 0.0
  outer loop
    vertex -2.27110974752325 4.73334559426046 60.0
    vertex -3.41880354631627 3.98425429807076 56.5
    vertex -2.27110974752325 4.73334559426046 56.5
  endloop
endfacet
facet normal 0.546572507748242 -0.837411782681494 0.0
  outer loop
    vertex -3.41880354631627 3.98425429807076 56.5
    vertex -2.27110974752325 4.73334559426046 60.0
    vertex -3.41880354631627 3.98425429807076 60.0
  endloop
endfacet
facet normal 0.744686619124833 -0.667414293596134 0.0
  outer loop
    vertex -3.41880354631627 3.98425429807076 56.5
    vertex -4.33351153326782 2.96364265575908 60.0
    vertex -4.33351153326782 2.96364265575908 56.5
  endloop
endfacet
facet normal 0.744686619124833 -0.667414293596134 0.0
  outer loop
    vertex -4.33351153326782 2.96364265575908 60.0
    vertex -3.41880354631627 3.98425429807076 56.5
    vertex -3.41880354631627 3.98425429807076 60.0
  endloop
endfacet
facet normal 0.892051568060892 -0.451933623356466 0.0
  outer loop
    vertex -4.33351153326782 2.96364265575908 56.5
    vertex -4.95289787069359 1.74106366410848 60.0
    vertex -4.95289787069359 1.74106366410848 56.5
  endloop
endfacet
facet normal 0.892051568060892 -0.451933623356466 0.0
  outer loop
    vertex -4.95289787069359 1.74106366410848 60.0
    vertex -4.33351153326782 2.96364265575908 56.5
    vertex -4.33351153326782 2.96364265575908 60.0
  endloop
endfacet
facet normal 0.978624676818519 -0.205654423540682 0.0
  outer loop
    vertex -4.95289787069359 1.74106366410848 56.5
    vertex -5.23475240328233 0.399834060992635 60.0
    vertex -5.23475240328233 0.399834060992635 56.5
  endloop
endfacet
facet normal 0.978624676818519 -0.205654423540682 0.0
  outer loop
    vertex -5.23475240328233 0.399834060992635 60.0
    vertex -4.95289787069359 1.74106366410848 56.5
    vertex -4.95289787069359 1.74106366410848 60.0
  endloop
endfacet
endsolid penbarrel
