solid pencap2
facet normal 0.793353340291235 -0.608761429008721 0.0
  outer loop
    vertex -1.66170093578839 1.66170093578839 0.0
    vertex -2.03515969889343 1.175 1.0
    vertex -2.03515969889343 1.175 0.0
  endloop
endfacet
facet normal 0.793353340291235 -0.608761429008721 0.0
  outer loop
    vertex -2.03515969889343 1.175 1.0
    vertex -1.66170093578839 1.66170093578839 0.0
    vertex -1.66170093578839 1.66170093578839 1.0
  endloop
endfacet
facet normal 0.923879532511287 -0.38268343236509 0.0
  outer loop
    vertex -2.03515969889343 1.175 0.0
    vertex -2.26992569177931 0.608224755990924 1.0
    vertex -2.26992569177931 0.608224755990924 0.0
  endloop
endfacet
facet normal 0.923879532511287 -0.38268343236509 0.0
  outer loop
    vertex -2.26992569177931 0.608224755990924 1.0
    vertex -2.03515969889343 1.175 0.0
    vertex -2.03515969889343 1.175 1.0
  endloop
endfacet
facet normal 0.99144486137381 -0.130526192220052 0.0
  outer loop
    vertex -2.26992569177931 0.608224755990924 0.0
    vertex -2.35 2.87791997799628e-016 1.0
    vertex -2.35 2.87791997799628e-016 0.0
  endloop
endfacet
facet normal 0.99144486137381 -0.130526192220052 0.0
  outer loop
    vertex -2.35 2.87791997799628e-016 1.0
    vertex -2.26992569177931 0.608224755990924 0.0
    vertex -2.26992569177931 0.608224755990924 1.0
  endloop
endfacet
facet normal 0.99144486137381 0.130526192220051 0.0
  outer loop
    vertex -2.35 2.87791997799628e-016 0.0
    vertex -2.26992569177931 -0.608224755990923 1.0
    vertex -2.26992569177931 -0.608224755990923 0.0
  endloop
endfacet
facet normal 0.99144486137381 0.130526192220051 0.0
  outer loop
    vertex -2.26992569177931 -0.608224755990923 1.0
    vertex -2.35 2.87791997799628e-016 0.0
    vertex -2.35 2.87791997799628e-016 1.0
  endloop
endfacet
facet normal 0.923879532511287 0.382683432365089 0.0
  outer loop
    vertex -2.26992569177931 -0.608224755990923 0.0
    vertex -2.03515969889343 -1.175 1.0
    vertex -2.03515969889343 -1.175 0.0
  endloop
endfacet
facet normal 0.923879532511287 0.382683432365089 0.0
  outer loop
    vertex -2.03515969889343 -1.175 1.0
    vertex -2.26992569177931 -0.608224755990923 0.0
    vertex -2.26992569177931 -0.608224755990923 1.0
  endloop
endfacet
facet normal 0.793353340291235 0.608761429008721 0.0
  outer loop
    vertex -2.03515969889343 -1.175 0.0
    vertex -1.66170093578839 -1.66170093578839 1.0
    vertex -1.66170093578839 -1.66170093578839 0.0
  endloop
endfacet
facet normal 0.793353340291235 0.608761429008721 0.0
  outer loop
    vertex -1.66170093578839 -1.66170093578839 1.0
    vertex -2.03515969889343 -1.175 0.0
    vertex -2.03515969889343 -1.175 1.0
  endloop
endfacet
facet normal 0.608761429008721 0.793353340291235 0.0
  outer loop
    vertex -1.66170093578839 -1.66170093578839 1.0
    vertex -1.175 -2.03515969889343 0.0
    vertex -1.66170093578839 -1.66170093578839 0.0
  endloop
endfacet
facet normal 0.608761429008721 0.793353340291235 0.0
  outer loop
    vertex -1.175 -2.03515969889343 0.0
    vertex -1.66170093578839 -1.66170093578839 1.0
    vertex -1.175 -2.03515969889343 1.0
  endloop
endfacet
facet normal 0.382683432365091 0.923879532511287 0.0
  outer loop
    vertex -1.175 -2.03515969889343 1.0
    vertex -0.608224755990926 -2.26992569177931 0.0
    vertex -1.175 -2.03515969889343 0.0
  endloop
endfacet
facet normal 0.382683432365091 0.923879532511287 0.0
  outer loop
    vertex -0.608224755990926 -2.26992569177931 0.0
    vertex -1.175 -2.03515969889343 1.0
    vertex -0.608224755990926 -2.26992569177931 1.0
  endloop
endfacet
facet normal 0.130526192220052 0.99144486137381 0.0
  outer loop
    vertex -0.608224755990926 -2.26992569177931 1.0
    vertex -4.31687996699442e-016 -2.35 0.0
    vertex -0.608224755990926 -2.26992569177931 0.0
  endloop
endfacet
facet normal 0.130526192220052 0.99144486137381 0.0
  outer loop
    vertex -4.31687996699442e-016 -2.35 0.0
    vertex -0.608224755990926 -2.26992569177931 1.0
    vertex -4.31687996699442e-016 -2.35 1.0
  endloop
endfacet
facet normal -0.130526192220051 0.99144486137381 0.0
  outer loop
    vertex -4.31687996699442e-016 -2.35 1.0
    vertex 0.608224755990923 -2.26992569177931 0.0
    vertex -4.31687996699442e-016 -2.35 0.0
  endloop
endfacet
facet normal -0.130526192220051 0.99144486137381 0.0
  outer loop
    vertex 0.608224755990923 -2.26992569177931 0.0
    vertex -4.31687996699442e-016 -2.35 1.0
    vertex 0.608224755990923 -2.26992569177931 1.0
  endloop
endfacet
facet normal -0.382683432365089 0.923879532511287 0.0
  outer loop
    vertex 0.608224755990923 -2.26992569177931 1.0
    vertex 1.175 -2.03515969889343 0.0
    vertex 0.608224755990923 -2.26992569177931 0.0
  endloop
endfacet
facet normal -0.382683432365089 0.923879532511287 0.0
  outer loop
    vertex 1.175 -2.03515969889343 0.0
    vertex 0.608224755990923 -2.26992569177931 1.0
    vertex 1.175 -2.03515969889343 1.0
  endloop
endfacet
facet normal -0.60876142900872 0.793353340291236 0.0
  outer loop
    vertex 1.175 -2.03515969889343 1.0
    vertex 1.66170093578839 -1.66170093578839 0.0
    vertex 1.175 -2.03515969889343 0.0
  endloop
endfacet
facet normal -0.60876142900872 0.793353340291236 0.0
  outer loop
    vertex 1.66170093578839 -1.66170093578839 0.0
    vertex 1.175 -2.03515969889343 1.0
    vertex 1.66170093578839 -1.66170093578839 1.0
  endloop
endfacet
facet normal -0.793353340291235 0.608761429008721 0.0
  outer loop
    vertex 2.03515969889343 -1.175 1.0
    vertex 1.66170093578839 -1.66170093578839 0.0
    vertex 1.66170093578839 -1.66170093578839 1.0
  endloop
endfacet
facet normal -0.793353340291235 0.608761429008721 0.0
  outer loop
    vertex 1.66170093578839 -1.66170093578839 0.0
    vertex 2.03515969889343 -1.175 1.0
    vertex 2.03515969889343 -1.175 0.0
  endloop
endfacet
facet normal -0.923879532511286 0.38268343236509 0.0
  outer loop
    vertex 2.26992569177931 -0.608224755990926 1.0
    vertex 2.03515969889343 -1.175 0.0
    vertex 2.03515969889343 -1.175 1.0
  endloop
endfacet
facet normal -0.923879532511286 0.38268343236509 0.0
  outer loop
    vertex 2.03515969889343 -1.175 0.0
    vertex 2.26992569177931 -0.608224755990926 1.0
    vertex 2.26992569177931 -0.608224755990926 0.0
  endloop
endfacet
facet normal -0.99144486137381 0.130526192220052 0.0
  outer loop
    vertex 2.35 0.0 1.0
    vertex 2.26992569177931 -0.608224755990926 0.0
    vertex 2.26992569177931 -0.608224755990926 1.0
  endloop
endfacet
facet normal -0.99144486137381 0.130526192220052 0.0
  outer loop
    vertex 2.26992569177931 -0.608224755990926 0.0
    vertex 2.35 0.0 1.0
    vertex 2.35 0.0 0.0
  endloop
endfacet
facet normal -0.99144486137381 -0.130526192220052 0.0
  outer loop
    vertex 2.26992569177931 0.608224755990924 1.0
    vertex 2.35 0.0 0.0
    vertex 2.35 0.0 1.0
  endloop
endfacet
facet normal -0.99144486137381 -0.130526192220052 0.0
  outer loop
    vertex 2.35 0.0 0.0
    vertex 2.26992569177931 0.608224755990924 1.0
    vertex 2.26992569177931 0.608224755990924 0.0
  endloop
endfacet
facet normal -0.923879532511287 -0.38268343236509 0.0
  outer loop
    vertex 2.03515969889343 1.175 1.0
    vertex 2.26992569177931 0.608224755990924 0.0
    vertex 2.26992569177931 0.608224755990924 1.0
  endloop
endfacet
facet normal -0.923879532511287 -0.38268343236509 0.0
  outer loop
    vertex 2.26992569177931 0.608224755990924 0.0
    vertex 2.03515969889343 1.175 1.0
    vertex 2.03515969889343 1.175 0.0
  endloop
endfacet
facet normal -0.793353340291235 -0.608761429008721 0.0
  outer loop
    vertex 1.66170093578839 1.66170093578839 1.0
    vertex 2.03515969889343 1.175 0.0
    vertex 2.03515969889343 1.175 1.0
  endloop
endfacet
facet normal -0.793353340291235 -0.608761429008721 0.0
  outer loop
    vertex 2.03515969889343 1.175 0.0
    vertex 1.66170093578839 1.66170093578839 1.0
    vertex 1.66170093578839 1.66170093578839 0.0
  endloop
endfacet
facet normal -0.608761429008721 -0.793353340291235 0.0
  outer loop
    vertex 1.66170093578839 1.66170093578839 1.0
    vertex 1.175 2.03515969889343 0.0
    vertex 1.66170093578839 1.66170093578839 0.0
  endloop
endfacet
facet normal -0.608761429008721 -0.793353340291235 0.0
  outer loop
    vertex 1.175 2.03515969889343 0.0
    vertex 1.66170093578839 1.66170093578839 1.0
    vertex 1.175 2.03515969889343 1.0
  endloop
endfacet
facet normal -0.38268343236509 -0.923879532511287 0.0
  outer loop
    vertex 1.175 2.03515969889343 1.0
    vertex 0.608224755990924 2.26992569177931 0.0
    vertex 1.175 2.03515969889343 0.0
  endloop
endfacet
facet normal -0.38268343236509 -0.923879532511287 0.0
  outer loop
    vertex 0.608224755990924 2.26992569177931 0.0
    vertex 1.175 2.03515969889343 1.0
    vertex 0.608224755990924 2.26992569177931 1.0
  endloop
endfacet
facet normal -0.130526192220052 -0.99144486137381 0.0
  outer loop
    vertex 0.608224755990924 2.26992569177931 1.0
    vertex 1.43895998899814e-016 2.35 0.0
    vertex 0.608224755990924 2.26992569177931 0.0
  endloop
endfacet
facet normal -0.130526192220052 -0.99144486137381 0.0
  outer loop
    vertex 1.43895998899814e-016 2.35 0.0
    vertex 0.608224755990924 2.26992569177931 1.0
    vertex 1.43895998899814e-016 2.35 1.0
  endloop
endfacet
facet normal 0.130526192220052 -0.99144486137381 0.0
  outer loop
    vertex 1.43895998899814e-016 2.35 1.0
    vertex -0.608224755990924 2.26992569177931 0.0
    vertex 1.43895998899814e-016 2.35 0.0
  endloop
endfacet
facet normal 0.130526192220052 -0.99144486137381 0.0
  outer loop
    vertex -0.608224755990924 2.26992569177931 0.0
    vertex 1.43895998899814e-016 2.35 1.0
    vertex -0.608224755990924 2.26992569177931 1.0
  endloop
endfacet
facet normal 0.38268343236509 -0.923879532511287 0.0
  outer loop
    vertex -0.608224755990924 2.26992569177931 1.0
    vertex -1.175 2.03515969889343 0.0
    vertex -0.608224755990924 2.26992569177931 0.0
  endloop
endfacet
facet normal 0.38268343236509 -0.923879532511287 0.0
  outer loop
    vertex -1.175 2.03515969889343 0.0
    vertex -0.608224755990924 2.26992569177931 1.0
    vertex -1.175 2.03515969889343 1.0
  endloop
endfacet
facet normal 0.60876142900872 -0.793353340291235 0.0
  outer loop
    vertex -1.175 2.03515969889343 1.0
    vertex -1.66170093578839 1.66170093578839 0.0
    vertex -1.175 2.03515969889343 0.0
  endloop
endfacet
facet normal 0.60876142900872 -0.793353340291235 0.0
  outer loop
    vertex -1.66170093578839 1.66170093578839 0.0
    vertex -1.175 2.03515969889343 1.0
    vertex -1.66170093578839 1.66170093578839 1.0
  endloop
endfacet
facet normal 0.0 0.0 1.0
  outer loop
    vertex -4.34666621830081 -1.16468570296134 1.0
    vertex -4.34666621830081 1.16468570296134 1.0
    vertex -4.5 5.51091059616309e-016 1.0
  endloop
endfacet
facet normal 0.0 0.0 1.0
  outer loop
    vertex -4.34666621830081 1.16468570296134 1.0
    vertex -4.34666621830081 -1.16468570296134 1.0
    vertex -3.89711431702997 -2.25 1.0
  endloop
endfacet
facet normal 0.0 0.0 1.0
  outer loop
    vertex -4.34666621830081 1.16468570296134 1.0
    vertex -3.89711431702997 -2.25 1.0
    vertex -3.89711431702997 2.25 1.0
  endloop
endfacet
facet normal 0.0 0.0 1.0
  outer loop
    vertex -3.89711431702997 2.25 1.0
    vertex -3.89711431702997 -2.25 1.0
    vertex -3.18198051533947 -3.18198051533946 1.0
  endloop
endfacet
facet normal 0.0 0.0 1.0
  outer loop
    vertex -3.89711431702997 2.25 1.0
    vertex -3.18198051533947 -3.18198051533946 1.0
    vertex -3.18198051533946 3.18198051533946 1.0
  endloop
endfacet
facet normal 0.0 0.0 1.0
  outer loop
    vertex -3.18198051533946 3.18198051533946 1.0
    vertex -3.18198051533947 -3.18198051533946 1.0
    vertex -2.25 -3.89711431702997 1.0
  endloop
endfacet
facet normal 0.0 0.0 1.0
  outer loop
    vertex -3.18198051533946 3.18198051533946 1.0
    vertex -2.25 -3.89711431702997 1.0
    vertex -2.35 2.87791997799628e-016 1.0
  endloop
endfacet
facet normal 0.0 0.0 1.0
  outer loop
    vertex -2.35 2.87791997799628e-016 1.0
    vertex -2.25 -3.89711431702997 1.0
    vertex -2.26992569177931 -0.608224755990923 1.0
  endloop
endfacet
facet normal 0.0 0.0 1.0
  outer loop
    vertex -2.26992569177931 -0.608224755990923 1.0
    vertex -2.25 -3.89711431702997 1.0
    vertex -2.03515969889343 -1.175 1.0
  endloop
endfacet
facet normal 0.0 0.0 1.0
  outer loop
    vertex -2.03515969889343 -1.175 1.0
    vertex -2.25 -3.89711431702997 1.0
    vertex -1.16468570296135 -4.34666621830081 1.0
  endloop
endfacet
facet normal 0.0 0.0 1.0
  outer loop
    vertex -2.03515969889343 -1.175 1.0
    vertex -1.16468570296135 -4.34666621830081 1.0
    vertex -1.66170093578839 -1.66170093578839 1.0
  endloop
endfacet
facet normal 0.0 0.0 1.0
  outer loop
    vertex -1.66170093578839 -1.66170093578839 1.0
    vertex -1.16468570296135 -4.34666621830081 1.0
    vertex -1.175 -2.03515969889343 1.0
  endloop
endfacet
facet normal 0.0 0.0 1.0
  outer loop
    vertex -1.175 -2.03515969889343 1.0
    vertex -1.16468570296135 -4.34666621830081 1.0
    vertex -0.608224755990926 -2.26992569177931 1.0
  endloop
endfacet
facet normal 0.0 0.0 1.0
  outer loop
    vertex -0.608224755990926 -2.26992569177931 1.0
    vertex -1.16468570296135 -4.34666621830081 1.0
    vertex -8.26636589424463e-016 -4.5 1.0
  endloop
endfacet
facet normal 0.0 0.0 1.0
  outer loop
    vertex -0.608224755990926 -2.26992569177931 1.0
    vertex -8.26636589424463e-016 -4.5 1.0
    vertex -4.31687996699442e-016 -2.35 1.0
  endloop
endfacet
facet normal 0.0 0.0 1.0
  outer loop
    vertex -4.31687996699442e-016 -2.35 1.0
    vertex -8.26636589424463e-016 -4.5 1.0
    vertex 1.16468570296134 -4.34666621830081 1.0
  endloop
endfacet
facet normal 0.0 0.0 1.0
  outer loop
    vertex -4.31687996699442e-016 -2.35 1.0
    vertex 1.16468570296134 -4.34666621830081 1.0
    vertex 0.608224755990923 -2.26992569177931 1.0
  endloop
endfacet
facet normal 0.0 0.0 1.0
  outer loop
    vertex 0.608224755990923 -2.26992569177931 1.0
    vertex 1.16468570296134 -4.34666621830081 1.0
    vertex 1.175 -2.03515969889343 1.0
  endloop
endfacet
facet normal 0.0 0.0 1.0
  outer loop
    vertex 1.175 -2.03515969889343 1.0
    vertex 1.16468570296134 -4.34666621830081 1.0
    vertex 2.25 -3.89711431702998 1.0
  endloop
endfacet
facet normal 0.0 0.0 1.0
  outer loop
    vertex 1.175 -2.03515969889343 1.0
    vertex 2.25 -3.89711431702998 1.0
    vertex 1.66170093578839 -1.66170093578839 1.0
  endloop
endfacet
facet normal 0.0 0.0 1.0
  outer loop
    vertex 1.66170093578839 -1.66170093578839 1.0
    vertex 2.25 -3.89711431702998 1.0
    vertex 2.03515969889343 -1.175 1.0
  endloop
endfacet
facet normal 0.0 0.0 1.0
  outer loop
    vertex 2.03515969889343 -1.175 1.0
    vertex 2.25 -3.89711431702998 1.0
    vertex 2.26992569177931 -0.608224755990926 1.0
  endloop
endfacet
facet normal 0.0 0.0 1.0
  outer loop
    vertex 2.26992569177931 -0.608224755990926 1.0
    vertex 2.25 -3.89711431702998 1.0
    vertex 3.18198051533946 -3.18198051533946 1.0
  endloop
endfacet
facet normal 0.0 0.0 1.0
  outer loop
    vertex 2.26992569177931 -0.608224755990926 1.0
    vertex 3.18198051533946 -3.18198051533946 1.0
    vertex 2.35 0.0 1.0
  endloop
endfacet
facet normal 0.0 0.0 1.0
  outer loop
    vertex -2.35 2.87791997799628e-016 1.0
    vertex -2.25 3.89711431702997 1.0
    vertex -3.18198051533946 3.18198051533946 1.0
  endloop
endfacet
facet normal 0.0 0.0 1.0
  outer loop
    vertex -2.25 3.89711431702997 1.0
    vertex -2.35 2.87791997799628e-016 1.0
    vertex -2.26992569177931 0.608224755990924 1.0
  endloop
endfacet
facet normal 0.0 0.0 1.0
  outer loop
    vertex -2.25 3.89711431702997 1.0
    vertex -2.26992569177931 0.608224755990924 1.0
    vertex -2.03515969889343 1.175 1.0
  endloop
endfacet
facet normal 0.0 0.0 1.0
  outer loop
    vertex -2.25 3.89711431702997 1.0
    vertex -2.03515969889343 1.175 1.0
    vertex -1.16468570296134 4.34666621830081 1.0
  endloop
endfacet
facet normal 0.0 0.0 1.0
  outer loop
    vertex -1.16468570296134 4.34666621830081 1.0
    vertex -2.03515969889343 1.175 1.0
    vertex -1.66170093578839 1.66170093578839 1.0
  endloop
endfacet
facet normal 0.0 0.0 1.0
  outer loop
    vertex -1.16468570296134 4.34666621830081 1.0
    vertex -1.66170093578839 1.66170093578839 1.0
    vertex -1.175 2.03515969889343 1.0
  endloop
endfacet
facet normal 0.0 0.0 1.0
  outer loop
    vertex -1.16468570296134 4.34666621830081 1.0
    vertex -1.175 2.03515969889343 1.0
    vertex -0.608224755990924 2.26992569177931 1.0
  endloop
endfacet
facet normal 0.0 0.0 1.0
  outer loop
    vertex -1.16468570296134 4.34666621830081 1.0
    vertex -0.608224755990924 2.26992569177931 1.0
    vertex 2.75545529808154e-016 4.5 1.0
  endloop
endfacet
facet normal 0.0 0.0 1.0
  outer loop
    vertex 2.75545529808154e-016 4.5 1.0
    vertex -0.608224755990924 2.26992569177931 1.0
    vertex 1.43895998899814e-016 2.35 1.0
  endloop
endfacet
facet normal 0.0 0.0 1.0
  outer loop
    vertex 2.75545529808154e-016 4.5 1.0
    vertex 1.43895998899814e-016 2.35 1.0
    vertex 0.608224755990924 2.26992569177931 1.0
  endloop
endfacet
facet normal 0.0 0.0 1.0
  outer loop
    vertex 2.75545529808154e-016 4.5 1.0
    vertex 0.608224755990924 2.26992569177931 1.0
    vertex 1.16468570296134 4.34666621830081 1.0
  endloop
endfacet
facet normal 0.0 0.0 1.0
  outer loop
    vertex 1.16468570296134 4.34666621830081 1.0
    vertex 0.608224755990924 2.26992569177931 1.0
    vertex 1.175 2.03515969889343 1.0
  endloop
endfacet
facet normal 0.0 0.0 1.0
  outer loop
    vertex 1.16468570296134 4.34666621830081 1.0
    vertex 1.175 2.03515969889343 1.0
    vertex 2.25 3.89711431702997 1.0
  endloop
endfacet
facet normal 0.0 0.0 1.0
  outer loop
    vertex 2.25 3.89711431702997 1.0
    vertex 1.175 2.03515969889343 1.0
    vertex 1.66170093578839 1.66170093578839 1.0
  endloop
endfacet
facet normal 0.0 0.0 1.0
  outer loop
    vertex 2.25 3.89711431702997 1.0
    vertex 1.66170093578839 1.66170093578839 1.0
    vertex 2.03515969889343 1.175 1.0
  endloop
endfacet
facet normal 0.0 0.0 1.0
  outer loop
    vertex 2.25 3.89711431702997 1.0
    vertex 2.03515969889343 1.175 1.0
    vertex 2.26992569177931 0.608224755990924 1.0
  endloop
endfacet
facet normal 0.0 0.0 1.0
  outer loop
    vertex 2.25 3.89711431702997 1.0
    vertex 2.26992569177931 0.608224755990924 1.0
    vertex 3.18198051533946 3.18198051533946 1.0
  endloop
endfacet
facet normal 0.0 0.0 1.0
  outer loop
    vertex 3.18198051533946 3.18198051533946 1.0
    vertex 2.26992569177931 0.608224755990924 1.0
    vertex 2.35 0.0 1.0
  endloop
endfacet
facet normal 0.0 0.0 1.0
  outer loop
    vertex 3.18198051533946 3.18198051533946 1.0
    vertex 2.35 0.0 1.0
    vertex 3.18198051533946 -3.18198051533946 1.0
  endloop
endfacet
facet normal 0.0 0.0 1.0
  outer loop
    vertex 3.18198051533946 3.18198051533946 1.0
    vertex 3.18198051533946 -3.18198051533946 1.0
    vertex 3.89711431702997 -2.25 1.0
  endloop
endfacet
facet normal 0.0 0.0 1.0
  outer loop
    vertex 3.18198051533946 3.18198051533946 1.0
    vertex 3.89711431702997 -2.25 1.0
    vertex 3.89711431702997 2.25 1.0
  endloop
endfacet
facet normal 0.0 0.0 1.0
  outer loop
    vertex 3.89711431702997 2.25 1.0
    vertex 3.89711431702997 -2.25 1.0
    vertex 4.34666621830081 -1.16468570296135 1.0
  endloop
endfacet
facet normal 0.0 0.0 1.0
  outer loop
    vertex 3.89711431702997 2.25 1.0
    vertex 4.34666621830081 -1.16468570296135 1.0
    vertex 4.34666621830081 1.16468570296134 1.0
  endloop
endfacet
facet normal 0.0 0.0 1.0
  outer loop
    vertex 4.34666621830081 1.16468570296134 1.0
    vertex 4.34666621830081 -1.16468570296135 1.0
    vertex 4.5 0.0 1.0
  endloop
endfacet
facet normal 0.0 0.0 1.0
  outer loop
    vertex -5.79555495773441 -1.55291427061512 3.0
    vertex -5.79555495773441 1.55291427061513 3.0
    vertex -6.0 7.34788079488412e-016 3.0
  endloop
endfacet
facet normal 0.0 0.0 1.0
  outer loop
    vertex -5.79555495773441 1.55291427061513 3.0
    vertex -5.79555495773441 -1.55291427061512 3.0
    vertex -5.19615242270663 -3.0 3.0
  endloop
endfacet
facet normal 0.0 0.0 1.0
  outer loop
    vertex -5.79555495773441 1.55291427061513 3.0
    vertex -5.19615242270663 -3.0 3.0
    vertex -5.25 -6.42939569552361e-016 3.0
  endloop
endfacet
facet normal 0.0 0.0 1.0
  outer loop
    vertex -5.25 -6.42939569552361e-016 3.0
    vertex -5.19615242270663 -3.0 3.0
    vertex -5.07111058801761 -1.35879998678824 3.0
  endloop
endfacet
facet normal 0.0 0.0 1.0
  outer loop
    vertex -5.07111058801761 -1.35879998678824 3.0
    vertex -5.19615242270663 -3.0 3.0
    vertex -4.24264068711929 -4.24264068711928 3.0
  endloop
endfacet
facet normal 0.0 0.0 1.0
  outer loop
    vertex -5.07111058801761 -1.35879998678824 3.0
    vertex -4.24264068711929 -4.24264068711928 3.0
    vertex -4.5466333698683 -2.625 3.0
  endloop
endfacet
facet normal 0.0 0.0 1.0
  outer loop
    vertex -4.5466333698683 -2.625 3.0
    vertex -4.24264068711929 -4.24264068711928 3.0
    vertex -3.71231060122937 -3.71231060122937 3.0
  endloop
endfacet
facet normal 0.0 0.0 1.0
  outer loop
    vertex -3.71231060122937 -3.71231060122937 3.0
    vertex -4.24264068711929 -4.24264068711928 3.0
    vertex -3.0 -5.19615242270663 3.0
  endloop
endfacet
facet normal 0.0 0.0 1.0
  outer loop
    vertex -3.71231060122937 -3.71231060122937 3.0
    vertex -3.0 -5.19615242270663 3.0
    vertex -2.625 -4.5466333698683 3.0
  endloop
endfacet
facet normal 0.0 0.0 1.0
  outer loop
    vertex -2.625 -4.5466333698683 3.0
    vertex -3.0 -5.19615242270663 3.0
    vertex -1.55291427061513 -5.79555495773441 3.0
  endloop
endfacet
facet normal 0.0 0.0 1.0
  outer loop
    vertex -2.625 -4.5466333698683 3.0
    vertex -1.55291427061513 -5.79555495773441 3.0
    vertex -1.35879998678823 -5.07111058801761 3.0
  endloop
endfacet
facet normal 0.0 0.0 1.0
  outer loop
    vertex -1.35879998678823 -5.07111058801761 3.0
    vertex -1.55291427061513 -5.79555495773441 3.0
    vertex -1.10218211923262e-015 -6.0 3.0
  endloop
endfacet
facet normal 0.0 0.0 1.0
  outer loop
    vertex -1.35879998678823 -5.07111058801761 3.0
    vertex -1.10218211923262e-015 -6.0 3.0
    vertex 3.2146978477618e-016 -5.25 3.0
  endloop
endfacet
facet normal 0.0 0.0 1.0
  outer loop
    vertex 3.2146978477618e-016 -5.25 3.0
    vertex -1.10218211923262e-015 -6.0 3.0
    vertex 1.55291427061512 -5.79555495773441 3.0
  endloop
endfacet
facet normal 0.0 0.0 1.0
  outer loop
    vertex 3.2146978477618e-016 -5.25 3.0
    vertex 1.55291427061512 -5.79555495773441 3.0
    vertex 1.35879998678824 -5.07111058801761 3.0
  endloop
endfacet
facet normal 0.0 0.0 1.0
  outer loop
    vertex 1.35879998678824 -5.07111058801761 3.0
    vertex 1.55291427061512 -5.79555495773441 3.0
    vertex 2.625 -4.5466333698683 3.0
  endloop
endfacet
facet normal 0.0 0.0 1.0
  outer loop
    vertex 2.625 -4.5466333698683 3.0
    vertex 1.55291427061512 -5.79555495773441 3.0
    vertex 3.0 -5.19615242270663 3.0
  endloop
endfacet
facet normal 0.0 0.0 1.0
  outer loop
    vertex 2.625 -4.5466333698683 3.0
    vertex 3.0 -5.19615242270663 3.0
    vertex 3.71231060122937 -3.71231060122937 3.0
  endloop
endfacet
facet normal 0.0 0.0 1.0
  outer loop
    vertex 3.71231060122937 -3.71231060122937 3.0
    vertex 3.0 -5.19615242270663 3.0
    vertex 4.24264068711928 -4.24264068711929 3.0
  endloop
endfacet
facet normal 0.0 0.0 1.0
  outer loop
    vertex 3.71231060122937 -3.71231060122937 3.0
    vertex 4.24264068711928 -4.24264068711929 3.0
    vertex 4.5466333698683 -2.625 3.0
  endloop
endfacet
facet normal 0.0 0.0 1.0
  outer loop
    vertex 4.5466333698683 -2.625 3.0
    vertex 4.24264068711928 -4.24264068711929 3.0
    vertex 5.19615242270663 -3.0 3.0
  endloop
endfacet
facet normal 0.0 0.0 1.0
  outer loop
    vertex 4.5466333698683 -2.625 3.0
    vertex 5.19615242270663 -3.0 3.0
    vertex 5.07111058801761 -1.35879998678823 3.0
  endloop
endfacet
facet normal 0.0 0.0 1.0
  outer loop
    vertex 5.07111058801761 -1.35879998678823 3.0
    vertex 5.19615242270663 -3.0 3.0
    vertex 5.25 0.0 3.0
  endloop
endfacet
facet normal 0.0 0.0 1.0
  outer loop
    vertex 5.25 0.0 3.0
    vertex 5.19615242270663 -3.0 3.0
    vertex 5.79555495773441 -1.55291427061513 3.0
  endloop
endfacet
facet normal 0.0 0.0 1.0
  outer loop
    vertex -5.25 -6.42939569552361e-016 3.0
    vertex -5.19615242270663 3.0 3.0
    vertex -5.79555495773441 1.55291427061513 3.0
  endloop
endfacet
facet normal 0.0 0.0 1.0
  outer loop
    vertex -5.19615242270663 3.0 3.0
    vertex -5.25 -6.42939569552361e-016 3.0
    vertex -5.07111058801761 1.35879998678823 3.0
  endloop
endfacet
facet normal 0.0 0.0 1.0
  outer loop
    vertex -5.19615242270663 3.0 3.0
    vertex -5.07111058801761 1.35879998678823 3.0
    vertex -4.24264068711928 4.24264068711929 3.0
  endloop
endfacet
facet normal 0.0 0.0 1.0
  outer loop
    vertex -4.24264068711928 4.24264068711929 3.0
    vertex -5.07111058801761 1.35879998678823 3.0
    vertex -4.5466333698683 2.625 3.0
  endloop
endfacet
facet normal 0.0 0.0 1.0
  outer loop
    vertex -4.24264068711928 4.24264068711929 3.0
    vertex -4.5466333698683 2.625 3.0
    vertex -3.71231060122938 3.71231060122937 3.0
  endloop
endfacet
facet normal 0.0 0.0 1.0
  outer loop
    vertex -4.24264068711928 4.24264068711929 3.0
    vertex -3.71231060122938 3.71231060122937 3.0
    vertex -3.0 5.19615242270663 3.0
  endloop
endfacet
facet normal 0.0 0.0 1.0
  outer loop
    vertex -3.0 5.19615242270663 3.0
    vertex -3.71231060122938 3.71231060122937 3.0
    vertex -2.625 4.5466333698683 3.0
  endloop
endfacet
facet normal 0.0 0.0 1.0
  outer loop
    vertex -3.0 5.19615242270663 3.0
    vertex -2.625 4.5466333698683 3.0
    vertex -1.55291427061512 5.79555495773441 3.0
  endloop
endfacet
facet normal 0.0 0.0 1.0
  outer loop
    vertex -1.55291427061512 5.79555495773441 3.0
    vertex -2.625 4.5466333698683 3.0
    vertex -1.35879998678824 5.07111058801761 3.0
  endloop
endfacet
facet normal 0.0 0.0 1.0
  outer loop
    vertex -1.55291427061512 5.79555495773441 3.0
    vertex -1.35879998678824 5.07111058801761 3.0
    vertex 3.67394039744206e-016 6.0 3.0
  endloop
endfacet
facet normal 0.0 0.0 1.0
  outer loop
    vertex 3.67394039744206e-016 6.0 3.0
    vertex -1.35879998678824 5.07111058801761 3.0
    vertex -9.64409354328541e-016 5.25 3.0
  endloop
endfacet
facet normal 0.0 0.0 1.0
  outer loop
    vertex 3.67394039744206e-016 6.0 3.0
    vertex -9.64409354328541e-016 5.25 3.0
    vertex 1.35879998678823 5.07111058801761 3.0
  endloop
endfacet
facet normal 0.0 0.0 1.0
  outer loop
    vertex 3.67394039744206e-016 6.0 3.0
    vertex 1.35879998678823 5.07111058801761 3.0
    vertex 1.55291427061513 5.79555495773441 3.0
  endloop
endfacet
facet normal 0.0 0.0 1.0
  outer loop
    vertex 1.55291427061513 5.79555495773441 3.0
    vertex 1.35879998678823 5.07111058801761 3.0
    vertex 2.625 4.5466333698683 3.0
  endloop
endfacet
facet normal 0.0 0.0 1.0
  outer loop
    vertex 1.55291427061513 5.79555495773441 3.0
    vertex 2.625 4.5466333698683 3.0
    vertex 3.0 5.19615242270663 3.0
  endloop
endfacet
facet normal 0.0 0.0 1.0
  outer loop
    vertex 3.0 5.19615242270663 3.0
    vertex 2.625 4.5466333698683 3.0
    vertex 3.71231060122937 3.71231060122938 3.0
  endloop
endfacet
facet normal 0.0 0.0 1.0
  outer loop
    vertex 3.0 5.19615242270663 3.0
    vertex 3.71231060122937 3.71231060122938 3.0
    vertex 4.24264068711928 4.24264068711928 3.0
  endloop
endfacet
facet normal 0.0 0.0 1.0
  outer loop
    vertex 4.24264068711928 4.24264068711928 3.0
    vertex 3.71231060122937 3.71231060122938 3.0
    vertex 4.5466333698683 2.625 3.0
  endloop
endfacet
facet normal 0.0 0.0 1.0
  outer loop
    vertex 4.24264068711928 4.24264068711928 3.0
    vertex 4.5466333698683 2.625 3.0
    vertex 5.19615242270663 3.0 3.0
  endloop
endfacet
facet normal 0.0 0.0 1.0
  outer loop
    vertex 5.19615242270663 3.0 3.0
    vertex 4.5466333698683 2.625 3.0
    vertex 5.07111058801761 1.35879998678824 3.0
  endloop
endfacet
facet normal 0.0 0.0 1.0
  outer loop
    vertex 5.19615242270663 3.0 3.0
    vertex 5.07111058801761 1.35879998678824 3.0
    vertex 5.25 0.0 3.0
  endloop
endfacet
facet normal 0.0 0.0 1.0
  outer loop
    vertex 5.19615242270663 3.0 3.0
    vertex 5.25 0.0 3.0
    vertex 5.79555495773441 1.55291427061512 3.0
  endloop
endfacet
facet normal 0.0 0.0 1.0
  outer loop
    vertex 5.79555495773441 1.55291427061512 3.0
    vertex 5.25 0.0 3.0
    vertex 5.79555495773441 -1.55291427061513 3.0
  endloop
endfacet
facet normal 0.0 0.0 1.0
  outer loop
    vertex 5.79555495773441 1.55291427061512 3.0
    vertex 5.79555495773441 -1.55291427061513 3.0
    vertex 6.0 0.0 3.0
  endloop
endfacet
facet normal -0.130526192220052 -0.99144486137381 0.0
  outer loop
    vertex 1.16468570296134 4.34666621830081 6.0
    vertex 2.75545529808154e-016 4.5 1.0
    vertex 1.16468570296134 4.34666621830081 1.0
  endloop
endfacet
facet normal -0.130526192220052 -0.99144486137381 0.0
  outer loop
    vertex 2.75545529808154e-016 4.5 1.0
    vertex 1.16468570296134 4.34666621830081 6.0
    vertex 2.75545529808154e-016 4.5 6.0
  endloop
endfacet
facet normal -0.38268343236509 -0.923879532511287 0.0
  outer loop
    vertex 2.25 3.89711431702997 6.0
    vertex 1.16468570296134 4.34666621830081 1.0
    vertex 2.25 3.89711431702997 1.0
  endloop
endfacet
facet normal -0.38268343236509 -0.923879532511287 0.0
  outer loop
    vertex 1.16468570296134 4.34666621830081 1.0
    vertex 2.25 3.89711431702997 6.0
    vertex 1.16468570296134 4.34666621830081 6.0
  endloop
endfacet
facet normal -0.608761429008721 -0.793353340291235 0.0
  outer loop
    vertex 3.18198051533946 3.18198051533946 6.0
    vertex 2.25 3.89711431702997 1.0
    vertex 3.18198051533946 3.18198051533946 1.0
  endloop
endfacet
facet normal -0.608761429008721 -0.793353340291235 0.0
  outer loop
    vertex 2.25 3.89711431702997 1.0
    vertex 3.18198051533946 3.18198051533946 6.0
    vertex 2.25 3.89711431702997 6.0
  endloop
endfacet
facet normal -0.793353340291235 -0.608761429008721 0.0
  outer loop
    vertex 3.18198051533946 3.18198051533946 6.0
    vertex 3.89711431702997 2.25 1.0
    vertex 3.89711431702997 2.25 6.0
  endloop
endfacet
facet normal -0.793353340291235 -0.608761429008721 0.0
  outer loop
    vertex 3.89711431702997 2.25 1.0
    vertex 3.18198051533946 3.18198051533946 6.0
    vertex 3.18198051533946 3.18198051533946 1.0
  endloop
endfacet
facet normal -0.923879532511287 -0.38268343236509 0.0
  outer loop
    vertex 3.89711431702997 2.25 6.0
    vertex 4.34666621830081 1.16468570296134 1.0
    vertex 4.34666621830081 1.16468570296134 6.0
  endloop
endfacet
facet normal -0.923879532511287 -0.38268343236509 0.0
  outer loop
    vertex 4.34666621830081 1.16468570296134 1.0
    vertex 3.89711431702997 2.25 6.0
    vertex 3.89711431702997 2.25 1.0
  endloop
endfacet
facet normal -0.99144486137381 -0.130526192220052 0.0
  outer loop
    vertex 4.34666621830081 1.16468570296134 6.0
    vertex 4.5 0.0 1.0
    vertex 4.5 0.0 6.0
  endloop
endfacet
facet normal -0.99144486137381 -0.130526192220052 0.0
  outer loop
    vertex 4.5 0.0 1.0
    vertex 4.34666621830081 1.16468570296134 6.0
    vertex 4.34666621830081 1.16468570296134 1.0
  endloop
endfacet
facet normal -0.99144486137381 0.130526192220052 0.0
  outer loop
    vertex 4.5 0.0 6.0
    vertex 4.34666621830081 -1.16468570296135 1.0
    vertex 4.34666621830081 -1.16468570296135 6.0
  endloop
endfacet
facet normal -0.99144486137381 0.130526192220052 0.0
  outer loop
    vertex 4.34666621830081 -1.16468570296135 1.0
    vertex 4.5 0.0 6.0
    vertex 4.5 0.0 1.0
  endloop
endfacet
facet normal -0.923879532511286 0.382683432365091 0.0
  outer loop
    vertex 4.34666621830081 -1.16468570296135 6.0
    vertex 3.89711431702997 -2.25 1.0
    vertex 3.89711431702997 -2.25 6.0
  endloop
endfacet
facet normal -0.923879532511286 0.382683432365091 0.0
  outer loop
    vertex 3.89711431702997 -2.25 1.0
    vertex 4.34666621830081 -1.16468570296135 6.0
    vertex 4.34666621830081 -1.16468570296135 1.0
  endloop
endfacet
facet normal -0.793353340291235 0.608761429008721 0.0
  outer loop
    vertex 3.89711431702997 -2.25 6.0
    vertex 3.18198051533946 -3.18198051533946 1.0
    vertex 3.18198051533946 -3.18198051533946 6.0
  endloop
endfacet
facet normal -0.793353340291235 0.608761429008721 0.0
  outer loop
    vertex 3.18198051533946 -3.18198051533946 1.0
    vertex 3.89711431702997 -2.25 6.0
    vertex 3.89711431702997 -2.25 1.0
  endloop
endfacet
facet normal -0.60876142900872 0.793353340291236 0.0
  outer loop
    vertex 2.25 -3.89711431702998 6.0
    vertex 3.18198051533946 -3.18198051533946 1.0
    vertex 2.25 -3.89711431702998 1.0
  endloop
endfacet
facet normal -0.60876142900872 0.793353340291236 0.0
  outer loop
    vertex 3.18198051533946 -3.18198051533946 1.0
    vertex 2.25 -3.89711431702998 6.0
    vertex 3.18198051533946 -3.18198051533946 6.0
  endloop
endfacet
facet normal -0.382683432365089 0.923879532511287 0.0
  outer loop
    vertex 1.16468570296134 -4.34666621830081 6.0
    vertex 2.25 -3.89711431702998 1.0
    vertex 1.16468570296134 -4.34666621830081 1.0
  endloop
endfacet
facet normal -0.382683432365089 0.923879532511287 0.0
  outer loop
    vertex 2.25 -3.89711431702998 1.0
    vertex 1.16468570296134 -4.34666621830081 6.0
    vertex 2.25 -3.89711431702998 6.0
  endloop
endfacet
facet normal -0.130526192220051 0.991444861373811 0.0
  outer loop
    vertex -8.26636589424463e-016 -4.5 6.0
    vertex 1.16468570296134 -4.34666621830081 1.0
    vertex -8.26636589424463e-016 -4.5 1.0
  endloop
endfacet
facet normal -0.130526192220051 0.991444861373811 0.0
  outer loop
    vertex 1.16468570296134 -4.34666621830081 1.0
    vertex -8.26636589424463e-016 -4.5 6.0
    vertex 1.16468570296134 -4.34666621830081 6.0
  endloop
endfacet
facet normal 0.130526192220052 0.99144486137381 0.0
  outer loop
    vertex -1.16468570296135 -4.34666621830081 6.0
    vertex -8.26636589424463e-016 -4.5 1.0
    vertex -1.16468570296135 -4.34666621830081 1.0
  endloop
endfacet
facet normal 0.130526192220052 0.99144486137381 0.0
  outer loop
    vertex -8.26636589424463e-016 -4.5 1.0
    vertex -1.16468570296135 -4.34666621830081 6.0
    vertex -8.26636589424463e-016 -4.5 6.0
  endloop
endfacet
facet normal 0.38268343236509 0.923879532511286 0.0
  outer loop
    vertex -2.25 -3.89711431702997 6.0
    vertex -1.16468570296135 -4.34666621830081 1.0
    vertex -2.25 -3.89711431702997 1.0
  endloop
endfacet
facet normal 0.38268343236509 0.923879532511286 0.0
  outer loop
    vertex -1.16468570296135 -4.34666621830081 1.0
    vertex -2.25 -3.89711431702997 6.0
    vertex -1.16468570296135 -4.34666621830081 6.0
  endloop
endfacet
facet normal 0.608761429008721 0.793353340291235 0.0
  outer loop
    vertex -3.18198051533947 -3.18198051533946 6.0
    vertex -2.25 -3.89711431702997 1.0
    vertex -3.18198051533947 -3.18198051533946 1.0
  endloop
endfacet
facet normal 0.608761429008721 0.793353340291235 0.0
  outer loop
    vertex -2.25 -3.89711431702997 1.0
    vertex -3.18198051533947 -3.18198051533946 6.0
    vertex -2.25 -3.89711431702997 6.0
  endloop
endfacet
facet normal 0.793353340291235 0.608761429008721 0.0
  outer loop
    vertex -3.89711431702997 -2.25 1.0
    vertex -3.18198051533947 -3.18198051533946 6.0
    vertex -3.18198051533947 -3.18198051533946 1.0
  endloop
endfacet
facet normal 0.793353340291235 0.608761429008721 0.0
  outer loop
    vertex -3.18198051533947 -3.18198051533946 6.0
    vertex -3.89711431702997 -2.25 1.0
    vertex -3.89711431702997 -2.25 6.0
  endloop
endfacet
facet normal 0.923879532511287 0.38268343236509 0.0
  outer loop
    vertex -4.34666621830081 -1.16468570296134 1.0
    vertex -3.89711431702997 -2.25 6.0
    vertex -3.89711431702997 -2.25 1.0
  endloop
endfacet
facet normal 0.923879532511287 0.38268343236509 0.0
  outer loop
    vertex -3.89711431702997 -2.25 6.0
    vertex -4.34666621830081 -1.16468570296134 1.0
    vertex -4.34666621830081 -1.16468570296134 6.0
  endloop
endfacet
facet normal 0.991444861373811 0.130526192220051 0.0
  outer loop
    vertex -4.5 5.51091059616309e-016 1.0
    vertex -4.34666621830081 -1.16468570296134 6.0
    vertex -4.34666621830081 -1.16468570296134 1.0
  endloop
endfacet
facet normal 0.991444861373811 0.130526192220051 0.0
  outer loop
    vertex -4.34666621830081 -1.16468570296134 6.0
    vertex -4.5 5.51091059616309e-016 1.0
    vertex -4.5 5.51091059616309e-016 6.0
  endloop
endfacet
facet normal 0.99144486137381 -0.130526192220052 0.0
  outer loop
    vertex -4.34666621830081 1.16468570296134 1.0
    vertex -4.5 5.51091059616309e-016 6.0
    vertex -4.5 5.51091059616309e-016 1.0
  endloop
endfacet
facet normal 0.99144486137381 -0.130526192220052 0.0
  outer loop
    vertex -4.5 5.51091059616309e-016 6.0
    vertex -4.34666621830081 1.16468570296134 1.0
    vertex -4.34666621830081 1.16468570296134 6.0
  endloop
endfacet
facet normal 0.923879532511287 -0.38268343236509 0.0
  outer loop
    vertex -3.89711431702997 2.25 1.0
    vertex -4.34666621830081 1.16468570296134 6.0
    vertex -4.34666621830081 1.16468570296134 1.0
  endloop
endfacet
facet normal 0.923879532511287 -0.38268343236509 0.0
  outer loop
    vertex -4.34666621830081 1.16468570296134 6.0
    vertex -3.89711431702997 2.25 1.0
    vertex -3.89711431702997 2.25 6.0
  endloop
endfacet
facet normal 0.793353340291235 -0.608761429008721 0.0
  outer loop
    vertex -3.18198051533946 3.18198051533946 1.0
    vertex -3.89711431702997 2.25 6.0
    vertex -3.89711431702997 2.25 1.0
  endloop
endfacet
facet normal 0.793353340291235 -0.608761429008721 0.0
  outer loop
    vertex -3.89711431702997 2.25 6.0
    vertex -3.18198051533946 3.18198051533946 1.0
    vertex -3.18198051533946 3.18198051533946 6.0
  endloop
endfacet
facet normal 0.60876142900872 -0.793353340291236 0.0
  outer loop
    vertex -2.25 3.89711431702997 6.0
    vertex -3.18198051533946 3.18198051533946 1.0
    vertex -2.25 3.89711431702997 1.0
  endloop
endfacet
facet normal 0.60876142900872 -0.793353340291236 0.0
  outer loop
    vertex -3.18198051533946 3.18198051533946 1.0
    vertex -2.25 3.89711431702997 6.0
    vertex -3.18198051533946 3.18198051533946 6.0
  endloop
endfacet
facet normal 0.38268343236509 -0.923879532511287 0.0
  outer loop
    vertex -1.16468570296134 4.34666621830081 6.0
    vertex -2.25 3.89711431702997 1.0
    vertex -1.16468570296134 4.34666621830081 1.0
  endloop
endfacet
facet normal 0.38268343236509 -0.923879532511287 0.0
  outer loop
    vertex -2.25 3.89711431702997 1.0
    vertex -1.16468570296134 4.34666621830081 6.0
    vertex -2.25 3.89711431702997 6.0
  endloop
endfacet
facet normal 0.130526192220052 -0.99144486137381 0.0
  outer loop
    vertex 2.75545529808154e-016 4.5 6.0
    vertex -1.16468570296134 4.34666621830081 1.0
    vertex 2.75545529808154e-016 4.5 1.0
  endloop
endfacet
facet normal 0.130526192220052 -0.99144486137381 0.0
  outer loop
    vertex -1.16468570296134 4.34666621830081 1.0
    vertex 2.75545529808154e-016 4.5 6.0
    vertex -1.16468570296134 4.34666621830081 6.0
  endloop
endfacet
facet normal 0.0 0.0 1.0
  outer loop
    vertex -4.5466333698683 -2.625 6.0
    vertex -4.34666621830081 -1.16468570296134 6.0
    vertex -4.5 5.51091059616309e-016 6.0
  endloop
endfacet
facet normal 0.0 0.0 1.0
  outer loop
    vertex -4.34666621830081 -1.16468570296134 6.0
    vertex -4.5466333698683 -2.625 6.0
    vertex -3.71231060122937 -3.71231060122937 6.0
  endloop
endfacet
facet normal 0.0 0.0 1.0
  outer loop
    vertex -4.34666621830081 -1.16468570296134 6.0
    vertex -3.71231060122937 -3.71231060122937 6.0
    vertex -3.89711431702997 -2.25 6.0
  endloop
endfacet
facet normal 0.0 0.0 1.0
  outer loop
    vertex -3.89711431702997 -2.25 6.0
    vertex -3.71231060122937 -3.71231060122937 6.0
    vertex -3.18198051533947 -3.18198051533946 6.0
  endloop
endfacet
facet normal 0.0 0.0 1.0
  outer loop
    vertex -3.18198051533947 -3.18198051533946 6.0
    vertex -3.71231060122937 -3.71231060122937 6.0
    vertex -2.625 -4.5466333698683 6.0
  endloop
endfacet
facet normal 0.0 0.0 1.0
  outer loop
    vertex -3.18198051533947 -3.18198051533946 6.0
    vertex -2.625 -4.5466333698683 6.0
    vertex -2.25 -3.89711431702997 6.0
  endloop
endfacet
facet normal 0.0 0.0 1.0
  outer loop
    vertex -2.25 -3.89711431702997 6.0
    vertex -2.625 -4.5466333698683 6.0
    vertex -1.35879998678823 -5.07111058801761 6.0
  endloop
endfacet
facet normal 0.0 0.0 1.0
  outer loop
    vertex -2.25 -3.89711431702997 6.0
    vertex -1.35879998678823 -5.07111058801761 6.0
    vertex -1.16468570296135 -4.34666621830081 6.0
  endloop
endfacet
facet normal 0.0 0.0 1.0
  outer loop
    vertex -1.16468570296135 -4.34666621830081 6.0
    vertex -1.35879998678823 -5.07111058801761 6.0
    vertex 3.2146978477618e-016 -5.25 6.0
  endloop
endfacet
facet normal 0.0 0.0 1.0
  outer loop
    vertex -1.16468570296135 -4.34666621830081 6.0
    vertex 3.2146978477618e-016 -5.25 6.0
    vertex -8.26636589424463e-016 -4.5 6.0
  endloop
endfacet
facet normal 0.0 0.0 1.0
  outer loop
    vertex -8.26636589424463e-016 -4.5 6.0
    vertex 3.2146978477618e-016 -5.25 6.0
    vertex 1.16468570296134 -4.34666621830081 6.0
  endloop
endfacet
facet normal 0.0 0.0 1.0
  outer loop
    vertex 1.16468570296134 -4.34666621830081 6.0
    vertex 3.2146978477618e-016 -5.25 6.0
    vertex 1.35879998678824 -5.07111058801761 6.0
  endloop
endfacet
facet normal 0.0 0.0 1.0
  outer loop
    vertex 1.16468570296134 -4.34666621830081 6.0
    vertex 1.35879998678824 -5.07111058801761 6.0
    vertex 2.25 -3.89711431702998 6.0
  endloop
endfacet
facet normal 0.0 0.0 1.0
  outer loop
    vertex 2.25 -3.89711431702998 6.0
    vertex 1.35879998678824 -5.07111058801761 6.0
    vertex 2.625 -4.5466333698683 6.0
  endloop
endfacet
facet normal 0.0 0.0 1.0
  outer loop
    vertex 2.25 -3.89711431702998 6.0
    vertex 2.625 -4.5466333698683 6.0
    vertex 3.18198051533946 -3.18198051533946 6.0
  endloop
endfacet
facet normal 0.0 0.0 1.0
  outer loop
    vertex 3.18198051533946 -3.18198051533946 6.0
    vertex 2.625 -4.5466333698683 6.0
    vertex 3.71231060122937 -3.71231060122937 6.0
  endloop
endfacet
facet normal 0.0 0.0 1.0
  outer loop
    vertex 3.18198051533946 -3.18198051533946 6.0
    vertex 3.71231060122937 -3.71231060122937 6.0
    vertex 3.89711431702997 -2.25 6.0
  endloop
endfacet
facet normal 0.0 0.0 1.0
  outer loop
    vertex 3.89711431702997 -2.25 6.0
    vertex 3.71231060122937 -3.71231060122937 6.0
    vertex 4.5466333698683 -2.625 6.0
  endloop
endfacet
facet normal 0.0 0.0 1.0
  outer loop
    vertex 3.89711431702997 -2.25 6.0
    vertex 4.5466333698683 -2.625 6.0
    vertex 4.34666621830081 -1.16468570296135 6.0
  endloop
endfacet
facet normal 0.0 0.0 1.0
  outer loop
    vertex 4.34666621830081 -1.16468570296135 6.0
    vertex 4.5466333698683 -2.625 6.0
    vertex 4.5 0.0 6.0
  endloop
endfacet
facet normal 0.0 0.0 1.0
  outer loop
    vertex 4.5 0.0 6.0
    vertex 4.5466333698683 -2.625 6.0
    vertex 4.5466333698683 2.625 6.0
  endloop
endfacet
facet normal 0.0 0.0 1.0
  outer loop
    vertex 4.5466333698683 2.625 6.0
    vertex 4.5466333698683 -2.625 6.0
    vertex 5.07111058801761 1.35879998678824 6.0
  endloop
endfacet
facet normal 0.0 0.0 1.0
  outer loop
    vertex 5.07111058801761 1.35879998678824 6.0
    vertex 4.5466333698683 -2.625 6.0
    vertex 5.07111058801761 -1.35879998678823 6.0
  endloop
endfacet
facet normal 0.0 0.0 1.0
  outer loop
    vertex 5.07111058801761 1.35879998678824 6.0
    vertex 5.07111058801761 -1.35879998678823 6.0
    vertex 5.25 0.0 6.0
  endloop
endfacet
facet normal 0.0 0.0 1.0
  outer loop
    vertex -5.07111058801761 -1.35879998678824 6.0
    vertex -5.07111058801761 1.35879998678823 6.0
    vertex -5.25 -6.42939569552361e-016 6.0
  endloop
endfacet
facet normal 0.0 0.0 1.0
  outer loop
    vertex -5.07111058801761 1.35879998678823 6.0
    vertex -5.07111058801761 -1.35879998678824 6.0
    vertex -4.5466333698683 2.625 6.0
  endloop
endfacet
facet normal 0.0 0.0 1.0
  outer loop
    vertex -4.5466333698683 2.625 6.0
    vertex -5.07111058801761 -1.35879998678824 6.0
    vertex -4.5466333698683 -2.625 6.0
  endloop
endfacet
facet normal 0.0 0.0 1.0
  outer loop
    vertex -4.5466333698683 2.625 6.0
    vertex -4.5466333698683 -2.625 6.0
    vertex -4.5 5.51091059616309e-016 6.0
  endloop
endfacet
facet normal 0.0 0.0 1.0
  outer loop
    vertex -4.5466333698683 2.625 6.0
    vertex -4.5 5.51091059616309e-016 6.0
    vertex -4.34666621830081 1.16468570296134 6.0
  endloop
endfacet
facet normal 0.0 0.0 1.0
  outer loop
    vertex -4.5466333698683 2.625 6.0
    vertex -4.34666621830081 1.16468570296134 6.0
    vertex -3.71231060122938 3.71231060122937 6.0
  endloop
endfacet
facet normal 0.0 0.0 1.0
  outer loop
    vertex -3.71231060122938 3.71231060122937 6.0
    vertex -4.34666621830081 1.16468570296134 6.0
    vertex -3.89711431702997 2.25 6.0
  endloop
endfacet
facet normal 0.0 0.0 1.0
  outer loop
    vertex -3.71231060122938 3.71231060122937 6.0
    vertex -3.89711431702997 2.25 6.0
    vertex -3.18198051533946 3.18198051533946 6.0
  endloop
endfacet
facet normal 0.0 0.0 1.0
  outer loop
    vertex -3.71231060122938 3.71231060122937 6.0
    vertex -3.18198051533946 3.18198051533946 6.0
    vertex -2.625 4.5466333698683 6.0
  endloop
endfacet
facet normal 0.0 0.0 1.0
  outer loop
    vertex -2.625 4.5466333698683 6.0
    vertex -3.18198051533946 3.18198051533946 6.0
    vertex -2.25 3.89711431702997 6.0
  endloop
endfacet
facet normal 0.0 0.0 1.0
  outer loop
    vertex -2.625 4.5466333698683 6.0
    vertex -2.25 3.89711431702997 6.0
    vertex -1.35879998678824 5.07111058801761 6.0
  endloop
endfacet
facet normal 0.0 0.0 1.0
  outer loop
    vertex -1.35879998678824 5.07111058801761 6.0
    vertex -2.25 3.89711431702997 6.0
    vertex -1.16468570296134 4.34666621830081 6.0
  endloop
endfacet
facet normal 0.0 0.0 1.0
  outer loop
    vertex -1.35879998678824 5.07111058801761 6.0
    vertex -1.16468570296134 4.34666621830081 6.0
    vertex -9.64409354328541e-016 5.25 6.0
  endloop
endfacet
facet normal 0.0 0.0 1.0
  outer loop
    vertex -9.64409354328541e-016 5.25 6.0
    vertex -1.16468570296134 4.34666621830081 6.0
    vertex 2.75545529808154e-016 4.5 6.0
  endloop
endfacet
facet normal 0.0 0.0 1.0
  outer loop
    vertex -9.64409354328541e-016 5.25 6.0
    vertex 2.75545529808154e-016 4.5 6.0
    vertex 1.35879998678823 5.07111058801761 6.0
  endloop
endfacet
facet normal 0.0 0.0 1.0
  outer loop
    vertex 1.35879998678823 5.07111058801761 6.0
    vertex 2.75545529808154e-016 4.5 6.0
    vertex 1.16468570296134 4.34666621830081 6.0
  endloop
endfacet
facet normal 0.0 0.0 1.0
  outer loop
    vertex 1.35879998678823 5.07111058801761 6.0
    vertex 1.16468570296134 4.34666621830081 6.0
    vertex 2.25 3.89711431702997 6.0
  endloop
endfacet
facet normal 0.0 0.0 1.0
  outer loop
    vertex 1.35879998678823 5.07111058801761 6.0
    vertex 2.25 3.89711431702997 6.0
    vertex 2.625 4.5466333698683 6.0
  endloop
endfacet
facet normal 0.0 0.0 1.0
  outer loop
    vertex 2.625 4.5466333698683 6.0
    vertex 2.25 3.89711431702997 6.0
    vertex 3.18198051533946 3.18198051533946 6.0
  endloop
endfacet
facet normal 0.0 0.0 1.0
  outer loop
    vertex 2.625 4.5466333698683 6.0
    vertex 3.18198051533946 3.18198051533946 6.0
    vertex 3.71231060122937 3.71231060122938 6.0
  endloop
endfacet
facet normal 0.0 0.0 1.0
  outer loop
    vertex 3.71231060122937 3.71231060122938 6.0
    vertex 3.18198051533946 3.18198051533946 6.0
    vertex 3.89711431702997 2.25 6.0
  endloop
endfacet
facet normal 0.0 0.0 1.0
  outer loop
    vertex 3.71231060122937 3.71231060122938 6.0
    vertex 3.89711431702997 2.25 6.0
    vertex 4.5466333698683 2.625 6.0
  endloop
endfacet
facet normal 0.0 0.0 1.0
  outer loop
    vertex 4.5466333698683 2.625 6.0
    vertex 3.89711431702997 2.25 6.0
    vertex 4.34666621830081 1.16468570296134 6.0
  endloop
endfacet
facet normal 0.0 0.0 1.0
  outer loop
    vertex 4.5466333698683 2.625 6.0
    vertex 4.34666621830081 1.16468570296134 6.0
    vertex 4.5 0.0 6.0
  endloop
endfacet
facet normal -0.608761429008721 -0.793353340291235 0.0
  outer loop
    vertex -2.625 -4.5466333698683 6.0
    vertex -3.71231060122937 -3.71231060122937 3.0
    vertex -2.625 -4.5466333698683 3.0
  endloop
endfacet
facet normal -0.608761429008721 -0.793353340291235 0.0
  outer loop
    vertex -3.71231060122937 -3.71231060122937 3.0
    vertex -2.625 -4.5466333698683 6.0
    vertex -3.71231060122937 -3.71231060122937 6.0
  endloop
endfacet
facet normal -0.38268343236509 -0.923879532511287 0.0
  outer loop
    vertex -1.35879998678823 -5.07111058801761 6.0
    vertex -2.625 -4.5466333698683 3.0
    vertex -1.35879998678823 -5.07111058801761 3.0
  endloop
endfacet
facet normal -0.38268343236509 -0.923879532511287 0.0
  outer loop
    vertex -2.625 -4.5466333698683 3.0
    vertex -1.35879998678823 -5.07111058801761 6.0
    vertex -2.625 -4.5466333698683 6.0
  endloop
endfacet
facet normal -0.130526192220052 -0.99144486137381 0.0
  outer loop
    vertex 3.2146978477618e-016 -5.25 6.0
    vertex -1.35879998678823 -5.07111058801761 3.0
    vertex 3.2146978477618e-016 -5.25 3.0
  endloop
endfacet
facet normal -0.130526192220052 -0.99144486137381 0.0
  outer loop
    vertex -1.35879998678823 -5.07111058801761 3.0
    vertex 3.2146978477618e-016 -5.25 6.0
    vertex -1.35879998678823 -5.07111058801761 6.0
  endloop
endfacet
facet normal 0.130526192220052 -0.99144486137381 0.0
  outer loop
    vertex 1.35879998678824 -5.07111058801761 6.0
    vertex 3.2146978477618e-016 -5.25 3.0
    vertex 1.35879998678824 -5.07111058801761 3.0
  endloop
endfacet
facet normal 0.130526192220052 -0.99144486137381 0.0
  outer loop
    vertex 3.2146978477618e-016 -5.25 3.0
    vertex 1.35879998678824 -5.07111058801761 6.0
    vertex 3.2146978477618e-016 -5.25 6.0
  endloop
endfacet
facet normal 0.38268343236509 -0.923879532511287 0.0
  outer loop
    vertex 2.625 -4.5466333698683 6.0
    vertex 1.35879998678824 -5.07111058801761 3.0
    vertex 2.625 -4.5466333698683 3.0
  endloop
endfacet
facet normal 0.38268343236509 -0.923879532511287 0.0
  outer loop
    vertex 1.35879998678824 -5.07111058801761 3.0
    vertex 2.625 -4.5466333698683 6.0
    vertex 1.35879998678824 -5.07111058801761 6.0
  endloop
endfacet
facet normal 0.608761429008721 -0.793353340291235 0.0
  outer loop
    vertex 3.71231060122937 -3.71231060122937 6.0
    vertex 2.625 -4.5466333698683 3.0
    vertex 3.71231060122937 -3.71231060122937 3.0
  endloop
endfacet
facet normal 0.608761429008721 -0.793353340291235 0.0
  outer loop
    vertex 2.625 -4.5466333698683 3.0
    vertex 3.71231060122937 -3.71231060122937 6.0
    vertex 2.625 -4.5466333698683 6.0
  endloop
endfacet
facet normal 0.793353340291235 -0.608761429008721 0.0
  outer loop
    vertex 4.5466333698683 -2.625 3.0
    vertex 3.71231060122937 -3.71231060122937 6.0
    vertex 3.71231060122937 -3.71231060122937 3.0
  endloop
endfacet
facet normal 0.793353340291235 -0.608761429008721 0.0
  outer loop
    vertex 3.71231060122937 -3.71231060122937 6.0
    vertex 4.5466333698683 -2.625 3.0
    vertex 4.5466333698683 -2.625 6.0
  endloop
endfacet
facet normal 0.923879532511287 -0.382683432365089 0.0
  outer loop
    vertex 5.07111058801761 -1.35879998678823 3.0
    vertex 4.5466333698683 -2.625 6.0
    vertex 4.5466333698683 -2.625 3.0
  endloop
endfacet
facet normal 0.923879532511287 -0.382683432365089 0.0
  outer loop
    vertex 4.5466333698683 -2.625 6.0
    vertex 5.07111058801761 -1.35879998678823 3.0
    vertex 5.07111058801761 -1.35879998678823 6.0
  endloop
endfacet
facet normal 0.99144486137381 -0.130526192220052 0.0
  outer loop
    vertex 5.25 0.0 3.0
    vertex 5.07111058801761 -1.35879998678823 6.0
    vertex 5.07111058801761 -1.35879998678823 3.0
  endloop
endfacet
facet normal 0.99144486137381 -0.130526192220052 0.0
  outer loop
    vertex 5.07111058801761 -1.35879998678823 6.0
    vertex 5.25 0.0 3.0
    vertex 5.25 0.0 6.0
  endloop
endfacet
facet normal 0.99144486137381 0.130526192220052 0.0
  outer loop
    vertex 5.07111058801761 1.35879998678824 3.0
    vertex 5.25 0.0 6.0
    vertex 5.25 0.0 3.0
  endloop
endfacet
facet normal 0.99144486137381 0.130526192220052 0.0
  outer loop
    vertex 5.25 0.0 6.0
    vertex 5.07111058801761 1.35879998678824 3.0
    vertex 5.07111058801761 1.35879998678824 6.0
  endloop
endfacet
facet normal 0.923879532511286 0.382683432365091 0.0
  outer loop
    vertex 4.5466333698683 2.625 3.0
    vertex 5.07111058801761 1.35879998678824 6.0
    vertex 5.07111058801761 1.35879998678824 3.0
  endloop
endfacet
facet normal 0.923879532511286 0.382683432365091 0.0
  outer loop
    vertex 5.07111058801761 1.35879998678824 6.0
    vertex 4.5466333698683 2.625 3.0
    vertex 4.5466333698683 2.625 6.0
  endloop
endfacet
facet normal 0.793353340291235 0.608761429008721 0.0
  outer loop
    vertex 3.71231060122937 3.71231060122938 3.0
    vertex 4.5466333698683 2.625 6.0
    vertex 4.5466333698683 2.625 3.0
  endloop
endfacet
facet normal 0.793353340291235 0.608761429008721 0.0
  outer loop
    vertex 4.5466333698683 2.625 6.0
    vertex 3.71231060122937 3.71231060122938 3.0
    vertex 3.71231060122937 3.71231060122938 6.0
  endloop
endfacet
facet normal 0.60876142900872 0.793353340291236 0.0
  outer loop
    vertex 2.625 4.5466333698683 6.0
    vertex 3.71231060122937 3.71231060122938 3.0
    vertex 2.625 4.5466333698683 3.0
  endloop
endfacet
facet normal 0.60876142900872 0.793353340291236 0.0
  outer loop
    vertex 3.71231060122937 3.71231060122938 3.0
    vertex 2.625 4.5466333698683 6.0
    vertex 3.71231060122937 3.71231060122938 6.0
  endloop
endfacet
facet normal 0.382683432365089 0.923879532511287 0.0
  outer loop
    vertex 1.35879998678823 5.07111058801761 6.0
    vertex 2.625 4.5466333698683 3.0
    vertex 1.35879998678823 5.07111058801761 3.0
  endloop
endfacet
facet normal 0.382683432365089 0.923879532511287 0.0
  outer loop
    vertex 2.625 4.5466333698683 3.0
    vertex 1.35879998678823 5.07111058801761 6.0
    vertex 2.625 4.5466333698683 6.0
  endloop
endfacet
facet normal 0.130526192220051 0.99144486137381 0.0
  outer loop
    vertex -9.64409354328541e-016 5.25 6.0
    vertex 1.35879998678823 5.07111058801761 3.0
    vertex -9.64409354328541e-016 5.25 3.0
  endloop
endfacet
facet normal 0.130526192220051 0.99144486137381 0.0
  outer loop
    vertex 1.35879998678823 5.07111058801761 3.0
    vertex -9.64409354328541e-016 5.25 6.0
    vertex 1.35879998678823 5.07111058801761 6.0
  endloop
endfacet
facet normal -0.130526192220052 0.99144486137381 0.0
  outer loop
    vertex -1.35879998678824 5.07111058801761 6.0
    vertex -9.64409354328541e-016 5.25 3.0
    vertex -1.35879998678824 5.07111058801761 3.0
  endloop
endfacet
facet normal -0.130526192220052 0.99144486137381 0.0
  outer loop
    vertex -9.64409354328541e-016 5.25 3.0
    vertex -1.35879998678824 5.07111058801761 6.0
    vertex -9.64409354328541e-016 5.25 6.0
  endloop
endfacet
facet normal -0.382683432365091 0.923879532511286 0.0
  outer loop
    vertex -2.625 4.5466333698683 6.0
    vertex -1.35879998678824 5.07111058801761 3.0
    vertex -2.625 4.5466333698683 3.0
  endloop
endfacet
facet normal -0.382683432365091 0.923879532511286 0.0
  outer loop
    vertex -1.35879998678824 5.07111058801761 3.0
    vertex -2.625 4.5466333698683 6.0
    vertex -1.35879998678824 5.07111058801761 6.0
  endloop
endfacet
facet normal -0.608761429008721 0.793353340291235 0.0
  outer loop
    vertex -3.71231060122938 3.71231060122937 6.0
    vertex -2.625 4.5466333698683 3.0
    vertex -3.71231060122938 3.71231060122937 3.0
  endloop
endfacet
facet normal -0.608761429008721 0.793353340291235 0.0
  outer loop
    vertex -2.625 4.5466333698683 3.0
    vertex -3.71231060122938 3.71231060122937 6.0
    vertex -2.625 4.5466333698683 6.0
  endloop
endfacet
facet normal -0.793353340291235 0.608761429008721 0.0
  outer loop
    vertex -3.71231060122938 3.71231060122937 6.0
    vertex -4.5466333698683 2.625 3.0
    vertex -4.5466333698683 2.625 6.0
  endloop
endfacet
facet normal -0.793353340291235 0.608761429008721 0.0
  outer loop
    vertex -4.5466333698683 2.625 3.0
    vertex -3.71231060122938 3.71231060122937 6.0
    vertex -3.71231060122938 3.71231060122937 3.0
  endloop
endfacet
facet normal -0.923879532511287 0.382683432365089 0.0
  outer loop
    vertex -4.5466333698683 2.625 6.0
    vertex -5.07111058801761 1.35879998678823 3.0
    vertex -5.07111058801761 1.35879998678823 6.0
  endloop
endfacet
facet normal -0.923879532511287 0.382683432365089 0.0
  outer loop
    vertex -5.07111058801761 1.35879998678823 3.0
    vertex -4.5466333698683 2.625 6.0
    vertex -4.5466333698683 2.625 3.0
  endloop
endfacet
facet normal -0.99144486137381 0.130526192220051 0.0
  outer loop
    vertex -5.07111058801761 1.35879998678823 6.0
    vertex -5.25 -6.42939569552361e-016 3.0
    vertex -5.25 -6.42939569552361e-016 6.0
  endloop
endfacet
facet normal -0.99144486137381 0.130526192220051 0.0
  outer loop
    vertex -5.25 -6.42939569552361e-016 3.0
    vertex -5.07111058801761 1.35879998678823 6.0
    vertex -5.07111058801761 1.35879998678823 3.0
  endloop
endfacet
facet normal -0.99144486137381 -0.130526192220052 0.0
  outer loop
    vertex -5.25 -6.42939569552361e-016 6.0
    vertex -5.07111058801761 -1.35879998678824 3.0
    vertex -5.07111058801761 -1.35879998678824 6.0
  endloop
endfacet
facet normal -0.99144486137381 -0.130526192220052 0.0
  outer loop
    vertex -5.07111058801761 -1.35879998678824 3.0
    vertex -5.25 -6.42939569552361e-016 6.0
    vertex -5.25 -6.42939569552361e-016 3.0
  endloop
endfacet
facet normal -0.923879532511287 -0.38268343236509 0.0
  outer loop
    vertex -5.07111058801761 -1.35879998678824 6.0
    vertex -4.5466333698683 -2.625 3.0
    vertex -4.5466333698683 -2.625 6.0
  endloop
endfacet
facet normal -0.923879532511287 -0.38268343236509 0.0
  outer loop
    vertex -4.5466333698683 -2.625 3.0
    vertex -5.07111058801761 -1.35879998678824 6.0
    vertex -5.07111058801761 -1.35879998678824 3.0
  endloop
endfacet
facet normal -0.793353340291235 -0.608761429008721 0.0
  outer loop
    vertex -4.5466333698683 -2.625 6.0
    vertex -3.71231060122937 -3.71231060122937 3.0
    vertex -3.71231060122937 -3.71231060122937 6.0
  endloop
endfacet
facet normal -0.793353340291235 -0.608761429008721 0.0
  outer loop
    vertex -3.71231060122937 -3.71231060122937 3.0
    vertex -4.5466333698683 -2.625 6.0
    vertex -4.5466333698683 -2.625 3.0
  endloop
endfacet
facet normal 0.0 0.0 -1.0
  outer loop
    vertex -2.625 4.5466333698683 0.0
    vertex -2.26992569177931 0.608224755990924 0.0
    vertex -2.35 2.87791997799628e-016 0.0
  endloop
endfacet
facet normal 0.0 0.0 -1.0
  outer loop
    vertex -2.26992569177931 0.608224755990924 0.0
    vertex -2.625 4.5466333698683 0.0
    vertex -1.35879998678823 5.07111058801761 0.0
  endloop
endfacet
facet normal 0.0 0.0 -1.0
  outer loop
    vertex -2.26992569177931 0.608224755990924 0.0
    vertex -1.35879998678823 5.07111058801761 0.0
    vertex -2.03515969889343 1.175 0.0
  endloop
endfacet
facet normal 0.0 0.0 -1.0
  outer loop
    vertex -2.03515969889343 1.175 0.0
    vertex -1.35879998678823 5.07111058801761 0.0
    vertex -1.66170093578839 1.66170093578839 0.0
  endloop
endfacet
facet normal 0.0 0.0 -1.0
  outer loop
    vertex -1.66170093578839 1.66170093578839 0.0
    vertex -1.35879998678823 5.07111058801761 0.0
    vertex -1.175 2.03515969889343 0.0
  endloop
endfacet
facet normal 0.0 0.0 -1.0
  outer loop
    vertex -1.175 2.03515969889343 0.0
    vertex -1.35879998678823 5.07111058801761 0.0
    vertex 3.2146978477618e-016 5.25 0.0
  endloop
endfacet
facet normal 0.0 0.0 -1.0
  outer loop
    vertex -1.175 2.03515969889343 0.0
    vertex 3.2146978477618e-016 5.25 0.0
    vertex -0.608224755990924 2.26992569177931 0.0
  endloop
endfacet
facet normal 0.0 0.0 -1.0
  outer loop
    vertex -0.608224755990924 2.26992569177931 0.0
    vertex 3.2146978477618e-016 5.25 0.0
    vertex 1.43895998899814e-016 2.35 0.0
  endloop
endfacet
facet normal 0.0 0.0 -1.0
  outer loop
    vertex 1.43895998899814e-016 2.35 0.0
    vertex 3.2146978477618e-016 5.25 0.0
    vertex 0.608224755990924 2.26992569177931 0.0
  endloop
endfacet
facet normal 0.0 0.0 -1.0
  outer loop
    vertex 0.608224755990924 2.26992569177931 0.0
    vertex 3.2146978477618e-016 5.25 0.0
    vertex 1.35879998678824 5.07111058801761 0.0
  endloop
endfacet
facet normal 0.0 0.0 -1.0
  outer loop
    vertex 0.608224755990924 2.26992569177931 0.0
    vertex 1.35879998678824 5.07111058801761 0.0
    vertex 1.175 2.03515969889343 0.0
  endloop
endfacet
facet normal 0.0 0.0 -1.0
  outer loop
    vertex 1.175 2.03515969889343 0.0
    vertex 1.35879998678824 5.07111058801761 0.0
    vertex 1.66170093578839 1.66170093578839 0.0
  endloop
endfacet
facet normal 0.0 0.0 -1.0
  outer loop
    vertex 1.66170093578839 1.66170093578839 0.0
    vertex 1.35879998678824 5.07111058801761 0.0
    vertex 2.625 4.5466333698683 0.0
  endloop
endfacet
facet normal 0.0 0.0 -1.0
  outer loop
    vertex 1.66170093578839 1.66170093578839 0.0
    vertex 2.625 4.5466333698683 0.0
    vertex 2.03515969889343 1.175 0.0
  endloop
endfacet
facet normal 0.0 0.0 -1.0
  outer loop
    vertex 2.03515969889343 1.175 0.0
    vertex 2.625 4.5466333698683 0.0
    vertex 2.26992569177931 0.608224755990924 0.0
  endloop
endfacet
facet normal 0.0 0.0 -1.0
  outer loop
    vertex 2.26992569177931 0.608224755990924 0.0
    vertex 2.625 4.5466333698683 0.0
    vertex 2.35 0.0 0.0
  endloop
endfacet
facet normal 0.0 0.0 -1.0
  outer loop
    vertex 2.35 0.0 0.0
    vertex 2.625 4.5466333698683 0.0
    vertex 2.625 -4.5466333698683 0.0
  endloop
endfacet
facet normal 0.0 0.0 -1.0
  outer loop
    vertex 2.625 -4.5466333698683 0.0
    vertex 2.625 4.5466333698683 0.0
    vertex 3.71231060122937 -3.71231060122938 0.0
  endloop
endfacet
facet normal 0.0 0.0 -1.0
  outer loop
    vertex 3.71231060122937 -3.71231060122938 0.0
    vertex 2.625 4.5466333698683 0.0
    vertex 3.71231060122937 3.71231060122937 0.0
  endloop
endfacet
facet normal 0.0 0.0 -1.0
  outer loop
    vertex 3.71231060122937 -3.71231060122938 0.0
    vertex 3.71231060122937 3.71231060122937 0.0
    vertex 4.5466333698683 -2.625 0.0
  endloop
endfacet
facet normal 0.0 0.0 -1.0
  outer loop
    vertex 4.5466333698683 -2.625 0.0
    vertex 3.71231060122937 3.71231060122937 0.0
    vertex 4.5466333698683 2.625 0.0
  endloop
endfacet
facet normal 0.0 0.0 -1.0
  outer loop
    vertex 4.5466333698683 -2.625 0.0
    vertex 4.5466333698683 2.625 0.0
    vertex 5.07111058801761 -1.35879998678824 0.0
  endloop
endfacet
facet normal 0.0 0.0 -1.0
  outer loop
    vertex 5.07111058801761 -1.35879998678824 0.0
    vertex 4.5466333698683 2.625 0.0
    vertex 5.07111058801761 1.35879998678823 0.0
  endloop
endfacet
facet normal 0.0 0.0 -1.0
  outer loop
    vertex 5.07111058801761 -1.35879998678824 0.0
    vertex 5.07111058801761 1.35879998678823 0.0
    vertex 5.25 0.0 0.0
  endloop
endfacet
facet normal 0.0 0.0 -1.0
  outer loop
    vertex -5.07111058801761 1.35879998678824 0.0
    vertex -5.07111058801761 -1.35879998678823 0.0
    vertex -5.25 6.42939569552361e-016 0.0
  endloop
endfacet
facet normal 0.0 0.0 -1.0
  outer loop
    vertex -5.07111058801761 -1.35879998678823 0.0
    vertex -5.07111058801761 1.35879998678824 0.0
    vertex -4.5466333698683 -2.625 0.0
  endloop
endfacet
facet normal 0.0 0.0 -1.0
  outer loop
    vertex -4.5466333698683 -2.625 0.0
    vertex -5.07111058801761 1.35879998678824 0.0
    vertex -4.5466333698683 2.625 0.0
  endloop
endfacet
facet normal 0.0 0.0 -1.0
  outer loop
    vertex -4.5466333698683 -2.625 0.0
    vertex -4.5466333698683 2.625 0.0
    vertex -3.71231060122938 -3.71231060122937 0.0
  endloop
endfacet
facet normal 0.0 0.0 -1.0
  outer loop
    vertex -3.71231060122938 -3.71231060122937 0.0
    vertex -4.5466333698683 2.625 0.0
    vertex -3.71231060122937 3.71231060122937 0.0
  endloop
endfacet
facet normal 0.0 0.0 -1.0
  outer loop
    vertex -3.71231060122938 -3.71231060122937 0.0
    vertex -3.71231060122937 3.71231060122937 0.0
    vertex -2.625 -4.5466333698683 0.0
  endloop
endfacet
facet normal 0.0 0.0 -1.0
  outer loop
    vertex -2.625 -4.5466333698683 0.0
    vertex -3.71231060122937 3.71231060122937 0.0
    vertex -2.625 4.5466333698683 0.0
  endloop
endfacet
facet normal 0.0 0.0 -1.0
  outer loop
    vertex -2.625 -4.5466333698683 0.0
    vertex -2.625 4.5466333698683 0.0
    vertex -2.35 2.87791997799628e-016 0.0
  endloop
endfacet
facet normal 0.0 0.0 -1.0
  outer loop
    vertex -2.625 -4.5466333698683 0.0
    vertex -2.35 2.87791997799628e-016 0.0
    vertex -2.26992569177931 -0.608224755990923 0.0
  endloop
endfacet
facet normal 0.0 0.0 -1.0
  outer loop
    vertex -2.625 -4.5466333698683 0.0
    vertex -2.26992569177931 -0.608224755990923 0.0
    vertex -1.35879998678824 -5.07111058801761 0.0
  endloop
endfacet
facet normal 0.0 0.0 -1.0
  outer loop
    vertex -1.35879998678824 -5.07111058801761 0.0
    vertex -2.26992569177931 -0.608224755990923 0.0
    vertex -2.03515969889343 -1.175 0.0
  endloop
endfacet
facet normal 0.0 0.0 -1.0
  outer loop
    vertex -1.35879998678824 -5.07111058801761 0.0
    vertex -2.03515969889343 -1.175 0.0
    vertex -1.66170093578839 -1.66170093578839 0.0
  endloop
endfacet
facet normal 0.0 0.0 -1.0
  outer loop
    vertex -1.35879998678824 -5.07111058801761 0.0
    vertex -1.66170093578839 -1.66170093578839 0.0
    vertex -1.175 -2.03515969889343 0.0
  endloop
endfacet
facet normal 0.0 0.0 -1.0
  outer loop
    vertex -1.35879998678824 -5.07111058801761 0.0
    vertex -1.175 -2.03515969889343 0.0
    vertex -9.64409354328541e-016 -5.25 0.0
  endloop
endfacet
facet normal 0.0 0.0 -1.0
  outer loop
    vertex -9.64409354328541e-016 -5.25 0.0
    vertex -1.175 -2.03515969889343 0.0
    vertex -0.608224755990926 -2.26992569177931 0.0
  endloop
endfacet
facet normal 0.0 0.0 -1.0
  outer loop
    vertex -9.64409354328541e-016 -5.25 0.0
    vertex -0.608224755990926 -2.26992569177931 0.0
    vertex -4.31687996699442e-016 -2.35 0.0
  endloop
endfacet
facet normal 0.0 0.0 -1.0
  outer loop
    vertex -9.64409354328541e-016 -5.25 0.0
    vertex -4.31687996699442e-016 -2.35 0.0
    vertex 1.35879998678823 -5.07111058801761 0.0
  endloop
endfacet
facet normal 0.0 0.0 -1.0
  outer loop
    vertex 1.35879998678823 -5.07111058801761 0.0
    vertex -4.31687996699442e-016 -2.35 0.0
    vertex 0.608224755990923 -2.26992569177931 0.0
  endloop
endfacet
facet normal 0.0 0.0 -1.0
  outer loop
    vertex 1.35879998678823 -5.07111058801761 0.0
    vertex 0.608224755990923 -2.26992569177931 0.0
    vertex 1.175 -2.03515969889343 0.0
  endloop
endfacet
facet normal 0.0 0.0 -1.0
  outer loop
    vertex 1.35879998678823 -5.07111058801761 0.0
    vertex 1.175 -2.03515969889343 0.0
    vertex 1.66170093578839 -1.66170093578839 0.0
  endloop
endfacet
facet normal 0.0 0.0 -1.0
  outer loop
    vertex 1.35879998678823 -5.07111058801761 0.0
    vertex 1.66170093578839 -1.66170093578839 0.0
    vertex 2.625 -4.5466333698683 0.0
  endloop
endfacet
facet normal 0.0 0.0 -1.0
  outer loop
    vertex 2.625 -4.5466333698683 0.0
    vertex 1.66170093578839 -1.66170093578839 0.0
    vertex 2.03515969889343 -1.175 0.0
  endloop
endfacet
facet normal 0.0 0.0 -1.0
  outer loop
    vertex 2.625 -4.5466333698683 0.0
    vertex 2.03515969889343 -1.175 0.0
    vertex 2.26992569177931 -0.608224755990926 0.0
  endloop
endfacet
facet normal 0.0 0.0 -1.0
  outer loop
    vertex 2.625 -4.5466333698683 0.0
    vertex 2.26992569177931 -0.608224755990926 0.0
    vertex 2.35 0.0 0.0
  endloop
endfacet
facet normal 0.432304575321824 0.563390291354744 -0.704062592219636
  outer loop
    vertex 3.0 5.19615242270663 0.75
    vertex 3.71231060122937 3.71231060122937 0.0
    vertex 2.625 4.5466333698683 0.0
  endloop
endfacet
facet normal 0.432304575321824 0.563390291354744 -0.704062592219636
  outer loop
    vertex 3.71231060122937 3.71231060122937 0.0
    vertex 3.0 5.19615242270663 0.75
    vertex 4.24264068711928 4.24264068711928 0.75
  endloop
endfacet
facet normal 0.563390291354744 0.432304575321824 -0.704062592219636
  outer loop
    vertex 4.24264068711928 4.24264068711928 0.75
    vertex 4.5466333698683 2.625 0.0
    vertex 3.71231060122937 3.71231060122937 0.0
  endloop
endfacet
facet normal 0.563390291354744 0.432304575321824 -0.704062592219636
  outer loop
    vertex 4.5466333698683 2.625 0.0
    vertex 4.24264068711928 4.24264068711928 0.75
    vertex 5.19615242270663 3.0 0.75
  endloop
endfacet
facet normal 0.656081890078315 0.271758016897812 -0.704062592219636
  outer loop
    vertex 5.19615242270663 3.0 0.75
    vertex 5.07111058801761 1.35879998678823 0.0
    vertex 4.5466333698683 2.625 0.0
  endloop
endfacet
facet normal 0.656081890078315 0.271758016897812 -0.704062592219636
  outer loop
    vertex 5.07111058801761 1.35879998678823 0.0
    vertex 5.19615242270663 3.0 0.75
    vertex 5.79555495773441 1.55291427061512 0.75
  endloop
endfacet
facet normal 0.704062592219637 0.0926915987235713 -0.704062592219636
  outer loop
    vertex 5.07111058801761 1.35879998678823 0.0
    vertex 6.0 0.0 0.75
    vertex 5.25 0.0 0.0
  endloop
endfacet
facet normal 0.704062592219637 0.0926915987235713 -0.704062592219636
  outer loop
    vertex 6.0 0.0 0.75
    vertex 5.07111058801761 1.35879998678823 0.0
    vertex 5.79555495773441 1.55291427061512 0.75
  endloop
endfacet
facet normal 0.704062592219637 -0.0926915987235716 -0.704062592219636
  outer loop
    vertex 5.07111058801761 -1.35879998678824 0.0
    vertex 6.0 0.0 0.75
    vertex 5.79555495773441 -1.55291427061513 0.75
  endloop
endfacet
facet normal 0.704062592219637 -0.0926915987235716 -0.704062592219636
  outer loop
    vertex 6.0 0.0 0.75
    vertex 5.07111058801761 -1.35879998678824 0.0
    vertex 5.25 0.0 0.0
  endloop
endfacet
facet normal 0.656081890078315 -0.271758016897813 -0.704062592219637
  outer loop
    vertex 5.07111058801761 -1.35879998678824 0.0
    vertex 5.19615242270663 -3.0 0.75
    vertex 4.5466333698683 -2.625 0.0
  endloop
endfacet
facet normal 0.656081890078315 -0.271758016897813 -0.704062592219637
  outer loop
    vertex 5.19615242270663 -3.0 0.75
    vertex 5.07111058801761 -1.35879998678824 0.0
    vertex 5.79555495773441 -1.55291427061513 0.75
  endloop
endfacet
facet normal 0.563390291354744 -0.432304575321825 -0.704062592219637
  outer loop
    vertex 4.5466333698683 -2.625 0.0
    vertex 4.24264068711928 -4.24264068711929 0.75
    vertex 3.71231060122937 -3.71231060122938 0.0
  endloop
endfacet
facet normal 0.563390291354744 -0.432304575321825 -0.704062592219637
  outer loop
    vertex 4.24264068711928 -4.24264068711929 0.75
    vertex 4.5466333698683 -2.625 0.0
    vertex 5.19615242270663 -3.0 0.75
  endloop
endfacet
facet normal 0.432304575321824 -0.563390291354744 -0.704062592219636
  outer loop
    vertex 3.71231060122937 -3.71231060122938 0.0
    vertex 3.0 -5.19615242270663 0.75
    vertex 2.625 -4.5466333698683 0.0
  endloop
endfacet
facet normal 0.432304575321824 -0.563390291354744 -0.704062592219636
  outer loop
    vertex 3.0 -5.19615242270663 0.75
    vertex 3.71231060122937 -3.71231060122938 0.0
    vertex 4.24264068711928 -4.24264068711929 0.75
  endloop
endfacet
facet normal 0.271758016897812 -0.656081890078315 -0.704062592219637
  outer loop
    vertex 2.625 -4.5466333698683 0.0
    vertex 1.55291427061512 -5.79555495773441 0.75
    vertex 1.35879998678823 -5.07111058801761 0.0
  endloop
endfacet
facet normal 0.271758016897812 -0.656081890078315 -0.704062592219637
  outer loop
    vertex 1.55291427061512 -5.79555495773441 0.75
    vertex 2.625 -4.5466333698683 0.0
    vertex 3.0 -5.19615242270663 0.75
  endloop
endfacet
facet normal 0.0926915987235713 -0.704062592219637 -0.704062592219637
  outer loop
    vertex -9.64409354328541e-016 -5.25 0.0
    vertex 1.55291427061512 -5.79555495773441 0.75
    vertex -1.10154940724527e-015 -6.0 0.75
  endloop
endfacet
facet normal 0.0926915987235713 -0.704062592219637 -0.704062592219637
  outer loop
    vertex 1.55291427061512 -5.79555495773441 0.75
    vertex -9.64409354328541e-016 -5.25 0.0
    vertex 1.35879998678823 -5.07111058801761 0.0
  endloop
endfacet
facet normal -0.0926915987235716 -0.704062592219637 -0.704062592219637
  outer loop
    vertex -1.35879998678824 -5.07111058801761 0.0
    vertex -1.10154940724527e-015 -6.0 0.75
    vertex -1.55291427061513 -5.79555495773441 0.75
  endloop
endfacet
facet normal -0.0926915987235716 -0.704062592219637 -0.704062592219637
  outer loop
    vertex -1.10154940724527e-015 -6.0 0.75
    vertex -1.35879998678824 -5.07111058801761 0.0
    vertex -9.64409354328541e-016 -5.25 0.0
  endloop
endfacet
facet normal -0.271758016897813 -0.656081890078315 -0.704062592219637
  outer loop
    vertex -2.625 -4.5466333698683 0.0
    vertex -1.55291427061513 -5.79555495773441 0.75
    vertex -3.0 -5.19615242270663 0.75
  endloop
endfacet
facet normal -0.271758016897813 -0.656081890078315 -0.704062592219637
  outer loop
    vertex -1.55291427061513 -5.79555495773441 0.75
    vertex -2.625 -4.5466333698683 0.0
    vertex -1.35879998678824 -5.07111058801761 0.0
  endloop
endfacet
facet normal -0.432304575321825 -0.563390291354744 -0.704062592219637
  outer loop
    vertex -3.71231060122938 -3.71231060122937 0.0
    vertex -3.0 -5.19615242270663 0.75
    vertex -4.24264068711929 -4.24264068711928 0.75
  endloop
endfacet
facet normal -0.432304575321825 -0.563390291354744 -0.704062592219637
  outer loop
    vertex -3.0 -5.19615242270663 0.75
    vertex -3.71231060122938 -3.71231060122937 0.0
    vertex -2.625 -4.5466333698683 0.0
  endloop
endfacet
facet normal -0.563390291354744 -0.432304575321824 -0.704062592219636
  outer loop
    vertex -4.5466333698683 -2.625 0.0
    vertex -4.24264068711929 -4.24264068711928 0.75
    vertex -5.19615242270663 -3.0 0.75
  endloop
endfacet
facet normal -0.563390291354744 -0.432304575321824 -0.704062592219636
  outer loop
    vertex -4.24264068711929 -4.24264068711928 0.75
    vertex -4.5466333698683 -2.625 0.0
    vertex -3.71231060122938 -3.71231060122937 0.0
  endloop
endfacet
facet normal -0.656081890078316 -0.271758016897812 -0.704062592219636
  outer loop
    vertex -5.07111058801761 -1.35879998678823 0.0
    vertex -5.19615242270663 -3.0 0.75
    vertex -5.79555495773441 -1.55291427061512 0.75
  endloop
endfacet
facet normal -0.656081890078316 -0.271758016897812 -0.704062592219636
  outer loop
    vertex -5.19615242270663 -3.0 0.75
    vertex -5.07111058801761 -1.35879998678823 0.0
    vertex -4.5466333698683 -2.625 0.0
  endloop
endfacet
facet normal -0.704062592219637 -0.0926915987235713 -0.704062592219636
  outer loop
    vertex -6.0 7.04991620636974e-016 0.75
    vertex -5.07111058801761 -1.35879998678823 0.0
    vertex -5.79555495773441 -1.55291427061512 0.75
  endloop
endfacet
facet normal -0.704062592219637 -0.0926915987235713 -0.704062592219636
  outer loop
    vertex -5.07111058801761 -1.35879998678823 0.0
    vertex -6.0 7.04991620636974e-016 0.75
    vertex -5.25 6.42939569552361e-016 0.0
  endloop
endfacet
facet normal -0.704062592219637 0.0926915987235715 -0.704062592219636
  outer loop
    vertex -6.0 7.04991620636974e-016 0.75
    vertex -5.07111058801761 1.35879998678824 0.0
    vertex -5.25 6.42939569552361e-016 0.0
  endloop
endfacet
facet normal -0.704062592219637 0.0926915987235715 -0.704062592219636
  outer loop
    vertex -5.07111058801761 1.35879998678824 0.0
    vertex -6.0 7.04991620636974e-016 0.75
    vertex -5.79555495773441 1.55291427061513 0.75
  endloop
endfacet
facet normal -0.656081890078315 0.271758016897812 -0.704062592219636
  outer loop
    vertex -5.19615242270663 3.0 0.75
    vertex -5.07111058801761 1.35879998678824 0.0
    vertex -5.79555495773441 1.55291427061513 0.75
  endloop
endfacet
facet normal -0.656081890078315 0.271758016897812 -0.704062592219636
  outer loop
    vertex -5.07111058801761 1.35879998678824 0.0
    vertex -5.19615242270663 3.0 0.75
    vertex -4.5466333698683 2.625 0.0
  endloop
endfacet
facet normal -0.563390291354744 0.432304575321825 -0.704062592219637
  outer loop
    vertex -4.24264068711928 4.24264068711929 0.75
    vertex -4.5466333698683 2.625 0.0
    vertex -5.19615242270663 3.0 0.75
  endloop
endfacet
facet normal -0.563390291354744 0.432304575321825 -0.704062592219637
  outer loop
    vertex -4.5466333698683 2.625 0.0
    vertex -4.24264068711928 4.24264068711929 0.75
    vertex -3.71231060122937 3.71231060122937 0.0
  endloop
endfacet
facet normal -0.432304575321824 0.563390291354744 -0.704062592219637
  outer loop
    vertex -3.0 5.19615242270663 0.75
    vertex -3.71231060122937 3.71231060122937 0.0
    vertex -4.24264068711928 4.24264068711929 0.75
  endloop
endfacet
facet normal -0.432304575321824 0.563390291354744 -0.704062592219637
  outer loop
    vertex -3.71231060122937 3.71231060122937 0.0
    vertex -3.0 5.19615242270663 0.75
    vertex -2.625 4.5466333698683 0.0
  endloop
endfacet
facet normal -0.271758016897812 0.656081890078315 -0.704062592219637
  outer loop
    vertex -1.55291427061512 5.79555495773441 0.75
    vertex -2.625 4.5466333698683 0.0
    vertex -3.0 5.19615242270663 0.75
  endloop
endfacet
facet normal -0.271758016897812 0.656081890078315 -0.704062592219637
  outer loop
    vertex -2.625 4.5466333698683 0.0
    vertex -1.55291427061512 5.79555495773441 0.75
    vertex -1.35879998678823 5.07111058801761 0.0
  endloop
endfacet
facet normal -0.0926915987235711 0.704062592219637 -0.704062592219637
  outer loop
    vertex -1.55291427061512 5.79555495773441 0.75
    vertex 3.2146978477618e-016 5.25 0.0
    vertex -1.35879998678823 5.07111058801761 0.0
  endloop
endfacet
facet normal -0.0926915987235711 0.704062592219637 -0.704062592219637
  outer loop
    vertex 3.2146978477618e-016 5.25 0.0
    vertex -1.55291427061512 5.79555495773441 0.75
    vertex 3.74526798463393e-016 6.0 0.75
  endloop
endfacet
facet normal 0.0926915987235712 0.704062592219637 -0.704062592219636
  outer loop
    vertex 3.74526798463393e-016 6.0 0.75
    vertex 1.35879998678824 5.07111058801761 0.0
    vertex 3.2146978477618e-016 5.25 0.0
  endloop
endfacet
facet normal 0.0926915987235712 0.704062592219637 -0.704062592219636
  outer loop
    vertex 1.35879998678824 5.07111058801761 0.0
    vertex 3.74526798463393e-016 6.0 0.75
    vertex 1.55291427061513 5.79555495773441 0.75
  endloop
endfacet
facet normal 0.271758016897812 0.656081890078315 -0.704062592219637
  outer loop
    vertex 1.55291427061513 5.79555495773441 0.75
    vertex 2.625 4.5466333698683 0.0
    vertex 1.35879998678824 5.07111058801761 0.0
  endloop
endfacet
facet normal 0.271758016897812 0.656081890078315 -0.704062592219637
  outer loop
    vertex 2.625 4.5466333698683 0.0
    vertex 1.55291427061513 5.79555495773441 0.75
    vertex 3.0 5.19615242270663 0.75
  endloop
endfacet
facet normal -0.99144486137381 -0.130526192220051 -4.86677697254507e-032
  outer loop
    vertex -6.0 7.34788079488412e-016 3.0
    vertex -5.79555495773441 -1.55291427061512 0.75
    vertex -5.79555495773441 -1.55291427061512 3.0
  endloop
endfacet
facet normal -0.99144486137381 -0.130526192220051 -4.86677697254507e-032
  outer loop
    vertex -5.79555495773441 -1.55291427061512 0.75
    vertex -6.0 7.34788079488412e-016 3.0
    vertex -6.0 7.04991620636974e-016 0.75
  endloop
endfacet
facet normal -0.923879532511287 -0.38268343236509 -3.17251424750889e-017
  outer loop
    vertex -5.79555495773441 -1.55291427061512 3.0
    vertex -5.19615242270663 -3.0 0.75
    vertex -5.19615242270663 -3.0 3.0
  endloop
endfacet
facet normal -0.923879532511287 -0.38268343236509 -3.17251424750889e-017
  outer loop
    vertex -5.19615242270663 -3.0 0.75
    vertex -5.79555495773441 -1.55291427061512 3.0
    vertex -5.79555495773441 -1.55291427061512 0.75
  endloop
endfacet
facet normal -0.793353340291236 -0.60876142900872 -3.36449424167306e-017
  outer loop
    vertex -5.19615242270663 -3.0 3.0
    vertex -4.24264068711929 -4.24264068711928 0.75
    vertex -4.24264068711929 -4.24264068711928 3.0
  endloop
endfacet
facet normal -0.793353340291236 -0.60876142900872 -3.36449424167306e-017
  outer loop
    vertex -4.24264068711929 -4.24264068711928 0.75
    vertex -5.19615242270663 -3.0 3.0
    vertex -5.19615242270663 -3.0 0.75
  endloop
endfacet
facet normal -0.608761429008721 -0.793353340291235 1.49413558932968e-032
  outer loop
    vertex -3.0 -5.19615242270663 3.0
    vertex -4.24264068711929 -4.24264068711928 0.75
    vertex -3.0 -5.19615242270663 0.75
  endloop
endfacet
facet normal -0.608761429008721 -0.793353340291235 1.49413558932968e-032
  outer loop
    vertex -4.24264068711929 -4.24264068711928 0.75
    vertex -3.0 -5.19615242270663 3.0
    vertex -4.24264068711929 -4.24264068711928 3.0
  endloop
endfacet
facet normal -0.38268343236509 -0.923879532511287 2.19016404690003e-018
  outer loop
    vertex -1.55291427061513 -5.79555495773441 3.0
    vertex -3.0 -5.19615242270663 0.75
    vertex -1.55291427061513 -5.79555495773441 0.75
  endloop
endfacet
facet normal -0.38268343236509 -0.923879532511287 2.19016404690003e-018
  outer loop
    vertex -3.0 -5.19615242270663 0.75
    vertex -1.55291427061513 -5.79555495773441 3.0
    vertex -3.0 -5.19615242270663 3.0
  endloop
endfacet
facet normal -0.130526192220052 -0.99144486137381 -3.60695176456045e-018
  outer loop
    vertex -1.10218211923262e-015 -6.0 3.0
    vertex -1.55291427061513 -5.79555495773441 0.75
    vertex -1.10154940724527e-015 -6.0 0.75
  endloop
endfacet
facet normal -0.130526192220052 -0.99144486137381 -3.60695176456045e-018
  outer loop
    vertex -1.55291427061513 -5.79555495773441 0.75
    vertex -1.10218211923262e-015 -6.0 3.0
    vertex -1.55291427061513 -5.79555495773441 3.0
  endloop
endfacet
facet normal 0.130526192220051 -0.99144486137381 7.21390352912094e-018
  outer loop
    vertex 1.55291427061512 -5.79555495773441 3.0
    vertex -1.10154940724527e-015 -6.0 0.75
    vertex 1.55291427061512 -5.79555495773441 0.75
  endloop
endfacet
facet normal 0.130526192220051 -0.99144486137381 7.21390352912094e-018
  outer loop
    vertex -1.10154940724527e-015 -6.0 0.75
    vertex 1.55291427061512 -5.79555495773441 3.0
    vertex -1.10218211923262e-015 -6.0 3.0
  endloop
endfacet
facet normal 0.382683432365089 -0.923879532511287 2.11500949833926e-017
  outer loop
    vertex 3.0 -5.19615242270663 3.0
    vertex 1.55291427061512 -5.79555495773441 0.75
    vertex 3.0 -5.19615242270663 0.75
  endloop
endfacet
facet normal 0.382683432365089 -0.923879532511287 2.11500949833926e-017
  outer loop
    vertex 1.55291427061512 -5.79555495773441 0.75
    vertex 3.0 -5.19615242270663 3.0
    vertex 1.55291427061512 -5.79555495773441 3.0
  endloop
endfacet
facet normal 0.60876142900872 -0.793353340291236 -1.68224712083653e-017
  outer loop
    vertex 4.24264068711928 -4.24264068711929 3.0
    vertex 3.0 -5.19615242270663 0.75
    vertex 4.24264068711928 -4.24264068711929 0.75
  endloop
endfacet
facet normal 0.60876142900872 -0.793353340291236 -1.68224712083653e-017
  outer loop
    vertex 3.0 -5.19615242270663 0.75
    vertex 4.24264068711928 -4.24264068711929 3.0
    vertex 3.0 -5.19615242270663 3.0
  endloop
endfacet
facet normal 0.793353340291235 -0.608761429008721 1.68224712083653e-017
  outer loop
    vertex 5.19615242270663 -3.0 0.75
    vertex 4.24264068711928 -4.24264068711929 3.0
    vertex 4.24264068711928 -4.24264068711929 0.75
  endloop
endfacet
facet normal 0.793353340291235 -0.608761429008721 1.68224712083653e-017
  outer loop
    vertex 4.24264068711928 -4.24264068711929 3.0
    vertex 5.19615242270663 -3.0 0.75
    vertex 5.19615242270663 -3.0 3.0
  endloop
endfacet
facet normal 0.923879532511287 -0.382683432365091 -1.27652115385964e-017
  outer loop
    vertex 5.79555495773441 -1.55291427061513 0.75
    vertex 5.19615242270663 -3.0 3.0
    vertex 5.19615242270663 -3.0 0.75
  endloop
endfacet
facet normal 0.923879532511287 -0.382683432365091 -1.27652115385964e-017
  outer loop
    vertex 5.19615242270663 -3.0 3.0
    vertex 5.79555495773441 -1.55291427061513 0.75
    vertex 5.79555495773441 -1.55291427061513 3.0
  endloop
endfacet
facet normal 0.99144486137381 -0.130526192220052 -4.86677697254507e-032
  outer loop
    vertex 6.0 0.0 0.75
    vertex 5.79555495773441 -1.55291427061513 3.0
    vertex 5.79555495773441 -1.55291427061513 0.75
  endloop
endfacet
facet normal 0.99144486137381 -0.130526192220052 -4.86677697254507e-032
  outer loop
    vertex 5.79555495773441 -1.55291427061513 3.0
    vertex 6.0 0.0 0.75
    vertex 6.0 0.0 3.0
  endloop
endfacet
facet normal 0.99144486137381 0.130526192220051 4.86677697254507e-032
  outer loop
    vertex 5.79555495773441 1.55291427061512 0.75
    vertex 6.0 0.0 3.0
    vertex 6.0 0.0 0.75
  endloop
endfacet
facet normal 0.99144486137381 0.130526192220051 4.86677697254507e-032
  outer loop
    vertex 6.0 0.0 3.0
    vertex 5.79555495773441 1.55291427061512 0.75
    vertex 5.79555495773441 1.55291427061512 3.0
  endloop
endfacet
facet normal 0.923879532511287 0.38268343236509 -4.44903540136853e-017
  outer loop
    vertex 5.19615242270663 3.0 0.75
    vertex 5.79555495773441 1.55291427061512 3.0
    vertex 5.79555495773441 1.55291427061512 0.75
  endloop
endfacet
facet normal 0.923879532511287 0.38268343236509 -4.44903540136853e-017
  outer loop
    vertex 5.79555495773441 1.55291427061512 3.0
    vertex 5.19615242270663 3.0 0.75
    vertex 5.19615242270663 3.0 3.0
  endloop
endfacet
facet normal 0.793353340291235 0.60876142900872 -3.36449424167306e-017
  outer loop
    vertex 4.24264068711928 4.24264068711928 0.75
    vertex 5.19615242270663 3.0 3.0
    vertex 5.19615242270663 3.0 0.75
  endloop
endfacet
facet normal 0.793353340291235 0.60876142900872 -3.36449424167306e-017
  outer loop
    vertex 5.19615242270663 3.0 3.0
    vertex 4.24264068711928 4.24264068711928 0.75
    vertex 4.24264068711928 4.24264068711928 3.0
  endloop
endfacet
facet normal 0.608761429008721 0.793353340291235 1.49413558932968e-032
  outer loop
    vertex 3.0 5.19615242270663 3.0
    vertex 4.24264068711928 4.24264068711928 0.75
    vertex 3.0 5.19615242270663 0.75
  endloop
endfacet
facet normal 0.608761429008721 0.793353340291235 1.49413558932968e-032
  outer loop
    vertex 4.24264068711928 4.24264068711928 0.75
    vertex 3.0 5.19615242270663 3.0
    vertex 4.24264068711928 4.24264068711928 3.0
  endloop
endfacet
facet normal 0.38268343236509 0.923879532511287 -1.27652115385964e-017
  outer loop
    vertex 1.55291427061513 5.79555495773441 3.0
    vertex 3.0 5.19615242270663 0.75
    vertex 1.55291427061513 5.79555495773441 0.75
  endloop
endfacet
facet normal 0.38268343236509 0.923879532511287 -1.27652115385964e-017
  outer loop
    vertex 3.0 5.19615242270663 0.75
    vertex 1.55291427061513 5.79555495773441 3.0
    vertex 3.0 5.19615242270663 3.0
  endloop
endfacet
facet normal 0.130526192220051 0.99144486137381 -1.54111042687847e-016
  outer loop
    vertex 3.67394039744206e-016 6.0 3.0
    vertex 1.55291427061513 5.79555495773441 0.75
    vertex 3.74526798463393e-016 6.0 0.75
  endloop
endfacet
facet normal 0.130526192220051 0.99144486137381 -1.54111042687847e-016
  outer loop
    vertex 1.55291427061513 5.79555495773441 0.75
    vertex 3.67394039744206e-016 6.0 3.0
    vertex 1.55291427061513 5.79555495773441 3.0
  endloop
endfacet
facet normal -0.130526192220051 0.99144486137381 -1.54111042687847e-016
  outer loop
    vertex -1.55291427061512 5.79555495773441 3.0
    vertex 3.74526798463393e-016 6.0 0.75
    vertex -1.55291427061512 5.79555495773441 0.75
  endloop
endfacet
facet normal -0.130526192220051 0.99144486137381 -1.54111042687847e-016
  outer loop
    vertex 3.74526798463393e-016 6.0 0.75
    vertex -1.55291427061512 5.79555495773441 3.0
    vertex 3.67394039744206e-016 6.0 3.0
  endloop
endfacet
facet normal -0.38268343236509 0.923879532511287 1.27652115385964e-017
  outer loop
    vertex -3.0 5.19615242270663 3.0
    vertex -1.55291427061512 5.79555495773441 0.75
    vertex -3.0 5.19615242270663 0.75
  endloop
endfacet
facet normal -0.38268343236509 0.923879532511287 1.27652115385964e-017
  outer loop
    vertex -1.55291427061512 5.79555495773441 0.75
    vertex -3.0 5.19615242270663 3.0
    vertex -1.55291427061512 5.79555495773441 3.0
  endloop
endfacet
facet normal -0.60876142900872 0.793353340291236 1.49413558932967e-032
  outer loop
    vertex -4.24264068711928 4.24264068711929 3.0
    vertex -3.0 5.19615242270663 0.75
    vertex -4.24264068711928 4.24264068711929 0.75
  endloop
endfacet
facet normal -0.60876142900872 0.793353340291236 1.49413558932967e-032
  outer loop
    vertex -3.0 5.19615242270663 0.75
    vertex -4.24264068711928 4.24264068711929 3.0
    vertex -3.0 5.19615242270663 3.0
  endloop
endfacet
facet normal -0.793353340291235 0.608761429008721 1.68224712083654e-017
  outer loop
    vertex -4.24264068711928 4.24264068711929 3.0
    vertex -5.19615242270663 3.0 0.75
    vertex -5.19615242270663 3.0 3.0
  endloop
endfacet
facet normal -0.793353340291235 0.608761429008721 1.68224712083654e-017
  outer loop
    vertex -5.19615242270663 3.0 0.75
    vertex -4.24264068711928 4.24264068711929 3.0
    vertex -4.24264068711928 4.24264068711929 0.75
  endloop
endfacet
facet normal -0.923879532511287 0.38268343236509 -4.44903540136853e-017
  outer loop
    vertex -5.79555495773441 1.55291427061513 3.0
    vertex -5.19615242270663 3.0 0.75
    vertex -5.79555495773441 1.55291427061513 0.75
  endloop
endfacet
facet normal -0.923879532511287 0.38268343236509 -4.44903540136853e-017
  outer loop
    vertex -5.19615242270663 3.0 0.75
    vertex -5.79555495773441 1.55291427061513 3.0
    vertex -5.19615242270663 3.0 3.0
  endloop
endfacet
facet normal -0.99144486137381 0.130526192220052 -1.08208552936815e-017
  outer loop
    vertex -6.0 7.34788079488412e-016 3.0
    vertex -5.79555495773441 1.55291427061513 0.75
    vertex -6.0 7.04991620636974e-016 0.75
  endloop
endfacet
facet normal -0.99144486137381 0.130526192220052 -1.08208552936815e-017
  outer loop
    vertex -5.79555495773441 1.55291427061513 0.75
    vertex -6.0 7.34788079488412e-016 3.0
    vertex -5.79555495773441 1.55291427061513 3.0
  endloop
endfacet
endsolid pencap2
