solid screencover
facet normal 0.0 0.0 -1.0
  outer loop
    vertex 35.5 24.0 0.0
    vertex -6.5 14.5 0.0
    vertex -6.5 24.0 0.0
  endloop
endfacet
facet normal 0.0 0.0 -1.0
  outer loop
    vertex -6.5 14.5 0.0
    vertex 35.5 24.0 0.0
    vertex 0.999999999999999 16.0 0.0
  endloop
endfacet
facet normal 0.0 0.0 -1.0
  outer loop
    vertex -6.5 14.5 0.0
    vertex 0.999999999999999 16.0 0.0
    vertex -6.5 9.5 0.0
  endloop
endfacet
facet normal 0.0 0.0 -1.0
  outer loop
    vertex -6.5 9.5 0.0
    vertex 0.999999999999999 16.0 0.0
    vertex -6.5 0.0 0.0
  endloop
endfacet
facet normal 0.0 0.0 -1.0
  outer loop
    vertex 0.999999999999999 16.0 0.0
    vertex 35.5 24.0 0.0
    vertex 28.0 16.0 0.0
  endloop
endfacet
facet normal 0.0 0.0 -1.0
  outer loop
    vertex 28.0 16.0 0.0
    vertex 35.5 24.0 0.0
    vertex 28.0 6.0 0.0
  endloop
endfacet
facet normal 0.0 0.0 -1.0
  outer loop
    vertex -6.5 0.0 0.0
    vertex 0.999999999999999 6.0 0.0
    vertex 35.5 0.0 0.0
  endloop
endfacet
facet normal 0.0 0.0 -1.0
  outer loop
    vertex 0.999999999999999 6.0 0.0
    vertex -6.5 0.0 0.0
    vertex 0.999999999999999 16.0 0.0
  endloop
endfacet
facet normal 0.0 0.0 -1.0
  outer loop
    vertex 35.5 0.0 0.0
    vertex 0.999999999999999 6.0 0.0
    vertex 28.0 6.0 0.0
  endloop
endfacet
facet normal 0.0 0.0 -1.0
  outer loop
    vertex 35.5 0.0 0.0
    vertex 28.0 6.0 0.0
    vertex 35.5 9.5 0.0
  endloop
endfacet
facet normal 0.0 0.0 -1.0
  outer loop
    vertex 35.5 9.5 0.0
    vertex 28.0 6.0 0.0
    vertex 35.5 14.5 0.0
  endloop
endfacet
facet normal 0.0 0.0 -1.0
  outer loop
    vertex 35.5 14.5 0.0
    vertex 28.0 6.0 0.0
    vertex 35.5 24.0 0.0
  endloop
endfacet
facet normal 5.15317118651274e-016 1.0 -2.37180153894048e-016
  outer loop
    vertex -6.5 24.0 0.0
    vertex 6.0 24.0 1.0
    vertex 35.5 24.0 0.0
  endloop
endfacet
facet normal 5.15317118651274e-016 1.0 -2.37180153894048e-016
  outer loop
    vertex 6.0 24.0 1.0
    vertex -6.5 24.0 0.0
    vertex -10.5 24.0 3.0
  endloop
endfacet
facet normal 5.15317118651274e-016 1.0 -2.37180153894048e-016
  outer loop
    vertex 6.0 24.0 1.0
    vertex -10.5 24.0 3.0
    vertex 0.999999999999999 24.0 2.0
  endloop
endfacet
facet normal 5.15317118651274e-016 1.0 -2.37180153894048e-016
  outer loop
    vertex 0.999999999999999 24.0 2.0
    vertex -10.5 24.0 3.0
    vertex 0.999999999999999 24.0 4.0
  endloop
endfacet
facet normal 5.15317118651274e-016 1.0 -2.37180153894048e-016
  outer loop
    vertex 0.999999999999999 24.0 4.0
    vertex -10.5 24.0 3.0
    vertex -10.5 24.0 4.0
  endloop
endfacet
facet normal 5.15317118651274e-016 1.0 -2.37180153894048e-016
  outer loop
    vertex 6.0 24.0 2.0
    vertex 6.0 24.0 1.0
    vertex 0.999999999999999 24.0 2.0
  endloop
endfacet
facet normal 5.15317118651274e-016 1.0 -2.37180153894048e-016
  outer loop
    vertex 35.5 24.0 0.0
    vertex 29.5 24.0 1.0
    vertex 39.5 24.0 3.0
  endloop
endfacet
facet normal 5.15317118651274e-016 1.0 -2.37180153894048e-016
  outer loop
    vertex 29.5 24.0 1.0
    vertex 35.5 24.0 0.0
    vertex 6.0 24.0 1.0
  endloop
endfacet
facet normal 5.15317118651274e-016 1.0 -2.37180153894048e-016
  outer loop
    vertex 39.5 24.0 3.0
    vertex 29.5 24.0 1.0
    vertex 34.5 24.0 2.0
  endloop
endfacet
facet normal 5.15317118651274e-016 1.0 -2.37180153894048e-016
  outer loop
    vertex 34.5 24.0 2.0
    vertex 29.5 24.0 1.0
    vertex 29.5 24.0 2.0
  endloop
endfacet
facet normal 5.15317118651274e-016 1.0 -2.37180153894048e-016
  outer loop
    vertex 39.5 24.0 3.0
    vertex 34.5 24.0 2.0
    vertex 34.5 24.0 4.0
  endloop
endfacet
facet normal 5.15317118651274e-016 1.0 -2.37180153894048e-016
  outer loop
    vertex 39.5 24.0 3.0
    vertex 34.5 24.0 4.0
    vertex 39.5 24.0 4.0
  endloop
endfacet
facet normal 3.42349908261482e-017 -1.0 3.41179615486466e-016
  outer loop
    vertex 35.5 0.0 0.0
    vertex 29.5 0.0 1.0
    vertex -6.5 0.0 0.0
  endloop
endfacet
facet normal 3.42349908261482e-017 -1.0 3.41179615486466e-016
  outer loop
    vertex 29.5 0.0 1.0
    vertex 35.5 0.0 0.0
    vertex 39.5 3.75995531006387e-015 3.0
  endloop
endfacet
facet normal 3.42349908261482e-017 -1.0 3.41179615486466e-016
  outer loop
    vertex 29.5 0.0 1.0
    vertex 39.5 3.75995531006387e-015 3.0
    vertex 34.5 0.0 2.0
  endloop
endfacet
facet normal 3.42349908261482e-017 -1.0 3.41179615486466e-016
  outer loop
    vertex 34.5 0.0 2.0
    vertex 39.5 3.75995531006387e-015 3.0
    vertex 34.5 0.0 4.0
  endloop
endfacet
facet normal 3.42349908261482e-017 -1.0 3.41179615486466e-016
  outer loop
    vertex 34.5 0.0 4.0
    vertex 39.5 3.75995531006387e-015 3.0
    vertex 39.5 3.75995531006387e-015 4.0
  endloop
endfacet
facet normal 3.42349908261482e-017 -1.0 3.41179615486466e-016
  outer loop
    vertex 29.5 0.0 2.0
    vertex 29.5 0.0 1.0
    vertex 34.5 0.0 2.0
  endloop
endfacet
facet normal 3.42349908261482e-017 -1.0 3.41179615486466e-016
  outer loop
    vertex -6.5 0.0 0.0
    vertex 6.0 0.0 1.0
    vertex -10.5 0.0 3.0
  endloop
endfacet
facet normal 3.42349908261482e-017 -1.0 3.41179615486466e-016
  outer loop
    vertex 6.0 0.0 1.0
    vertex -6.5 0.0 0.0
    vertex 29.5 0.0 1.0
  endloop
endfacet
facet normal 3.42349908261482e-017 -1.0 3.41179615486466e-016
  outer loop
    vertex -10.5 0.0 3.0
    vertex 6.0 0.0 1.0
    vertex 0.999999999999999 0.0 2.0
  endloop
endfacet
facet normal 3.42349908261482e-017 -1.0 3.41179615486466e-016
  outer loop
    vertex 0.999999999999999 0.0 2.0
    vertex 6.0 0.0 1.0
    vertex 6.0 0.0 2.0
  endloop
endfacet
facet normal 3.42349908261482e-017 -1.0 3.41179615486466e-016
  outer loop
    vertex -10.5 0.0 3.0
    vertex 0.999999999999999 0.0 2.0
    vertex 0.999999999999999 0.0 4.0
  endloop
endfacet
facet normal 3.42349908261482e-017 -1.0 3.41179615486466e-016
  outer loop
    vertex -10.5 0.0 3.0
    vertex 0.999999999999999 0.0 4.0
    vertex -10.5 0.0 4.0
  endloop
endfacet
facet normal 0.0 1.0 0.0
  outer loop
    vertex 0.999999999999999 6.0 2.0
    vertex 28.0 6.0 0.0
    vertex 0.999999999999999 6.0 0.0
  endloop
endfacet
facet normal 0.0 1.0 0.0
  outer loop
    vertex 28.0 6.0 0.0
    vertex 0.999999999999999 6.0 2.0
    vertex 28.0 6.0 1.0
  endloop
endfacet
facet normal 0.0 1.0 0.0
  outer loop
    vertex 28.0 6.0 1.0
    vertex 0.999999999999999 6.0 2.0
    vertex 28.0 6.0 2.0
  endloop
endfacet
facet normal -1.0 0.0 0.0
  outer loop
    vertex 28.0 16.0 1.0
    vertex 28.0 6.0 0.0
    vertex 28.0 6.0 1.0
  endloop
endfacet
facet normal -1.0 0.0 0.0
  outer loop
    vertex 28.0 6.0 0.0
    vertex 28.0 16.0 1.0
    vertex 28.0 16.0 0.0
  endloop
endfacet
facet normal 0.0 -1.0 0.0
  outer loop
    vertex 28.0 16.0 1.0
    vertex 0.999999999999999 16.0 0.0
    vertex 28.0 16.0 0.0
  endloop
endfacet
facet normal 0.0 -1.0 0.0
  outer loop
    vertex 0.999999999999999 16.0 0.0
    vertex 28.0 16.0 1.0
    vertex 0.999999999999999 16.0 1.0
  endloop
endfacet
facet normal 0.0 0.0 1.0
  outer loop
    vertex -10.5 0.0 4.0
    vertex -9.6 12.0 4.0
    vertex -10.5 24.0 4.0
  endloop
endfacet
facet normal 0.0 0.0 1.0
  outer loop
    vertex -9.6 12.0 4.0
    vertex -10.5 0.0 4.0
    vertex -9.56251840891797 11.7152990503872 4.0
  endloop
endfacet
facet normal 0.0 0.0 1.0
  outer loop
    vertex -9.56251840891797 11.7152990503872 4.0
    vertex -10.5 0.0 4.0
    vertex -9.45262794416288 11.45 4.0
  endloop
endfacet
facet normal 0.0 0.0 1.0
  outer loop
    vertex -9.45262794416288 11.45 4.0
    vertex -10.5 0.0 4.0
    vertex -9.2778174593052 11.2221825406948 4.0
  endloop
endfacet
facet normal 0.0 0.0 1.0
  outer loop
    vertex -9.2778174593052 11.2221825406948 4.0
    vertex -10.5 0.0 4.0
    vertex 0.999999999999999 0.0 4.0
  endloop
endfacet
facet normal 0.0 0.0 1.0
  outer loop
    vertex -9.2778174593052 11.2221825406948 4.0
    vertex 0.999999999999999 0.0 4.0
    vertex -9.05 11.0473720558371 4.0
  endloop
endfacet
facet normal 0.0 0.0 1.0
  outer loop
    vertex -9.05 11.0473720558371 4.0
    vertex 0.999999999999999 0.0 4.0
    vertex -8.78470094961277 10.937481591082 4.0
  endloop
endfacet
facet normal 0.0 0.0 1.0
  outer loop
    vertex -8.78470094961277 10.937481591082 4.0
    vertex 0.999999999999999 0.0 4.0
    vertex -8.5 10.9 4.0
  endloop
endfacet
facet normal 0.0 0.0 1.0
  outer loop
    vertex -8.5 10.9 4.0
    vertex 0.999999999999999 0.0 4.0
    vertex -8.21529905038723 10.937481591082 4.0
  endloop
endfacet
facet normal 0.0 0.0 1.0
  outer loop
    vertex -8.21529905038723 10.937481591082 4.0
    vertex 0.999999999999999 0.0 4.0
    vertex -7.95 11.0473720558371 4.0
  endloop
endfacet
facet normal 0.0 0.0 1.0
  outer loop
    vertex -7.95 11.0473720558371 4.0
    vertex 0.999999999999999 0.0 4.0
    vertex -7.7221825406948 11.2221825406948 4.0
  endloop
endfacet
facet normal 0.0 0.0 1.0
  outer loop
    vertex -7.7221825406948 11.2221825406948 4.0
    vertex 0.999999999999999 0.0 4.0
    vertex -7.54737205583712 11.45 4.0
  endloop
endfacet
facet normal 0.0 0.0 1.0
  outer loop
    vertex -7.54737205583712 11.45 4.0
    vertex 0.999999999999999 0.0 4.0
    vertex -7.43748159108202 11.7152990503872 4.0
  endloop
endfacet
facet normal 0.0 0.0 1.0
  outer loop
    vertex -7.43748159108202 11.7152990503872 4.0
    vertex 0.999999999999999 0.0 4.0
    vertex -7.4 12.0 4.0
  endloop
endfacet
facet normal 0.0 0.0 1.0
  outer loop
    vertex -7.4 12.0 4.0
    vertex 0.999999999999999 0.0 4.0
    vertex 0.999999999999999 24.0 4.0
  endloop
endfacet
facet normal 0.0 0.0 1.0
  outer loop
    vertex -10.5 24.0 4.0
    vertex -9.2778174593052 12.7778174593052 4.0
    vertex 0.999999999999999 24.0 4.0
  endloop
endfacet
facet normal 0.0 0.0 1.0
  outer loop
    vertex -9.2778174593052 12.7778174593052 4.0
    vertex -10.5 24.0 4.0
    vertex -9.45262794416288 12.55 4.0
  endloop
endfacet
facet normal 0.0 0.0 1.0
  outer loop
    vertex -9.45262794416288 12.55 4.0
    vertex -10.5 24.0 4.0
    vertex -9.56251840891797 12.2847009496128 4.0
  endloop
endfacet
facet normal 0.0 0.0 1.0
  outer loop
    vertex -9.56251840891797 12.2847009496128 4.0
    vertex -10.5 24.0 4.0
    vertex -9.6 12.0 4.0
  endloop
endfacet
facet normal 0.0 0.0 1.0
  outer loop
    vertex 0.999999999999999 24.0 4.0
    vertex -9.2778174593052 12.7778174593052 4.0
    vertex -9.05 12.9526279441629 4.0
  endloop
endfacet
facet normal 0.0 0.0 1.0
  outer loop
    vertex 0.999999999999999 24.0 4.0
    vertex -9.05 12.9526279441629 4.0
    vertex -8.78470094961277 13.062518408918 4.0
  endloop
endfacet
facet normal 0.0 0.0 1.0
  outer loop
    vertex 0.999999999999999 24.0 4.0
    vertex -8.78470094961277 13.062518408918 4.0
    vertex -8.5 13.1 4.0
  endloop
endfacet
facet normal 0.0 0.0 1.0
  outer loop
    vertex 0.999999999999999 24.0 4.0
    vertex -8.5 13.1 4.0
    vertex -8.21529905038723 13.062518408918 4.0
  endloop
endfacet
facet normal 0.0 0.0 1.0
  outer loop
    vertex 0.999999999999999 24.0 4.0
    vertex -8.21529905038723 13.062518408918 4.0
    vertex -7.95 12.9526279441629 4.0
  endloop
endfacet
facet normal 0.0 0.0 1.0
  outer loop
    vertex 0.999999999999999 24.0 4.0
    vertex -7.95 12.9526279441629 4.0
    vertex -7.72218254069479 12.7778174593052 4.0
  endloop
endfacet
facet normal 0.0 0.0 1.0
  outer loop
    vertex 0.999999999999999 24.0 4.0
    vertex -7.72218254069479 12.7778174593052 4.0
    vertex -7.54737205583712 12.55 4.0
  endloop
endfacet
facet normal 0.0 0.0 1.0
  outer loop
    vertex 0.999999999999999 24.0 4.0
    vertex -7.54737205583712 12.55 4.0
    vertex -7.43748159108202 12.2847009496128 4.0
  endloop
endfacet
facet normal 0.0 0.0 1.0
  outer loop
    vertex 0.999999999999999 24.0 4.0
    vertex -7.43748159108202 12.2847009496128 4.0
    vertex -7.4 12.0 4.0
  endloop
endfacet
facet normal 1.0 2.01296926109121e-017 3.94493658227264e-017
  outer loop
    vertex 0.999999999999999 16.0 0.0
    vertex 0.999999999999999 6.0 2.0
    vertex 0.999999999999999 6.0 0.0
  endloop
endfacet
facet normal 1.0 2.01296926109121e-017 3.94493658227264e-017
  outer loop
    vertex 0.999999999999999 6.0 2.0
    vertex 0.999999999999999 0.0 4.0
    vertex 0.999999999999999 0.0 2.0
  endloop
endfacet
facet normal 1.0 2.01296926109121e-017 3.94493658227264e-017
  outer loop
    vertex 0.999999999999999 0.0 4.0
    vertex 0.999999999999999 6.0 2.0
    vertex 0.999999999999999 24.0 4.0
  endloop
endfacet
facet normal 1.0 2.01296926109121e-017 3.94493658227264e-017
  outer loop
    vertex 0.999999999999999 24.0 4.0
    vertex 0.999999999999999 6.0 2.0
    vertex 0.999999999999997 18.0 2.0
  endloop
endfacet
facet normal 1.0 2.01296926109121e-017 3.94493658227264e-017
  outer loop
    vertex 0.999999999999997 18.0 2.0
    vertex 0.999999999999999 6.0 2.0
    vertex 0.999999999999999 16.0 1.0
  endloop
endfacet
facet normal 1.0 2.01296926109121e-017 3.94493658227264e-017
  outer loop
    vertex 0.999999999999999 16.0 1.0
    vertex 0.999999999999999 6.0 2.0
    vertex 0.999999999999999 16.0 0.0
  endloop
endfacet
facet normal 1.0 2.01296926109121e-017 3.94493658227264e-017
  outer loop
    vertex 0.999999999999997 18.0 2.0
    vertex 0.999999999999999 16.0 1.0
    vertex 0.999999999999997 18.0 1.0
  endloop
endfacet
facet normal 1.0 2.01296926109121e-017 3.94493658227264e-017
  outer loop
    vertex 0.999999999999999 24.0 4.0
    vertex 0.999999999999997 18.0 2.0
    vertex 0.999999999999999 24.0 2.0
  endloop
endfacet
facet normal 0.0 0.0 1.0
  outer loop
    vertex 29.5 19.0 1.0
    vertex 6.0 24.0 1.0
    vertex 6.0 19.0 1.0
  endloop
endfacet
facet normal 0.0 0.0 1.0
  outer loop
    vertex 6.0 24.0 1.0
    vertex 29.5 19.0 1.0
    vertex 29.5 24.0 1.0
  endloop
endfacet
facet normal 0.0 0.0 1.0
  outer loop
    vertex 34.5 0.0 4.0
    vertex 36.437481591082 11.7152990503872 4.0
    vertex 34.5 24.0 4.0
  endloop
endfacet
facet normal 0.0 0.0 1.0
  outer loop
    vertex 36.437481591082 11.7152990503872 4.0
    vertex 34.5 0.0 4.0
    vertex 39.5 3.75995531006387e-015 4.0
  endloop
endfacet
facet normal 0.0 0.0 1.0
  outer loop
    vertex 34.5 24.0 4.0
    vertex 36.437481591082 11.7152990503872 4.0
    vertex 36.4 12.0 4.0
  endloop
endfacet
facet normal 0.0 0.0 1.0
  outer loop
    vertex 36.437481591082 11.7152990503872 4.0
    vertex 39.5 3.75995531006387e-015 4.0
    vertex 36.5473720558371 11.45 4.0
  endloop
endfacet
facet normal 0.0 0.0 1.0
  outer loop
    vertex 36.5473720558371 11.45 4.0
    vertex 39.5 3.75995531006387e-015 4.0
    vertex 36.7221825406948 11.2221825406948 4.0
  endloop
endfacet
facet normal 0.0 0.0 1.0
  outer loop
    vertex 36.7221825406948 11.2221825406948 4.0
    vertex 39.5 3.75995531006387e-015 4.0
    vertex 36.95 11.0473720558371 4.0
  endloop
endfacet
facet normal 0.0 0.0 1.0
  outer loop
    vertex 36.95 11.0473720558371 4.0
    vertex 39.5 3.75995531006387e-015 4.0
    vertex 37.2152990503872 10.937481591082 4.0
  endloop
endfacet
facet normal 0.0 0.0 1.0
  outer loop
    vertex 37.2152990503872 10.937481591082 4.0
    vertex 39.5 3.75995531006387e-015 4.0
    vertex 37.5 10.9 4.0
  endloop
endfacet
facet normal 0.0 0.0 1.0
  outer loop
    vertex 37.5 10.9 4.0
    vertex 39.5 3.75995531006387e-015 4.0
    vertex 37.7847009496128 10.937481591082 4.0
  endloop
endfacet
facet normal 0.0 0.0 1.0
  outer loop
    vertex 37.7847009496128 10.937481591082 4.0
    vertex 39.5 3.75995531006387e-015 4.0
    vertex 38.05 11.0473720558371 4.0
  endloop
endfacet
facet normal 0.0 0.0 1.0
  outer loop
    vertex 38.05 11.0473720558371 4.0
    vertex 39.5 3.75995531006387e-015 4.0
    vertex 38.2778174593052 11.2221825406948 4.0
  endloop
endfacet
facet normal 0.0 0.0 1.0
  outer loop
    vertex 38.2778174593052 11.2221825406948 4.0
    vertex 39.5 3.75995531006387e-015 4.0
    vertex 38.4526279441629 11.45 4.0
  endloop
endfacet
facet normal 0.0 0.0 1.0
  outer loop
    vertex 38.4526279441629 11.45 4.0
    vertex 39.5 3.75995531006387e-015 4.0
    vertex 38.562518408918 11.7152990503872 4.0
  endloop
endfacet
facet normal 0.0 0.0 1.0
  outer loop
    vertex 38.562518408918 11.7152990503872 4.0
    vertex 39.5 3.75995531006387e-015 4.0
    vertex 38.6 12.0 4.0
  endloop
endfacet
facet normal 0.0 0.0 1.0
  outer loop
    vertex 38.6 12.0 4.0
    vertex 39.5 3.75995531006387e-015 4.0
    vertex 39.5 24.0 4.0
  endloop
endfacet
facet normal 0.0 0.0 1.0
  outer loop
    vertex 34.5 24.0 4.0
    vertex 36.437481591082 12.2847009496128 4.0
    vertex 39.5 24.0 4.0
  endloop
endfacet
facet normal 0.0 0.0 1.0
  outer loop
    vertex 36.437481591082 12.2847009496128 4.0
    vertex 34.5 24.0 4.0
    vertex 36.4 12.0 4.0
  endloop
endfacet
facet normal 0.0 0.0 1.0
  outer loop
    vertex 39.5 24.0 4.0
    vertex 36.437481591082 12.2847009496128 4.0
    vertex 36.5473720558371 12.55 4.0
  endloop
endfacet
facet normal 0.0 0.0 1.0
  outer loop
    vertex 39.5 24.0 4.0
    vertex 36.5473720558371 12.55 4.0
    vertex 36.7221825406948 12.7778174593052 4.0
  endloop
endfacet
facet normal 0.0 0.0 1.0
  outer loop
    vertex 39.5 24.0 4.0
    vertex 36.7221825406948 12.7778174593052 4.0
    vertex 36.95 12.9526279441629 4.0
  endloop
endfacet
facet normal 0.0 0.0 1.0
  outer loop
    vertex 39.5 24.0 4.0
    vertex 36.95 12.9526279441629 4.0
    vertex 37.2152990503872 13.062518408918 4.0
  endloop
endfacet
facet normal 0.0 0.0 1.0
  outer loop
    vertex 39.5 24.0 4.0
    vertex 37.2152990503872 13.062518408918 4.0
    vertex 37.5 13.1 4.0
  endloop
endfacet
facet normal 0.0 0.0 1.0
  outer loop
    vertex 39.5 24.0 4.0
    vertex 37.5 13.1 4.0
    vertex 37.7847009496128 13.062518408918 4.0
  endloop
endfacet
facet normal 0.0 0.0 1.0
  outer loop
    vertex 39.5 24.0 4.0
    vertex 37.7847009496128 13.062518408918 4.0
    vertex 38.05 12.9526279441629 4.0
  endloop
endfacet
facet normal 0.0 0.0 1.0
  outer loop
    vertex 39.5 24.0 4.0
    vertex 38.05 12.9526279441629 4.0
    vertex 38.2778174593052 12.7778174593052 4.0
  endloop
endfacet
facet normal 0.0 0.0 1.0
  outer loop
    vertex 39.5 24.0 4.0
    vertex 38.2778174593052 12.7778174593052 4.0
    vertex 38.4526279441629 12.55 4.0
  endloop
endfacet
facet normal 0.0 0.0 1.0
  outer loop
    vertex 39.5 24.0 4.0
    vertex 38.4526279441629 12.55 4.0
    vertex 38.562518408918 12.2847009496128 4.0
  endloop
endfacet
facet normal 0.0 0.0 1.0
  outer loop
    vertex 39.5 24.0 4.0
    vertex 38.562518408918 12.2847009496128 4.0
    vertex 38.6 12.0 4.0
  endloop
endfacet
facet normal -1.0 0.0 0.0
  outer loop
    vertex 34.5 24.0 4.0
    vertex 34.5 0.0 2.0
    vertex 34.5 0.0 4.0
  endloop
endfacet
facet normal -1.0 0.0 0.0
  outer loop
    vertex 34.5 0.0 2.0
    vertex 34.5 24.0 4.0
    vertex 34.5 6.0 2.0
  endloop
endfacet
facet normal -1.0 0.0 0.0
  outer loop
    vertex 34.5 6.0 2.0
    vertex 34.5 24.0 4.0
    vertex 34.5 6.0 1.0
  endloop
endfacet
facet normal -1.0 0.0 0.0
  outer loop
    vertex 34.5 6.0 1.0
    vertex 34.5 24.0 4.0
    vertex 34.5 18.0 2.0
  endloop
endfacet
facet normal -1.0 0.0 0.0
  outer loop
    vertex 34.5 18.0 2.0
    vertex 34.5 24.0 4.0
    vertex 34.5 24.0 2.0
  endloop
endfacet
facet normal -1.0 0.0 0.0
  outer loop
    vertex 34.5 18.0 1.0
    vertex 34.5 6.0 1.0
    vertex 34.5 18.0 2.0
  endloop
endfacet
facet normal 0.0 0.0 1.0
  outer loop
    vertex 34.5 6.0 1.0
    vertex 28.0 16.0 1.0
    vertex 28.0 6.0 1.0
  endloop
endfacet
facet normal 0.0 0.0 1.0
  outer loop
    vertex 28.0 16.0 1.0
    vertex 34.5 6.0 1.0
    vertex 34.5 18.0 1.0
  endloop
endfacet
facet normal 0.0 0.0 1.0
  outer loop
    vertex 0.999999999999999 16.0 1.0
    vertex 34.5 18.0 1.0
    vertex 0.999999999999997 18.0 1.0
  endloop
endfacet
facet normal 0.0 0.0 1.0
  outer loop
    vertex 34.5 18.0 1.0
    vertex 0.999999999999999 16.0 1.0
    vertex 28.0 16.0 1.0
  endloop
endfacet
facet normal 0.0 0.0 1.0
  outer loop
    vertex 0.999999999999997 18.0 2.0
    vertex 6.0 19.0 2.0
    vertex 0.999999999999999 24.0 2.0
  endloop
endfacet
facet normal 0.0 0.0 1.0
  outer loop
    vertex 6.0 19.0 2.0
    vertex 0.999999999999997 18.0 2.0
    vertex 34.5 18.0 2.0
  endloop
endfacet
facet normal 0.0 0.0 1.0
  outer loop
    vertex 6.0 19.0 2.0
    vertex 34.5 18.0 2.0
    vertex 29.5 19.0 2.0
  endloop
endfacet
facet normal 0.0 0.0 1.0
  outer loop
    vertex 29.5 19.0 2.0
    vertex 34.5 18.0 2.0
    vertex 29.5 24.0 2.0
  endloop
endfacet
facet normal 0.0 0.0 1.0
  outer loop
    vertex 29.5 24.0 2.0
    vertex 34.5 18.0 2.0
    vertex 34.5 24.0 2.0
  endloop
endfacet
facet normal 0.0 0.0 1.0
  outer loop
    vertex 6.0 24.0 2.0
    vertex 0.999999999999999 24.0 2.0
    vertex 6.0 19.0 2.0
  endloop
endfacet
facet normal -6.73424831653229e-016 -1.0 0.0
  outer loop
    vertex 34.5 18.0 2.0
    vertex 0.999999999999997 18.0 1.0
    vertex 34.5 18.0 1.0
  endloop
endfacet
facet normal -6.73424831653229e-016 -1.0 0.0
  outer loop
    vertex 0.999999999999997 18.0 1.0
    vertex 34.5 18.0 2.0
    vertex 0.999999999999997 18.0 2.0
  endloop
endfacet
facet normal -1.0 1.12798659301916e-015 0.0
  outer loop
    vertex 29.5 24.0 2.0
    vertex 29.5 19.0 1.0
    vertex 29.5 19.0 2.0
  endloop
endfacet
facet normal -1.0 1.12798659301916e-015 0.0
  outer loop
    vertex 29.5 19.0 1.0
    vertex 29.5 24.0 2.0
    vertex 29.5 24.0 1.0
  endloop
endfacet
facet normal 5.99992868627213e-016 1.0 0.0
  outer loop
    vertex 6.0 19.0 2.0
    vertex 29.5 19.0 1.0
    vertex 6.0 19.0 1.0
  endloop
endfacet
facet normal 5.99992868627213e-016 1.0 0.0
  outer loop
    vertex 29.5 19.0 1.0
    vertex 6.0 19.0 2.0
    vertex 29.5 19.0 2.0
  endloop
endfacet
facet normal 1.0 -1.40998324127395e-016 0.0
  outer loop
    vertex 6.0 24.0 1.0
    vertex 6.0 19.0 2.0
    vertex 6.0 19.0 1.0
  endloop
endfacet
facet normal 1.0 -1.40998324127395e-016 0.0
  outer loop
    vertex 6.0 19.0 2.0
    vertex 6.0 24.0 1.0
    vertex 6.0 24.0 2.0
  endloop
endfacet
facet normal 0.0 0.0 1.0
  outer loop
    vertex 29.5 0.0 1.0
    vertex 6.0 5.00000000000003 1.0
    vertex 6.0 0.0 1.0
  endloop
endfacet
facet normal 0.0 0.0 1.0
  outer loop
    vertex 6.0 5.00000000000003 1.0
    vertex 29.5 0.0 1.0
    vertex 29.5 5.0 1.0
  endloop
endfacet
facet normal 0.0 0.0 1.0
  outer loop
    vertex 34.5 0.0 2.0
    vertex 29.5 5.0 2.0
    vertex 29.5 0.0 2.0
  endloop
endfacet
facet normal 0.0 0.0 1.0
  outer loop
    vertex 6.0 0.0 2.0
    vertex 0.999999999999999 6.0 2.0
    vertex 0.999999999999999 0.0 2.0
  endloop
endfacet
facet normal 0.0 0.0 1.0
  outer loop
    vertex 0.999999999999999 6.0 2.0
    vertex 6.0 0.0 2.0
    vertex 6.0 5.00000000000003 2.0
  endloop
endfacet
facet normal 0.0 0.0 1.0
  outer loop
    vertex 0.999999999999999 6.0 2.0
    vertex 6.0 5.00000000000003 2.0
    vertex 28.0 6.0 2.0
  endloop
endfacet
facet normal 0.0 0.0 1.0
  outer loop
    vertex 28.0 6.0 2.0
    vertex 6.0 5.00000000000003 2.0
    vertex 29.5 5.0 2.0
  endloop
endfacet
facet normal 0.0 0.0 1.0
  outer loop
    vertex 28.0 6.0 2.0
    vertex 29.5 5.0 2.0
    vertex 34.5 6.0 2.0
  endloop
endfacet
facet normal 0.0 0.0 1.0
  outer loop
    vertex 34.5 6.0 2.0
    vertex 29.5 5.0 2.0
    vertex 34.5 0.0 2.0
  endloop
endfacet
facet normal 1.0 0.0 0.0
  outer loop
    vertex 6.0 5.00000000000003 1.0
    vertex 6.0 0.0 2.0
    vertex 6.0 0.0 1.0
  endloop
endfacet
facet normal 1.0 0.0 0.0
  outer loop
    vertex 6.0 0.0 2.0
    vertex 6.0 5.00000000000003 1.0
    vertex 6.0 5.00000000000003 2.0
  endloop
endfacet
facet normal -1.10998680696034e-015 -1.0 0.0
  outer loop
    vertex 29.5 5.0 2.0
    vertex 6.0 5.00000000000003 1.0
    vertex 29.5 5.0 1.0
  endloop
endfacet
facet normal -1.10998680696034e-015 -1.0 0.0
  outer loop
    vertex 6.0 5.00000000000003 1.0
    vertex 29.5 5.0 2.0
    vertex 6.0 5.00000000000003 2.0
  endloop
endfacet
facet normal -1.0 1.12798659301916e-015 0.0
  outer loop
    vertex 29.5 5.0 2.0
    vertex 29.5 0.0 1.0
    vertex 29.5 0.0 2.0
  endloop
endfacet
facet normal -1.0 1.12798659301916e-015 0.0
  outer loop
    vertex 29.5 0.0 1.0
    vertex 29.5 5.0 2.0
    vertex 29.5 5.0 1.0
  endloop
endfacet
facet normal 0.0 1.0 0.0
  outer loop
    vertex 28.0 6.0 2.0
    vertex 34.5 6.0 1.0
    vertex 28.0 6.0 1.0
  endloop
endfacet
facet normal 0.0 1.0 0.0
  outer loop
    vertex 34.5 6.0 1.0
    vertex 28.0 6.0 2.0
    vertex 34.5 6.0 2.0
  endloop
endfacet
facet normal -1.0 0.0 0.0
  outer loop
    vertex -10.5 24.0 4.0
    vertex -10.5 0.0 3.0
    vertex -10.5 0.0 4.0
  endloop
endfacet
facet normal -1.0 0.0 0.0
  outer loop
    vertex -10.5 0.0 3.0
    vertex -10.5 24.0 4.0
    vertex -10.5 9.5 3.0
  endloop
endfacet
facet normal -1.0 0.0 0.0
  outer loop
    vertex -10.5 9.5 3.0
    vertex -10.5 24.0 4.0
    vertex -10.5 14.5 3.0
  endloop
endfacet
facet normal -1.0 0.0 0.0
  outer loop
    vertex -10.5 14.5 3.0
    vertex -10.5 24.0 4.0
    vertex -10.5 24.0 3.0
  endloop
endfacet
facet normal 1.0 9.39988827515966e-016 0.0
  outer loop
    vertex 39.5 9.5 3.0
    vertex 39.5 3.75995531006387e-015 4.0
    vertex 39.5 3.75995531006387e-015 3.0
  endloop
endfacet
facet normal 1.0 9.39988827515966e-016 0.0
  outer loop
    vertex 39.5 3.75995531006387e-015 4.0
    vertex 39.5 9.5 3.0
    vertex 39.5 24.0 4.0
  endloop
endfacet
facet normal 1.0 9.39988827515966e-016 0.0
  outer loop
    vertex 39.5 24.0 4.0
    vertex 39.5 9.5 3.0
    vertex 39.5 14.5 3.0
  endloop
endfacet
facet normal 1.0 9.39988827515966e-016 0.0
  outer loop
    vertex 39.5 24.0 4.0
    vertex 39.5 14.5 3.0
    vertex 39.5 24.0 3.0
  endloop
endfacet
facet normal 0.130526192220059 -0.99144486137381 0.0
  outer loop
    vertex 37.5 13.1 4.0
    vertex 37.2152990503872 13.062518408918 3.0
    vertex 37.5 13.1 3.0
  endloop
endfacet
facet normal 0.130526192220059 -0.99144486137381 0.0
  outer loop
    vertex 37.2152990503872 13.062518408918 3.0
    vertex 37.5 13.1 4.0
    vertex 37.2152990503872 13.062518408918 4.0
  endloop
endfacet
facet normal -0.130526192220046 -0.991444861373811 0.0
  outer loop
    vertex 37.7847009496128 13.062518408918 4.0
    vertex 37.5 13.1 3.0
    vertex 37.7847009496128 13.062518408918 3.0
  endloop
endfacet
facet normal -0.130526192220046 -0.991444861373811 0.0
  outer loop
    vertex 37.5 13.1 3.0
    vertex 37.7847009496128 13.062518408918 4.0
    vertex 37.5 13.1 4.0
  endloop
endfacet
facet normal -0.382683432365094 -0.923879532511285 0.0
  outer loop
    vertex 38.05 12.9526279441629 4.0
    vertex 37.7847009496128 13.062518408918 3.0
    vertex 38.05 12.9526279441629 3.0
  endloop
endfacet
facet normal -0.382683432365094 -0.923879532511285 0.0
  outer loop
    vertex 37.7847009496128 13.062518408918 3.0
    vertex 38.05 12.9526279441629 4.0
    vertex 37.7847009496128 13.062518408918 4.0
  endloop
endfacet
facet normal -0.608761429008708 -0.793353340291245 0.0
  outer loop
    vertex 38.2778174593052 12.7778174593052 4.0
    vertex 38.05 12.9526279441629 3.0
    vertex 38.2778174593052 12.7778174593052 3.0
  endloop
endfacet
facet normal -0.608761429008708 -0.793353340291245 0.0
  outer loop
    vertex 38.05 12.9526279441629 3.0
    vertex 38.2778174593052 12.7778174593052 4.0
    vertex 38.05 12.9526279441629 4.0
  endloop
endfacet
facet normal -0.793353340291238 -0.608761429008717 0.0
  outer loop
    vertex 38.2778174593052 12.7778174593052 4.0
    vertex 38.4526279441629 12.55 3.0
    vertex 38.4526279441629 12.55 4.0
  endloop
endfacet
facet normal -0.793353340291238 -0.608761429008717 0.0
  outer loop
    vertex 38.4526279441629 12.55 3.0
    vertex 38.2778174593052 12.7778174593052 4.0
    vertex 38.2778174593052 12.7778174593052 3.0
  endloop
endfacet
facet normal -0.92387953251128 -0.382683432365106 0.0
  outer loop
    vertex 38.4526279441629 12.55 4.0
    vertex 38.562518408918 12.2847009496128 3.0
    vertex 38.562518408918 12.2847009496128 4.0
  endloop
endfacet
facet normal -0.92387953251128 -0.382683432365106 0.0
  outer loop
    vertex 38.562518408918 12.2847009496128 3.0
    vertex 38.4526279441629 12.55 4.0
    vertex 38.4526279441629 12.55 3.0
  endloop
endfacet
facet normal -0.99144486137381 -0.130526192220058 0.0
  outer loop
    vertex 38.562518408918 12.2847009496128 4.0
    vertex 38.6 12.0 3.0
    vertex 38.6 12.0 4.0
  endloop
endfacet
facet normal -0.99144486137381 -0.130526192220058 0.0
  outer loop
    vertex 38.6 12.0 3.0
    vertex 38.562518408918 12.2847009496128 4.0
    vertex 38.562518408918 12.2847009496128 3.0
  endloop
endfacet
facet normal -0.99144486137381 0.130526192220057 0.0
  outer loop
    vertex 38.6 12.0 4.0
    vertex 38.562518408918 11.7152990503872 3.0
    vertex 38.562518408918 11.7152990503872 4.0
  endloop
endfacet
facet normal -0.99144486137381 0.130526192220057 0.0
  outer loop
    vertex 38.562518408918 11.7152990503872 3.0
    vertex 38.6 12.0 4.0
    vertex 38.6 12.0 3.0
  endloop
endfacet
facet normal -0.923879532511288 0.382683432365087 0.0
  outer loop
    vertex 38.562518408918 11.7152990503872 4.0
    vertex 38.4526279441629 11.45 3.0
    vertex 38.4526279441629 11.45 4.0
  endloop
endfacet
facet normal -0.923879532511288 0.382683432365087 0.0
  outer loop
    vertex 38.4526279441629 11.45 3.0
    vertex 38.562518408918 11.7152990503872 4.0
    vertex 38.562518408918 11.7152990503872 3.0
  endloop
endfacet
facet normal -0.79335334029124 0.608761429008715 0.0
  outer loop
    vertex 38.4526279441629 11.45 4.0
    vertex 38.2778174593052 11.2221825406948 3.0
    vertex 38.2778174593052 11.2221825406948 4.0
  endloop
endfacet
facet normal -0.79335334029124 0.608761429008715 0.0
  outer loop
    vertex 38.2778174593052 11.2221825406948 3.0
    vertex 38.4526279441629 11.45 4.0
    vertex 38.4526279441629 11.45 3.0
  endloop
endfacet
facet normal -0.608761429008723 0.793353340291233 0.0
  outer loop
    vertex 38.05 11.0473720558371 4.0
    vertex 38.2778174593052 11.2221825406948 3.0
    vertex 38.05 11.0473720558371 3.0
  endloop
endfacet
facet normal -0.608761429008723 0.793353340291233 0.0
  outer loop
    vertex 38.2778174593052 11.2221825406948 3.0
    vertex 38.05 11.0473720558371 4.0
    vertex 38.2778174593052 11.2221825406948 4.0
  endloop
endfacet
facet normal -0.382683432365091 0.923879532511286 0.0
  outer loop
    vertex 37.7847009496128 10.937481591082 4.0
    vertex 38.05 11.0473720558371 3.0
    vertex 37.7847009496128 10.937481591082 3.0
  endloop
endfacet
facet normal -0.382683432365091 0.923879532511286 0.0
  outer loop
    vertex 38.05 11.0473720558371 3.0
    vertex 37.7847009496128 10.937481591082 4.0
    vertex 38.05 11.0473720558371 4.0
  endloop
endfacet
facet normal -0.130526192220059 0.99144486137381 0.0
  outer loop
    vertex 37.5 10.9 4.0
    vertex 37.7847009496128 10.937481591082 3.0
    vertex 37.5 10.9 3.0
  endloop
endfacet
facet normal -0.130526192220059 0.99144486137381 0.0
  outer loop
    vertex 37.7847009496128 10.937481591082 3.0
    vertex 37.5 10.9 4.0
    vertex 37.7847009496128 10.937481591082 4.0
  endloop
endfacet
facet normal 0.130526192220046 0.991444861373811 0.0
  outer loop
    vertex 37.2152990503872 10.937481591082 4.0
    vertex 37.5 10.9 3.0
    vertex 37.2152990503872 10.937481591082 3.0
  endloop
endfacet
facet normal 0.130526192220046 0.991444861373811 0.0
  outer loop
    vertex 37.5 10.9 3.0
    vertex 37.2152990503872 10.937481591082 4.0
    vertex 37.5 10.9 4.0
  endloop
endfacet
facet normal 0.38268343236509 0.923879532511287 0.0
  outer loop
    vertex 36.95 11.0473720558371 4.0
    vertex 37.2152990503872 10.937481591082 3.0
    vertex 36.95 11.0473720558371 3.0
  endloop
endfacet
facet normal 0.38268343236509 0.923879532511287 0.0
  outer loop
    vertex 37.2152990503872 10.937481591082 3.0
    vertex 36.95 11.0473720558371 4.0
    vertex 37.2152990503872 10.937481591082 4.0
  endloop
endfacet
facet normal 0.608761429008711 0.793353340291243 0.0
  outer loop
    vertex 36.7221825406948 11.2221825406948 4.0
    vertex 36.95 11.0473720558371 3.0
    vertex 36.7221825406948 11.2221825406948 3.0
  endloop
endfacet
facet normal 0.608761429008711 0.793353340291243 0.0
  outer loop
    vertex 36.95 11.0473720558371 3.0
    vertex 36.7221825406948 11.2221825406948 4.0
    vertex 36.95 11.0473720558371 4.0
  endloop
endfacet
facet normal 0.793353340291238 0.608761429008717 0.0
  outer loop
    vertex 36.5473720558371 11.45 3.0
    vertex 36.7221825406948 11.2221825406948 4.0
    vertex 36.7221825406948 11.2221825406948 3.0
  endloop
endfacet
facet normal 0.793353340291238 0.608761429008717 0.0
  outer loop
    vertex 36.7221825406948 11.2221825406948 4.0
    vertex 36.5473720558371 11.45 3.0
    vertex 36.5473720558371 11.45 4.0
  endloop
endfacet
facet normal 0.92387953251128 0.382683432365107 0.0
  outer loop
    vertex 36.437481591082 11.7152990503872 3.0
    vertex 36.5473720558371 11.45 4.0
    vertex 36.5473720558371 11.45 3.0
  endloop
endfacet
facet normal 0.92387953251128 0.382683432365107 0.0
  outer loop
    vertex 36.5473720558371 11.45 4.0
    vertex 36.437481591082 11.7152990503872 3.0
    vertex 36.437481591082 11.7152990503872 4.0
  endloop
endfacet
facet normal 0.99144486137381 0.130526192220057 0.0
  outer loop
    vertex 36.4 12.0 3.0
    vertex 36.437481591082 11.7152990503872 4.0
    vertex 36.437481591082 11.7152990503872 3.0
  endloop
endfacet
facet normal 0.99144486137381 0.130526192220057 0.0
  outer loop
    vertex 36.437481591082 11.7152990503872 4.0
    vertex 36.4 12.0 3.0
    vertex 36.4 12.0 4.0
  endloop
endfacet
facet normal 0.99144486137381 -0.130526192220057 0.0
  outer loop
    vertex 36.437481591082 12.2847009496128 3.0
    vertex 36.4 12.0 4.0
    vertex 36.4 12.0 3.0
  endloop
endfacet
facet normal 0.99144486137381 -0.130526192220057 0.0
  outer loop
    vertex 36.4 12.0 4.0
    vertex 36.437481591082 12.2847009496128 3.0
    vertex 36.437481591082 12.2847009496128 4.0
  endloop
endfacet
facet normal 0.923879532511288 -0.382683432365087 0.0
  outer loop
    vertex 36.5473720558371 12.55 3.0
    vertex 36.437481591082 12.2847009496128 4.0
    vertex 36.437481591082 12.2847009496128 3.0
  endloop
endfacet
facet normal 0.923879532511288 -0.382683432365087 0.0
  outer loop
    vertex 36.437481591082 12.2847009496128 4.0
    vertex 36.5473720558371 12.55 3.0
    vertex 36.5473720558371 12.55 4.0
  endloop
endfacet
facet normal 0.793353340291238 -0.608761429008717 0.0
  outer loop
    vertex 36.7221825406948 12.7778174593052 3.0
    vertex 36.5473720558371 12.55 4.0
    vertex 36.5473720558371 12.55 3.0
  endloop
endfacet
facet normal 0.793353340291238 -0.608761429008717 0.0
  outer loop
    vertex 36.5473720558371 12.55 4.0
    vertex 36.7221825406948 12.7778174593052 3.0
    vertex 36.7221825406948 12.7778174593052 4.0
  endloop
endfacet
facet normal 0.608761429008723 -0.793353340291233 0.0
  outer loop
    vertex 36.95 12.9526279441629 4.0
    vertex 36.7221825406948 12.7778174593052 3.0
    vertex 36.95 12.9526279441629 3.0
  endloop
endfacet
facet normal 0.608761429008723 -0.793353340291233 0.0
  outer loop
    vertex 36.7221825406948 12.7778174593052 3.0
    vertex 36.95 12.9526279441629 4.0
    vertex 36.7221825406948 12.7778174593052 4.0
  endloop
endfacet
facet normal 0.382683432365096 -0.923879532511285 0.0
  outer loop
    vertex 37.2152990503872 13.062518408918 4.0
    vertex 36.95 12.9526279441629 3.0
    vertex 37.2152990503872 13.062518408918 3.0
  endloop
endfacet
facet normal 0.382683432365096 -0.923879532511285 0.0
  outer loop
    vertex 36.95 12.9526279441629 3.0
    vertex 37.2152990503872 13.062518408918 4.0
    vertex 36.95 12.9526279441629 4.0
  endloop
endfacet
facet normal -0.793353340291235 0.608761429008721 6.69492678243705e-032
  outer loop
    vertex -7.54737205583712 11.45 4.0
    vertex -7.7221825406948 11.2221825406948 3.0
    vertex -7.7221825406948 11.2221825406948 4.0
  endloop
endfacet
facet normal -0.793353340291235 0.608761429008721 6.69492678243705e-032
  outer loop
    vertex -7.7221825406948 11.2221825406948 3.0
    vertex -7.54737205583712 11.45 4.0
    vertex -7.54737205583712 11.45 3.0
  endloop
endfacet
facet normal -0.60876142900872 0.793353340291236 2.90382703934467e-032
  outer loop
    vertex -7.95 11.0473720558371 4.0
    vertex -7.7221825406948 11.2221825406948 3.0
    vertex -7.95 11.0473720558371 3.0
  endloop
endfacet
facet normal -0.60876142900872 0.793353340291236 2.90382703934467e-032
  outer loop
    vertex -7.7221825406948 11.2221825406948 3.0
    vertex -7.95 11.0473720558371 4.0
    vertex -7.7221825406948 11.2221825406948 4.0
  endloop
endfacet
facet normal -0.382683432365087 0.923879532511288 -1.08516371767801e-032
  outer loop
    vertex -8.21529905038723 10.937481591082 4.0
    vertex -7.95 11.0473720558371 3.0
    vertex -8.21529905038723 10.937481591082 3.0
  endloop
endfacet
facet normal -0.382683432365087 0.923879532511288 -1.08516371767801e-032
  outer loop
    vertex -7.95 11.0473720558371 3.0
    vertex -8.21529905038723 10.937481591082 4.0
    vertex -7.95 11.0473720558371 4.0
  endloop
endfacet
facet normal -0.130526192220053 0.99144486137381 -5.00020236065866e-032
  outer loop
    vertex -8.5 10.9 4.0
    vertex -8.21529905038723 10.937481591082 3.0
    vertex -8.5 10.9 3.0
  endloop
endfacet
facet normal -0.130526192220053 0.99144486137381 -5.00020236065866e-032
  outer loop
    vertex -8.21529905038723 10.937481591082 3.0
    vertex -8.5 10.9 4.0
    vertex -8.21529905038723 10.937481591082 4.0
  endloop
endfacet
facet normal 0.130526192220052 0.99144486137381 -8.57448547598562e-032
  outer loop
    vertex -8.78470094961277 10.937481591082 4.0
    vertex -8.5 10.9 3.0
    vertex -8.78470094961277 10.937481591082 3.0
  endloop
endfacet
facet normal 0.130526192220052 0.99144486137381 -8.57448547598562e-032
  outer loop
    vertex -8.5 10.9 3.0
    vertex -8.78470094961277 10.937481591082 4.0
    vertex -8.5 10.9 4.0
  endloop
endfacet
facet normal 0.382683432365089 0.923879532511287 -1.15644315761313e-031
  outer loop
    vertex -9.05 11.0473720558371 4.0
    vertex -8.78470094961277 10.937481591082 3.0
    vertex -9.05 11.0473720558371 3.0
  endloop
endfacet
facet normal 0.382683432365089 0.923879532511287 -1.15644315761313e-031
  outer loop
    vertex -8.78470094961277 10.937481591082 3.0
    vertex -9.05 11.0473720558371 4.0
    vertex -8.78470094961277 10.937481591082 4.0
  endloop
endfacet
facet normal 0.608761429008723 0.793353340291233 -1.37662807754905e-031
  outer loop
    vertex -9.2778174593052 11.2221825406948 4.0
    vertex -9.05 11.0473720558371 3.0
    vertex -9.2778174593052 11.2221825406948 3.0
  endloop
endfacet
facet normal 0.608761429008723 0.793353340291233 -1.37662807754905e-031
  outer loop
    vertex -9.05 11.0473720558371 3.0
    vertex -9.2778174593052 11.2221825406948 4.0
    vertex -9.05 11.0473720558371 4.0
  endloop
endfacet
facet normal 0.793353340291233 0.608761429008723 -1.50299806898546e-031
  outer loop
    vertex -9.45262794416288 11.45 3.0
    vertex -9.2778174593052 11.2221825406948 4.0
    vertex -9.2778174593052 11.2221825406948 3.0
  endloop
endfacet
facet normal 0.793353340291233 0.608761429008723 -1.50299806898546e-031
  outer loop
    vertex -9.2778174593052 11.2221825406948 4.0
    vertex -9.45262794416288 11.45 3.0
    vertex -9.45262794416288 11.45 4.0
  endloop
endfacet
facet normal 0.923879532511287 0.382683432365089 -1.52694122584227e-031
  outer loop
    vertex -9.56251840891797 11.7152990503872 3.0
    vertex -9.45262794416288 11.45 4.0
    vertex -9.45262794416288 11.45 3.0
  endloop
endfacet
facet normal 0.923879532511287 0.382683432365089 -1.52694122584227e-031
  outer loop
    vertex -9.45262794416288 11.45 4.0
    vertex -9.56251840891797 11.7152990503872 3.0
    vertex -9.56251840891797 11.7152990503872 4.0
  endloop
endfacet
facet normal 0.99144486137381 0.130526192220052 -1.4468258615476e-031
  outer loop
    vertex -9.6 12.0 3.0
    vertex -9.56251840891797 11.7152990503872 4.0
    vertex -9.56251840891797 11.7152990503872 3.0
  endloop
endfacet
facet normal 0.99144486137381 0.130526192220052 -1.4468258615476e-031
  outer loop
    vertex -9.56251840891797 11.7152990503872 4.0
    vertex -9.6 12.0 3.0
    vertex -9.6 12.0 4.0
  endloop
endfacet
facet normal 0.99144486137381 -0.130526192220052 -1.26811170578126e-031
  outer loop
    vertex -9.56251840891797 12.2847009496128 3.0
    vertex -9.6 12.0 4.0
    vertex -9.6 12.0 3.0
  endloop
endfacet
facet normal 0.99144486137381 -0.130526192220052 -1.26811170578126e-031
  outer loop
    vertex -9.6 12.0 4.0
    vertex -9.56251840891797 12.2847009496128 3.0
    vertex -9.56251840891797 12.2847009496128 4.0
  endloop
endfacet
facet normal 0.923879532511287 -0.382683432365089 -1.0029778329196e-031
  outer loop
    vertex -9.45262794416288 12.55 3.0
    vertex -9.56251840891797 12.2847009496128 4.0
    vertex -9.56251840891797 12.2847009496128 3.0
  endloop
endfacet
facet normal 0.923879532511287 -0.382683432365089 -1.0029778329196e-031
  outer loop
    vertex -9.56251840891797 12.2847009496128 4.0
    vertex -9.45262794416288 12.55 3.0
    vertex -9.45262794416288 12.55 4.0
  endloop
endfacet
facet normal 0.793353340291235 -0.608761429008721 -6.69492678243705e-032
  outer loop
    vertex -9.2778174593052 12.7778174593052 3.0
    vertex -9.45262794416288 12.55 4.0
    vertex -9.45262794416288 12.55 3.0
  endloop
endfacet
facet normal 0.793353340291235 -0.608761429008721 -6.69492678243705e-032
  outer loop
    vertex -9.45262794416288 12.55 4.0
    vertex -9.2778174593052 12.7778174593052 3.0
    vertex -9.2778174593052 12.7778174593052 4.0
  endloop
endfacet
facet normal 0.608761429008717 -0.793353340291238 -2.90382703934461e-032
  outer loop
    vertex -9.05 12.9526279441629 4.0
    vertex -9.2778174593052 12.7778174593052 3.0
    vertex -9.05 12.9526279441629 3.0
  endloop
endfacet
facet normal 0.608761429008717 -0.793353340291238 -2.90382703934461e-032
  outer loop
    vertex -9.2778174593052 12.7778174593052 3.0
    vertex -9.05 12.9526279441629 4.0
    vertex -9.2778174593052 12.7778174593052 4.0
  endloop
endfacet
facet normal 0.382683432365097 -0.923879532511284 1.08516371767784e-032
  outer loop
    vertex -8.78470094961277 13.062518408918 4.0
    vertex -9.05 12.9526279441629 3.0
    vertex -8.78470094961277 13.062518408918 3.0
  endloop
endfacet
facet normal 0.382683432365097 -0.923879532511284 1.08516371767784e-032
  outer loop
    vertex -9.05 12.9526279441629 3.0
    vertex -8.78470094961277 13.062518408918 4.0
    vertex -9.05 12.9526279441629 4.0
  endloop
endfacet
facet normal 0.130526192220048 -0.991444861373811 5.00020236065874e-032
  outer loop
    vertex -8.5 13.1 4.0
    vertex -8.78470094961277 13.062518408918 3.0
    vertex -8.5 13.1 3.0
  endloop
endfacet
facet normal 0.130526192220048 -0.991444861373811 5.00020236065874e-032
  outer loop
    vertex -8.78470094961277 13.062518408918 3.0
    vertex -8.5 13.1 4.0
    vertex -8.78470094961277 13.062518408918 4.0
  endloop
endfacet
facet normal -0.130526192220048 -0.991444861373811 8.57448547598556e-032
  outer loop
    vertex -8.21529905038723 13.062518408918 4.0
    vertex -8.5 13.1 3.0
    vertex -8.21529905038723 13.062518408918 3.0
  endloop
endfacet
facet normal -0.130526192220048 -0.991444861373811 8.57448547598556e-032
  outer loop
    vertex -8.5 13.1 3.0
    vertex -8.21529905038723 13.062518408918 4.0
    vertex -8.5 13.1 4.0
  endloop
endfacet
facet normal -0.382683432365097 -0.923879532511284 1.15644315761314e-031
  outer loop
    vertex -7.95 12.9526279441629 4.0
    vertex -8.21529905038723 13.062518408918 3.0
    vertex -7.95 12.9526279441629 3.0
  endloop
endfacet
facet normal -0.382683432365097 -0.923879532511284 1.15644315761314e-031
  outer loop
    vertex -8.21529905038723 13.062518408918 3.0
    vertex -7.95 12.9526279441629 4.0
    vertex -8.21529905038723 13.062518408918 4.0
  endloop
endfacet
facet normal -0.608761429008715 -0.79335334029124 1.37662807754905e-031
  outer loop
    vertex -7.72218254069479 12.7778174593052 4.0
    vertex -7.95 12.9526279441629 3.0
    vertex -7.72218254069479 12.7778174593052 3.0
  endloop
endfacet
facet normal -0.608761429008715 -0.79335334029124 1.37662807754905e-031
  outer loop
    vertex -7.95 12.9526279441629 3.0
    vertex -7.72218254069479 12.7778174593052 4.0
    vertex -7.95 12.9526279441629 4.0
  endloop
endfacet
facet normal -0.793353340291239 -0.608761429008716 1.50299806898547e-031
  outer loop
    vertex -7.72218254069479 12.7778174593052 4.0
    vertex -7.54737205583712 12.55 3.0
    vertex -7.54737205583712 12.55 4.0
  endloop
endfacet
facet normal -0.793353340291239 -0.608761429008716 1.50299806898547e-031
  outer loop
    vertex -7.54737205583712 12.55 3.0
    vertex -7.72218254069479 12.7778174593052 4.0
    vertex -7.72218254069479 12.7778174593052 3.0
  endloop
endfacet
facet normal -0.923879532511287 -0.382683432365089 1.52694122584227e-031
  outer loop
    vertex -7.54737205583712 12.55 4.0
    vertex -7.43748159108202 12.2847009496128 3.0
    vertex -7.43748159108202 12.2847009496128 4.0
  endloop
endfacet
facet normal -0.923879532511287 -0.382683432365089 1.52694122584227e-031
  outer loop
    vertex -7.43748159108202 12.2847009496128 3.0
    vertex -7.54737205583712 12.55 4.0
    vertex -7.54737205583712 12.55 3.0
  endloop
endfacet
facet normal -0.99144486137381 -0.130526192220053 1.4468258615476e-031
  outer loop
    vertex -7.43748159108202 12.2847009496128 4.0
    vertex -7.4 12.0 3.0
    vertex -7.4 12.0 4.0
  endloop
endfacet
facet normal -0.99144486137381 -0.130526192220053 1.4468258615476e-031
  outer loop
    vertex -7.4 12.0 3.0
    vertex -7.43748159108202 12.2847009496128 4.0
    vertex -7.43748159108202 12.2847009496128 3.0
  endloop
endfacet
facet normal -0.99144486137381 0.130526192220052 1.26811170578126e-031
  outer loop
    vertex -7.4 12.0 4.0
    vertex -7.43748159108202 11.7152990503872 3.0
    vertex -7.43748159108202 11.7152990503872 4.0
  endloop
endfacet
facet normal -0.99144486137381 0.130526192220052 1.26811170578126e-031
  outer loop
    vertex -7.43748159108202 11.7152990503872 3.0
    vertex -7.4 12.0 4.0
    vertex -7.4 12.0 3.0
  endloop
endfacet
facet normal -0.923879532511287 0.382683432365089 1.0029778329196e-031
  outer loop
    vertex -7.43748159108202 11.7152990503872 4.0
    vertex -7.54737205583712 11.45 3.0
    vertex -7.54737205583712 11.45 4.0
  endloop
endfacet
facet normal -0.923879532511287 0.382683432365089 1.0029778329196e-031
  outer loop
    vertex -7.54737205583712 11.45 3.0
    vertex -7.43748159108202 11.7152990503872 4.0
    vertex -7.43748159108202 11.7152990503872 3.0
  endloop
endfacet
facet normal -1.49492247101412e-033 -7.04991620636974e-017 -1.0
  outer loop
    vertex 35.5 14.5 3.0
    vertex 36.437481591082 12.2847009496128 3.0
    vertex 35.5 9.5 3.0
  endloop
endfacet
facet normal -1.49492247101412e-033 -7.04991620636974e-017 -1.0
  outer loop
    vertex 36.437481591082 12.2847009496128 3.0
    vertex 35.5 14.5 3.0
    vertex 36.5473720558371 12.55 3.0
  endloop
endfacet
facet normal -1.49492247101412e-033 -7.04991620636974e-017 -1.0
  outer loop
    vertex 36.5473720558371 12.55 3.0
    vertex 35.5 14.5 3.0
    vertex 36.7221825406948 12.7778174593052 3.0
  endloop
endfacet
facet normal -1.49492247101412e-033 -7.04991620636974e-017 -1.0
  outer loop
    vertex 36.7221825406948 12.7778174593052 3.0
    vertex 35.5 14.5 3.0
    vertex 36.95 12.9526279441629 3.0
  endloop
endfacet
facet normal -1.49492247101412e-033 -7.04991620636974e-017 -1.0
  outer loop
    vertex 36.95 12.9526279441629 3.0
    vertex 35.5 14.5 3.0
    vertex 39.5 14.5 3.0
  endloop
endfacet
facet normal -1.49492247101412e-033 -7.04991620636974e-017 -1.0
  outer loop
    vertex 35.5 9.5 3.0
    vertex 36.437481591082 12.2847009496128 3.0
    vertex 36.4 12.0 3.0
  endloop
endfacet
facet normal -1.49492247101412e-033 -7.04991620636974e-017 -1.0
  outer loop
    vertex 36.95 12.9526279441629 3.0
    vertex 39.5 14.5 3.0
    vertex 37.2152990503872 13.062518408918 3.0
  endloop
endfacet
facet normal -1.49492247101412e-033 -7.04991620636974e-017 -1.0
  outer loop
    vertex 37.2152990503872 13.062518408918 3.0
    vertex 39.5 14.5 3.0
    vertex 37.5 13.1 3.0
  endloop
endfacet
facet normal -1.49492247101412e-033 -7.04991620636974e-017 -1.0
  outer loop
    vertex 37.5 13.1 3.0
    vertex 39.5 14.5 3.0
    vertex 37.7847009496128 13.062518408918 3.0
  endloop
endfacet
facet normal -1.49492247101412e-033 -7.04991620636974e-017 -1.0
  outer loop
    vertex 37.7847009496128 13.062518408918 3.0
    vertex 39.5 14.5 3.0
    vertex 38.05 12.9526279441629 3.0
  endloop
endfacet
facet normal -1.49492247101412e-033 -7.04991620636974e-017 -1.0
  outer loop
    vertex 38.05 12.9526279441629 3.0
    vertex 39.5 14.5 3.0
    vertex 38.2778174593052 12.7778174593052 3.0
  endloop
endfacet
facet normal -1.49492247101412e-033 -7.04991620636974e-017 -1.0
  outer loop
    vertex 38.2778174593052 12.7778174593052 3.0
    vertex 39.5 14.5 3.0
    vertex 38.4526279441629 12.55 3.0
  endloop
endfacet
facet normal -1.49492247101412e-033 -7.04991620636974e-017 -1.0
  outer loop
    vertex 38.4526279441629 12.55 3.0
    vertex 39.5 14.5 3.0
    vertex 38.562518408918 12.2847009496128 3.0
  endloop
endfacet
facet normal -1.49492247101412e-033 -7.04991620636974e-017 -1.0
  outer loop
    vertex 38.562518408918 12.2847009496128 3.0
    vertex 39.5 14.5 3.0
    vertex 38.6 12.0 3.0
  endloop
endfacet
facet normal -1.49492247101412e-033 -7.04991620636974e-017 -1.0
  outer loop
    vertex 35.5 9.5 3.0
    vertex 36.95 11.0473720558371 3.0
    vertex 39.5 9.5 3.0
  endloop
endfacet
facet normal -1.49492247101412e-033 -7.04991620636974e-017 -1.0
  outer loop
    vertex 36.95 11.0473720558371 3.0
    vertex 35.5 9.5 3.0
    vertex 36.7221825406948 11.2221825406948 3.0
  endloop
endfacet
facet normal -1.49492247101412e-033 -7.04991620636974e-017 -1.0
  outer loop
    vertex 36.7221825406948 11.2221825406948 3.0
    vertex 35.5 9.5 3.0
    vertex 36.5473720558371 11.45 3.0
  endloop
endfacet
facet normal -1.49492247101412e-033 -7.04991620636974e-017 -1.0
  outer loop
    vertex 36.5473720558371 11.45 3.0
    vertex 35.5 9.5 3.0
    vertex 36.437481591082 11.7152990503872 3.0
  endloop
endfacet
facet normal -1.49492247101412e-033 -7.04991620636974e-017 -1.0
  outer loop
    vertex 36.437481591082 11.7152990503872 3.0
    vertex 35.5 9.5 3.0
    vertex 36.4 12.0 3.0
  endloop
endfacet
facet normal -1.49492247101412e-033 -7.04991620636974e-017 -1.0
  outer loop
    vertex 39.5 9.5 3.0
    vertex 36.95 11.0473720558371 3.0
    vertex 37.2152990503872 10.937481591082 3.0
  endloop
endfacet
facet normal -1.49492247101412e-033 -7.04991620636974e-017 -1.0
  outer loop
    vertex 39.5 9.5 3.0
    vertex 37.2152990503872 10.937481591082 3.0
    vertex 37.5 10.9 3.0
  endloop
endfacet
facet normal -1.49492247101412e-033 -7.04991620636974e-017 -1.0
  outer loop
    vertex 39.5 9.5 3.0
    vertex 37.5 10.9 3.0
    vertex 37.7847009496128 10.937481591082 3.0
  endloop
endfacet
facet normal -1.49492247101412e-033 -7.04991620636974e-017 -1.0
  outer loop
    vertex 39.5 9.5 3.0
    vertex 37.7847009496128 10.937481591082 3.0
    vertex 38.05 11.0473720558371 3.0
  endloop
endfacet
facet normal -1.49492247101412e-033 -7.04991620636974e-017 -1.0
  outer loop
    vertex 39.5 9.5 3.0
    vertex 38.05 11.0473720558371 3.0
    vertex 38.2778174593052 11.2221825406948 3.0
  endloop
endfacet
facet normal -1.49492247101412e-033 -7.04991620636974e-017 -1.0
  outer loop
    vertex 39.5 9.5 3.0
    vertex 38.2778174593052 11.2221825406948 3.0
    vertex 38.4526279441629 11.45 3.0
  endloop
endfacet
facet normal -1.49492247101412e-033 -7.04991620636974e-017 -1.0
  outer loop
    vertex 39.5 9.5 3.0
    vertex 38.4526279441629 11.45 3.0
    vertex 38.562518408918 11.7152990503872 3.0
  endloop
endfacet
facet normal -1.49492247101412e-033 -7.04991620636974e-017 -1.0
  outer loop
    vertex 39.5 9.5 3.0
    vertex 38.562518408918 11.7152990503872 3.0
    vertex 38.6 12.0 3.0
  endloop
endfacet
facet normal -1.49492247101412e-033 -7.04991620636974e-017 -1.0
  outer loop
    vertex 39.5 9.5 3.0
    vertex 38.6 12.0 3.0
    vertex 39.5 14.5 3.0
  endloop
endfacet
facet normal 1.0 1.12798659301916e-015 -1.87997765503193e-015
  outer loop
    vertex 35.5 14.5 0.0
    vertex 35.5 9.5 3.0
    vertex 35.5 9.5 0.0
  endloop
endfacet
facet normal 1.0 1.12798659301916e-015 -1.87997765503193e-015
  outer loop
    vertex 35.5 9.5 3.0
    vertex 35.5 14.5 0.0
    vertex 35.5 14.5 3.0
  endloop
endfacet
facet normal 0.6 5.20834529706044e-016 -0.8
  outer loop
    vertex 39.5 24.0 3.0
    vertex 35.5 14.5 0.0
    vertex 35.5 24.0 0.0
  endloop
endfacet
facet normal 0.6 5.20834529706044e-016 -0.8
  outer loop
    vertex 35.5 14.5 0.0
    vertex 39.5 24.0 3.0
    vertex 39.5 14.5 3.0
  endloop
endfacet
facet normal 0.0 -1.0 0.0
  outer loop
    vertex 35.5 14.5 3.0
    vertex 35.5 14.5 0.0
    vertex 39.5 14.5 3.0
  endloop
endfacet
facet normal 0.6 5.70437818249474e-016 -0.8
  outer loop
    vertex 39.5 9.5 3.0
    vertex 35.5 0.0 0.0
    vertex 35.5 9.5 0.0
  endloop
endfacet
facet normal 0.6 5.70437818249474e-016 -0.8
  outer loop
    vertex 35.5 0.0 0.0
    vertex 39.5 9.5 3.0
    vertex 39.5 3.75995531006387e-015 3.0
  endloop
endfacet
facet normal 0.0 1.0 0.0
  outer loop
    vertex 39.5 9.5 3.0
    vertex 35.5 9.5 0.0
    vertex 35.5 9.5 3.0
  endloop
endfacet
facet normal -1.0 -8.20071755527773e-033 -4.69994413757983e-016
  outer loop
    vertex -6.5 9.5 3.0
    vertex -6.5 14.5 0.0
    vertex -6.5 9.5 0.0
  endloop
endfacet
facet normal -1.0 -8.20071755527773e-033 -4.69994413757983e-016
  outer loop
    vertex -6.5 14.5 0.0
    vertex -6.5 9.5 3.0
    vertex -6.5 14.5 3.0
  endloop
endfacet
facet normal 0.0 0.0 -1.0
  outer loop
    vertex -10.5 14.5 3.0
    vertex -9.56251840891797 12.2847009496128 3.0
    vertex -10.5 9.5 3.0
  endloop
endfacet
facet normal 0.0 0.0 -1.0
  outer loop
    vertex -9.56251840891797 12.2847009496128 3.0
    vertex -10.5 14.5 3.0
    vertex -9.45262794416288 12.55 3.0
  endloop
endfacet
facet normal 0.0 0.0 -1.0
  outer loop
    vertex -9.45262794416288 12.55 3.0
    vertex -10.5 14.5 3.0
    vertex -9.2778174593052 12.7778174593052 3.0
  endloop
endfacet
facet normal 0.0 0.0 -1.0
  outer loop
    vertex -9.2778174593052 12.7778174593052 3.0
    vertex -10.5 14.5 3.0
    vertex -9.05 12.9526279441629 3.0
  endloop
endfacet
facet normal 0.0 0.0 -1.0
  outer loop
    vertex -9.05 12.9526279441629 3.0
    vertex -10.5 14.5 3.0
    vertex -6.5 14.5 3.0
  endloop
endfacet
facet normal 0.0 0.0 -1.0
  outer loop
    vertex -10.5 9.5 3.0
    vertex -9.56251840891797 12.2847009496128 3.0
    vertex -9.6 12.0 3.0
  endloop
endfacet
facet normal 0.0 0.0 -1.0
  outer loop
    vertex -9.05 12.9526279441629 3.0
    vertex -6.5 14.5 3.0
    vertex -8.78470094961277 13.062518408918 3.0
  endloop
endfacet
facet normal 0.0 0.0 -1.0
  outer loop
    vertex -8.78470094961277 13.062518408918 3.0
    vertex -6.5 14.5 3.0
    vertex -8.5 13.1 3.0
  endloop
endfacet
facet normal 0.0 0.0 -1.0
  outer loop
    vertex -8.5 13.1 3.0
    vertex -6.5 14.5 3.0
    vertex -8.21529905038723 13.062518408918 3.0
  endloop
endfacet
facet normal 0.0 0.0 -1.0
  outer loop
    vertex -8.21529905038723 13.062518408918 3.0
    vertex -6.5 14.5 3.0
    vertex -7.95 12.9526279441629 3.0
  endloop
endfacet
facet normal 0.0 0.0 -1.0
  outer loop
    vertex -7.95 12.9526279441629 3.0
    vertex -6.5 14.5 3.0
    vertex -7.72218254069479 12.7778174593052 3.0
  endloop
endfacet
facet normal 0.0 0.0 -1.0
  outer loop
    vertex -7.72218254069479 12.7778174593052 3.0
    vertex -6.5 14.5 3.0
    vertex -7.54737205583712 12.55 3.0
  endloop
endfacet
facet normal 0.0 0.0 -1.0
  outer loop
    vertex -7.54737205583712 12.55 3.0
    vertex -6.5 14.5 3.0
    vertex -7.43748159108202 12.2847009496128 3.0
  endloop
endfacet
facet normal 0.0 0.0 -1.0
  outer loop
    vertex -7.43748159108202 12.2847009496128 3.0
    vertex -6.5 14.5 3.0
    vertex -7.4 12.0 3.0
  endloop
endfacet
facet normal 0.0 0.0 -1.0
  outer loop
    vertex -10.5 9.5 3.0
    vertex -9.05 11.0473720558371 3.0
    vertex -6.5 9.5 3.0
  endloop
endfacet
facet normal 0.0 0.0 -1.0
  outer loop
    vertex -9.05 11.0473720558371 3.0
    vertex -10.5 9.5 3.0
    vertex -9.2778174593052 11.2221825406948 3.0
  endloop
endfacet
facet normal 0.0 0.0 -1.0
  outer loop
    vertex -9.2778174593052 11.2221825406948 3.0
    vertex -10.5 9.5 3.0
    vertex -9.45262794416288 11.45 3.0
  endloop
endfacet
facet normal 0.0 0.0 -1.0
  outer loop
    vertex -9.45262794416288 11.45 3.0
    vertex -10.5 9.5 3.0
    vertex -9.56251840891797 11.7152990503872 3.0
  endloop
endfacet
facet normal 0.0 0.0 -1.0
  outer loop
    vertex -9.56251840891797 11.7152990503872 3.0
    vertex -10.5 9.5 3.0
    vertex -9.6 12.0 3.0
  endloop
endfacet
facet normal 0.0 0.0 -1.0
  outer loop
    vertex -6.5 9.5 3.0
    vertex -9.05 11.0473720558371 3.0
    vertex -8.78470094961277 10.937481591082 3.0
  endloop
endfacet
facet normal 0.0 0.0 -1.0
  outer loop
    vertex -6.5 9.5 3.0
    vertex -8.78470094961277 10.937481591082 3.0
    vertex -8.5 10.9 3.0
  endloop
endfacet
facet normal 0.0 0.0 -1.0
  outer loop
    vertex -6.5 9.5 3.0
    vertex -8.5 10.9 3.0
    vertex -8.21529905038723 10.937481591082 3.0
  endloop
endfacet
facet normal 0.0 0.0 -1.0
  outer loop
    vertex -6.5 9.5 3.0
    vertex -8.21529905038723 10.937481591082 3.0
    vertex -7.95 11.0473720558371 3.0
  endloop
endfacet
facet normal 0.0 0.0 -1.0
  outer loop
    vertex -6.5 9.5 3.0
    vertex -7.95 11.0473720558371 3.0
    vertex -7.7221825406948 11.2221825406948 3.0
  endloop
endfacet
facet normal 0.0 0.0 -1.0
  outer loop
    vertex -6.5 9.5 3.0
    vertex -7.7221825406948 11.2221825406948 3.0
    vertex -7.54737205583712 11.45 3.0
  endloop
endfacet
facet normal 0.0 0.0 -1.0
  outer loop
    vertex -6.5 9.5 3.0
    vertex -7.54737205583712 11.45 3.0
    vertex -7.43748159108202 11.7152990503872 3.0
  endloop
endfacet
facet normal 0.0 0.0 -1.0
  outer loop
    vertex -6.5 9.5 3.0
    vertex -7.43748159108202 11.7152990503872 3.0
    vertex -7.4 12.0 3.0
  endloop
endfacet
facet normal 0.0 0.0 -1.0
  outer loop
    vertex -6.5 9.5 3.0
    vertex -7.4 12.0 3.0
    vertex -6.5 14.5 3.0
  endloop
endfacet
facet normal -0.6 1.9841315417373e-017 -0.8
  outer loop
    vertex -6.5 9.5 0.0
    vertex -10.5 0.0 3.0
    vertex -10.5 9.5 3.0
  endloop
endfacet
facet normal -0.6 1.9841315417373e-017 -0.8
  outer loop
    vertex -10.5 0.0 3.0
    vertex -6.5 9.5 0.0
    vertex -6.5 0.0 0.0
  endloop
endfacet
facet normal -3.52495810318487e-016 1.0 -4.69994413757983e-016
  outer loop
    vertex -6.5 9.5 3.0
    vertex -6.5 9.5 0.0
    vertex -10.5 9.5 3.0
  endloop
endfacet
facet normal -0.6 -1.9841315417373e-017 -0.8
  outer loop
    vertex -6.5 24.0 0.0
    vertex -10.5 14.5 3.0
    vertex -10.5 24.0 3.0
  endloop
endfacet
facet normal -0.6 -1.9841315417373e-017 -0.8
  outer loop
    vertex -10.5 14.5 3.0
    vertex -6.5 24.0 0.0
    vertex -6.5 14.5 0.0
  endloop
endfacet
facet normal 0.0 -1.0 0.0
  outer loop
    vertex -10.5 14.5 3.0
    vertex -6.5 14.5 0.0
    vertex -6.5 14.5 3.0
  endloop
endfacet
endsolid screencover
